<svg xmlns="http://www.w3.org/2000/svg" shape-rendering="crispEdges" viewBox="0 -0.5 139 124"><path stroke="#a04048" d="M69 0h2m-8 4h1m7 0h1M60 5h2m4 0h1m3 0h1M57 6h1m6 0h1m1 0h1M55 7h1m7 0h1m2 0h1m-5 1h1m2 0h1m3 0h1m4 0h1m10 0h1M64 9h1m4 0h2m15 0h1m-37 1h1m2 0h1m11 0h1m12 0h1m2 0h1m-32 1h1m35 0h1m4 0h1m-47 1h4m8 0h1m5 0h2m1 0h1m5 0h1m-28 1h1m1 0h1m6 0h1m1 0h1m2 0h1m16 0h1m6 0h3m-45 1h1m3 0h1m3 0h1m7 0h1m11 0h2m6 0h1m12 0h1m1 0h1m5 0h1m-51 1h2m2 0h1m3 0h1m2 0h1m4 0h2m21 0h2m1 0h1m9 0h1m-62 1h2m15 0h1m1 0h1m19 0h1m16 0h1m-30 1h1m8 0h1m4 0h1m21 0h1m-68 1h1m13 0h1m1 0h1m8 0h1m2 0h1m8 0h1m3 0h2m18 0h1m2 0h1m5 0h1m-73 1h3m10 0h2m9 0h1m1 0h1m39 0h1m2 0h1m-73 1h1m3 0h1m5 0h1m3 0h1m3 0h2m2 0h1m12 0h1m10 0h1m9 0h1m3 0h1m5 0h1m-67 1h1m5 0h1m16 0h1m31 0h1m3 0h1m-65 1h1m4 0h1m16 0h1m8 0h1m5 0h1m1 0h1m1 0h2m8 0h1m4 0h1m-41 1h1m2 0h1m2 0h1m2 0h1m1 0h1m24 0h1m2 0h1m15 0h1m2 0h2m3 0h1m1 0h1m5 0h1m2 0h1m-86 1h1m2 0h1m7 0h2m4 0h1m8 0h1m3 0h1m4 0h2m10 0h1m2 0h1m8 0h1m5 0h1m1 0h1m7 0h1m9 0h2m-91 1h2m8 0h2m4 0h2m5 0h1m3 0h1m11 0h1m6 0h1m7 0h1m12 0h1m3 0h1m2 0h1m4 0h1m13 0h1m-99 1h2m5 0h2m1 0h1m10 0h1m7 0h1m2 0h1m9 0h1m4 0h1m6 0h2m1 0h1m10 0h1m17 0h2m-94 1h1m3 0h2m2 0h1m2 0h1m1 0h1m21 0h1m37 0h1m12 0h1m8 0h1m-98 1h1m8 0h1m33 0h1m2 0h1m29 0h1m28 0h2m1 0h1m2 0h1M14 29h1m1 0h1m5 0h2m8 0h1m3 0h1m11 0h1m2 0h1m5 0h1m1 0h1m2 0h1m7 0h1m14 0h1m19 0h1m11 0h1m9 0h1M9 30h1m9 0h1m4 0h1m6 0h1m4 0h1m16 0h2m8 0h1m4 0h1m4 0h1m3 0h1m2 0h1m5 0h1m3 0h1m8 0h1m5 0h2m9 0h1m7 0h1m-91 1h2m3 0h1m1 0h1m13 0h1m11 0h3m18 0h1m7 0h2m4 0h1m2 0h1m4 0h1m5 0h1m3 0h1m1 0h1m6 0h1m1 0h1M20 32h1m9 0h2m1 0h1m4 0h1m1 0h1m18 0h1m5 0h1m11 0h2m9 0h1m11 0h1m10 0h1m1 0h1m9 0h1m6 0h1m3 0h1M5 33h1m2 0h1m3 0h2m5 0h1m17 0h1m2 0h1m13 0h1m14 0h1m5 0h2m13 0h1m2 0h2m15 0h1m25 0h1M5 34h1m19 0h1m8 0h1m6 0h1m7 0h1m16 0h1m6 0h1m6 0h1m4 0h1m4 0h1m21 0h1m3 0h1m4 0h1m3 0h1m9 0h1M11 35h1m2 0h2m3 0h1m10 0h1m1 0h1m15 0h1m11 0h1m12 0h1m5 0h1m1 0h1m2 0h1m3 0h1m8 0h2m4 0h1m1 0h1m11 0h1m1 0h1m11 0h1M5 36h1m1 0h3m6 0h1m9 0h1m23 0h1m4 0h1m1 0h1m4 0h1m1 0h1m2 0h1m2 0h1m8 0h1m5 0h1m1 0h1m8 0h1m9 0h1m5 0h1m7 0h1m3 0h1m2 0h2m3 0h1M7 37h1m2 0h1m31 0h1m2 0h1m14 0h1m2 0h1m3 0h1m7 0h1m7 0h1m18 0h1m2 0h1m6 0h1m1 0h1m5 0h2m1 0h1m4 0h1m4 0h1M10 38h1m10 0h1m3 0h1m6 0h1m11 0h1m10 0h1m20 0h1m4 0h1m7 0h1m4 0h1m2 0h2m2 0h1m5 0h2m4 0h1m2 0h1m14 0h1M22 39h1m10 0h1m1 0h1m17 0h1m20 0h1m4 0h1m10 0h1m2 0h1m4 0h1m1 0h1m7 0h1m9 0h1m4 0h1M14 40h1m2 0h2m5 0h1m4 0h1m9 0h1m1 0h1m1 0h1m9 0h1m3 0h1m3 0h1m6 0h1m1 0h1m8 0h1m9 0h1m2 0h1m19 0h2m5 0h1m-91 1h1m3 0h1m1 0h1m12 0h1m11 0h1m2 0h1m23 0h1m1 0h1m6 0h1m15 0h1m3 0h1m5 0h1m-92 1h1m5 0h1m2 0h1m2 0h1m2 0h2m12 0h1m1 0h1m18 0h1m13 0h1m3 0h1m13 0h1m5 0h1m-85 1h1m3 0h1m11 0h1m2 0h1m4 0h2m1 0h1m32 0h2m1 0h1m10 0h2m-85 1h1m7 0h1m1 0h1m4 0h1m10 0h1m14 0h1m23 0h1m4 0h1m-72 1h1m6 0h1m7 0h1m2 0h1m9 0h1m11 0h1m-38 1h1m8 0h1m7 0h1m12 0h1m2 0h1m28 0h1m2 0h2m6 0h1m8 0h1m-83 1h1m5 0h2m7 0h2m2 0h1m7 0h2m3 0h1m34 0h1m7 0h1m5 0h1m-81 1h1m2 0h1m4 0h1m6 0h1m7 0h1m40 0h1m13 0h1m-14 1h1m10 0h1m-68 1h1m10 0h1m3 0h1m42 0h1m-60 1h1m13 0h1m1 0h1m45 0h1m1 0h1m2 0h1m-63 1h1m6 0h1m53 0h1m-63 1h1m89 25h1m-8 3h2m-7 1h1m-2 1h1m-4 1h1m1 1h1m-7 1h1m0 1h1m-1 1h1"/><path stroke="#a04148" d="M67 1h1m4 1h2m0 1h2M62 4h1m11 0h1m0 1h1m3 0h1M69 6h1m4 0h1M60 7h1m6 0h1m8 0h1m3 0h2M54 8h1m11 0h1m3 0h1m6 0h1m3 0h2M55 9h1m25 0h3m3 0h1m-36 1h1m7 0h1m1 0h1m7 0h1m2 0h1m3 0h1m6 0h1m1 0h1m-38 1h1m10 0h1m8 0h1m1 0h1m4 0h1m3 0h1m4 0h1m-37 1h2m2 0h1m1 0h1m20 0h1m1 0h3m4 0h1m-43 1h1m8 0h1m15 0h1m3 0h1m18 0h1m2 0h1m-36 1h1m7 0h1m4 0h2m4 0h1m-16 1h1m8 0h1m7 0h1m14 0h1m-59 1h1m5 0h1m6 0h1m2 0h1m10 0h1m2 0h1m30 0h3m1 0h1m-67 1h1m10 0h1m21 0h2m7 0h1m8 0h1m10 0h1m-60 1h1m1 0h1m1 0h1m2 0h1m1 0h1m17 0h2m14 0h1m1 0h1m2 0h1m4 0h1m11 0h1m-74 1h1m26 0h1m2 0h2m4 0h2m18 0h1m2 0h2m11 0h1m-57 1h1m6 0h1m27 0h1m-55 1h2m9 0h1m1 0h2m4 0h1m15 0h1m12 0h1m3 0h1m3 0h1m3 0h1m5 0h1m7 0h1m6 0h1m-64 1h1m6 0h1m17 0h2m11 0h1m5 0h1m-38 1h2m2 0h1m3 0h1m24 0h1m8 0h1m11 0h1m-87 1h1m6 0h1m6 0h2m1 0h1m12 0h1m2 0h1m9 0h1m35 0h1m-76 1h1m4 0h1m7 0h1m16 0h1m4 0h1m15 0h1m6 0h1m11 0h1m3 0h1m-75 1h1m1 0h1m26 0h1m1 0h1m2 0h1m7 0h1m33 0h1m1 0h1m1 0h1m-89 1h1m26 0h1m2 0h1m24 0h1m13 0h1m15 0h1m1 0h1m6 0h1m9 0h1M21 28h1m4 0h1m12 0h1m9 0h1m8 0h1m7 0h1m12 0h1m1 0h1m5 0h1m12 0h1m10 0h1m8 0h1m5 0h1M13 29h1m4 0h1m27 0h1m13 0h2m1 0h1m1 0h1m6 0h1m5 0h1m7 0h1m6 0h1m2 0h1m2 0h1m7 0h1m4 0h1m1 0h1m4 0h1m1 0h1m1 0h1M13 30h1m3 0h1m4 0h1m18 0h1m7 0h1m9 0h1m5 0h1m36 0h1m1 0h1m7 0h1m4 0h1M8 31h1m6 0h1m2 0h1m17 0h1m10 0h1m2 0h1m5 0h2m3 0h1m1 0h1m13 0h2m8 0h1M6 32h1m1 0h1m2 0h2m9 0h2m18 0h1m9 0h1m8 0h1m6 0h1m6 0h1m10 0h1m10 0h1m16 0h1m16 0h1m1 0h1M9 33h2m5 0h1m11 0h1m10 0h1m4 0h1m13 0h1m5 0h1m9 0h1m2 0h1m18 0h1m7 0h1m3 0h1m5 0h1m10 0h1m3 0h1M8 34h1m1 0h1m9 0h1m9 0h1m1 0h1m2 0h1m9 0h1m12 0h1m24 0h1m5 0h1m1 0h1m2 0h1m7 0h1m6 0h1m7 0h2M7 35h2m17 0h1m10 0h1m8 0h1m24 0h2m13 0h1m6 0h1m16 0h1m4 0h1m12 0h1m9 0h1M10 36h1m6 0h1m3 0h1m7 0h1m9 0h1m11 0h1m25 0h1m5 0h1m13 0h1m3 0h1m17 0h1m13 0h1M9 37h1m12 0h1m3 0h2m23 0h1m12 0h1m3 0h1m17 0h3m7 0h1m7 0h1m5 0h1m2 0h1m5 0h1m4 0h1m1 0h1m3 0h1m1 0h1M12 38h1m1 0h2m46 0h2m8 0h1m5 0h1m13 0h1m26 0h1m1 0h1m4 0h1M13 39h1m5 0h1m3 0h1m10 0h1m3 0h1m17 0h1m7 0h1m2 0h1m1 0h1m26 0h1m5 0h1m19 0h1m-89 1h1m3 0h1m1 0h1m6 0h1m1 0h2m18 0h1m1 0h1m6 0h1m3 0h1m2 0h1m7 0h1m6 0h1m8 0h1m1 0h1m8 0h1m2 0h1m3 0h1M15 41h1m24 0h1m2 0h1m6 0h2m12 0h1m7 0h1m12 0h2m15 0h1m1 0h1m14 0h1m-99 1h1m8 0h1m7 0h1m30 0h1m24 0h1m10 0h1m3 0h1m5 0h1m-96 1h1m4 0h1m1 0h1m3 0h1m10 0h1m12 0h1m7 0h1m19 0h1m1 0h1m3 0h1m7 0h1m16 0h1m1 0h1m1 0h1m1 0h1m-99 1h1m6 0h1m14 0h1m1 0h1m40 0h1m19 0h1m12 0h1m-76 1h2m9 0h1m2 0h1m1 0h1m25 0h1m3 0h2m1 0h2m3 0h1m8 0h1m6 0h1m-90 1h1m4 0h1m2 0h1m3 0h1m2 0h1m11 0h1m37 0h1m14 0h1m-78 1h1m7 0h1m10 0h1m2 0h1m5 0h1m36 0h1m4 0h1m10 0h1m2 0h1m-78 1h1m3 0h1m9 0h2m1 0h1m2 0h1m35 0h1m5 0h1m2 0h1m-66 1h1m1 0h1m4 0h2m2 0h1m49 0h1m11 0h2m-74 1h1m4 0h1m11 0h1m42 0h3m4 0h1m2 0h1m-64 1h1m2 0h1m50 0h1m1 0h1m-62 1h1m6 0h1m57 0h1m-62 2h1m1 1h1m84 23h1m-5 2h1m-5 2h2m1 0h1m-7 1h1m2 0h1m-9 2h1m4 0h1m-8 1h1m0 2h1"/><path stroke="#a04049" d="M68 1h1m1 1h1m-2 1h1m-9 1h1m7 0h1m5 0h1M62 5h1m8 0h3m2 0h1M58 6h1m2 0h1m11 0h1m7 0h1M56 7h1m7 0h1m5 0h2m6 0h1m3 0h1M55 8h2m2 0h1m-7 1h1m3 0h1m2 0h1m1 0h1m2 0h1m10 0h1m1 0h1m6 0h1m-23 1h1m4 0h2m2 0h1m9 0h2m5 0h1m-18 1h1m5 0h1m-28 1h1m2 0h1m4 0h1m1 0h1m8 0h2m15 0h1m3 0h2m-47 1h1m8 0h1m5 0h1m7 0h2m6 0h1m-30 1h1m2 0h1m3 0h2m5 0h2m22 0h1m-44 1h1m3 0h1m9 0h1m9 0h1m1 0h1m3 0h2m2 0h1m5 0h2m11 0h2m-56 1h1m12 0h1m5 0h1m3 0h1m10 0h1m8 0h1m5 0h1m2 0h1m6 0h1m-64 1h1m4 0h1m4 0h2m9 0h1m1 0h1m9 0h1m12 0h1m15 0h1m-33 1h1m4 0h1m7 0h1m15 0h1m2 0h1m-64 1h1m3 0h1m7 0h1m6 0h1m12 0h5m2 0h1m3 0h1m2 0h1m1 0h1m3 0h1m5 0h1m1 0h1m6 0h1m-67 1h1m4 0h1m18 0h1m1 0h1m3 0h1m1 0h1m2 0h2m2 0h1m3 0h1m2 0h1m20 0h1m-40 1h1m8 0h1m5 0h1m8 0h1m9 0h1m3 0h2m1 0h2m-78 1h1m2 0h1m2 0h1m7 0h1m6 0h1m1 0h1m2 0h1m11 0h1m4 0h1m2 0h1m1 0h1m5 0h1m23 0h1m2 0h1m-86 1h1m15 0h1m7 0h1m21 0h1m19 0h1m3 0h1m13 0h1m2 0h1m-90 1h1m20 0h1m8 0h1m16 0h2m10 0h1m2 0h2m5 0h1m4 0h1m11 0h3m-95 1h1m1 0h1m2 0h1m4 0h1m15 0h1m10 0h1m13 0h1m21 0h1m3 0h1m1 0h1m8 0h1m-88 1h1m2 0h1m6 0h1m35 0h1m2 0h1m15 0h1m4 0h1m13 0h1m4 0h1m2 0h1m8 0h1M21 27h1m9 0h1m6 0h1m2 0h2m10 0h1m3 0h1m10 0h2m4 0h1m2 0h1m25 0h1m2 0h1m6 0h2m2 0h1m4 0h3M14 28h1m3 0h1m1 0h1m3 0h1m29 0h1m10 0h1m1 0h1m1 0h1m8 0h1m6 0h1m-67 1h2m10 0h1m6 0h1m10 0h2m2 0h1m2 0h1m11 0h1m10 0h1m10 0h1m20 0h1m16 0h1M14 30h1m8 0h1m2 0h1m7 0h1m17 0h1m5 0h1m1 0h2m12 0h1m10 0h1m28 0h1m3 0h1m4 0h1m1 0h1M11 31h1m21 0h1m4 0h1m3 0h1m1 0h2m16 0h1m1 0h1m1 0h1m9 0h1m9 0h1m7 0h1m5 0h1m20 0h1m1 0h1M9 32h1m6 0h1m9 0h1m24 0h1m6 0h1m1 0h1m12 0h1m10 0h1m16 0h1m13 0h3m4 0h1M4 33h1m2 0h1m12 0h1m6 0h1m2 0h1m1 0h3m3 0h1m9 0h1m18 0h1m38 0h1m6 0h1m4 0h3m5 0h2M6 34h1m2 0h1m11 0h1m1 0h1m3 0h3m10 0h1m1 0h1m4 0h1m5 0h1m8 0h1m2 0h1m2 0h1m6 0h1m3 0h1m7 0h1m10 0h1m1 0h1m26 0h2m1 0h1m7 0h1M25 35h1m7 0h1m11 0h1m1 0h1m1 0h2m2 0h1m2 0h1m1 0h1m26 0h1m6 0h1m1 0h1m7 0h1m3 0h2m3 0h1m1 0h1m6 0h1m1 0h1m13 0h1M32 36h1m4 0h1m3 0h1m2 0h1m9 0h1m6 0h1m4 0h1m13 0h1m7 0h1m32 0h1m12 0h1M8 37h1m2 0h1m2 0h2m1 0h1m13 0h1m4 0h1m4 0h1m5 0h1m30 0h1m2 0h1m2 0h2m3 0h1m7 0h2m4 0h1m11 0h1m9 0h1m8 0h1M16 38h1m9 0h1m2 0h1m3 0h1m12 0h1m3 0h1m10 0h1m6 0h1m24 0h1m10 0h1m4 0h1m1 0h1m10 0h1m5 0h1M27 39h1m4 0h1m17 0h1m3 0h1m5 0h1m1 0h2m4 0h1m1 0h1m10 0h1m2 0h2m5 0h1m2 0h1m4 0h1m3 0h1m6 0h1m3 0h2m5 0h1m8 0h1M19 40h1m6 0h2m8 0h2m18 0h1m15 0h1m1 0h1m11 0h2m2 0h1m7 0h1m4 0h1m1 0h1m10 0h1m1 0h1m-81 1h1m16 0h2m13 0h1m7 0h2m1 0h1m12 0h1m10 0h1m1 0h1m3 0h1m-94 1h1m1 0h1m21 0h1m9 0h1m6 0h1m3 0h3m16 0h1m2 0h2m13 0h1m19 0h1m-92 1h1m4 0h1m5 0h1m7 0h1m16 0h1m1 0h1m14 0h1m1 0h1m3 0h1m4 0h1m5 0h4m3 0h1m12 0h1m-82 1h1m3 0h1m4 0h1m8 0h1m7 0h1m19 0h1m3 0h1m8 0h1m4 0h1m8 0h1m5 0h1m-90 1h1m1 0h1m18 0h1m10 0h1m2 0h1m33 0h1m16 0h1m-88 1h1m5 0h1m1 0h1m4 0h1m2 0h1m6 0h1m41 0h1m4 0h1m1 0h2m8 0h1m1 0h1m3 0h1m-89 1h1m33 0h1m28 0h1m6 0h2m7 0h1m4 0h1m-81 1h1m2 0h1m59 0h1m1 0h1m5 0h2m6 0h1m1 0h1m-80 1h1m8 0h1m6 0h1m3 0h1m44 0h1m2 0h1m1 0h1m4 0h1m-73 1h1m8 0h1m57 0h1m-69 1h1m3 0h2m2 0h1m2 0h1m-10 1h1m64 0h1m-55 1h1m-7 1h1m88 25h1m-11 2h1m4 0h1m-11 5h1m-2 1h1"/><path stroke="#a14049" d="M69 1h3m-4 1h1m-6 1h1m6 0h2m4 0h1M66 4h1m6 0h1M59 6h1m11 0h1M57 7h1m1 0h1m5 0h1m6 0h1m10 0h1M58 8h1m4 0h1m11 0h2M52 9h1m10 0h1m7 0h1m3 0h1m-25 1h1m22 0h2m4 0h1m7 0h1m-34 1h1m1 0h1m1 0h1m5 0h1m11 0h1m9 0h1m1 0h1m-34 1h1m1 0h1m6 0h1m8 0h1m6 0h1m6 0h1m1 0h1m-43 1h1m4 0h1m4 0h1m19 0h1m8 0h1m1 0h1m3 0h1m1 0h1m-53 1h2m1 0h1m5 0h1m7 0h1m3 0h1m-23 1h1m7 0h1m2 0h1m24 0h1m-35 1h1m6 0h1m5 0h1m2 0h1m1 0h1m6 0h1m9 0h1m3 0h2m4 0h1m-51 1h1m1 0h1m8 0h1m21 0h1m12 0h2m5 0h2m9 0h1m-71 1h2m18 0h1m10 0h2m17 0h1m2 0h1m8 0h1m7 0h1m-66 1h1m9 0h1m2 0h3m21 0h1m10 0h1m1 0h1m5 0h1m-66 1h1m1 0h1m10 0h1m8 0h1m20 0h1m10 0h1m7 0h1m16 0h1m-69 1h1m3 0h1m9 0h2m1 0h1m13 0h1m2 0h1m8 0h1m3 0h1m-60 1h2m6 0h1m1 0h1m2 0h3m16 0h1m21 0h1m6 0h1m1 0h2m17 0h1m-77 1h1m2 0h2m17 0h1m2 0h1m2 0h1m3 0h1m4 0h1m11 0h2m4 0h1m1 0h2m1 0h1m7 0h1m2 0h1m2 0h1m-86 1h1m13 0h1m1 0h2m8 0h1m2 0h1m6 0h1m3 0h1m3 0h2m17 0h1m9 0h1m12 0h1m8 0h1m-85 1h1m6 0h1m4 0h1m17 0h1m1 0h1m2 0h1m8 0h1m3 0h1m2 0h1m2 0h1m14 0h1m7 0h1m5 0h2m-84 1h1m9 0h1m3 0h1m1 0h1m18 0h1m6 0h1m1 0h1m4 0h1m1 0h2m3 0h2m3 0h1m2 0h2m10 0h1m-96 1h1m13 0h1m5 0h1m34 0h1m8 0h1m1 0h1m4 0h1m9 0h1m1 0h1m5 0h1m10 0h1M16 28h2m5 0h1m6 0h1m13 0h1m10 0h1m6 0h1m7 0h1m19 0h1m4 0h1m2 0h1m5 0h1m1 0h1m-92 1h1m8 0h1m8 0h1m3 0h1m16 0h1m36 0h1m11 0h2m3 0h1m7 0h1m9 0h1M10 30h1m1 0h1m15 0h1m4 0h1m11 0h1m2 0h1m2 0h1m3 0h1m14 0h1m5 0h1m6 0h1m8 0h2m2 0h1m4 0h1m1 0h1m18 0h1m3 0h1m1 0h1m1 0h1M16 31h1m9 0h2m1 0h2m15 0h1m1 0h1m21 0h3m16 0h2m2 0h1m1 0h1m5 0h1m7 0h1m9 0h1m4 0h1m2 0h1M27 32h1m19 0h1m1 0h1m6 0h1m6 0h1m19 0h1m1 0h1m6 0h1m1 0h3m5 0h1m5 0h1M3 33h1m32 0h1m4 0h1m14 0h1m13 0h1m10 0h1m5 0h3m2 0h1m5 0h1m6 0h1m5 0h1m9 0h1m10 0h1M15 34h1m2 0h1m7 0h1m11 0h1m12 0h2m7 0h1m3 0h1m12 0h2m3 0h1m5 0h1m6 0h1m3 0h1m4 0h1m18 0h1m8 0h1M3 35h1m14 0h1m1 0h2m1 0h1m5 0h1m5 0h1m2 0h1m1 0h1m58 0h1m8 0h1m15 0h1m4 0h1M12 36h3m5 0h1m6 0h2m4 0h1m8 0h1m6 0h1m6 0h1m24 0h2m3 0h1m11 0h2m3 0h3m1 0h1m2 0h1m24 0h1M24 37h1m8 0h1m5 0h1m10 0h1m5 0h1m1 0h1m3 0h1m8 0h1m1 0h1m18 0h2m28 0h1M22 38h1m1 0h1m13 0h1m12 0h1m8 0h1m3 0h2m1 0h1m1 0h1m13 0h2m14 0h2m11 0h1m11 0h1M17 39h1m6 0h3m1 0h2m14 0h1m3 0h2m8 0h1m12 0h1m17 0h1m2 0h1m4 0h1m7 0h1m1 0h1m4 0h1m7 0h1m6 0h1M16 40h1m3 0h1m23 0h1m1 0h1m7 0h1m9 0h1m15 0h1m7 0h1m8 0h1m4 0h1m4 0h2m6 0h1M16 41h1m1 0h1m15 0h1m1 0h1m8 0h2m2 0h1m9 0h1m1 0h1m3 0h1m16 0h1m17 0h1m9 0h1m12 0h1M24 42h1m7 0h1m1 0h1m4 0h1m8 0h1m41 0h1m2 0h1m13 0h1m10 0h1m5 0h1M23 43h1m2 0h1m3 0h1m2 0h1m2 0h3m10 0h1m6 0h1m11 0h1m18 0h1m6 0h1m26 0h1m-62 1h2m24 0h1m3 0h1m2 0h1m16 0h1m1 0h1m-90 1h1m3 0h1m7 0h1m3 0h1m7 0h2m3 0h1m2 0h1m6 0h1m30 0h1m2 0h1m3 0h1m8 0h1m7 0h1m-79 1h1m9 0h1m1 0h1m10 0h2m24 0h1m15 0h1m7 0h2m-84 1h1m2 0h1m8 0h1m11 0h1m3 0h1m37 0h1m10 0h1m-78 1h1m2 0h1m7 0h1m64 0h1m-76 1h1m16 0h1m47 0h1m-56 1h1m2 0h1m6 0h2m48 0h1m4 1h1m-66 1h1m2 0h2m-6 1h1m4 0h1m1 1h1m81 23h1m-7 3h1m-3 2h1m-1 1h1m-4 2h1m-4 1h1m1 0h1m-9 2h1"/><path stroke="#a04149" d="M72 1h1m-4 1h1m-6 1h1m1 0h1m-2 1h1m8 1h1m5 0h1M60 6h1m7 0h1m8 0h1m4 0h1M61 8h1m2 0h1m15 0h1M51 9h1m2 0h1m13 0h1m8 0h1m-23 1h1m2 0h1m5 0h1m11 0h1m-29 1h1m5 0h1m1 0h1m4 0h1m1 0h1m9 0h1m5 0h1m2 0h1m1 0h1m-18 1h2m-19 1h1m9 0h1m5 0h1m6 0h3m3 0h1m-27 1h1m11 0h2m4 0h1m3 0h1m8 0h1m4 0h1m1 0h1m2 0h1m-49 1h1m21 0h1m6 0h2m4 0h1m16 0h1m-61 1h1m10 0h1m31 0h1m4 0h1m3 0h1m5 0h1m-60 1h1m2 0h1m5 0h1m6 0h1m2 0h1m1 0h1m1 0h1m18 0h1m3 0h1m4 0h1m5 0h1m-59 1h1m5 0h1m1 0h1m2 0h1m2 0h1m3 0h1m1 0h1m5 0h1m6 0h1m1 0h1m17 0h1m8 0h1m2 0h2m-67 1h1m6 0h1m16 0h1m13 0h1m31 0h3m-73 1h1m4 0h1m11 0h1m13 0h1m10 0h1m8 0h3m16 0h1m2 0h1m-79 1h1m11 0h1m12 0h1m2 0h2m6 0h1m4 0h1m4 0h2m7 0h1m14 0h1m4 0h1m-75 1h2m49 0h1m3 0h2m4 0h1m3 0h1m6 0h1m3 0h1m4 0h2m-90 1h1m10 0h1m11 0h1m11 0h1m4 0h1m2 0h2m11 0h2m4 0h1m21 0h1m-67 1h2m3 0h1m13 0h1m18 0h1m-51 1h1m1 0h1m1 0h1m14 0h2m6 0h2m7 0h2m4 0h1m1 0h1m3 0h1m10 0h2m2 0h1m9 0h1m11 0h1m-84 1h2m13 0h1m23 0h1m20 0h1m19 0h1m1 0h1m2 0h1m1 0h1m-97 1h1m24 0h1m1 0h2m5 0h1m8 0h1m7 0h1m5 0h1m1 0h1m6 0h2m6 0h1m9 0h1m-82 1h2m6 0h1m6 0h1m2 0h1m11 0h1m5 0h1m10 0h2m1 0h1m2 0h1m5 0h1m1 0h1m18 0h2m4 0h2m-90 1h1m3 0h1m15 0h1m6 0h1m13 0h1m2 0h1m7 0h1m5 0h2m2 0h1m9 0h2m1 0h2m4 0h1m2 0h1m12 0h1M21 30h1m8 0h1m4 0h1m31 0h1m1 0h1m1 0h1m3 0h1m3 0h1m8 0h2m18 0h2m3 0h1m7 0h1m5 0h1M7 31h1m6 0h1m2 0h1m1 0h1m3 0h2m3 0h1m20 0h1m3 0h1m19 0h2m4 0h1m12 0h1m6 0h1m7 0h2m2 0h2m17 0h1M17 32h1m3 0h1m7 0h1m2 0h1m3 0h1m6 0h3m8 0h1m12 0h1m2 0h1m8 0h3m9 0h1m7 0h1m3 0h1m3 0h1m11 0h1m4 0h1m2 0h2M6 33h1m4 0h1m2 0h1m6 0h2m6 0h1m5 0h1m7 0h1m8 0h2m6 0h2m38 0h1m1 0h2m13 0h1m17 0h1M3 34h2m8 0h2m4 0h1m2 0h1m44 0h1m3 0h1m14 0h1m6 0h1m2 0h1m9 0h2m2 0h2m3 0h1m15 0h1m4 0h1M16 35h1m10 0h2m5 0h1m7 0h1m8 0h1m3 0h1m6 0h1m6 0h1m7 0h1m9 0h1m1 0h1m19 0h1m2 0h1m1 0h1m3 0h1m13 0h1m2 0h1M18 36h1m4 0h2m5 0h1m4 0h1m4 0h1m6 0h1m4 0h1m6 0h2m2 0h1m5 0h1m2 0h1m5 0h1m14 0h1m6 0h1m1 0h1m8 0h1m1 0h1m1 0h1m7 0h1m1 0h1M16 37h1m20 0h1m8 0h1m1 0h1m4 0h2m2 0h1m1 0h1m5 0h2m2 0h1m2 0h1m6 0h1m28 0h1m7 0h1M9 38h1m7 0h1m19 0h1m2 0h4m4 0h1m3 0h1m34 0h1m15 0h1m1 0h1m8 0h2m7 0h1m6 0h1m1 0h1M11 39h1m19 0h1m4 0h1m5 0h1m2 0h1m5 0h1m5 0h1m3 0h1m4 0h1m8 0h3m4 0h2m2 0h1m14 0h1m4 0h1m2 0h1m-89 1h3m11 0h1m9 0h1m2 0h1m9 0h1m4 0h1m2 0h1m9 0h1m4 0h1m12 0h2m8 0h1m9 0h1m7 0h1M23 41h1m1 0h1m1 0h1m2 0h1m1 0h1m24 0h2m3 0h1m5 0h1m14 0h2m12 0h1m11 0h1m7 0h2m2 0h1m2 0h3M19 42h1m5 0h2m1 0h1m7 0h1m7 0h1m5 0h1m5 0h1m13 0h2m15 0h1m1 0h1m7 0h1m16 0h1m1 0h1m5 0h1m-91 1h1m8 0h1m1 0h1m9 0h1m4 0h1m44 0h1m9 0h1m1 0h1m6 0h1M23 44h2m2 0h1m3 0h1m17 0h1m7 0h1m36 0h1m3 0h2m3 0h2m8 0h3m3 0h1m-82 1h1m2 0h2m14 0h2m27 0h1m3 0h1m15 0h2m3 0h3m2 0h1m-71 1h1m48 0h1m18 0h1m-83 1h1m67 0h1m-63 1h1m9 0h1m5 0h1m2 0h1m1 0h1m45 0h1m5 0h1m-57 1h1m1 0h1m37 0h1m3 0h1m2 0h1m3 0h2m-74 1h2m10 0h1m55 0h1m-65 1h1m2 0h1m7 0h1m-2 1h1m52 0h1m28 25h1m-3 1h1m-2 1h1m2 0h1m-6 1h1m-2 2h1m-12 4h1m0 1h1m-4 1h1"/><path stroke="#a14148" d="M65 2h2m4 0h1m2 0h1m-7 1h1m4 0h1M64 4h1m2 0h2m9 0h1M69 5h1m8 0h1M65 6h1m10 0h1M61 7h2m16 0h1M53 8h1m13 0h2m14 0h1M72 9h1m1 0h1m4 0h2m-27 1h1m2 0h1m1 0h1m6 0h1m4 0h1m7 0h1m5 0h1m1 0h1m-35 1h1m4 0h1m3 0h1m3 0h2m7 0h1m7 0h1m4 0h1m-37 1h1m9 0h1m12 0h1m13 0h1m4 0h1m-46 1h1m13 0h1m1 0h1m15 0h1m4 0h1m3 0h1m-44 1h1m13 0h1m14 0h1m4 0h1m1 0h1m1 0h1m1 0h1m-49 1h1m4 0h2m5 0h1m2 0h1m15 0h1m18 0h1m2 0h1m1 0h1m-50 1h1m1 0h1m4 0h1m6 0h1m15 0h1m6 0h1m5 0h1m3 0h1m4 0h1m-63 1h1m8 0h2m8 0h1m7 0h2m10 0h1m15 0h2m3 0h3m1 0h1m1 0h1m2 0h1m-48 1h1m12 0h1m3 0h1m3 0h1m9 0h1m4 0h1m-55 1h1m2 0h1m1 0h1m21 0h1m11 0h2m1 0h1m2 0h1m20 0h1m-67 1h1m19 0h2m14 0h1m9 0h1m12 0h1m1 0h4m6 0h1m-84 1h1m9 0h2m9 0h1m1 0h1m7 0h1m11 0h1m2 0h1m17 0h1m7 0h1m10 0h1m1 0h1m-78 1h1m3 0h2m3 0h1m10 0h1m2 0h1m2 0h1m1 0h1m1 0h1m12 0h1m1 0h1m5 0h1m8 0h1m2 0h1m6 0h1m-77 1h2m15 0h1m8 0h1m2 0h1m4 0h2m2 0h1m4 0h1m1 0h1m1 0h1m-48 1h1m1 0h2m1 0h1m15 0h1m2 0h1m7 0h1m7 0h3m6 0h1m-59 1h1m1 0h2m15 0h1m4 0h1m2 0h1m14 0h2m7 0h1m2 0h1m6 0h1m7 0h1m12 0h1m3 0h1m3 0h1m1 0h3m5 0h1m-83 1h4m13 0h1m1 0h1m2 0h1m1 0h1m2 0h1m7 0h1m6 0h1m1 0h1m12 0h1m2 0h1m3 0h1m-85 1h1m8 0h1m1 0h1m3 0h1m1 0h1m1 0h1m2 0h1m25 0h1m3 0h1m13 0h1m4 0h1m5 0h2m3 0h1m11 0h1m6 0h1M15 28h1m13 0h1m6 0h1m4 0h1m1 0h1m16 0h1m7 0h1m3 0h2m9 0h1m9 0h1m3 0h1m1 0h1m1 0h2m6 0h1m2 0h1m9 0h1m2 0h1M17 29h1m8 0h1m16 0h1m3 0h1m16 0h1m9 0h1m5 0h1m21 0h1m7 0h1m2 0h1m6 0h1M11 30h1m8 0h1m11 0h1m4 0h2m1 0h1m2 0h1m6 0h1m6 0h1m6 0h1m7 0h1m14 0h1m3 0h1m2 0h2m4 0h1m9 0h2m7 0h1m-89 1h1m22 0h1m29 0h1m18 0h2m1 0h1m10 0h2m13 0h1M10 32h1m8 0h1m21 0h1m8 0h1m6 0h1m4 0h1m1 0h1m6 0h1m4 0h1m13 0h1m2 0h1m10 0h1m5 0h1m7 0h1m7 0h1m5 0h1M31 33h1m13 0h1m3 0h1m5 0h1m10 0h1m1 0h1m2 0h2m5 0h1m3 0h1m3 0h1m14 0h1m5 0h1m8 0h1m5 0h1m7 0h1M24 34h1m6 0h1m7 0h1m3 0h1m4 0h1m6 0h2m2 0h1m12 0h1m1 0h1m6 0h1m10 0h1m8 0h1m11 0h1m8 0h1M4 35h1m12 0h1m13 0h1m4 0h1m15 0h1m4 0h1m5 0h2m2 0h1m2 0h1m4 0h2m6 0h1m16 0h2m14 0h1m8 0h1m4 0h1m3 0h1M15 36h1m6 0h1m2 0h1m32 0h1m9 0h1m2 0h1m2 0h3m12 0h1m18 0h2m4 0h1m1 0h2m4 0h1m3 0h1M19 37h2m8 0h1m4 0h1m5 0h1m3 0h1m7 0h1m8 0h1m12 0h1m5 0h1m9 0h1m4 0h1m4 0h1m28 0h1m1 0h1M11 38h1m1 0h1m5 0h1m19 0h1m13 0h1m3 0h1m15 0h1m1 0h1m6 0h1m27 0h1m14 0h1M12 39h1m8 0h1m15 0h1m3 0h1m1 0h1m3 0h1m24 0h1m5 0h1m1 0h1m7 0h1m22 0h1m7 0h1m6 0h1M13 40h1m11 0h1m4 0h1m2 0h1m17 0h1m8 0h1m1 0h1m2 0h1m1 0h1m23 0h1m14 0h1m10 0h1m8 0h1m1 0h1M19 41h1m8 0h1m2 0h1m5 0h1m3 0h2m28 0h1m8 0h1m27 0h1m11 0h1m-98 1h1m3 0h1m1 0h1m11 0h1m3 0h1m3 0h1m4 0h2m1 0h1m8 0h2m12 0h1m10 0h1m4 0h1m6 0h2m7 0h1m-94 1h1m1 0h2m22 0h1m6 0h1m8 0h1m2 0h1m39 0h1m-77 1h1m1 0h1m4 0h1m1 0h1m1 0h1m13 0h3m6 0h1m3 0h1m25 0h1m12 0h1m12 0h1m-75 1h1m9 0h1m33 0h2m11 0h1m2 0h2m12 0h1m-94 1h1m4 0h1m5 0h1m15 0h1m4 0h1m2 0h1m35 0h1m6 0h1m-66 1h1m1 0h1m4 0h1m3 0h1m2 0h1m39 0h1m8 0h1m2 0h2m-63 1h1m56 0h1m7 0h1m-77 1h1m2 0h1m3 0h2m15 0h1m-18 1h2m2 0h1m6 0h1m4 0h1m50 0h1m-71 1h1m15 0h1m49 0h2m1 0h1m-67 2h1m4 1h1m-1 1h1m82 23h1m1 0h1m-1 1h1m-2 1h1m-12 4h1m-8 3h1m2 0h1m-4 1h1"/><path stroke="#a14149" d="M67 2h1m-3 1h1m1 0h1m4 0h1m3 1h2M63 5h1m1 0h1m2 0h1m8 0h1m-6 1h1m2 0h1m-8 1h2m3 0h1m1 0h1M60 8h1m11 0h1m5 0h1m5 0h1m1 0h1M67 9h1m16 0h1m3 0h1m-40 1h1m6 0h1m4 0h1m28 0h1m-44 1h1m3 0h1m12 0h1m16 0h1m-22 1h1m16 0h1m5 0h2m-34 1h1m5 0h1m4 0h1m17 0h1m7 0h1m3 0h1m3 0h1m-55 1h1m7 0h1m7 0h1m15 0h1m18 0h1m1 0h1m1 0h1m-43 1h1m2 0h1m7 0h1m12 0h1m11 0h1m7 0h1m-54 1h1m7 0h1m13 0h1m1 0h2m1 0h1m3 0h1m2 0h1m6 0h1m-46 1h1m8 0h2m4 0h1m7 0h1m7 0h1m2 0h1m5 0h1m6 0h1m-53 1h1m7 0h1m6 0h1m5 0h2m1 0h1m13 0h1m3 0h1m26 0h1m-75 1h1m7 0h1m4 0h1m4 0h1m13 0h1m12 0h1m14 0h1m3 0h1m3 0h1m-68 1h1m1 0h1m9 0h2m8 0h3m21 0h2m12 0h3m1 0h1m-66 1h1m1 0h2m9 0h2m15 0h1m1 0h1m3 0h2m9 0h1m13 0h1m1 0h2m6 0h1m7 0h1m-86 1h1m22 0h2m45 0h1m2 0h2m5 0h2m3 0h1m-89 1h1m2 0h1m1 0h1m4 0h1m1 0h1m13 0h1m28 0h1m9 0h1m1 0h1m7 0h1m2 0h1m1 0h1m9 0h1m2 0h1m-95 1h1m1 0h1m1 0h1m18 0h1m12 0h1m23 0h1m9 0h2m4 0h1m8 0h1m-80 1h1m11 0h1m11 0h1m1 0h1m22 0h1m23 0h1m7 0h1m5 0h1m-99 1h1m8 0h1m9 0h1m6 0h1m8 0h1m11 0h1m6 0h1m2 0h1m8 0h1m26 0h1m3 0h1m1 0h2m4 0h1m-98 1h1m8 0h1m8 0h1m1 0h1m2 0h1m7 0h1m3 0h1m1 0h4m13 0h1m27 0h1m1 0h1m8 0h1m1 0h1M19 28h1m13 0h2m2 0h2m1 0h1m6 0h2m1 0h3m8 0h1m29 0h1m4 0h1m8 0h1m4 0h1m4 0h1m1 0h1m5 0h1M21 29h1m5 0h2m1 0h1m3 0h1m6 0h2m1 0h1m13 0h1m12 0h1m1 0h1m2 0h1m4 0h1m6 0h2m2 0h1m22 0h1m2 0h1m5 0h2M16 30h1m1 0h1m8 0h1m1 0h1m12 0h1m3 0h1m35 0h1m1 0h1m12 0h1m17 0h1m4 0h1m8 0h1M9 31h2m9 0h1m1 0h1m9 0h1m4 0h1m2 0h1m2 0h1m7 0h1m8 0h1m20 0h3m7 0h1m6 0h1m26 0h2m1 0h1M13 32h3m8 0h1m3 0h1m10 0h1m32 0h1m9 0h1m4 0h1m1 0h1m31 0h1m7 0h1M18 33h1m4 0h1m1 0h2m15 0h1m3 0h1m3 0h1m8 0h1m3 0h1m16 0h1m2 0h2m10 0h1m13 0h1m2 0h1m2 0h1m7 0h1m9 0h1M1 34h2m4 0h1m3 0h2m23 0h1m7 0h1m9 0h1m8 0h1m20 0h1m18 0h1m4 0h1m5 0h1m4 0h2m5 0h1m6 0h1m3 0h1M13 35h1m25 0h1m4 0h1m14 0h1m1 0h1m3 0h1m2 0h1m13 0h1m7 0h2m12 0h1m16 0h1m1 0h1m2 0h2m5 0h1M11 36h1m22 0h1m1 0h1m1 0h1m4 0h1m4 0h1m4 0h1m11 0h1m7 0h1m10 0h1m9 0h2m34 0h2m4 0h1M12 37h2m9 0h1m4 0h1m3 0h1m37 0h1m6 0h1m13 0h1m2 0h1m4 0h1m1 0h1m4 0h2m1 0h1m1 0h1m6 0h1m8 0h1M18 38h1m4 0h1m4 0h1m2 0h1m3 0h1m11 0h1m1 0h1m6 0h1m9 0h1m3 0h1m3 0h1m10 0h1m4 0h1m4 0h1m6 0h1m-85 1h1m1 0h1m19 0h1m14 0h1m9 0h1m7 0h1m39 0h1m3 0h1m7 0h1m2 0h1M15 40h1m12 0h1m2 0h2m22 0h1m21 0h1m5 0h2m14 0h1m10 0h1m10 0h1M21 41h2m1 0h1m22 0h1m4 0h1m1 0h1m12 0h1m20 0h1m1 0h1m1 0h2m1 0h1m3 0h1m3 0h1m10 0h1m-82 1h1m19 0h1m4 0h1m2 0h1m6 0h1m15 0h1m3 0h1m3 0h1m5 0h1m7 0h1m1 0h1m12 0h1m1 0h1M24 43h1m3 0h1m18 0h1m44 0h1m12 0h1m5 0h2m-88 1h1m7 0h1m14 0h1m1 0h1m12 0h1m21 0h1m9 0h1m4 0h2m4 0h1m-81 1h1m2 0h1m1 0h1m1 0h1m2 0h1m13 0h2m46 0h1m3 0h1m-61 1h1m1 0h1m2 0h2m10 0h1m38 0h1m3 0h1m2 0h1m1 0h1m8 0h1m-86 1h1m7 0h1m1 0h1m51 0h1m-48 1h1m2 0h1m45 0h1m3 0h1m-66 1h1m2 0h1m3 0h1m4 0h1m4 0h1m48 0h1m-68 1h1m13 0h1m52 0h1m4 0h1m2 0h1m-67 1h1m2 0h1m2 0h1m-11 1h1m4 0h1m3 0h1m-6 1h2m2 0h1m2 0h1m-9 1h1m3 0h1m-3 1h1m88 23h1m-8 1h1m1 1h1m1 0h1m-8 1h2m3 0h1m-11 2h1m2 0h1m-5 1h1m1 0h3m-7 2h1m-4 1h1m-4 1h1m1 1h2"/><path stroke="#a14048" d="M70 4h1m1 0h1M59 5h1m4 0h1m2 0h1m-6 1h2m3 0h1m2 0h1m7 0h3M58 7h1m15 0h1m2 0h1m6 0h1M57 8h1m13 0h1m1 0h1m5 0h1M56 9h1m1 0h2m1 0h1m4 0h1m6 0h1m-7 1h1m-16 1h1m15 0h1m1 0h1m3 0h1m15 0h1m1 0h1m-24 1h1m3 0h1m8 0h1m3 0h1m6 0h1m-50 1h1m19 0h1m2 0h1m3 0h1m10 0h1m-29 1h1m13 0h1m10 0h2m1 0h1m5 0h1m7 0h1m-57 1h2m18 0h3m8 0h1m10 0h1m2 0h2m6 0h1m-53 1h1m6 0h1m14 0h1m2 0h1m5 0h1m1 0h1m18 0h1m-39 1h1m8 0h1m2 0h2m8 0h1m3 0h1m-44 1h1m1 0h1m14 0h1m24 0h1m4 0h1m4 0h2m2 0h1m-41 1h2m7 0h1m1 0h1m16 0h1m10 0h1m4 0h1m2 0h1m-70 1h1m4 0h1m12 0h1m7 0h1m2 0h1m1 0h1m2 0h1m2 0h1m1 0h1m20 0h1m6 0h1m4 0h1m2 0h1m-75 1h1m15 0h1m1 0h2m8 0h1m3 0h1m16 0h1m9 0h1m4 0h2m-72 1h1m20 0h1m2 0h1m7 0h1m8 0h1m1 0h1m2 0h1m1 0h1m18 0h1m6 0h3m-80 1h1m6 0h2m6 0h2m1 0h1m2 0h1m24 0h1m4 0h1m3 0h1m5 0h1m24 0h1m-84 1h1m29 0h1m16 0h3m2 0h1m3 0h1m1 0h1m4 0h2m9 0h4m1 0h1m1 0h1m1 0h1m3 0h1m2 0h1m-86 1h1m15 0h1m8 0h1m3 0h1m22 0h1m1 0h2m20 0h1m-91 1h2m4 0h1m7 0h1m4 0h1m6 0h1m1 0h2m10 0h1m2 0h1m19 0h1m6 0h1m5 0h1m2 0h1m8 0h1m12 0h1m-98 1h1m9 0h1m6 0h1m6 0h1m7 0h2m3 0h1m1 0h1m11 0h1m2 0h1m1 0h1m6 0h1m6 0h3m20 0h1m-91 1h1m5 0h2m13 0h1m6 0h1m10 0h1m6 0h1m4 0h1m5 0h1m1 0h1m7 0h1m1 0h1m8 0h1m12 0h1M11 29h2m22 0h1m3 0h2m14 0h1m11 0h1m7 0h1m6 0h1m11 0h2m-81 1h1m9 0h1m13 0h1m4 0h1m2 0h1m8 0h1m5 0h1m3 0h1m11 0h1m2 0h1m16 0h1m8 0h1m-96 1h2m7 0h1m3 0h1m26 0h1m5 0h2m5 0h1m9 0h1m4 0h1m4 0h1m27 0h3M5 32h1m1 0h1m10 0h1m6 0h1m8 0h2m1 0h1m8 0h1m1 0h1m4 0h1m1 0h1m10 0h1m2 0h1m4 0h1m23 0h1m6 0h2m2 0h1m2 0h1m7 0h1m4 0h1M15 33h1m1 0h1m6 0h1m22 0h1m3 0h1m5 0h1m4 0h1m2 0h1m7 0h1m5 0h1m5 0h1m5 0h1m5 0h1m1 0h1m24 0h1m3 0h1m2 0h1m2 0h1M16 34h2m15 0h1m3 0h1m8 0h1m3 0h1m6 0h1m3 0h1m7 0h2m5 0h1m20 0h1m7 0h1m18 0h1m4 0h1m4 0h1M5 35h2m2 0h2m1 0h1m9 0h1m1 0h1m16 0h1m1 0h1m10 0h1m11 0h1m7 0h1m3 0h1m1 0h1m14 0h2m40 0h1M6 36h1m12 0h1m11 0h1m13 0h2m43 0h3m25 0h1m10 0h1M18 37h1m2 0h1m3 0h1m4 0h1m4 0h1m2 0h1m4 0h1m5 0h1m5 0h1m20 0h1m5 0h1m34 0h1m-98 1h1m6 0h1m2 0h1m3 0h1m1 0h1m8 0h1m8 0h1m3 0h2m11 0h1m5 0h1m1 0h2m5 0h1m1 0h1m2 0h1m4 0h1m9 0h1m10 0h2m1 0h1m6 0h1m1 0h1M14 39h3m13 0h1m8 0h1m6 0h1m5 0h1m6 0h1m27 0h1m7 0h1m8 0h1m11 0h1m7 0h1m4 0h1m-88 1h1m9 0h1m6 0h1m13 0h1m1 0h1m20 0h1m4 0h1m22 0h2M17 41h1m2 0h1m5 0h1m12 0h1m4 0h1m8 0h1m12 0h1m2 0h1m3 0h1m17 0h1m6 0h1m2 0h1m4 0h1m6 0h1m1 0h1m-99 1h1m4 0h1m12 0h1m15 0h1m31 0h1m17 0h2m7 0h2m5 0h1m-74 1h1m1 0h1m3 0h1m6 0h1m8 0h1m2 0h1m16 0h1m3 0h2m15 0h2m8 0h1m-97 1h1m10 0h1m7 0h1m2 0h1m1 0h1m5 0h1m6 0h2m5 0h1m23 0h1m18 0h2m6 0h1m-93 1h1m9 0h1m2 0h1m26 0h1m38 0h1m6 0h1m-82 1h1m2 0h1m21 0h3m32 0h1m18 0h1m-73 1h1m9 0h1m3 0h1m2 0h1m5 0h1m31 0h1m10 0h1m5 0h1m3 0h1m1 0h1m-80 1h1m3 0h1m2 0h1m2 0h1m1 0h1m7 0h1m2 0h1m38 0h1m6 0h1m4 0h1m-65 1h1m4 0h1m1 0h1m1 0h1m49 0h1m-57 1h1m1 1h1m-11 1h1m9 0h2m48 0h1m-57 1h1m2 0h1m54 0h1m-57 1h1m79 25h1m1 0h1m-5 1h1m-5 2h1m2 1h1m-3 1h1m-9 1h1m1 0h2m-8 2h1"/><path stroke="#784048" d="M0 34h1m0 2h1m0 2h1m-3 1h1m3 1h1m-1 1h1m2 0h1m-3 1h1m3 0h2m1 0h1m63 0h1m-67 1h1m65 0h1m-65 1h1m3 0h3m59 0h1m-68 1h1m9 0h1m-5 1h1m60 0h1m2 0h1m1 0h1m-64 1h1m3 0h1m60 0h1m-66 1h1m64 0h1m-62 1h1m61 0h1m-62 1h1m1 0h2m60 0h1m-66 1h1m5 0h1m3 0h1m53 0h1m-62 1h1m3 0h1m62 0h1m1 0h1m-68 1h1m8 0h1m52 0h1m1 0h1m6 0h1m-68 1h1m3 0h1m54 0h1m5 0h1m-68 1h1m1 0h1m65 0h1m-65 1h1m60 0h1m-57 1h3m-3 1h1m2 3h1"/><path stroke="#794148" d="M0 35h1m2 1h2m-5 1h1m3 1h1m-4 1h1m7 0h2m-2 1h1m-7 1h1m1 0h1m5 1h1m66 0h1m-68 1h1m1 1h1m5 0h2m61 0h1m-2 1h1m3 0h1m-70 1h1m4 0h1m57 0h1m4 1h1m-68 1h1m8 0h1m60 0h1m-69 1h1m9 0h2m-2 1h2m56 0h1m3 0h1m2 0h1m-4 1h1m-67 1h2m61 0h1m8 0h1m-62 1h1m57 0h1m-56 1h1m53 0h1m-58 1h1m2 0h1m62 0h1m-70 1h1m2 0h1m3 0h1m58 0h1m-62 1h1m63 0h1m-60 2h1m-2 1h1m68 30h1m-1 1h1"/><path stroke="#794049" d="M1 35h1m-1 2h2m-2 1h1m1 0h1m4 0h1m-3 1h1m-2 1h1m0 2h1m1 1h1m70 0h1m-69 1h1m68 0h1m2 0h1m-72 1h1m5 0h1m3 0h1m56 0h1m2 0h1m-63 1h1m61 0h1m1 0h1m-63 1h1m56 0h1m3 0h1m2 0h2m-8 1h1m7 0h1m2 0h1m-65 1h1m61 0h1m-58 1h1m57 0h1m-59 1h1m56 0h1m4 0h1m2 0h1m-69 1h1m4 0h2m-8 1h1m3 0h2m62 0h1m-63 1h1m3 1h1m4 1h1m58 2h1m-64 1h1m3 1h1m65 29h1m-2 1h1m-1 1h2"/><path stroke="#784148" d="M2 35h1m0 2h2m-3 2h2m75 3h1m-63 1h1m59 0h2m-2 1h1m3 0h1m-68 1h2m4 0h1m57 0h1m6 1h1m-71 1h1m1 0h1m8 0h1m55 0h1m6 0h1m-6 1h1m-64 1h2m2 0h1m58 0h1m8 0h1m-70 1h1m63 0h1m3 0h1m-3 1h1m-61 1h1m67 0h1m-69 1h1m3 0h1m60 0h1m3 0h1m-71 1h1m72 0h1m-9 1h2m4 0h1m-67 1h1m2 0h1m60 0h1m2 0h1m-59 2h1m-4 1h1"/><path stroke="#784149" d="M0 36h1m-1 2h1m6 0h1m-4 1h1m2 0h1m-1 1h1m3 0h1m-4 1h1m-1 1h1m7 1h1m-4 3h1m9 0h1m-8 1h1m4 0h1m-4 1h1m63 0h1m7 0h1m-71 1h1m5 0h1m55 0h1m-57 2h1m2 0h1m56 0h2m5 0h1m-66 1h1m4 0h1m59 0h1m-67 1h1m73 0h1m-62 1h1m56 0h1m-63 1h1m60 0h1m-60 2h1m1 0h1m59 0h2m-63 1h1m63 1h1"/><path stroke="#794149" d="M2 36h1m3 1h1m-2 1h2m1 1h1m-7 1h1m7 0h1m-1 1h1m1 0h1m-6 1h1m5 0h1m1 0h1m-2 1h1m66 0h1m-68 1h1m61 0h1m2 0h1m4 1h1m-70 1h1m8 0h1m55 0h1m6 0h1m-69 2h1m8 0h1m52 0h1m10 1h1m-67 1h1m4 0h1m53 0h1m7 0h1m1 0h1m-68 1h1m4 0h1m58 0h1m-3 1h1m1 0h1m6 0h1m-65 1h1m1 0h1m52 0h1m1 0h1m-57 1h1m58 0h1m5 0h1m-5 1h2m-61 1h2m1 0h1m60 0h1m-68 1h1m62 0h1m1 1h2m-60 1h1m-2 1h1m67 30h2m-1 2h1"/><path stroke="#504141" d="M137 36h1m-7 3h1m4 0h1m-2 1h1m0 2h1m-9 2h1m2 0h1m-11 1h1m-55 1h1m54 0h1m2 0h1m-63 1h1m3 0h1m4 0h1m48 1h1m1 0h1m-57 1h2m50 0h1m-1 1h1m-7 1h1m-61 1h1m3 0h1m49 0h1m1 0h1m-54 1h1m-7 1h1m-5 1h1m0 1h1m3 0h1m52 0h1m-56 2h1m53 0h1m-57 2h1m83 20h1m0 2h1m-7 3h1m-7 1h1m-4 2h1m2 0h1m-8 1h1m1 0h1"/><path stroke="#514040" d="M138 36h1m-1 1h1m-3 1h1m-3 1h1m-10 3h1m2 0h1m2 0h1m1 0h1m-63 1h1m1 0h1m56 0h1m-61 1h1m3 0h1m49 0h1m-54 1h1m48 0h1m3 0h1m2 0h1m1 0h1m-59 1h1m3 0h1m45 0h1m-60 1h1m54 0h1m-57 1h1m2 0h2m47 0h1m-45 1h1m41 0h1m-54 1h1m7 0h2m45 0h1m-55 1h1m54 0h1m-60 1h2m53 0h1m-59 1h1m7 0h1m50 0h1m1 0h1m-10 1h1m-48 1h1m49 0h1m-63 1h2m-3 1h1m76 29h1m-7 2h1m-1 2h1m-3 2h1"/><path stroke="#784049" d="M5 37h1m-1 2h1m-3 1h1m8 0h1m-7 1h1m4 0h1m64 0h1m-63 1h1m-3 1h1m67 0h1M9 44h1m3 1h1m3 0h1m59 0h1m2 0h1m2 0h1m-7 1h1m-60 1h1m4 0h1m56 0h1m-60 1h2m4 0h1m58 0h1m-64 1h1m4 0h1m54 0h1m4 0h1m1 0h1m-69 1h1m0 1h1m1 0h1m1 0h1m3 0h1m63 0h1m-64 1h1m56 0h1m5 0h1m-65 1h1m66 0h1m-69 1h2m62 0h1m4 0h2m-64 1h1m4 0h1m58 0h1m-2 1h1m0 1h1m-60 1h1m-2 1h1m66 30h1m2 3h1"/><path stroke="#514041" d="M135 37h1m-62 4h1m60 0h1m-62 1h1m48 2h1m2 0h1m2 0h2m1 0h1m-59 1h1m-11 1h3m7 0h1m42 0h1m2 0h1m-52 1h1m46 0h1m2 0h1m2 0h1m-63 1h1m57 0h1m1 0h1m1 0h1m-59 1h1m47 0h1m-57 1h2m5 0h1m46 0h1m-57 1h1m52 0h1m2 0h1m-59 1h1m1 0h1m53 0h1m3 0h1m-55 1h1m48 0h1m4 0h1m1 0h1m-61 1h1m3 0h1m-8 1h1m3 1h1m-4 1h1m51 0h1m-59 1h1m57 0h1m-61 2h1m87 20h1m-4 4h1m-9 1h1m2 0h1m-7 1h1m5 0h1m-4 2h1"/><path stroke="#504040" d="M136 37h2m-4 1h1m2 0h1m-1 1h2m-10 1h1m3 0h1m2 0h1m-62 1h1m60 0h1m-13 2h1m4 0h1m2 0h2m-62 1h1m2 0h1m51 0h1m-62 1h2m2 0h1m59 0h1m-63 1h1m3 0h1m46 0h1m-55 1h1m49 0h1m7 0h1m-62 1h1m5 0h2m1 0h1m45 0h1m6 0h1m-65 1h1m5 0h1m47 0h1m5 0h1m-59 1h1m51 0h1m-55 1h2m46 0h1m2 0h1m-7 1h1m-56 1h1m8 0h1m46 0h1m-48 1h1m45 0h1m-56 1h1m2 1h1m-3 1h1m-8 1h1m-1 1h1m82 23h2m-7 2h1m3 0h1m-8 2h1m2 0h1m-3 1h1m1 0h2m-8 1h1m1 0h1m-7 3h1m2 0h1m-4 1h1"/><path stroke="#504140" d="M133 38h1m4 0h1m-5 2h1m-8 1h1m9 0h1m-11 1h1m2 0h1m1 0h1m2 0h1m-62 1h2m47 0h1m2 0h2m-59 1h1m51 0h1m-54 1h1m50 0h1m8 0h1m-56 1h1m-6 1h1m1 0h1m50 0h1m4 0h1m-13 1h1m3 1h1m3 0h1m-12 1h1m5 0h2m-63 1h1m7 0h1m44 0h1m6 0h1m-57 1h2m52 0h2m-62 1h1m49 0h1m3 0h1m1 0h1m-8 1h1m6 0h1m1 0h1m-59 1h1m1 0h1m46 0h1m2 0h1m3 0h1m-67 1h1m3 0h2m4 0h1m51 0h1m1 0h1m-64 3h2m1 0h1m83 20h1m-3 1h1m-5 2h1m1 1h1m-6 1h1m1 0h1m-1 1h1m-3 1h1m-8 1h1m2 0h1m-7 3h1m2 0h1"/><path stroke="#504041" d="M135 38h1m-1 1h1m2 1h1m-10 1h2m2 0h2m-63 1h1m55 1h1m5 0h1m-62 2h1m48 0h1m-5 1h1m4 0h1m3 0h1m-55 1h1m44 0h1m-53 1h1m3 0h1m48 0h1m-59 1h2m52 0h1m-56 1h1m51 0h1m7 0h1m-66 1h1m7 0h1m53 0h1m-56 1h1m53 0h1m-66 1h1m3 0h1m1 0h1m45 0h1m-47 1h1m49 0h1m3 0h1m-64 1h1m56 0h1m-54 1h1m50 0h1m3 0h1m-63 2h1m1 0h2m-2 1h1m81 22h2m1 0h1m-4 1h1m-6 1h1m-1 1h1m0 2h1m-8 1h1m0 1h1m-6 1h1m2 0h1m-6 1h1m4 0h1"/><path stroke="#514140" d="M132 39h1m-2 1h2m4 0h1m0 1h1m-66 1h1m52 0h1m2 0h1m4 0h1m-63 1h1m52 1h1m-3 1h1m0 1h1m1 0h1m-56 1h1m48 0h1m-58 1h1m3 0h1m48 0h1m-59 1h2m53 0h1m3 0h1m-59 1h1m1 0h1m53 0h1m-59 1h1m7 0h1m49 0h1m2 0h1m-61 1h1m4 0h1m42 0h1m4 0h1m-59 1h1m7 0h1m43 0h1m3 0h1m-59 1h1m1 0h1m54 0h2m-2 1h1m-4 1h1m-61 1h2m1 0h1m1 0h1m52 0h1m1 0h2m-56 1h1m-6 2h1m-3 1h2m85 20h1m-7 2h1m1 0h1m1 0h3m-10 2h2m-7 2h1m3 0h1m-8 1h1m-3 1h1m0 2h1"/><path stroke="#514141" d="M133 39h1m-4 1h1m-3 1h1m2 0h2m-58 1h1m-6 1h1m54 0h1m5 0h1m-64 1h1m2 0h1m1 0h1m48 0h1m-54 1h1m2 0h1m2 0h1m49 0h2m-58 1h2m57 0h1m-65 1h1m1 0h1m57 0h2m-11 1h1m-53 1h1m1 0h1m50 0h1m4 0h1m-58 1h2m43 0h1m6 0h1m-59 1h1m3 0h1m49 0h1m-54 1h1m53 0h1m-66 2h2m2 0h1m2 0h2m49 0h1m-60 1h1m1 0h1m2 0h2m1 0h1m48 0h1m4 0h1m-60 1h1m-4 1h1m1 0h1m3 0h1m-4 1h1m-2 1h1m-5 1h1m82 21h1m1 1h2m-6 1h1m0 1h2m-9 1h1m6 0h1m-12 4h1m1 0h2m-6 1h1m-1 1h1"/><path stroke="#794048" d="M1 40h1m4 0h1m1 0h1m0 1h1m3 0h2m62 0h1m-62 1h1m60 0h1M7 43h1m1 0h1m3 0h1m1 0h1m2 0h1m-9 1h1m4 0h1m0 1h1m2 0h1m56 0h1m-63 1h1m3 0h2m2 0h1m53 0h1m9 0h1m-68 1h1m5 0h1m52 0h1m2 0h1m6 0h1m-66 1h3m57 0h1m5 0h1m-5 1h1m1 0h1m3 0h1m-71 1h1m1 0h1m60 0h1m1 0h1m9 1h1m-61 1h1m54 0h1m5 1h1m-66 1h1m2 0h1m2 0h1m57 0h1m-65 1h1m1 0h1m5 0h2m0 1h1m54 0h1m-62 1h1m6 0h1m-7 1h1m1 0h1m1 0h1m68 33h1"/><path stroke="#f8f8a0" d="M6 43h1m-1 2h1m-1 1h1m69 1h1m0 2h1m1 0h1M6 50h1m0 1h1m59 0h1m10 0h1m-12 1h1m20 1h1m-1 1h1m-61 1h1m37 0h1m10 0h1m1 0h1m17 2h1m-64 1h1m62 0h1m-71 1h1m5 0h4m53 0h1m4 0h1m2 0h1m-4 1h1m5 0h1m-63 1h2m48 0h1m7 0h1m-70 1h1m13 0h2m34 0h1M7 63h1m29 0h1m2 0h1m-6 1h2m2 0h1m2 0h1m53 0h1m2 0h1M8 65h1m16 0h1m51 0h1m-37 1h1m24 0h1m9 0h1m11 0h1M8 67h1m1 0h1m26 0h1m-27 1h1m15 0h1m3 0h1m11 1h1m-13 1h1m2 0h1m0 1h1m-9 1h1m3 0h2m5 0h1m-29 1h1m8 0h1m10 1h1m-9 1h1m4 0h2m13 0h1m55 1h1M6 77h1m9 0h2m12 0h1m10 0h1m-21 1h1m9 0h1m5 0h1m7 0h1M6 79h1m13 0h1m1 0h1m8 0h1m6 0h2m13 0h1M6 80h1m25 0h2m6 0h1m3 0h2m2 0h1m-25 1h1m22 0h1m1 0h2m1 0h2m47 0h1m-66 1h1m2 0h2m-13 1h1m11 0h1m15 0h1m-25 1h1m23 0h1m-30 1h1m5 0h1m11 0h2m3 0h1m3 0h1m43 0h1m-67 1h1m2 0h1m14 0h2m-23 1h1m8 0h1m9 0h1m8 0h1m1 0h1m39 0h1m-71 1h2m1 0h2m6 0h1m60 0h1M6 89h2m20 0h1m22 0h1m4 0h1m4 0h1m35 0h1m2 0h1m28 0h1M29 90h1m4 0h1m3 0h1m19 0h1m40 0h1m-60 1h2m1 0h1m51 0h1m-64 1h1m8 0h1m18 0h1m31 0h1m8 0h1m-71 1h1m1 0h1m60 0h1m6 0h1m-1 1h1m-76 1h1m8 0h1m5 0h1m-6 1h1M7 97h1m22 0h1m57 0h1M9 98h2m32 0h1m51 0h1m33 0h1M30 99h1m1 0h1m44 0h1m-2 1h1m11 1h1m2 0h1m7 0h1m9 0h1m19 0h1m-111 1h1m19 0h2m47 0h1m1 0h1m6 0h1m1 0h1m-78 1h1m10 0h3m65 0h1m-75 1h1m13 0h1m42 0h1m1 0h1m-58 1h1m4 0h1m5 0h1m52 0h1m15 0h1m-83 1h1m3 0h1m1 0h1m1 0h2m51 0h1m1 0h1m17 0h1m-70 1h1m68 0h1m-15 1h1m-63 1h1m6 0h1m2 0h1m56 0h1m10 1h1m-10 1h1m8 0h1m-10 1h1m-60 1h1m0 1h1"/><path stroke="#f8f9a0" d="M6 44h1m-1 8h1m59 0h1m11 0h2m-55 2h1m64 0h1m-13 1h1m10 0h1m2 0h2M6 56h1m19 0h2m2 0h1m36 0h1m10 0h1m16 0h1m-69 1h1m2 0h2m47 0h1m-54 1h1m8 0h1m54 0h2m1 0h1M7 59h1m30 0h1m54 0h1m-64 1h1m1 0h1M7 61h1m17 0h1m6 0h2m45 0h1m8 0h1m1 0h1m7 0h1m-62 1h1m3 0h1m48 0h1m10 0h1m-71 1h1m44 0h1m20 0h1m3 0h1m-68 1h1m2 0h1m28 0h1m28 0h1M6 65h1m26 0h1m9 0h1m32 0h1M8 66h1m25 0h1m8 0h1M6 67h1m69 0h1M9 68h1m2 0h1m12 0h1m12 0h3m0 1h2m-14 1h1m5 0h1m31 0h1m31 0h1m-75 1h1m11 0h1M7 72h1m10 0h1m1 0h1m7 0h1m6 0h1m62 0h1m2 0h1m-77 1h3m9 0h1m-16 1h1m13 0h1m3 0h1m59 0h1m-63 1h1m2 0h1m-30 1h1m25 0h1m1 0h1m59 0h1m-82 1h1m8 0h1m15 0h2m-17 1h1m9 0h1m1 0h1m6 0h1m-26 1h1m6 0h1m15 0h1m2 0h1m-15 1h1m1 0h1m1 0h1m12 0h1m-26 1h1m11 0h1m3 0h1m55 0h1m-74 1h2m17 0h2m-17 1h1m13 0h1m7 0h1m5 0h1m-26 1h1m6 0h1m7 0h1m10 0h2m-6 1h1m2 0h3m38 0h1m-47 1h1m8 0h1m-35 1h1m7 0h1m10 0h1m1 0h1m5 0h1m73 0h1M27 88h1m10 0h1m16 0h1m42 0h1m-68 1h1m21 0h2m3 0h1m1 0h1m28 0h1m8 0h1m-39 1h1m29 0h1m1 0h1M6 91h1m27 0h1m24 0h1m1 0h1m28 0h2m7 0h1m1 0h1m-4 1h1m-63 1h1m63 0h1m-62 1h1m1 0h1m19 0h1m32 0h1m14 0h2m-13 1h1m2 0h1m-60 1h1m47 0h1m18 0h1m-73 1h1m2 0h1m1 0h1m35 0h1m11 0h1m2 0h1m-68 1h1m1 0h1m12 0h2m49 0h1m-80 1h1m62 0h1m20 0h1m-62 1h1m6 0h1m35 0h1m12 0h1m-63 1h1m49 0h1m17 0h1m11 0h1m-82 1h2m64 0h1m12 0h2m-90 1h1m8 0h1m58 0h1m4 0h1m3 0h1m10 0h1m-73 1h1m5 0h1m48 0h1m-54 1h1m4 0h1m42 0h1m8 0h1m2 0h1m1 0h1m-61 1h2m-15 1h1m64 0h1m1 0h1m4 0h1m-68 1h1m1 0h1m57 0h1m16 0h1m-74 1h1m6 0h1m54 0h1m1 0h1m7 0h2m-72 1h1m3 0h2m-4 1h1m67 0h1m-67 1h1m-4 1h1m1 1h1"/><path stroke="#f8f9a1" d="M7 44h1m68 6h3m-2 3h1m-52 1h1m39 0h2m23 0h1m-67 1h2m4 1h1m47 0h1m12 0h2m-61 1h1m57 0h1m1 0h1m-61 1h1m2 0h1m-12 1h1m6 0h1m43 0h1m-51 1h1m4 0h1m44 0h2m-47 1h1m5 0h1m3 0h1m36 0h1m14 0h1m5 0h1m-73 1h1m8 0h1m1 0h1m37 0h1m17 0h1m2 0h2m-67 1h2m1 0h1m43 0h1m12 0h1m1 0h1m4 0h1m-33 1h1m9 0h1m22 0h1m-22 1h1m18 0h1m2 0h1M7 66h1m20 1h1M8 68h1m57 0h1m13 0h1m-55 1h1m39 0h1m13 0h1m-39 1h1m-9 1h1M6 72h1m12 0h1m19 0h1M8 73h1m14 0h1m7 0h2m6 0h1m60 0h1m-81 1h2m3 0h1m3 0h1m1 0h1m7 0h1m58 0h1m-89 1h1m3 0h1m16 0h1m1 0h1m-6 1h1m16 0h1m1 0h1m-34 1h1m33 0h1m-2 1h1m-30 1h1m14 0h1m3 0h1m3 0h1m5 0h2m3 0h1m-32 1h1m3 0h1m15 0h1m0 1h1m2 0h2m9 0h1M7 82h1m21 0h1m12 0h2m6 0h1m-12 1h1m1 0h1m9 0h1m1 0h1m7 0h1m-33 1h1m11 0h1m2 0h1m10 0h1m5 0h1m-27 1h1m11 0h1m5 0h1m8 0h1m-36 1h1m72 0h1m-71 1h2m7 0h1m12 0h1m9 0h1M7 88h1m53 0h1m-29 1h1m-9 1h1m5 0h1m20 0h1m45 0h1m-64 1h1m19 0h1M7 92h1m19 0h1m6 0h1m7 0h1m16 0h1m3 0h1m31 0h1m-57 1h1m22 0h1m15 0h2m16 0h1m-64 1h1m6 0h1m35 0h1m18 0h1m12 0h1m-72 1h2m40 0h1M8 96h1m31 0h1m2 0h1m45 0h1m18 0h1m-99 1h1m30 0h1m37 0h1m30 0h1m-86 1h1m5 0h1m46 0h1m12 0h1m1 0h1m-67 1h1m3 0h1m57 0h1m-76 1h1m12 0h1m3 0h2m1 0h1m56 0h1m5 0h2m30 0h1m-102 1h1m2 0h1m2 0h1m46 0h1m10 0h1m4 0h1m3 0h1m6 0h1m-84 1h1m67 0h1m-67 1h1m56 0h1m1 0h1m2 0h1m1 0h1m6 0h1m10 0h1m-88 1h2m2 0h1m10 0h1m52 0h1m7 0h1m2 0h1m6 0h1m-74 1h1m72 0h1m-84 1h1m8 0h1m56 0h1m-59 1h1m6 0h1m49 0h2m8 0h1m-70 1h1m5 0h2m3 0h1m50 0h1m14 0h1m1 0h1m-73 1h1m1 0h1m55 0h1m-60 1h1m1 0h1m68 0h1m-74 1h1m6 0h1m66 0h1m-71 1h1"/><path stroke="#f9f8a0" d="M8 44h1m-3 5h1m59 2h1m12 0h1M7 52h1m17 1h1m62 2h1m2 0h1m-26 1h1m-39 1h2m36 0h1m22 0h1m5 0h1M6 58h1m23 0h1m61 0h1m1 0h1m-69 1h1m1 0h1m62 0h1m-63 1h1m6 0h1m41 0h1m11 0h1m2 0h1m-68 1h1m1 0h1m47 0h1m18 0h1m-67 1h1m3 0h1m55 0h1m1 0h1m1 0h1M6 63h1m23 0h1m3 0h1m1 0h1m29 0h1m28 0h2m1 0h1m1 0h1M6 64h1m72 0h1m21 0h1m-70 1h1m2 0h1m4 0h3m35 0h1m18 0h1m-62 1h1m2 0h1m2 0h1m34 0h1m21 0h1m-74 1h1m14 0h1m1 0h1m36 0h1m-71 1h1m15 0h1m-17 1h2m17 0h1m-16 1h1m12 0h1M7 71h1m8 0h1m10 0h2m4 0h1m67 0h1m-85 1h1m7 0h1M7 73h1m10 0h1m5 0h1m4 0h1m4 0h1m-24 1h2m13 0h1M6 75h1m8 0h1m27 0h2m55 0h1M6 76h1m7 0h1m9 0h1m2 0h1m3 0h1m4 0h2m5 0h1m-12 1h3m11 0h1m52 0h1m-51 1h1m48 0h1m-67 1h1m-10 2h1m10 0h2m4 0h2m-17 2h1m27 1h1m4 0h1m4 0h1M6 85h1m21 0h1m1 0h1m11 0h1m6 0h1m1 0h1m11 0h1m-36 1h1m2 0h1m4 0h2m7 0h1m2 0h1m8 0h1m40 0h1m2 0h1m-70 1h1m1 0h2m20 0h1m43 0h1M6 88h1m56 0h1m32 0h1m-71 1h1m5 0h1m1 0h1m1 0h1m3 0h2m15 0h1m1 0h1m31 0h1M6 90h1m33 0h1M7 91h1m17 0h1m11 0h1m1 0h1m22 0h1m30 0h1M6 92h1m21 0h1m1 0h1m6 0h1m19 0h1m33 0h1m8 0h1m-67 1h1m2 0h2m2 0h1m16 0h1m4 0h1m35 0h1m8 0h1M7 94h1m31 1h1m37 0h2m20 0h1m-74 1h1m8 0h1m3 0h1m37 0h1m10 0h1m21 0h1m-86 1h1m12 0h1m37 0h1m12 0h1m-61 1h1m60 0h1m-77 1h1m13 0h1m62 0h1m2 0h1m1 0h1m-71 1h1m2 0h1m50 0h1m9 1h1m-73 1h1m8 0h1m3 0h1m1 0h3m2 0h1m41 0h1m3 0h1m4 0h1m1 0h1m4 0h1m1 0h1m11 0h1m-85 1h1m1 0h1m9 0h1m2 0h1m41 0h1m12 0h1m32 0h1m-97 1h1m4 0h1m49 0h1m11 0h1m8 0h2m-83 1h1m12 0h1m45 0h1m1 0h1m9 0h1m-74 1h1m2 0h1m62 0h1m17 0h1m-83 1h1m6 0h1m6 0h1m54 0h1m11 0h1m-81 1h2m2 0h1m7 0h1m53 0h1m2 0h1m2 0h1m-69 1h1m60 0h2m1 0h1m12 0h1m-13 1h1m-58 3h1m1 0h1"/><path stroke="#f8a849" d="M133 44h1m-5 3h2m2 0h1m-8 1h1m-1 1h2m5 0h1m-59 1h1m-5 1h1m47 0h1m-49 1h1m50 0h1m-52 1h1m43 0h2m-4 1h1m2 0h1m-45 1h1m40 0h1m-43 1h1m39 2h1m-7 1h1m-55 1h1m21 0h2m29 0h1m2 0h1m25 0h1m-88 1h1m26 0h1m-27 1h1m24 0h1m1 0h1m29 0h1m-56 1h1m54 0h1m-54 1h1m20 0h1m58 0h1m-84 1h1m24 0h1m31 0h1m27 0h1m-83 1h1m80 0h1m-63 1h2m51 1h1m-28 2h1m30 0h2m-9 1h1m-31 1h1m24 0h1m7 0h1m-29 1h1m8 0h1m17 0h1m-5 1h1m-33 1h1m24 0h2m4 0h1m8 0h2m1 0h1m1 0h1m-44 1h1m2 0h1m2 0h1m15 0h1m3 0h1m2 0h1m-28 1h2m34 0h2m3 0h1m-53 1h1m1 0h1m1 0h1m2 0h1m2 0h1m1 0h1m21 0h1m7 0h1m-43 1h2m3 0h1m19 0h1m6 0h1m-32 1h1m7 0h3m31 0h1m-47 1h2m9 0h1m3 0h1m3 0h1m10 0h1m-23 1h1m7 0h1m22 0h1m2 0h1m-51 1h1m5 0h1m15 0h1m21 0h1m-46 1h1m2 0h1m8 0h1m32 0h1m1 0h1m-47 1h1m13 0h5m19 0h1m-39 1h1m0 1h1m11 0h1m50 0h1m-67 2h1m6 0h1m-6 2h1m2 0h1m35 1h1m-42 1h1m2 0h1m36 1h1m6 0h1m-40 1h1m29 0h1m-59 1h1m57 0h1m-57 1h1m55 0h1m-35 1h1m2 0h1m-6 1h1m5 0h1m-13 2h1m1 0h1m5 0h1m-23 1h1m20 0h1m62 0h1m-72 3h2m51 0h1m-61 1h1m4 0h1m-2 1h1m-10 1h1m2 0h1m52 0h2m-51 1h2m-9 2h1m2 0h1m-6 2h1"/><path stroke="#f9f9a0" d="M7 45h1m-2 2h1m69 2h1M6 51h1m70 0h1m-2 1h1m-51 1h1m39 0h2m10 0h1m-3 1h1m-48 1h1m37 0h1m8 0h1m13 0h1m-59 1h1m56 0h1m1 0h1m-66 1h1m5 0h1M7 58h1m17 0h1m6 0h1m65 0h2m-8 1h1m-54 1h1m49 0h1m2 0h1m3 0h1m2 0h1m-71 1h1m4 0h1m3 0h1m3 0h1m34 0h1M7 62h1m24 0h1m2 0h1m4 0h1m51 0h1m-65 1h1m9 0h1m28 0h1m9 0h1m13 0h1m-61 1h1M7 65h1m26 0h1m4 0h1m48 0h1M6 66h1m18 0h1m12 0h1m28 0h1m32 0h1m-76 1h1m13 0h2m26 0h1m11 0h1m-52 1h2m-16 1h1m1 1h1m9 0h1m71 0h1M6 71h1m7 0h1m14 0h1m68 0h2M8 72h1m20 0h1m3 0h2m64 0h2m-81 1h1m9 0h1m2 0h1m4 0h1m62 0h1M6 74h1m6 0h1m20 0h2m5 0h1m57 0h1m-87 1h1m11 0h2m71 0h1m-84 1h2m13 0h1m4 0h1m5 0h1m57 0h1m-85 1h1m15 0h1m4 0h1m61 0h1m-82 1h1m1 0h1m10 0h1m1 0h2m2 0h1m7 0h1m56 0h1m-83 1h1m14 0h2m4 0h1m10 0h1m46 0h2m-80 1h1m13 0h1m7 0h1m3 0h1m8 0h1m43 0h1m-74 1h1m10 0h2m9 0h1m49 0h1m-43 1h1m-10 1h1m1 0h1m-23 1h2m16 0h1m8 0h1m2 0h1m-27 1h1m2 0h1M6 86h1m45 0h1M7 87h1m42 0h1m7 0h1m1 0h1m37 0h1m2 0h1m-76 1h1m10 0h1m1 0h1m8 0h1m1 0h2m10 0h1m-36 1h1m10 0h1m4 0h1m11 0h1m7 0h1m35 0h1m-70 1h1m6 0h1m17 0h1m5 0h1m38 0h1m-75 1h1m1 0h1m1 0h2m10 0h1m17 0h1m28 0h1m-32 1h1m34 0h1m-54 1h1m2 0h1m48 0h1m5 0h1m10 0h1m-78 1h1m45 0h1m17 0h1m1 0h1M7 95h1m17 0h1m16 0h1m53 0h1m3 0h1m9 0h1m-84 1h1m10 0h1m2 0h1m57 0h1m-9 1h2m8 0h1m27 0h1M27 98h1m12 0h1m35 0h1m-51 1h1m6 0h1m7 0h2m36 0h1m10 0h1m2 0h1m1 0h1m33 0h1m-114 1h1m8 0h1m51 0h1m11 0h1m6 0h1m2 0h1m-64 1h3m-7 1h1m4 0h1m43 0h1m-57 1h1m5 0h1m4 0h2m49 0h1m7 0h1m3 0h1m-79 1h1m7 0h1m5 0h1m53 0h1m2 0h1m4 0h1m-72 1h1m61 0h1m3 0h1m4 0h1m-68 1h1m6 0h2m60 0h1m-71 1h1m8 0h1m2 0h1m-6 1h1m2 0h1m-3 1h1m-4 1h1m5 0h1m55 0h1m3 0h2m7 0h1m-67 1h1m54 0h2m-63 1h1m62 0h1"/><path stroke="#f9f8e8" d="M8 45h2m-3 2h1m3 1h1m2 0h1m-1 1h1m1 0h1m1 1h1m62 0h1m-66 2h2m4 0h1m96 3h1m-7 3h1m-5 2h1m20 3h1m-49 2h1m0 1h1m-68 1h1m42 4h1M8 75h1m1 2h1m3 2h1m3 1h1m-1 1h1m0 1h1m61 16h1m-62 1h1m31 6h1m65 9h1"/><path stroke="#f9d179" d="M10 45h1m3 2h1m53 3h1m-45 2h1m43 0h1m18 0h1m-20 4h1m-1 1h1m-45 3h1m77 2h1m-1 1h2m-2 1h1m-34 1h1m33 0h1m-94 1h1m58 0h1m-25 1h1m-33 1h1m54 1h1m-24 1h1m22 0h1m28 3h1m-1 7h1m5 2h1m-2 1h2m-40 3h1m65 0h2M24 87h1m40 0h1m24 0h1m40 1h1m-40 1h1m3 0h1m-6 1h1m1 0h1m3 0h1m-53 1h1m57 0h1m7 2h1m-98 5h1m29 0h1m42 4h1m-44 2h1m57 0h1m-58 1h1m66 3h1m-68 2h1m56 0h1m8 0h1m-9 2h1"/><path stroke="#f9a948" d="M131 45h1m-15 7h2m1 0h1m-46 1h1m42 1h1m-46 1h1m42 0h1m-47 2h1m37 1h1m-34 1h1m-6 2h1m4 2h1m29 0h1m27 0h1m-87 1h1m26 0h1m29 0h1m28 0h1m-64 1h1m58 0h1m-81 1h1m23 0h1m31 0h1m23 0h1m-84 1h1m1 0h1m2 0h1m22 0h1m50 0h1m6 0h1m-87 1h1m2 0h1m75 0h1m3 0h1m1 0h1m-9 1h1m-5 1h1m1 0h1m-29 1h1m11 0h1m9 0h1m5 0h1m5 0h1m-35 1h1m10 0h1m19 0h1m-36 1h1m26 0h1m2 0h1m-29 1h1m21 0h1m7 0h1m7 0h1m2 0h2m-47 1h2m1 0h1m14 0h1m7 0h1m-28 1h1m9 0h1m12 0h1m1 0h1m14 0h1m4 0h1m-50 1h1m22 0h1m2 0h1m6 0h1m6 0h1m-43 1h1m1 0h1m9 0h2m26 0h1m3 0h1m-3 1h1m-32 1h2m12 0h1m-34 1h1m5 0h2m5 0h1m26 1h2m-43 1h1m5 0h1m4 0h1m6 0h1m42 0h1m-56 1h1m5 0h2m25 0h1m2 0h1m-38 1h1m55 0h1m-55 1h1m30 0h1m-4 1h1m-41 1h1m13 0h1m24 0h1m27 0h1m-66 1h1m7 0h1m-2 1h1m29 0h1m-34 1h1m1 0h1m31 0h1m-59 1h1m21 0h1m33 0h1m-37 1h1m1 0h1m43 1h1m-40 1h1m31 0h1m25 0h1m-62 1h1m1 0h2m-4 2h1m-27 1h1m15 0h1m8 0h1m3 0h1m-10 1h1m-7 1h1m8 0h1m3 0h1m39 0h1m-51 1h1m42 0h2m5 0h2m-67 1h1m11 0h1m6 0h3m36 0h1m-60 1h1m13 0h2m4 0h1m38 0h1m-47 2h1m44 0h1m-54 1h1m-6 1h1m-1 1h1m66 0h1m-68 1h1m2 0h1m53 1h1m-58 1h1m2 0h1m-5 1h1"/><path stroke="#f9a949" d="M132 45h1m-2 1h1m-57 1h1m49 1h1m-55 1h1m2 0h1m48 0h2m-55 1h1m2 0h1m59 0h1m-12 1h1m-53 1h1m2 0h1m1 0h1m47 0h1m-6 1h1m-49 1h1m4 0h1m38 0h1m2 0h1m-4 1h1m-5 1h1m0 1h1m2 0h1m-6 1h1m23 0h1m-28 1h1m26 0h1m-28 1h1m-3 1h1m-59 1h1m2 0h1m22 1h1m-25 1h1m26 0h1m56 0h1m-3 1h1m-85 1h1m24 0h1m56 0h1m-56 1h1m-4 1h1m1 0h2m50 1h1m1 0h1m1 0h1m-34 2h1m21 0h2m7 0h1m-33 1h1m1 0h1m24 0h1m-26 1h1m19 1h2m1 0h1m-28 1h2m10 0h1m9 0h2m14 0h1m-38 1h1m19 0h1m14 0h1m-44 1h1m6 0h1m2 0h1m18 0h1m8 0h1m-46 1h1m25 0h1m20 0h1m-37 1h1m17 0h1m12 0h1m-43 1h1m4 0h1m10 0h2m20 0h1m-33 1h1m22 0h1m7 0h1m2 0h3m-48 1h1m7 0h1m6 0h1m-4 1h1m25 0h1m3 0h1m-31 1h1m-12 1h1m32 0h1m1 0h1m2 0h1m-46 1h1m11 0h1m28 0h1m-41 1h1m1 0h2m1 0h1m-3 1h1m1 0h1m1 0h1m30 0h1m-36 1h1m5 0h1m27 0h1m-40 1h1m2 0h1m2 0h1m4 0h1m26 0h1m-38 1h1m46 1h1m-69 1h2m65 0h1m-47 1h3m-23 4h1m12 0h1m71 0h1m-72 1h1m-3 1h2m45 0h1m-48 1h1m54 0h1m-56 1h1m5 0h1m4 0h1m34 0h1m-43 1h1m41 0h1m1 0h1m-43 1h1m38 0h1m-58 1h1m8 0h2m6 0h1m-19 1h1m15 0h1m-15 1h1m6 0h1m48 0h1m-59 1h1m10 0h1m-6 1h2m51 0h1m-55 1h1m1 1h1m51 0h1m-55 1h1"/><path stroke="#f8a949" d="M133 45h1m-1 1h1m-3 1h2m-59 1h1m-5 1h1m1 0h1m-1 1h1m-1 1h1m1 0h1m46 0h1m-50 1h1m47 1h1m-48 1h1m41 0h1m-42 1h1m36 0h2m-1 1h2m-7 1h1m1 2h1m23 2h1m-84 1h1m-1 1h1m20 0h1m-26 1h1m2 0h1m24 1h1m56 1h1m-82 1h1m76 0h1m0 1h1m1 0h1m-61 1h1m54 0h1m-34 2h1m26 0h1m5 0h1m-8 1h1m-29 1h1m1 0h1m35 1h1m-45 1h1m34 0h1m-13 1h1m8 0h1m-24 1h1m12 0h1m6 0h1m-24 1h1m42 0h1m-57 1h1m3 0h1m1 0h1m1 0h1m9 0h1m12 0h1m12 0h1m2 0h1m-50 1h1m9 0h1m20 0h1m-26 1h1m4 0h1m18 0h1m11 0h1m-47 1h1m4 0h1m6 0h1m-15 1h1m5 0h2m1 0h2m8 0h1m2 0h1m21 0h1m19 0h1m-65 1h1m2 0h1m7 0h1m8 0h1m18 0h2m-43 1h1m2 0h1m9 0h1m27 0h1m-39 1h1m5 0h2m32 0h1m21 0h1m-59 1h1m58 0h1m-57 1h1m1 0h1m52 0h1m-55 1h1m28 0h1m-40 1h1m5 0h1m-6 1h1m-23 1h1m18 0h1m1 0h1m36 0h1m26 0h1m-26 1h1m-60 1h1m17 0h1m37 0h1m-59 1h1m1 1h1m65 0h1m18 0h1m-60 1h2m37 0h1m-55 2h1m72 0h1m-58 1h1m56 0h1m-66 1h2m2 0h2m31 0h1m1 0h1m-43 1h1m-6 1h1m1 0h1m70 0h1m-87 1h1m12 0h1m6 0h1m40 1h1m-60 1h1m7 0h1m-10 1h1m5 0h1m3 0h1m3 0h1m52 1h1m-66 1h1m56 0h1m-54 1h2m52 0h1"/><path stroke="#f8f8e8" d="M7 46h1m2 1h1m1 0h1m-5 1h1m6 0h1m-5 1h2m3 2h1m1 0h1m2 0h1m-1 1h1m63 0h1m36 1h1m-4 1h1m1 0h1m-12 5h2m16 5h1m-11 4h1m-99 1h1m36 3h1m-48 4h1m-4 1h1m3 1h1m3 0h1m-1 1h1m0 18h1m107 5h1m-2 9h1m-7 3h1"/><path stroke="#f8f8e9" d="M8 46h1m1 0h1m2 1h1m-2 1h1m118 0h1M15 49h1m1 0h1m-4 1h1m67 0h1m-65 3h1m102 0h1m-6 3h1m-9 4h1m1 0h1m18 3h1m-9 4h1M8 77h1m3 2h1m3 0h1m0 1h1m3 2h2m-2 1h1m28 10h1m31 5h1m41 3h1"/><path stroke="#f8f9e8" d="M9 46h1m3 2h1m116 0h1m-3 1h1M12 50h1m113 0h1M17 51h1m107 0h1M18 52h1m101 2h1m-4 2h1M12 65h1m106 3h1m-8 4h1M7 76h1m1 0h1m3 1h1m-4 1h1m2 0h2m0 2h1m-1 1h1m1 1h1m1 1h2M11 94h1m0 1h1m6 3h1m98 1h1m5 4h1m-74 2h1m73 5h1"/><path stroke="#f9f8e9" d="M11 46h1m-3 1h1m0 2h1m119 0h1M13 50h1m1 0h1m111 0h1M14 51h1m4 1h1m0 1h1m93 5h1m-7 3h1m-96 4h1m42 7h1m53 1h1m-92 8h1m1 0h1m-2 1h1M10 94h1m44 9h1m-3 1h1"/><path stroke="#f8d179" d="M12 46h1m7 4h1m64 1h1m-62 2h1m-1 3h1m-1 1h1m-1 4h1m44 2h1m-25 1h1m57 0h1m-80 2h1m20 0h1m56 0h1m-91 1h1m55 1h1m-45 2h1m72 4h1m-1 1h1m4 5h1m-79 4h1m-1 1h1m70 2h1m-31 1h1m26 0h1m2 0h1m-31 2h1m29 0h1m6 0h1m-58 3h1m56 1h1m-16 1h1m-78 1h1m53 0h1m-20 1h1m65 0h1m-88 2h1m20 0h1m-2 1h1m-23 2h1m108 0h1m-20 1h1m-68 1h1m56 1h1m-58 1h1m56 0h1m-58 1h1m-2 1h1m58 0h1m7 0h1m-68 1h1m0 2h1m65 0h1m-68 2h1m0 1h1m-2 1h2"/><path stroke="#f8a948" d="M129 46h1m-56 1h1m52 1h1m1 0h1m-57 1h1m51 0h1m-5 1h1m-48 2h1m44 0h1m-50 1h1m62 0h1m-63 2h1m38 2h1m-1 1h1m-60 1h1m-2 1h1m24 0h1m-5 1h1m-1 1h1m3 0h1m-25 1h1m18 1h1m2 0h1m31 0h1m-57 1h1m22 0h1m-26 1h1m27 0h1m54 0h1m-84 1h1m1 0h1m22 0h1m32 0h1m25 0h1m1 0h1m-8 1h1m6 0h1m-88 1h2m82 0h1m-37 1h1m25 0h1m5 0h1m-35 2h1m12 0h1m11 0h1m2 0h1m1 0h1m9 0h1m-42 1h1m1 0h2m22 0h1m2 0h1m9 0h1m2 0h1m-47 1h1m6 0h1m-4 1h1m3 0h1m37 0h1m-51 1h1m28 0h1m11 0h1m-44 1h1m6 0h1m7 0h1m12 0h1m15 0h1m-39 1h1m6 0h1m1 0h1m9 0h1m1 0h1m2 0h2m10 0h1m-48 1h1m1 0h1m14 0h1m2 0h1m8 0h1m12 0h1m4 0h1m-43 1h2m3 0h1m9 0h1m7 0h1m15 0h2m11 0h1m-61 1h1m6 0h1m1 0h1m6 0h1m2 0h2m20 0h1m18 0h1m-60 1h2m13 0h1m26 0h1m-1 1h1m-42 1h1m10 0h1m1 0h1m22 0h1m-46 1h1m8 0h1m2 0h2m1 0h1m28 0h2m-28 1h2m18 0h1m-22 1h1m20 0h1m2 0h1m-1 1h1m-38 1h1m3 0h1m4 0h1m-13 1h1m8 0h1m-30 1h1m18 0h1m38 0h1m-60 1h1m22 0h1m-22 1h1m22 0h1m33 0h2m25 1h1m-85 1h1m10 2h1m54 0h1m-56 1h1m1 0h1m8 1h1m-2 1h1m1 0h2m34 1h1m-48 1h1m1 0h1m41 0h1m-58 1h1m14 0h1m1 0h1m1 0h1m-4 1h2m49 0h1m-69 1h1m12 0h1m44 0h1m1 0h1m-46 1h1m42 0h1m-59 1h1m9 0h1m3 0h1m-6 1h2m2 0h1m53 1h1m-68 1h1m8 0h1m49 0h1m8 0h1m-69 1h2m65 0h1m-66 1h1m55 0h1m-57 1h2m-4 1h2"/><path stroke="#f8a848" d="M130 46h1m1 0h1m-6 1h1m0 1h1m4 0h1m-60 2h1m48 0h1m-49 1h1m57 1h1m-60 1h1m44 0h1m-45 2h1m-5 2h1m34 1h2m0 1h1m-62 2h2m23 0h1m32 0h1m-1 1h1m-58 1h1m25 0h1m-4 1h1m-26 1h1m3 0h2m19 0h1m32 0h1m26 0h1m-62 1h1m62 0h1m-10 1h1m4 0h1m-59 1h1m52 0h1m7 0h1m-37 1h1m32 0h1m-35 1h1m28 0h2m-3 1h1m-5 1h1m-31 2h1m6 0h1m17 0h2m4 0h1m10 0h1m-47 1h1m32 0h1m9 0h1m-42 1h1m4 0h1m2 0h1m8 0h1m1 0h1m25 0h1m-53 1h1m8 0h1m17 0h1m2 0h1m13 0h1m-37 1h1m18 0h1m1 0h1m-24 1h1m1 0h1m2 0h1m17 0h1m23 0h1m-58 1h2m1 0h1m4 0h1m23 0h2m-36 1h1m29 0h1m-35 1h1m11 0h1m2 0h1m18 0h2m-25 1h1m2 0h1m1 0h1m-19 1h1m4 0h2m57 0h1m-67 2h1m4 0h2m1 0h1m8 0h1m-12 1h1m5 0h1m1 0h1m27 0h1m-42 1h2m5 0h1m3 0h1m2 0h1m24 2h2m-62 1h1m23 0h1m33 0h1m-34 1h1m61 0h1m-20 1h1m18 0h1m-27 1h1m-61 1h1m65 0h1m-67 1h1m57 0h1m-59 1h1m24 0h2m58 0h2m-88 1h1m0 1h1m24 0h2m-12 1h1m7 0h1m2 0h1m-13 1h1m4 0h1m-6 1h1m4 0h1m1 0h1m-11 2h1m46 0h1m-1 1h1m-51 1h1m7 0h1m-10 1h1m51 0h2m-60 1h1m2 0h1m1 0h1m50 0h1m-59 1h1m1 0h1m57 1h1m-1 1h1m-58 1h1"/><path stroke="#f9f9e8" d="M8 47h1m0 1h2m121 0h1m-4 1h1M19 50h1m108 0h1M19 51h1m106 0h1M20 54h1M10 64h1m70 1h1m-65 2h1m46 2h1m-5 2h1m50 1h1M9 77h1m1 0h1m0 1h1m0 1h1m2 2h1m1 1h1m-2 15h1m106 3h1m-69 3h1m65 9h1m-4 1h1"/><path stroke="#f9f9e9" d="M11 47h1m1 2h1m66 0h1m-65 1h1m66 1h1m2 1h1m-68 1h1m103 0h1m-7 2h2m-7 3h1m-6 3h1m19 3h1M19 68h1m43 1h1m-3 1h2M8 76h1m3 1h1m4 2h1m-5 1h1m2 0h1m2 0h1m0 1h1m62 18h1m31 1h2m7 11h1"/><path stroke="#f8f8a1" d="M77 47h1m-2 1h1m2 0h1m-2 1h1m-3 2h1m12 2h1m-63 1h1m61 0h1m-65 2h1M7 57h1m17 0h1m66 0h1m1 0h1m1 0h1m-68 1h1m59 0h1m5 0h1m-67 1h3m1 1h1m54 0h1m3 1h1m7 0h2m-72 1h2m34 0h1m12 0h1m20 0h1m-72 1h1m9 0h1m3 0h1m34 0h1m14 0h1m-64 1h1m10 0h1m36 0h1m14 0h2m3 0h1m-63 1h1m1 0h1m28 0h1m28 0h1m2 0h1m-73 1h1m7 0h1M9 67h1m90 0h1m-58 1h1m23 0h1m10 0h1m3 0h1m-53 1h1m2 0h1m6 0h1m41 0h1m-71 1h1m12 0h1m2 0h1m1 0h1m-14 1h2m11 0h1M9 72h1m20 0h1M6 73h1m4 0h1m16 0h1m7 0h1m4 0h1m57 0h1M9 74h1m17 0h1m9 0h1m4 0h2m-15 1h2m4 0h1m63 0h1m-67 1h1m12 0h1m-29 1h1m16 0h1m1 0h2m4 0h1m3 0h1m52 0h1M6 78h1m9 0h1m1 0h1m15 0h1m3 0h1m1 0h1m2 0h1m56 0h1m-80 1h1m23 0h1m55 0h1m-80 1h3m18 0h1m7 0h1m1 0h1m46 0h2M6 81h1m93 0h1m-64 1h2m5 0h1m3 0h1m2 0h1m1 0h2m2 0h1m1 0h1m41 0h1m-75 1h1m22 0h1m-21 1h1m12 0h1m2 0h1m5 0h1m9 0h1m-38 1h1m35 0h1m-37 1h2m7 0h1m14 0h1m4 0h2m2 0h1m40 0h1m-73 1h1m18 0h1m4 0h1m2 0h1m42 0h1m-64 1h2m5 0h1m7 0h1m2 0h3m5 0h1m39 0h1m-49 1h1m9 0h1m38 0h1m-69 1h1m1 0h1m26 0h2m32 0h1m-70 1h1m1 0h1m24 0h1m8 0h1m24 0h1m5 0h1m1 0h3m-70 1h1m5 0h1m2 0h2m3 0h1m18 0h1m31 0h1m2 0h1m-69 1h2m1 0h1m9 0h1m18 0h1m1 1h1m15 0h1m20 0h1m28 0h1m-97 1h2m8 0h1m32 0h1m32 0h1m19 0h1M6 96h1m18 0h1m65 0h1m37 0h1M9 97h1m16 0h1m1 0h1m-18 1h1m18 0h1m46 0h1m1 0h1m14 0h1m-17 1h1m9 0h1m-76 1h1m14 0h1m6 0h1m52 0h1m1 0h1m-76 1h1m2 0h1m8 0h1m7 0h1m43 0h1m2 0h1m10 0h2m-78 1h1m74 0h1m1 0h1m6 0h1m-79 1h2m17 0h1m57 0h1m-77 1h1m5 0h3m10 0h1m49 0h2m-72 1h3m4 0h1m6 0h1m4 0h1m58 0h1m-74 1h1m67 0h1m1 0h1m10 0h1m-79 1h1m64 0h1m4 0h1m-67 1h1m7 0h1m53 0h1m2 0h1m-66 1h1m5 0h1m-7 1h1m5 0h1m57 0h1m-62 1h1m2 0h1m-2 1h1"/><path stroke="#f9a848" d="M128 47h1m-57 1h2m1 0h1m-1 1h1m-5 1h1m50 0h1m1 0h2m-56 1h1m49 0h1m12 0h1m-17 2h1m-47 1h2m-3 2h1m2 0h1m35 0h1m1 0h1m2 0h1m-7 1h1m3 0h1m20 0h1m-29 1h1m-56 1h1m53 0h1m2 0h1m-60 1h1m23 0h1m32 0h1m-57 1h1m1 0h1m23 0h1m-28 1h1m2 0h1m81 0h1m-88 1h1m26 0h1m58 2h1m-83 1h1m21 0h1m31 0h1m22 0h1m-53 1h1m28 0h1m-58 1h2m22 1h1m49 0h1m5 0h1m-32 2h1m19 0h1m7 0h1m-9 1h1m8 0h1m-38 1h1m25 0h1m16 0h2m-47 1h1m5 0h2m1 0h1m9 0h1m6 0h1m-17 1h1m35 0h1m-51 1h1m1 0h1m5 0h1m14 0h1m9 0h1m13 0h1m3 0h1m-51 1h2m1 0h2m6 0h1m16 0h1m20 0h2m-50 1h2m9 0h1m9 0h1m4 0h1m11 0h1m3 0h1m-35 1h1m1 0h1m11 0h1m3 0h1m8 0h1m-33 1h1m29 0h2m-36 1h1m4 0h1m5 0h1m-17 1h1m8 0h1m2 0h2m41 0h1m-64 1h1m1 0h2m9 0h1m3 0h1m22 0h1m3 0h1m-39 1h1m1 0h1m-10 1h1m2 0h2m13 0h1m-6 1h1m22 0h3m-42 1h2m7 0h2m2 0h1m-11 1h1m6 0h1m27 0h1m-30 1h1m28 0h1m1 0h1m-37 1h2m1 0h1m1 1h1m-27 1h1m17 0h1m-1 1h1m36 0h1m27 0h1m-87 1h2m57 1h1m8 0h1m-42 1h1m32 0h2m5 0h1m18 0h1m-87 1h1m1 1h1m26 0h1m-7 1h1m4 1h1m32 0h1m-3 1h1m-39 1h1m3 0h1m-26 1h1m57 0h1m2 1h1m5 0h1m-66 1h1m11 0h1m2 0h1m-7 1h2m48 0h1m-49 1h1m45 0h1m8 0h1m-61 1h1m3 0h1m48 0h1m5 0h1m-59 1h1m48 0h1m2 0h1m-59 1h1m2 0h1m-3 1h1m-5 1h1"/><path stroke="#f9f8a1" d="M6 48h1m70 4h1m-2 1h1m-49 1h1m48 0h3m-50 1h1M7 56h1m21 0h1m47 0h1m12 0h1m3 0h1M6 57h1m83 0h1m-64 1h2m67 0h1m-9 1h1m5 0h1M7 60h1m19 0h2m5 0h1m2 0h1m53 0h1m5 0h2m-72 1h1m8 0h1m30 0h1m-29 1h1m37 0h1M7 64h1m30 0h1m1 0h1m2 0h1m53 0h1m-32 1h1m28 0h1m4 0h1m-75 1h1m10 0h1m60 0h1m2 0h1m-73 1h1m8 0h1m3 0h1m-1 1h1m38 0h1m-70 1h2m13 0h1m3 0h2m34 0h1m13 0h1m-69 1h1m1 0h1m17 0h1m9 0h1m-18 1h1m4 0h2m67 0h1m-75 1h1m-5 1h1m12 0h1M7 74h1m2 0h1m12 0h2m3 0h1m3 0h1m5 0h1M7 75h1m3 0h1m12 0h1m11 0h2m2 0h1m4 0h1m55 0h1m-89 1h1m3 0h1m14 0h1m6 0h1m-13 1h1m11 0h1m-20 1h1m7 0h1m6 0h1m14 0h2m47 0h1m-58 1h2m56 0h1m-63 1h1m10 0h1m-28 1h1m2 0h1m10 0h1m7 0h1m9 0h2m1 0h1m-33 1h1m2 0h1m12 0h1m5 0h1m4 0h1m5 0h1m41 0h1m-75 1h1m2 0h1m1 0h1m11 0h1m4 0h1m5 0h2m3 0h1m-29 1h1m15 0h1m2 0h2m-26 1h1m16 0h2m3 0h1m8 0h1M7 86h1m21 0h1m3 0h1m10 0h1m16 0h1m67 0h1M6 87h1m18 0h2m6 0h1m19 0h1m7 0h1m1 0h1m-36 1h1m7 0h1m19 0h1m42 0h1m29 0h1M29 89h2m4 0h1m1 0h1m1 0h1m2 0h1m52 0h1M7 90h1m19 0h2m3 0h1m8 0h3m15 0h1m41 0h1m-70 1h1m3 0h1m1 0h1m18 0h2m41 0h1m-70 1h1m4 0h1m19 0h1m42 0h1m8 0h1M6 93h2m27 0h1m23 0h2m32 0h1m16 0h1M6 94h1m29 0h1m1 0h1m3 0h1m54 0h1M8 95h1m27 0h1m52 0h1m7 0h1m10 0h1m-81 1h1m8 0h1m40 0h2m21 0h1m-75 1h1m1 0h1m70 0h1m-89 1h1m-2 1h2m12 0h1m3 0h1m4 0h1m57 0h1m-78 1h1m14 0h1m62 0h1m14 0h1m-93 1h1m9 0h1m2 0h1m2 0h1m45 0h1m10 0h1m6 0h1m3 0h1m-81 1h1m5 0h1m1 0h1m-8 1h1m60 0h1m2 0h1m4 0h1m-63 1h1m10 0h2m54 0h2m2 0h1m29 0h1m-99 1h1m4 0h1m53 0h2m2 0h1m-53 1h2m49 0h1m1 0h1m4 0h1m-65 1h2m5 0h1m51 0h1m14 0h1m-71 1h1m-10 1h1m69 0h1m-66 2h2m0 1h1m2 0h1m-2 1h1m2 2h1"/><path stroke="#d0d8b9" d="M7 48h1m1 1h1m54 3h1m60 0h1m-62 1h1M8 55h1m116 0h1M15 56h1m41 0h1m22 0h1m-67 1h1m70 0h1m45 0h1m-17 1h1m-59 1h1m57 0h1m9 0h1m-69 2h1m48 0h1m-93 1h2m100 0h1M14 63h1m101 1h1m-32 1h1m-1 1h1m21 0h1m-94 1h1m42 0h1m24 0h1m-26 3h1m55 1h1M12 80h1m-4 1h1m4 1h1m2 1h1m-1 1h1m-3 3h1m-8 6h1m40 0h1m30 0h1m45 0h1M15 95h1m41 2h1m-2 2h1m24 0h1m41 0h1m2 2h1m-78 1h1m76 4h1m-78 1h1"/><path stroke="#f9d079" d="M16 48h1m64 1h1m-13 1h1m17 4h1m-19 3h1m17 0h1m-1 2h1m-1 2h1m-44 1h1m24 0h1m-1 2h1m-46 1h1m43 1h1m-58 1h1m69 0h1m21 0h1m-89 2h2m0 1h1m1 1h1m77 0h1m-75 1h1m73 0h1m4 1h1m-6 5h1m5 3h1m26 3h1m-34 1h1m-7 2h1m38 0h1m-67 2h1m65 0h1m-67 2h1m-1 2h1m-20 1h1m65 0h2m17 0h2M24 96h1m40 0h1m37 1h1m8 0h1m-26 1h1m15 0h1m-88 1h1m70 1h1m42 0h1m-107 2h1m61 0h1m15 0h1m9 0h1m-1 2h1m-69 6h1"/><path stroke="#f9f9a1" d="M77 48h2m0 2h1m-1 3h1m-53 2h1m0 1h1m59 0h1m-55 1h1m32 0h1m20 0h1m-58 1h1m56 0h1M6 59h1m30 0h1m51 0h1m6 0h2m1 0h3M6 60h1m18 0h1m9 0h1m2 0h1m1 0h1m53 0h1m5 0h1M6 61h1m23 0h1m4 0h1m30 0h1m24 0h1m2 0h1m1 0h1M6 62h1m19 0h1m7 0h1m32 0h1m27 0h2m2 0h1m-59 1h2m-11 1h2m42 0h1m-40 1h1m2 1h1m37 0h2M7 67h1m19 0h1m8 0h1m29 0h1m10 0h2m22 0h1m-72 1h1m10 0h1m37 0h1m-55 1h1m2 0h1m3 1h1m33 0h1m-52 1h1m20 0h1m-21 1h1m4 0h1m14 0h2M9 73h1m11 0h1m18 0h1m57 0h1M8 74h1m24 0h1m67 0h1m-90 1h1m10 0h1m8 0h1m1 0h1m4 0h1m-15 1h2m2 0h1m4 0h1m7 0h1m1 0h1m56 0h1m-76 1h1m2 0h1m10 0h1m1 0h1m6 0h1m51 0h1m-60 1h1m3 0h1m-11 1h1m7 0h1m5 0h1m-15 1h1m10 0h1m2 0h1m3 0h1m43 0h1M7 81h1m43 0h1m-3 1h1m5 0h1m-18 1h1m3 0h1m2 0h2m10 0h1m2 0h1m-36 1h2m15 0h1m6 0h1m-21 1h1m2 0h1m19 0h1m3 0h1m72 0h1M30 86h1m15 0h2m8 0h1m2 0h2m2 0h1m-27 1h1m-13 1h1m5 0h1m25 0h3m34 0h1m-70 1h1m24 0h1m-25 1h1m9 0h1m2 0h1m13 0h2m1 0h2m30 0h1m5 0h1m-62 1h1m22 0h1m-24 1h1m6 0h1m20 0h1m28 0h1m5 0h1m12 0h1m-15 1h1m1 0h1m31 0h1m-99 1h1m2 0h2m1 0h1m5 0h1m16 0h1m1 0h1m14 0h1m21 0h1M6 95h1m33 0h1m21 0h2m24 0h1M7 96h1m68 0h1m21 0h1m1 0h1M8 97h1m30 0h1m3 0h1m33 0h1m31 0h1m-78 1h1m6 0h1m48 0h2m-47 1h1m-11 1h1m44 0h1m15 0h2m-79 1h1m7 0h1m7 0h1m61 0h1m-75 1h1m14 0h1m45 0h2m16 0h1m28 0h1m-111 1h1m10 0h1m1 0h1m6 0h2m51 0h1m1 0h1m15 0h1m-86 1h1m8 0h1m50 0h1m1 0h1m-61 1h1m4 0h2m5 0h1m56 0h1m13 0h1m-79 1h1m6 0h1m49 0h1m4 0h1m2 0h1m3 0h1m-72 1h1m1 0h1m1 0h1m58 0h1m4 0h1m-3 1h1m2 0h1m-66 1h1m-2 1h1m2 0h1m60 0h1m-59 1h1m60 0h1m-58 1h1m66 0h1m-69 2h1"/><path stroke="#d0d8b8" d="M7 49h1m0 1h1m1 1h1m71 0h1m-73 1h1m2 0h1m-1 1h1m1 0h1m1 0h1m66 0h1m-66 2h1m104 0h1M14 56h1m70 0h1m-22 2h1m66 0h1m-75 2h1m57 1h1m6 0h1m-59 1h1m50 0h1m-10 1h1m8 0h1m6 1h1m2 0h1m-20 2h1m8 0h1m9 0h1M21 67h1m42 0h1m41 0h1m8 0h1m-32 1h1m30 0h1m-95 1h1m-1 1h1m84 2h1m-97 9h1m1 1h1m2 1h1m4 1h1m-7 2h2m-2 2h1m111 0h1M14 90h1m0 2h1m69 0h1m40 0h1M21 93h1m27 2h1m6 1h2m-9 2h1m35 0h1m38 1h1m-104 1h1m35 0h1m24 0h1m1 0h1m-28 1h1m-2 1h1m69 9h1"/><path stroke="#d1d8b9" d="M8 49h1m71 2h1m50 0h1M14 52h1m69 0h1m39 0h1M8 53h1m7 0h1m-3 1h1m2 1h1m104 0h1M20 56h1m94 0h1m6 0h1M14 58h1m107 0h1M14 59h2m64 0h1m43 1h1m6 0h1M21 61h1m42 0h1M8 62h1m104 0h1m-50 1h1m20 0h1m-65 1h1m85 0h1m-51 1h1m22 0h1m34 0h2M13 66h1m110 0h1M13 67h1m71 0h1m-65 1h1m94 0h1m-11 1h1m0 4h1m-2 1h2M8 79h1m2 1h1m-4 1h1m5 3h1m1 0h1m-1 1h1m3 0h1m-1 1h1m105 0h1M15 88h1m33 6h1m76 0h1M13 96h1m104 1h1m7 1h1m-47 1h1m45 3h1m-1 1h1m-1 2h1m-1 5h1"/><path stroke="#f9d078" d="M18 49h1m49 2h1m-1 2h2m-46 1h1m44 0h1m-2 1h1m-45 4h1m77 1h1m-1 5h1m-79 2h1m77 0h1m-79 2h1m19 0h1m57 8h1m-1 4h1m-79 2h1m71 2h1m-3 1h1m-2 1h1m37 0h1m-42 1h1m11 0h1m-38 1h1m22 0h1m-45 1h1m19 0h1m38 0h1m-39 2h1m-1 1h1m46 0h1M9 96h1m121 0h1m-21 2h1m-88 2h1m78 2h1m-1 2h1m-60 2h1m67 0h1m-69 1h1m58 0h1m7 2h1m-68 3h1"/><path stroke="#91a181" d="M131 49h1m0 2h1m-47 3h1m39 0h1M21 55h1m104 0h1M21 56h1m64 2h1m39 0h1M9 59h1m12 0h1m63 0h1m30 0h1m-95 1h1m87 0h1m2 0h1m17 0h1m-24 1h1M9 62h1m107 0h1M9 63h1m6 0h1m64 0h1m26 0h1m-93 1h1m41 0h1m27 1h1m36 0h1M23 66h1m98 1h1m-58 1h1m51 1h1m-57 2h1m52 1h1m-7 2h1m-86 9h1m-3 2h1m-1 1h1m1 1h1M9 93h1m6 0h1m102 0h1m8 1h1m-1 1h1m-79 1h1m-29 1h1m48 0h1m55 0h1m-1 1h1m-65 2h1m-14 1h1m35 0h1m40 2h1m-75 2h1m-2 1h1m69 7h1"/><path stroke="#90a080" d="M132 49h1m-5 2h1M23 52h1m108 1h1m-52 2h1m4 0h1m34 0h1M22 56h1m100 0h1M23 57h1m-1 1h1M9 60h1m6 0h1m100 0h1m-60 1h1m6 0h1m-1 1h1m60 0h1M22 63h1m91 0h1m14 1h1M22 65h1m35 0h1m58 0h1m8 0h1M16 66h1m5 1h1m100 0h1M23 68h1m34 0h1m58 0h1m3 0h1m-99 1h1m90 0h1m4 0h1m-64 4h1m56 0h1m-6 2h1M8 82h2m118 3h1M9 86h1m6 0h1m110 1h1M16 88h1m110 0h1m-1 1h1m-9 1h1m7 0h1m0 1h1M16 92h1m5 0h1m96 0h1m-98 1h1m104 0h1m-47 2h1m4 0h1m32 0h1m7 0h1M16 96h1m64 0h1m-13 2h1m58 1h1m-106 1h1m104 0h1m-4 2h1m2 0h1m-79 1h1m4 1h2m-7 2h1"/><path stroke="#d0d9b9" d="M7 50h1m2 0h1m69 0h1M9 51h1m114 0h1M15 52h1m115 0h1M18 54h2m0 1h1m59 0h1m-17 1h1m66 0h1m-68 1h1m50 0h1m0 1h1m-32 1h1m30 0h1m7 0h1M8 60h1m5 0h1m6 0h1m91 0h1m1 0h2m5 0h1m2 1h1m-69 1h1m67 0h1M21 63h1m102 0h1M9 64h1m47 0h1m6 0h1m50 0h1m-9 1h1m5 0h1m-93 1h1m59 0h1m25 1h1m-93 1h1m97 1h1m1 0h2m-98 1h1m95 0h1M13 81h1m-3 1h1m0 1h1m3 0h1m1 0h1M8 84h1m6 0h1m-8 1h1m10 0h1M8 87h1m5 2h1m103 2h1M12 96h1m67 0h1m4 0h1m32 0h1M17 98h1m3 0h1m96 0h1m-70 2h1m6 0h1m28 0h1m-65 1h1m62 0h2m40 7h1m-1 1h1"/><path stroke="#d0d9b8" d="M9 50h1m73 2h1m41 1h1M18 55h1M8 56h1m-1 1h1m115 0h1m-1 1h1M8 59h1m113 0h1M8 61h1m5 0h2m5 1h1m100 0h1m-66 1h1m58 0h1m5 0h1M14 64h1m65 0h1m32 0h1m10 0h1M9 65h1m112 0h1M15 67h1m100 0h1M17 69h1m95 1h1m-7 1h1m-2 2h1m-1 2h2M7 78h2m3 3h1m2 1h2m1 2h1m-1 1h1M8 86h1m6 5h1m5 4h1m63 0h1m-71 1h1m5 1h1m58 0h1m-65 1h1m39 0h1m-37 2h1m103 4h1"/><path stroke="#d1d9b8" d="M11 50h1m69 1h1m-68 2h1m2 1h1m46 0h1m60 0h1M19 56h1m104 0h1M15 57h1m64 0h1m4 1h1m-22 1h1m-50 1h1m48 0h1m59 1h1m6 0h1m-47 1h1m21 0h1M8 63h1m71 0h1m25 1h1m-93 1h1m49 0h1m60 0h1M12 66h1m2 0h1m48 0h1m51 0h1m5 0h1m-10 1h1m-98 1h1m89 0h1m6 0h1m-96 1h2m37 0h1m-1 2h1M7 79h1m3 2h1m-4 2h1m4 0h2m-7 6h1m-1 1h1m6 0h1m69 0h1m-65 1h1m-8 1h1m65 0h1m37 0h1M14 93h1m-7 1h1m0 1h2m107 0h1m7 0h1M14 96h1m34 0h1m76 0h1M15 97h1m69 0h1m-29 1h1m-40 1h2m1 0h1m27 0h1m7 0h1m-39 1h1m63 0h1m-35 1h1m7 1h1m-9 3h1m76 2h1"/><path stroke="#f8f9e9" d="M17 50h1m-3 1h1m4 0h1m63 0h1m-65 1h1m0 1h1m90 6h1M11 64h1m72 2h1m35 1h1M18 68h1m36 5h1m53 0h1M9 75h1m1 1h1m-3 2h1m1 1h1m2 1h1m2 1h1m-5 14h1m4 3h1m65 1h1m32 0h1m-64 5h1m66 8h1m-2 1h1"/><path stroke="#f8d079" d="M83 50h1m-16 4h1m0 2h1m17 0h1m-20 2h1m-1 4h1m34 0h1m-60 1h1m23 2h1m18 1h1m-19 2h1m27 1h1m-74 3h1m78 0h1m-1 1h1m-7 3h1m4 0h1m0 4h1m-39 5h1m64 0h2M24 86h1m67 1h1m3 0h1m-9 1h1m4 1h1m8 0h2m27 0h1m-87 1h1m46 1h1m-49 1h2m-2 1h1m57 0h1m-38 1h1m-42 1h1m40 0h1m36 0h1m27 0h2m-87 1h1m57 0h1m-92 1h1m99 1h1m17 0h1M15 99h1m29 1h1m-23 2h1m87 0h1m-9 1h1m7 0h1m-68 2h1m58 0h1m7 1h1m-67 2h1m56 1h2m8 0h1m-10 1h1m-1 1h1m-59 1h1m-1 1h1"/><path stroke="#91a081" d="M129 50h1m-3 1h1m-47 1h1m-1 1h1m41 1h1M9 56h1m48 0h1m59 0h1M9 57h1m6 0h1m4 0h2m42 0h1m15 0h1m41 0h1m8 0h1M9 58h1m6 0h1m106 0h1M23 59h1m34 0h1m22 1h1m4 0h1m27 1h1m-93 1h1m91 0h1m8 2h1M23 65h1m90 0h1m-7 1h1m17 0h1m-19 3h1m-1 1h1m9 0h1M23 82h1M9 85h1m12 0h1m-2 2h1m0 1h2m104 0h1M16 90h1m111 0h1M23 91h1m62 0h1m40 0h1M23 92h1m103 0h1m-47 1h1m46 0h1m-48 1h1m37 0h1m-1 3h1m-62 1h1m27 0h1m32 0h1m-1 1h1m5 0h1m-76 1h1m14 0h1m20 0h1m30 0h1m-55 1h1m52 0h1m8 0h1m2 0h1m-1 2h1m-2 1h1m-5 8h1m-6 3h1"/><path stroke="#91a180" d="M130 50h1m1 0h1m-1 2h1M22 53h1m103 0h1M14 55h1m66 1h1m4 0h1m26 3h1m12 0h1m5 0h1m-10 1h1M9 61h1m6 0h1m100 0h1m5 0h1m2 0h1M16 62h1m6 0h1m57 0h1m26 0h1m14 1h1m7 0h2M23 64h1m104 1h1m-71 1h1m27 0h1m27 0h1m-93 2h1m91 0h1m-57 2h1m4 0h2m-42 1h1m34 2h1m49 0h1m0 1h1M23 84h1m-1 1h1M9 88h1m13 1h1m62 0h1m-1 1h1M9 92h1m41 1h1m-30 2h2m-2 1h1m105 0h1m-79 2h1m-1 1h1m7 0h1m4 0h1m22 0h1m-23 1h1m53 0h1m-96 1h1m34 1h1m58 13h1"/><path stroke="#d1d8b8" d="M131 50h1M8 51h1m2 0h3m-2 1h1m-1 1h1m118 0h1M16 54h1m63 0h1m4 0h1m38 0h1m6 0h1M16 55h1m47 0h1m20 0h1m45 0h1m-75 2h1m64 0h1m2 0h1M8 58h1m12 0h1m-1 1h1m109 0h1m-47 1h1m39 0h1m-13 1h1m-34 1h1m43 0h1m-18 1h1m5 0h1m-99 1h1m69 0h1m-76 1h1m4 0h1m5 0h1m84 0h1m-96 1h1m2 0h1m42 0h1m25 1h2m-28 1h1m49 1h1m-88 1h1m86 0h1m8 0h1m-11 1h1m-97 8h1m-4 1h1m1 0h1m9 6h1m106 1h1m-1 2h1m-9 1h1m7 0h1m-42 1h1m40 0h1M8 92h1m12 0h1m63 1h1m32 0h1M9 94h1m5 0h1m5 0h1m96 0h1M11 95h1m68 0h1m-70 1h1m9 0h1m-9 1h2m0 1h1m64 0h1m4 1h1m40 0h1m-78 5h1m-1 2h1"/><path stroke="#f9d178" d="M22 51h1m46 1h1m17 1h1m-64 2h1m44 0h1m17 0h1m15 5h1m-2 1h1m-35 2h1m-25 1h1M9 66h1m34 0h1m58 0h1m-35 3h1m-26 1h1m-23 2h1m79 0h1m0 2h1m-2 1h2m-1 1h1m-7 1h1m-1 2h1m4 0h1m-7 5h1m-3 3h1m8 0h1m-40 1h1m32 0h1m-4 1h1m-8 1h1m-44 1h1m20 0h1m36 0h1m-1 1h2m-1 1h1m-40 1h1m22 0h1m15 0h1m-59 1h1m66 0h1m-69 1h1m42 0h1m14 0h1m9 0h1M11 97h1m32 0h1m-21 1h1m20 0h1m85 0h1m-2 1h1m-50 1h1m-63 1h1m111 0h1m-47 1h1m44 1h1m-19 2h1m-2 2h1m-68 4h1m57 0h1"/><path stroke="#f8d078" d="M69 51h1m17 7h1m-44 7h1m42 0h1m-44 2h1m24 0h1m-56 1h1m29 0h2m37 0h1m-39 1h1m-28 1h1m50 0h1m27 0h1m-78 1h1m82 6h1m-1 1h1m-39 8h1m26 0h2m-70 2h1m64 0h1m1 0h1m1 0h1m36 0h1M24 90h1m39 2h1m66 1h1m-88 1h1m66 2h1m18 0h1m-29 1h1m28 0h1M13 98h1m88 0h1m28 1h1m-114 1h1m112 0h1m-108 1h1m58 0h1m3 0h1m14 2h1m27 1h1m-19 3h1m-11 1h1m-1 4h1m8 0h1m-10 1h1"/><path stroke="#f9a849" d="M73 51h1m49 0h1m-3 1h1m-50 1h2m0 1h1m-5 1h1m44 0h1m-44 1h1m36 1h1m3 0h1m-40 2h1m-26 1h1m0 1h1m23 0h1m-5 1h1m2 0h1m-27 1h1m22 0h1m-21 1h1m-4 1h1m27 0h1m-28 1h1m25 0h1m51 1h1m1 0h1m1 0h1m-4 1h1m-6 1h1m8 0h1m-10 1h2m5 0h1m-79 1h1m42 0h1m9 0h1m17 0h1m-32 1h1m3 0h1m37 0h1m-29 1h1m9 0h1m2 0h1m2 0h1m1 0h1m-36 1h1m1 0h1m13 0h1m25 0h1m-42 1h1m4 0h1m15 0h1m5 0h1m-32 1h1m3 0h1m18 0h1m16 0h1m1 0h1m2 0h1m-27 1h1m7 0h1m15 0h1m-47 2h1m4 0h1m2 0h1m-17 1h1m18 0h1m13 0h1m11 0h1m-45 1h1m14 0h1m25 0h1m-45 1h1m4 0h1m1 0h2m5 0h1m6 0h1m20 0h1m2 0h1m-38 1h1m-15 1h1m4 0h1m9 0h2m4 0h1m-17 1h1m5 0h1m-9 1h1m3 0h1m1 0h1m4 0h2m-5 1h1m4 0h1m22 0h1m-36 1h1m1 0h1m-6 1h1m1 0h1m2 0h1m0 2h1m33 0h1m-36 1h2m32 0h1m-2 2h1m27 0h1m-68 1h2m38 0h1m25 0h1m-28 2h1m-35 1h1m2 0h1m-15 1h1m0 1h1m5 0h2m-4 1h1m66 0h1m-68 2h1m47 0h2m-67 1h1m11 0h1m-3 1h1m6 0h1m47 0h1m-67 1h1m58 0h1m6 0h2m-2 1h1m-64 1h1m-1 1h2m2 0h1m-7 1h1m55 0h1m8 0h1m-66 1h1m2 0h1"/><path stroke="#484840" d="M129 51h1m-67 2h1m-2 1h1m-53 1h1m48 0h1m1 0h1m20 0h1m45 0h1m1 0h1m-71 1h1m2 0h1m66 0h1M11 57h1m43 0h1m4 0h1m21 0h1m-72 1h1m50 0h1m21 0h1m44 0h1m-71 1h1m1 0h1m-52 1h1m6 0h1m42 0h1m-48 1h1m38 0h2m5 0h1m1 0h1m57 0h1m8 0h1M19 62h1m63 0h1m27 0h1m6 0h1m8 0h1M13 63h1m40 0h1m7 0h1m47 0h1m16 0h1m-75 1h1m5 0h1m50 0h1m-94 1h1m36 0h2m62 0h1m-67 1h1m1 0h1m1 0h1m2 0h1m1 0h1m47 0h1m-47 1h1m-3 1h2m-11 1h1m9 0h1m-10 1h1M10 83h2m0 6h1m4 0h1m2 0h1m-8 3h1m103 0h1M10 93h2m72 0h1m30 1h1m1 0h1m-67 2h1m32 0h1m-67 1h1m32 0h1m3 0h1m27 0h1m32 0h2m-67 1h1m1 0h1m62 0h1m-66 1h1m0 3h1m1 0h1"/><path stroke="#494941" d="M130 51h1m-69 2h1m64 2h1m1 0h1M12 56h1m-3 1h1m6 0h1m1 0h1m34 0h1m28 0h2m35 0h2M12 58h1m7 0h1m31 0h1m1 0h1m63 0h1m-65 1h2m-2 1h1m4 0h1m22 0h1m46 0h1m-68 1h1m19 0h1m38 0h1m5 0h1m1 0h1M12 62h1m40 0h1m65 0h1M10 63h2m43 0h1m4 0h1m-42 1h1m34 0h2m53 0h1m0 1h1m-92 1h1m33 0h1m8 0h1m57 0h1M20 68h1m32 0h1m5 0h1m3 0h1m47 0h1m-52 1h2m48 1h1m-59 1h1m57 0h1m1 0h1M11 88h1m5 0h1m-8 2h1m8 0h2m-10 1h2m103 0h1M11 92h1m7 0h1m64 0h1m-68 1h1m-6 1h2m6 1h1m30 0h1m63 0h1m-96 1h1m95 0h1m-64 1h1m30 0h1m-31 2h1"/><path stroke="#91a080" d="M8 52h2m55 1h1M9 54h1m55 0h1m-8 1h1m64 0h1M23 56h1m93 1h1m-96 1h1m103 2h1m-46 1h1m41 1h1m8 0h1m-16 1h1m8 1h1m0 1h1m-5 1h1M23 67h1m84 0h1m13 1h1m-3 1h1m-7 1h1m-58 3h1M9 83h1m12 0h1M9 84h1m11 0h1m0 3h1M9 89h1m6 0h1m-8 1h1m13 0h1M9 91h1m6 0h1m35 3h1m-30 2h1m95 0h1m7 0h1m-47 1h1m46 0h1M23 98h1m44 0h1m59 0h1m-63 1h1m48 3h1m-58 1h1m-6 3h1m65 8h1"/><path stroke="#d1d9b9" d="M11 52h1m68 0h1m1 0h1m-3 1h1m4 0h1m38 0h1M8 54h1m6 0h1m2 2h1m106 0h1M20 57h1m95 0h1M15 58h1m41 0h1m22 0h1m44 0h1m-46 2h1m-1 1h1m4 0h1m30 0h1m-11 1h1m24 0h1M15 63h1m109 0h1M8 64h1m2 1h1m112 0h1m-45 1h1m1 0h1m30 0h1m-97 2h1m46 0h1m42 0h1m-2 2h1m-86 1h1m85 1h1M9 79h1m-2 1h1m1 0h1m3 1h1m-5 1h1m2 0h1m5 2h1m-3 1h1m0 1h1m-5 1h1m5 0h1M8 88h1m6 1h1m5 0h1m-1 1h1M8 91h1m5 0h1m0 2h1m-2 1h1m65 0h1m4 0h1m-72 1h1m34 2h1m6 0h1m69 0h1M17 99h1m64 0h1m43 1h1m-71 1h1m-8 2h1m73 1h1m2 0h1"/><path stroke="#90a180" d="M65 52h1m60 0h1m5 2h1M9 55h1m12 0h2m41 0h1m54 0h1M16 56h1m109 0h1m-1 1h1m5 1h1M16 59h1m64 0h1m41 0h1m-66 1h1m6 0h1m46 0h1m-3 1h1m21 0h1m-75 1h1m27 1h1m-22 1h1m48 0h1m2 0h1m12 0h1m-66 3h1m-1 2h1m52 0h1m-97 2h1m35 0h1m3 0h1m45 0h1m-1 1h1m4 0h1m-4 2h1m-2 1h1m-88 9h1m-8 1h1m6 1h1m-2 2h1m106 1h1m-10 2h1M16 94h1m6 0h1m26 0h1m-35 1h1m53 2h1m15 0h1m-20 2h1m-10 1h1m60 0h1m5 0h1m-68 1h1m56 0h1m1 0h1m-68 3h1m74 0h1m-76 1h1m-1 2h1m74 4h1m-6 3h1"/><path stroke="#484941" d="M127 52h1m2 0h1m-4 1h1M13 54h1m49 0h1m66 0h1m-2 2h1M13 57h1m4 0h1m42 0h1m68 0h1M18 58h2m41 0h1m20 0h1m47 0h1M10 59h2m6 0h2m98 0h1m11 0h1M19 60h2m35 0h1m6 0h1m19 0h2m36 0h1m5 0h1m-74 1h1m-3 1h1m2 0h2m3 0h1m1 0h1m65 0h1M12 63h1m43 0h1m54 0h2m15 0h1m-69 1h1m1 0h1m19 0h1m-24 1h1m24 0h1m24 0h1m0 1h1m1 1h1m-1 1h1m-1 1h1m-61 1h1m7 0h1m48 0h1m-57 2h1M12 84h1m-3 3h3m6 0h1m-1 2h1m-7 1h1m3 1h1m1 0h1m95 1h1m-98 1h1m1 0h1m96 0h1m-66 2h1m2 0h1m-4 1h1m30 0h1m31 0h1m1 0h1m-36 1h1m-31 1h1m-1 1h1m-1 2h1m-2 1h1m3 0h1m-5 2h1"/><path stroke="#494840" d="M128 52h1m-1 1h2M10 54h1m49 0h1m66 0h2M12 55h2m70 0h1m-72 1h1m115 1h1M10 58h1m49 1h1m21 0h2m43 0h1m1 0h1M12 61h1m4 1h2m35 0h1m57 0h1m7 0h2m7 0h2M20 63h1m-3 1h1m42 0h1m58 0h1m-68 1h1m6 0h1m-44 1h1m101 0h1m-67 1h1m7 0h2m47 0h2m-3 1h1m-57 1h1m2 0h1m52 0h2m-57 1h1m4 0h1m-5 1h1M10 85h1m0 1h1m1 0h1m3 0h1m-1 1h2m-6 1h1m-3 1h1m8 2h1m62 0h1m-71 2h1m5 0h1m62 0h1m-63 1h1m61 0h1m33 0h1m-99 1h2m97 0h1m-63 1h1m59 2h1m-61 1h1m-1 1h1m-2 1h2"/><path stroke="#494841" d="M129 52h1M11 53h1m71 1h1m-22 1h1m-52 1h1m70 0h1m1 0h1m42 0h1m-72 1h1m71 0h1m-74 1h1m4 0h1m59 0h1M13 59h1m106 0h2M13 60h1m4 0h1m33 0h2m65 0h1m8 0h1M11 61h1m71 0h1m-74 1h1m8 1h1m64 0h1m33 0h1M13 64h1m3 0h1m100 0h1m2 0h1M18 65h1m1 0h1m98 0h1M20 66h1m-1 1h1m31 0h1m1 0h1m54 0h1m-55 1h1m4 0h1m-7 1h2m56 1h1m-4 1h1m-56 1h1m55 0h1M10 86h1m2 1h1m-2 1h1m6 0h1m-7 3h1m4 0h1m1 1h1m61 0h2m-66 2h1m64 0h2m-68 1h1m36 0h1m-38 1h1m1 0h1m62 0h1m-29 1h1m60 0h1m-32 1h1"/><path stroke="#686148" d="M6 53h1m70 4h1m-2 1h2m-54 4h1m62 2h1m2 0h1m-64 1h2m2 0h1m58 0h1m-63 1h1m4 0h1m0 1h1m62 0h1m-24 1h1M7 70h1m28 0h2m1 0h1m60 0h1m1 0h1m-65 1h2m-28 1h1m32 0h1m0 1h1m16 0h1m-2 1h1m5 0h1m2 0h1m-52 1h1m30 1h1m1 0h1m-34 1h1m1 0h1m2 0h1m25 0h1m11 0h1m2 0h1m-43 1h1m30 1h1m1 0h1m-29 1h1m-2 1h1m3 1h1m65 0h1M6 83h1m25 0h1m29 0h1m-25 2h1m3 2h1m-1 1h1m4 0h1m-2 1h2m2 1h1m-2 1h2m36 0h1m-34 1h1m74 0h1M24 93h1m2 0h1m24 0h1m4 0h1m33 0h1m-62 1h1m30 1h1m28 0h1m-62 1h1m1 0h1m62 0h2m-61 1h1m28 0h1m33 0h1m9 0h1M2 99h1m2 0h1m102 0h1M8 101h1m33 1h1m-39 1h1m4 2h1m6 0h1m60 0h2m-63 1h1m0 1h1m5 1h1m62 0h1m-65 1h1m58 0h1m0 1h1m5 0h1m38 0h1m1 0h1m-109 1h1m2 0h1m61 0h2m-59 1h1m-6 1h1m2 0h1m4 0h1m58 0h1m-61 2h1m4 0h1m71 0h2m-71 1h1m60 0h1m-6 1h1m3 1h1m1 0h1m-3 1h1"/><path stroke="#696049" d="M7 53h1m-2 2h1m71 2h1m-12 1h1m19 4h1m3 2h1m-62 2h1M7 68h1m68 0h1M8 69h1m26 0h1m62 0h1M9 70h2m54 0h1m8 0h1m-11 1h1m37 0h1m-63 1h1m21 0h1m3 0h1m2 0h1m-57 1h1m45 0h1m8 0h1m-55 1h1m3 0h1m25 0h2m2 0h1m-33 1h1m29 0h1m1 0h1m2 0h1m17 0h1m-50 1h1m6 3h1m1 0h1m-3 1h1m2 0h1m26 0h1m2 0h1m-29 1h1m27 0h1m-25 2h1m-3 1h2m1 0h2m25 0h1m33 0h1M7 85h1m35 3h1m-20 3h1m1 2h1m2 1h1m28 0h1m-3 1h1m1 0h2m32 0h1m1 0h1m-62 1h1m59 0h1m-63 1h1m1 1h1m29 0h1m44 0h2m-71 1h1m24 0h1m33 0h1m12 0h1M2 101h1m1 0h2m37 0h1m-35 1h1m0 1h1m32 0h1m32 0h1m-67 1h1m65 0h2m-70 1h1m68 1h1m49 0h1m-114 1h1m5 0h1m58 0h1m4 1h1m-65 1h1m58 0h2m6 0h1m-63 1h1m63 0h1m-66 2h1m6 0h1m54 0h1m-55 2h3m57 0h1m1 1h1m15 0h1m-18 1h1m-53 1h1m56 0h1m12 0h1m-4 1h1m-73 1h2m3 1h1m1 1h1"/><path stroke="#90a181" d="M9 53h1m13 0h1m62 0h1m-65 1h2m57 0h1m40 0h1M15 55h1m116 0h1m-68 1h1m66 0h1m-75 1h1m27 0h1m-29 1h1m-37 3h1m63 0h1m-22 2h1m15 1h1m26 0h1m-93 1h1m48 0h1m-44 1h1m63 1h1m21 1h1m11 0h1m-99 1h1m35 0h1m-36 1h1m34 2h1m52 2h1M14 85h1m-6 2h1m6 0h1m5 2h1m-1 1h1m58 2h1m4 0h1m-1 1h1m-65 1h1m104 0h1m-78 1h1m35 1h1m-64 1h1m34 0h1m-37 1h1m-1 1h2m103 0h1m-106 1h1m-1 1h1m104 0h1m-78 1h1m76 0h1m-71 2h1m-7 2h1m-1 1h1m72 5h1m-4 1h1"/><path stroke="#494940" d="M10 53h1m71 0h2m-73 1h1m72 0h1m-74 1h1m-2 1h1m6 0h1m43 0h1m0 1h1m-46 1h1m45 0h1m55 0h1m1 0h1m5 0h1m-67 2h1m58 0h1M17 61h3m36 0h1m6 0h1m20 0h1m33 0h1m-99 1h1m42 0h1m-11 1h1m9 0h1m18 0h1m-71 1h1m50 0h1m47 0h2m-57 1h1m4 0h1m1 0h1m54 1h1m2 0h1m-66 1h1m2 2h1m51 0h1m-1 2h1M12 85h1m5 3h1m-9 1h1m7 0h1m-8 1h1m72 0h1m-75 1h1m73 0h1m-75 1h1m6 0h2m97 0h1M12 93h1m70 0h1m-67 1h1m1 0h1m64 1h1m-32 1h1m-35 1h2m33 1h1m28 0h1m33 0h1m-65 1h1m61 0h1m-63 1h1m-3 1h1m1 0h1m-3 2h1"/><path stroke="#484841" d="M130 53h1m-49 1h1m46 0h1m-67 1h1m-5 1h1m60 0h1m7 0h1M12 57h1m114 0h1M13 58h1m42 0h1m2 0h1m23 0h1m44 0h1M12 59h1m7 0h1m35 0h1m5 0h2m20 0h1m43 0h1M11 60h2m42 0h1m6 0h1m55 0h1M10 61h1m9 0h1m39 0h1m51 0h1m17 0h1M11 62h1m70 0h1m1 0h1m25 0h1m-93 1h1m33 0h1m30 0h1m35 0h3M20 64h1m31 0h1m30 0h1m-32 1h1m30 0h1m27 0h1m8 0h1M18 66h1m41 0h1m2 0h1m-4 1h1m57 0h1m-67 1h1m1 0h1m1 0h1m-2 2h2m-1 1h1m-2 1h1m53 0h1M13 84h1m-3 1h1m8 3h1m-8 1h1m4 1h1m63 1h1m32 2h1m-33 2h1m32 0h1m-99 1h1m35 0h1m-35 2h1m31 2h1m1 0h1m-2 2h1m-2 1h1"/><path stroke="#696048" d="M6 54h1m71 4h1m0 1h1m7 4h1m-61 1h2m3 2h1m-3 1h1M6 68h1m68 0h1m24 0h2m-64 1h2m35 0h1m-6 1h1m-28 1h1m25 0h1m-58 2h1m3 0h1m26 0h1m21 0h1m1 0h1m4 0h1m1 0h1m-18 1h1m1 0h1m7 0h1m-50 1h1m44 0h1m1 0h2m-46 1h1m28 0h1m11 0h1m2 0h2m-17 1h1m2 0h1m-28 1h1m25 0h1m4 0h1m-33 1h1m2 0h1m25 0h1m-25 3h1m3 0h2m26 0h1M7 83h1m25 0h1m3 0h1m25 0h1m34 0h1m1 1h2m0 2h1m-63 1h1m3 2h1m84 2h1M25 92h1m25 0h1m-27 1h1m27 0h1m-27 1h1m27 0h1m35 0h1m-65 1h2m5 1h1m62 0h1m-36 1h1m32 0h1M3 98h1m97 0h1m8 0h1M4 99h1m31 0h1m-35 1h1m4 0h1m30 0h2m2 0h1m68 0h1M6 101h2m34 0h1m-41 1h1m2 0h1m2 0h1m-2 1h2m2 0h1m-6 1h1m6 0h2m-2 1h1m1 0h1m-5 1h1m5 0h1m58 0h1m-64 1h1m7 0h1m59 0h1m45 0h1m-49 1h2m4 0h1m43 0h2m-110 1h1m60 0h1m-60 1h2m2 0h1m56 0h1m43 0h1m-107 1h1m2 0h1m2 0h1m62 0h1m-62 1h1m61 0h1m-3 1h1m2 0h1m-67 1h3m65 0h1m-64 1h3m-3 1h1m3 0h2m58 0h1m11 0h2m-11 1h1m-62 1h1m58 0h1m4 0h1m7 0h2m-71 1h1m59 0h1m6 0h1m-67 1h1"/><path stroke="#686149" d="M7 54h1m59 5h1m-2 1h1m12 0h1m-56 4h1m10 4h1m41 0h1m-44 1h1m67 0h1m-63 1h1m30 0h1m1 0h1m4 0h1m22 0h1m-91 1h2m27 0h1m31 0h1m-63 1h1m4 0h1m26 0h1m18 0h1m8 0h1m-29 1h1m19 0h1m1 0h1m-18 1h1m17 0h1m-6 1h1m1 0h1m4 0h2m1 0h1m-19 1h1m8 0h1m-8 1h1m10 0h1m-41 1h1m0 1h1m-1 1h1m4 0h1m26 1h1m-28 1h1m1 0h1m63 0h1m1 0h1m-65 1h1m3 2h1m3 1h1m1 1h1m2 3h1m80 0h1m-78 1h2m-2 1h1m2 1h1m31 0h1m1 1h1m2 0h1m-36 1h1m33 0h1m1 0h1M2 98h1m31 0h1m64 0h1m-63 1h1m2 0h1m60 0h1m-99 1h1m106 0h1m-71 1h1m-32 2h1m-1 1h1m66 1h1m3 0h1m-71 1h1m7 0h1m59 0h1m2 0h1m-70 1h1m2 0h1m113 0h1m-113 1h1m2 0h1m56 0h1m49 0h1m-103 1h1m103 0h1m-112 1h2m6 0h1m56 0h1m2 0h1m3 0h1m-64 1h1m56 0h1m4 0h1m2 0h1m-8 1h1m-57 1h1m65 0h1m-70 1h1m71 0h1m9 0h1m-81 1h1m67 0h2m-67 1h1m2 0h1m67 0h1m-70 1h1m4 0h1m57 0h2m2 0h3m-68 1h1m4 0h1m-2 2h1"/><path stroke="#484940" d="M12 54h1m48 0h1m-2 1h1m22 0h1m-28 1h1m5 0h1m20 0h1m37 0h1m-63 1h1m3 0h1m54 0h2m-67 1h1m-37 1h1m34 0h2m65 0h1m10 1h1m-76 1h1m55 0h1m8 0h1M13 62h1m45 0h1m1 0h1m47 0h1m-93 1h1m41 0h1m1 0h1m47 0h1m-54 1h1m27 0h1m34 0h1M19 65h1m42 0h1m49 0h1m8 0h1m-67 1h1m55 0h2m-95 1h2m35 0h1m3 0h1m59 0h1m-10 1h1m0 2h1m-59 1h2M10 84h2m1 1h1m-2 1h1m-3 2h1m1 2h1m4 0h1m99 1h1M12 92h1m103 1h1m-64 1h1m-1 1h1m28 0h1m-31 2h1m2 1h1m60 1h1m-66 1h1m1 3h2m-3 1h1"/><path stroke="#90a081" d="M21 54h1m97 2h1m-55 2h1m15 0h1m35 0h1m-53 1h1m48 0h1m-93 1h1m0 1h1m62 1h1m-64 1h1m34 0h1m67 0h1M22 64h1m63 0h1m21 1h1m-44 1h1m51 0h1m-60 1h1m55 0h1m2 0h1m-96 3h1m94 0h1m-4 1h1m-56 1h2m50 1h2M23 86h1m103 0h2m-1 1h1M22 91h1m105 1h1M23 93h1m27 1h1m34 0h1m-37 3h1m76 3h1m-71 3h1m67 0h1m-72 2h2"/><path stroke="#484030" d="M133 54h1m-65 5h1m25 8h1m0 1h1m-47 1h1m52 0h1m-54 1h1m80 0h1m1 0h1m-48 1h1m43 0h1m-47 1h2m3 0h1m37 0h3m-46 1h1m-5 1h1m1 0h1m-4 1h1m42 0h1m1 0h1m-46 1h1m41 0h1m-48 1h1m4 0h1m37 0h1m-42 1h1m39 0h1m-2 1h1m-44 1h1m37 0h1m-15 1h1m15 0h1m-18 1h1m14 0h1m-17 1h1m-5 1h1m3 0h1m9 0h1m-15 1h1m2 0h1m-7 1h1m-6 3h1m49 1h1m-54 2h1m-7 1h1m-1 2h1m32 3h2m-62 2h1m89 0h1m1 0h1m-94 1h1m91 0h1m-94 2h2m28 1h1m-4 1h1m-3 1h1m1 0h1m-3 2h2m-10 2h1m2 0h1m-1 1h1m1 0h1m-6 1h1m2 0h1m-10 1h1m4 0h1m-8 1h1m4 0h1m53 1h1m2 0h2m-62 1h1m51 0h1m-61 1h2m2 0h1m63 0h1m-1 1h1m-71 1h1m66 0h1m-69 1h1m1 0h1m2 0h1m-6 3h1"/><path stroke="#686048" d="M7 55h1m58 3h1m0 2h1m-43 2h1m0 1h1m-1 1h1m61 0h1m-59 1h1m1 2h1m3 1h2M9 69h1m27 0h1m35 0h1m4 0h1m21 0h1M6 70h1m31 0h1m38 0h1m1 0h1M8 71h2m32 0h1m20 0h1m4 0h1m5 0h1m3 0h1m-36 1h1m19 0h1m-49 1h1m1 0h1m29 0h1m13 0h1m-4 1h1m5 0h1m4 0h1m2 0h1m-54 1h1m1 0h1m28 0h1m13 0h1m-47 1h1m2 1h1m30 0h1m2 1h1m-32 1h1m34 0h1m-32 1h1m29 0h1m0 1h1M6 82h1m56 0h1m0 1h1m34 0h2m-62 1h1m1 1h1m60 0h1m-62 2h1m4 1h1m1 3h1m-23 1h1m1 1h1m27 0h1m33 0h1m-65 1h1m66 0h1m-34 2h1m1 0h1m-30 1h1m27 0h1m32 0h1m1 0h1m-1 1h1m1 0h1m1 0h1m-66 1h1m66 0h1m6 0h1m-70 1h2m59 0h2m8 1h1M6 103h1m5 2h1m-1 1h1m1 0h2m63 0h1m-64 1h1m111 0h1m1 0h1m-117 1h1m1 0h1m65 0h1m-67 1h1m68 0h1m42 0h1m-107 1h1m64 0h1m42 0h1m-46 1h1m2 0h1m-64 1h1m65 0h1m2 1h1m2 1h1m-61 1h1m55 0h1m6 0h1m-7 1h1m-61 1h1m1 0h1m72 0h1m-73 1h1m0 1h2m70 0h1m-71 1h1m2 0h1"/><path stroke="#494030" d="M133 55h1m-60 1h1m-1 1h1m-5 1h2m22 9h1m-44 1h1m40 0h1m-1 1h1m1 0h1m10 0h1m-15 1h1m12 0h1m-14 1h1m40 0h1m-4 2h1m-7 1h1m-43 1h1m38 0h1m-2 1h1m-43 1h1m38 0h1m1 0h2m-46 1h1m40 0h1m-43 1h1m1 0h1m36 0h1m0 1h1m-46 1h1m2 0h1m-5 1h1m1 0h1m26 0h1m9 1h1m-14 1h1m12 0h1m-16 1h1m-8 2h1m-2 1h1m48 1h2m-56 1h1m1 0h1m2 0h1m49 0h1m-57 1h1m1 0h1m-3 1h1m-6 1h1m4 0h1m-10 3h1m2 0h1m-7 1h1m1 0h1m45 1h1m-49 1h1m47 0h1m22 0h1m0 1h1m-92 1h1m88 0h1m-3 1h1m-59 3h1m58 1h1m-67 1h1m-4 2h1m6 0h1m59 0h1m-67 1h1m64 0h1m-74 2h3m-2 1h1m55 0h1m-59 1h1m48 0h1m-55 1h1m4 0h1m55 0h1m-63 1h2m5 0h1m44 0h1m8 0h1m-63 1h1m61 0h1m1 0h1m-11 1h1m2 0h1m-3 1h1m-62 2h1"/><path stroke="#484131" d="M75 56h1m-8 3h1m2 0h1m-3 1h1m-1 1h1m-20 7h1m54 0h1m-58 1h1m2 1h1m37 0h1m42 0h1m-45 1h1m42 0h1m-45 1h2m42 0h1m-47 1h1m-4 2h1m40 0h1m-1 1h1m-49 1h2m1 0h1m39 1h1m-47 1h1m-2 1h1m41 1h1m-20 1h1m1 1h1m10 0h2m-44 1h1m67 0h1m-46 1h1m3 0h1m-7 1h1m4 0h1m-7 3h1m-5 1h1m48 0h1m-57 3h1m-5 1h1m-2 2h1m-2 1h2m36 0h1m-59 2h1m58 0h1m26 1h1m-91 1h1m2 0h2m84 0h1m1 1h2m-62 2h1m-2 1h1m-2 1h1m59 1h2m-69 1h1m1 0h1m5 0h1m-11 1h1m1 0h1m1 0h2m-3 1h1m1 0h1m-7 1h1m1 1h1m-5 1h1m52 1h2m-65 1h1m3 0h1m4 0h1m44 0h1m1 0h1m-4 1h1m1 0h1m6 0h1m2 0h1m-10 1h1m-59 1h1m-3 1h1m2 0h1m-6 1h1m4 0h1m-6 1h1m1 0h1"/><path stroke="#686049" d="M76 56h1m2 2h1m-3 1h1m-53 4h1m1 0h1m62 0h1m-62 3h1m1 0h1m1 1h1m1 0h1m62 0h2m-68 1h1m66 0h1m-24 1h1M8 70h1m71 0h1m-71 1h1m2 0h1m53 0h1m3 0h1m1 0h1m-33 1h1m2 0h1m19 0h1m9 0h2m-10 1h1m-52 1h1m1 1h1m1 1h1m29 0h1m14 0h1m3 0h1m-5 1h1m-43 1h2m30 0h1m1 1h1m-27 2h2m1 0h1m27 0h1m1 0h1m-3 1h1m-28 1h1m62 0h1m4 1h1m-3 1h2m-58 2h1m0 2h1m41 3h2m-35 2h1m1 0h1m-28 1h1m30 0h1m34 0h1m-66 1h1m27 0h1m2 0h1m30 0h1m-61 1h1m66 0h1m-64 1h2m24 0h1m1 0h1m-59 2h1m93 0h1m-98 1h1m-1 1h1m2 0h1m3 0h1m-6 1h1m2 1h1m2 0h1m3 0h1m1 1h1m-5 1h1m66 0h1m1 0h1m1 1h1m-67 1h1m59 0h1m-62 1h1m1 0h1m63 0h1m2 0h1m-61 2h1m0 1h1m59 0h2m5 0h1m-70 1h1m2 0h1m1 0h1m57 0h1m-58 1h1m57 0h2m2 0h1m-64 1h1m60 0h1m3 0h1m-63 1h1m63 0h1m1 0h1m10 0h2m-77 1h1m72 0h1m1 0h1m-75 1h1m6 0h1m-4 1h1m1 0h2m-6 1h1m3 1h1m-1 1h2"/><path stroke="#494130" d="M133 56h1m-61 2h1m-6 3h1m-20 9h1m40 0h1m1 0h2m9 0h1m-17 1h1m15 0h1m-22 2h1m42 0h1m-49 3h1m3 0h1m-11 3h1m2 0h1m42 0h1m-6 1h1m-2 1h1m-4 1h2m-17 1h1m13 1h1m-26 4h1m1 0h2m-2 1h1m-7 2h1m2 0h1m-8 1h2m2 0h1m52 0h1m-57 1h1m-5 1h2m-5 1h2m68 4h1m-27 1h1m-10 1h1m30 0h1m2 1h1m-63 1h1m59 1h1m-63 1h1m59 1h1m-3 1h1m-67 1h1m7 0h1m-3 1h1m-13 2h2m1 0h1m4 0h1m63 0h1m-69 1h1m-6 1h1m-5 1h3m2 0h1m46 1h1m-57 1h1m2 0h1m51 0h1m-53 1h1m59 0h1m-67 1h1m3 0h1m51 0h1m-57 2h1m-2 1h1m1 0h1"/><path stroke="#494131" d="M72 57h2m1 0h1m-4 1h1m-3 1h1m25 7h1m-1 1h1m-4 1h3m8 0h1m21 4h1m3 0h1m-5 1h1m1 0h1m-46 1h3m-3 1h1m37 0h1m-46 1h1m45 0h1m-48 2h1m-6 1h1m-5 2h1m41 0h1m1 0h1m-5 1h1m-41 1h1m25 0h1m2 0h1m7 1h1m1 1h1m-3 1h1m-18 2h1m-8 2h1m-4 1h1m55 0h1m-3 1h1m-55 1h1m-4 1h1m1 0h1m-9 2h1m-1 2h1m46 0h1m-3 1h1m24 0h1m-35 1h3m8 0h1m20 0h1m2 1h1m-94 1h1m1 0h1m87 1h1m-64 3h1m-2 1h1m1 0h1m58 0h1m-66 1h1m4 0h1m-3 1h1m-8 1h1m6 0h1m-6 1h1m-4 2h1m-3 1h2m-6 1h1m2 0h1m-11 2h1m53 0h1m12 0h1m-69 1h1m1 0h1m54 0h1m-62 1h1m68 0h1"/><path stroke="#696149" d="M76 57h1m1 2h1m10 4h1m-65 1h1m3 0h1m62 0h1m-67 1h1m2 0h1m67 1h1m-67 1h1m2 1h1m63 0h1M7 69h1m28 0h1m35 0h1m4 0h1m1 0h1m21 0h1m-26 1h1m-36 1h1m23 0h1m4 0h1m5 0h1m-64 1h1m51 0h1m6 0h1m-59 1h1m29 0h1m15 0h1m8 0h1m3 0h1m-55 1h1m26 0h1m2 0h1m10 0h2m4 0h1m-20 1h1m13 0h1m-40 1h1m25 0h1m14 0h1m3 0h1m-45 1h1m31 0h1m2 2h1m-3 1h1m4 0h1m-33 1h1m30 1h1M6 84h2m28 0h1m62 0h1m-63 1h1m1 1h1m2 0h1m0 1h1m0 1h1m2 2h1m1 0h1m1 0h1m-28 2h1m30 0h1m-2 1h1m2 1h1m30 0h1m-58 1h2m30 1h1m32 0h1m-63 1h1m1 0h1m26 0h1m33 0h1m-63 1h1M3 99h1m34 0h1m60 0h1m-96 1h2m31 0h1m71 0h1M9 101h1m31 0h1m-38 1h1m2 0h1m3 0h1m29 0h1m-35 2h1m4 0h1m65 0h1m-69 1h2m2 0h1m64 0h1m-61 1h1m108 0h1m-52 1h1m2 0h1m1 0h2m-69 1h1m3 0h1m2 0h1m60 0h1m44 0h1m-105 1h1m102 0h1m2 0h1m-111 1h2m59 0h1m3 0h1m-64 2h1m3 0h1m1 0h1m61 0h1m-65 1h1m4 0h1m1 0h1m53 0h1m8 0h1m-67 1h1m4 0h1m55 0h1m2 0h1m1 0h1m-68 1h1m68 0h1m-60 2h2m-7 1h1m4 0h1m1 0h1m67 0h1m-10 1h1m-60 2h1"/><path stroke="#f8d178" d="M24 58h1m44 0h1m33 1h1m-17 1h1m15 1h1m-59 1h1m-1 1h1m22 1h1m-24 1h1m22 2h1m-45 1h1m77 0h2m-80 3h1m77 3h1m-1 4h1m0 1h1m-80 3h1m77 0h1m-6 2h1m33 0h1m-68 1h1m29 0h2m-1 1h3m-34 1h1m37 0h1m0 1h1m-80 1h1m62 0h1m2 0h1m-2 1h1m40 3h1M24 94h1m19 1h1m19 0h1m38 0h1m7 0h1m-88 2h1m62 0h1m42 0h1m-87 2h1m42 0h1m-71 1h1m2 1h1m109 0h1m-1 1h1m0 1h1m-21 1h1m-1 1h1m-9 1h1m-2 1h1m-58 2h1m66 1h1m-1 1h1m-69 3h1"/><path stroke="#494031" d="M74 58h1m16 11h1m40 0h1m-3 1h1m-42 1h1m43 0h1m-48 1h1m-1 1h1m37 0h1m-1 1h2m-46 2h1m37 0h1m-42 2h1m-10 2h1m0 1h2m38 0h1m-45 1h1m-1 1h1m26 1h1m-4 2h2m-3 1h1m-2 1h1m-6 2h1m48 0h1m1 1h1m-64 4h1m36 2h1m-3 1h1m32 0h1m-34 1h1m7 1h1m-68 2h1m90 1h1m-4 2h1m-65 2h1m3 0h1m56 1h2m-71 2h1m-2 1h1m0 1h1m-7 1h1m56 1h1m-61 1h2m3 0h1m45 0h1m-51 1h1m59 0h2m-64 1h1m53 0h1m-55 1h1m1 0h1m58 0h2m-67 1h1m2 0h1m-7 3h1"/><path stroke="#484130" d="M75 58h1m-8 2h1m2 0h1m-21 9h1m81 0h1m-46 1h1m1 1h1m37 0h2m-43 2h1m39 0h1m-6 1h1m4 0h1m-50 1h1m-1 1h1m42 1h1m-50 1h2m40 0h1m4 0h1m-4 1h1m-44 1h1m37 0h1m2 0h1m-4 2h1m-8 1h1m4 0h1m-19 1h1m-3 1h1m13 0h2m28 1h1m-49 1h1m1 0h1m1 0h1m-9 2h1m1 0h1m47 2h1m-61 4h1m-2 1h1m33 2h1m-2 1h1m2 0h1m7 0h1m-3 2h1m-69 1h1m89 0h1m-61 4h2m56 0h1m-61 1h1m60 1h1m-67 1h1m63 0h1m1 0h2m-67 1h1m64 0h1m-77 3h1m-9 3h1m7 0h1m-3 1h1m48 0h2m-53 1h1m-2 1h1m50 0h2m-57 1h1"/><path stroke="#696148" d="M66 59h1m21 3h1m-65 1h1m63 0h1m0 1h1m-1 1h1m-57 3h1m63 0h1M6 69h1m67 0h1m24 0h1m-89 1h1m29 0h1m30 0h1m2 0h1m-10 1h1m8 0h1m1 0h1m-67 1h1m2 0h1m52 0h2m2 0h1m1 0h1m2 0h1m-32 1h1m24 0h2m-56 1h2m45 0h1m6 0h1m-22 1h1m9 0h1m-37 1h1m0 1h1m2 1h1m25 0h1m2 0h1m2 2h1m2 1h1m34 0h1m-34 1h1m36 1h1m-66 2h1m3 0h1m-3 1h1m1 0h2m3 2h1m2 1h2m-4 1h1m4 1h1m-2 1h1m2 0h1m35 0h1m-2 1h2m-65 1h1m2 0h1m30 0h1m30 0h1m-61 1h1m1 1h1m26 0h1m0 1h1m-23 1h1m58 0h1m2 1h1m9 0h1m-72 2h1m62 0h1m-60 1h1m-32 1h2m4 4h2m56 0h1m1 0h1m-58 1h1m59 0h1m-64 1h1m4 0h1m60 0h1m3 0h1m-69 2h1m2 0h1m5 0h1m53 0h1m6 0h1m38 0h2m-108 1h1m65 0h1m3 0h1m-5 1h1m2 0h1m-58 2h1m56 0h1m6 0h1m-70 1h1m4 0h1m2 0h1m56 0h1m2 0h1m2 0h1m-70 1h1m4 0h1m4 1h1m55 0h1m1 0h1m1 1h1m6 0h1m1 0h1m-72 2h1"/><path stroke="#484031" d="M72 59h2m-4 1h1m-22 9h1m40 0h1m2 0h1m1 0h1m8 0h1m0 1h1m-23 3h1m-3 1h1m44 0h1m-47 1h1m44 0h1m-6 1h1m-1 1h1m-4 1h1m-5 1h2m-46 1h2m44 0h1m-49 1h1m-2 1h1m1 0h1m38 0h1m-41 1h1m37 0h1m-11 1h1m9 0h1m27 1h1m-46 1h1m-3 1h1m-7 2h1m-1 2h1m49 0h1m-55 1h1m-3 2h1m-3 1h1m-7 1h1m-1 1h1m-2 1h2m37 1h1m-58 1h2m87 1h1m1 1h1m-3 1h1m-64 1h1m-2 1h1m-3 1h1m-4 1h1m1 0h1m5 0h1m-5 1h1m62 0h1m-72 1h1m1 1h1m66 0h1m-65 1h1m-12 1h1m8 0h1m-4 1h2m51 0h1m-55 1h1m44 0h1m8 0h1m-3 1h1m-59 1h1m-3 1h1m1 0h1m-12 1h2m59 0h1m5 0h1m-67 1h1m2 0h1m-6 3h1m1 0h1"/><path stroke="#897958" d="M91 65h1m1 2h1m-9 3h2m-8 1h1m-32 1h2m29 0h1m1 0h1m1 0h1m-5 1h1m-27 1h1m0 1h1m17 0h1m2 0h1m-20 1h2m17 0h1m-18 2h1m5 1h1m2 0h1M2 97h1m3 0h1m127 0h1m-123 3h1m0 1h1m2 1h1m60 0h2m-8 1h1m6 0h1m54 0h1m-116 2h1m3 0h1m105 0h1m1 0h1m-48 1h2m3 1h1m-28 1h1m-36 1h1m33 0h1m32 0h1m0 2h1m1 0h1m10 0h1m-2 1h2m1 0h1m-76 1h1m65 0h1m3 0h1m7 1h1m-72 1h1"/><path stroke="#887959" d="M92 65h1m-2 3h1m-3 1h1m-44 1h1m35 0h1m1 1h1m-5 1h1m0 1h1m-9 1h1m2 0h1m1 0h1m-3 1h1m-23 1h1m14 0h1m-14 1h1m2 0h1m1 0h1m8 1h1m-4 2h1m67 17h1m0 1h1m-63 3h2m-61 2h1m58 0h1m-5 2h1m12 0h3m47 0h1m-113 1h1m1 0h1m61 0h1m-60 1h1m39 0h1m-39 1h1m34 0h1m25 0h1m-62 1h1m-1 1h1m1 0h1m25 0h1m35 0h2m-62 1h1m23 0h1m40 0h1m15 1h2m-78 1h1m12 0h1m63 0h1m-75 1h1m58 0h1m-61 1h1m61 0h1m-59 2h1"/><path stroke="#897959" d="M93 65h1m0 1h1m-8 1h1m-1 3h1m-40 1h1m1 0h1m-1 1h1m26 0h1m-29 1h2m3 1h1m19 0h1m-20 2h1m2 0h1m12 0h1m-1 1h1m-3 1h1m-9 1h1m6 0h1m-3 1h1M4 98h2m4 1h1m3 2h1m64 1h1m-64 1h2m-1 1h1m2 0h1m51 0h1m59 0h3m-116 1h1m2 1h1m43 0h1m-44 1h1m39 0h1m1 0h1m-40 1h1m35 0h1m-36 1h1m63 1h1m-37 1h1m-4 1h1m52 1h1m-67 1h1m63 0h1m7 0h1m-10 1h1m-61 1h1m3 0h1"/><path stroke="#887858" d="M94 65h1m-6 1h1m0 1h1m-43 3h1m-4 1h2m33 0h1m-1 2h1m-30 1h1m23 0h1m3 0h1m-23 1h1m16 0h1m-7 2h1m1 0h1m-12 1h2m1 0h1m-3 1h1m4 0h1m3 0h1m-6 2h1M5 96h1m-2 1h1m131 0h1M6 98h1m126 0h1M8 99h1m125 0h1m-58 2h1m-66 1h1m2 0h1m60 0h1m-58 2h1m48 0h1m1 0h1m8 0h1m-14 1h1m64 0h1m-112 1h1m43 1h1m-1 1h1m-36 1h1m59 0h1m-33 1h1m1 0h1m34 0h1m-64 1h1m25 0h1m-23 1h2m15 1h1m1 0h1m52 0h1m3 0h1m-75 1h1m14 0h1m51 0h1m5 0h1m-71 1h1m6 0h2m1 0h1"/><path stroke="#897858" d="M90 66h2m3 0h1m-8 2h1m1 0h1m-44 3h1m1 0h1m32 0h2m-32 1h1m3 2h1m-1 1h1m1 0h1m14 2h1m-11 2h1m70 17h2M7 98h2m128 0h1M9 99h1m0 1h1m122 0h1m-62 2h1m2 0h1m-62 1h1m55 0h1m11 1h2m44 0h1m-109 1h1m65 1h2m-2 1h1m-62 1h1m1 0h1m2 1h1m28 0h1m31 0h1m-34 1h1m1 0h1m34 0h1m-63 1h1m61 0h1m-43 1h4m41 0h2m5 0h1m0 1h1m6 0h1m-63 1h1m48 0h1m4 0h1m-57 1h1m-10 1h1m1 1h1m1 1h1"/><path stroke="#887859" d="M92 66h2m-6 1h1m2 0h1m-9 2h2m2 0h2m-8 2h1m-36 1h1m31 0h1m3 0h1m-30 1h1m21 0h1m1 0h2m-27 1h1m18 1h1m1 0h1m3 0h1m-6 1h1m-16 1h2m1 0h1m6 0h1m-5 1h1m4 0h1M7 99h1m125 0h1m1 0h1M8 100h1m1 1h3m1 1h1m3 1h1m60 0h2m-10 1h1m8 0h2m-61 1h1m45 0h1m13 0h2m-18 1h1m2 0h1m60 0h1m-108 1h1m2 0h1m36 0h1m22 0h1m1 0h1m1 0h1m-66 1h1m62 0h2m2 0h1m-34 1h1m3 0h1m29 0h1m-64 1h1m1 0h2m21 1h1m38 0h1m-60 1h1m61 0h2m10 0h1m-73 1h1m1 0h1m62 0h1m6 0h1m-73 1h1m11 0h3m-9 1h1m3 0h1m-1 2h1"/><path stroke="#897859" d="M89 67h1m-4 1h2m-2 1h1m-3 1h1m-38 2h1m0 1h1m2 0h2m1 0h1m-5 1h1m4 0h1m-3 1h1m1 0h1m14 1h1m2 0h1m-12 1h1m1 1h1m1 0h1m-5 2h4M5 97h1m131 0h1M9 100h1m66 1h1m-4 1h1m-1 1h1m3 0h1m3 0h1m-66 1h1m52 0h1m61 0h1m-63 1h1m59 0h1m2 0h1m-109 1h1m39 0h1m2 0h1m62 0h2m-108 1h1m65 1h1m-30 1h1m-32 2h1m27 0h1m55 0h2m-21 1h1m16 0h1m2 0h2m-82 1h1m15 0h1m45 0h3m9 0h2m-9 1h1m0 1h1m7 0h1m-71 1h1m1 0h2m-1 1h1"/><path stroke="#887958" d="M92 67h1m-8 1h1m3 0h1m-5 1h1m-39 1h1m33 0h1m1 0h1m-40 1h1m40 0h1m-35 1h1m24 1h1m0 1h1m-26 1h1m6 1h2m13 0h1m-6 1h1m2 0h1m-12 1h1m3 0h1m1 0h1m3 0h1m-10 1h1m3 0h1m-2 2h1M4 96h1m-2 1h1m130 1h2M6 99h1m4 1h1m1 2h1m60 0h1m-3 1h1m61 0h1m-117 1h1m49 1h1m58 0h1m-68 3h1m29 1h1m-57 2h1m-3 1h2m19 1h1m49 0h1m8 0h1m-75 1h1m62 0h1m7 0h1m-72 1h1m6 1h1m1 0h2m-4 1h1"/><path stroke="#094080" d="M124 87h1m-1 2h1m0 1h1m-3 1h1m0 1h2m-1 3h1m-5 1h1m-1 1h1m-5 6h1m4 0h1m-5 1h1m1 1h1m-6 2h1m4 0h2m3 1h1m-3 2h1"/><path stroke="#084080" d="M125 87h1m-3 2h1m1 0h1m-4 3h1m-1 1h1m-1 7h1m-1 4h1m-3 2h1m3 1h1m-3 1h1m-4 1h3m2 1h1m-9 1h1m3 0h2m-4 1h2"/><path stroke="#094181" d="M122 88h2m1 3h1m-3 2h1m0 1h1m-2 2h2m-4 2h1m-1 3h1m-7 3h2m0 1h1m0 1h1m-3 2h1m-1 1h1m7 0h1m-4 1h1m-4 3h1"/><path stroke="#084081" d="M124 88h1m-3 1h1m0 1h1m-3 1h2m1 0h1m-4 1h1m-1 3h1m2 2h1m-3 1h2m1 0h1m-6 3h1m-2 1h1m2 3h1m-8 1h1m3 0h1m-3 1h3m-1 1h1m1 0h1m-5 1h1m-1 1h1m4 0h1m-3 2h1"/><path stroke="#084181" d="M125 88h1m-5 2h1m-1 3h1m3 1h1m-4 5h1m-1 2h1m-7 5h1m5 0h2m-2 3h1m-4 1h1m-2 1h1m-2 1h1"/><path stroke="#082858" d="M120 89h1m-1 1h1m-3 11h2m4 4h1m0 2h1"/><path stroke="#084180" d="M121 89h1m1 3h1m0 1h1m-2 1h1m-2 2h1m0 1h1m-6 5h1m2 0h1m-6 1h1m3 0h1m-4 1h1m2 0h1m-2 1h1m1 1h1m-6 1h1m6 0h1m-1 1h1m1 1h1m-10 1h1m0 1h1m1 0h1"/><path stroke="#094180" d="M122 90h1m-2 4h2m-1 1h2m-2 2h1m-2 3h1m-4 3h2m1 0h1m-3 1h1m1 1h1m-5 3h1m2 0h1m3 0h1m-10 1h1m7 0h1m-9 1h1m1 3h1"/><path stroke="#094081" d="M124 90h1m0 3h1m-2 2h1m0 1h1m-1 1h1m-2 1h1m-4 1h1m-2 3h1m1 0h1m-2 2h1m-7 1h2m1 0h1m-2 1h1m4 1h1m-8 1h1m2 0h1m-1 1h1m-1 1h1m1 0h1m1 1h1"/><path stroke="#082958" d="M120 91h1m2 9h1m-1 5h1"/><path stroke="#082859" d="M120 92h1m-1 5h1m-1 2h1m4 7h1"/><path stroke="#092958" d="M120 93h1m-5 9h1"/><path stroke="#092858" d="M120 94h1m-6 9h1"/><path stroke="#092959" d="M120 95h1m-1 1h1m-1 2h1m-4 4h1m5 0h1"/><path stroke="#082959" d="M120 100h1m4 5h1m-2 1h1"/><path stroke="#092859" d="M123 101h1m-1 2h1"/></svg>