<svg xmlns="http://www.w3.org/2000/svg" shape-rendering="crispEdges" viewBox="0 -0.5 108 121"><path stroke="#896859" d="M83 0h1m-3 2h1m2 0h2m-9 4h3m-4 1h1m8 0h1m-7 1h1m-7 1h1m-5 1h1m5 0h1m3 0h1m4 0h1m-20 1h1m1 0h1m4 0h1m7 0h1m-17 1h2m5 0h1m6 0h1m-21 1h1m5 0h2m7 0h1m15 0h1m-34 1h1m1 0h1m4 0h1m11 0h1m6 0h1m-28 1h1m2 0h1m2 0h1m3 0h1m2 0h1m4 0h2m1 0h1m3 0h1m1 0h1m2 0h1m2 0h1m-24 1h1m9 0h1m3 0h3m-25 1h1m12 0h1m6 0h1m14 0h1m1 0h1m-45 1h1m12 0h1m11 0h1m-26 1h2m5 0h1m9 1h1m5 0h1m1 0h1m-32 1h1m2 0h2m3 0h1m12 0h1m14 0h1m6 0h1m-48 1h1m2 0h2m5 0h1m7 0h1m16 0h2m17 0h1m-50 1h1m3 0h1m3 0h1m4 0h1m-23 1h1m9 0h1m17 0h1m6 0h1m22 0h1m-56 1h1m6 0h1m46 0h1m-61 1h1m3 0h1m4 0h1m11 0h1m15 0h1m24 0h1m-63 1h2m1 0h1m4 0h1m7 0h1m1 0h1m22 0h1m22 0h2m-59 1h1m5 0h2m11 0h1m15 0h1m20 0h1m-68 1h1m8 0h1m1 0h1m3 0h1m19 0h1m-20 1h1m4 0h1m1 0h1m2 0h1m5 0h2m3 0h1m3 0h1m20 0h1m-59 1h3m22 0h1m17 0h1m22 0h1m-60 1h1m6 0h2m5 0h2m17 0h2m20 0h1m-71 1h1m5 0h1m14 0h1m5 0h1m1 0h2m41 0h1m-60 1h1m3 0h1m4 0h1m14 0h1m31 0h1m-62 1h2m21 0h1m42 0h1m4 0h1m-65 1h2m8 0h1m6 0h1m6 0h1m7 0h1m5 0h1m24 0h1m-65 1h1m9 0h1m11 0h1m30 0h1m4 0h1m4 0h1m-69 1h1m32 0h1m25 0h1m6 0h1m2 0h1m-71 1h1m2 0h1m4 0h1m2 0h1m14 0h1m1 0h1m-6 1h1m1 0h1m22 0h1m20 0h1m-74 1h1m26 0h1m3 0h2m9 0h1m5 0h1m16 0h2m6 0h1m-28 1h1m9 0h1m-50 1h1m4 0h1m16 0h2m7 0h1m6 0h3m6 0h1m-19 1h1m5 0h1m15 0h1m9 0h1m-34 1h1m6 0h1m7 0h1m18 0h1m-33 1h1m8 0h1m11 0h1m-48 1h1m19 0h1m14 0h1m-38 1h1m6 0h1m24 0h1m10 0h1m5 0h1m-23 1h1m12 0h1m-43 1h1m1 0h1m28 0h1m15 0h1m-20 1h1m7 0h1m1 0h1m-34 1h1m28 0h1m7 0h1m-41 1h1m1 0h1m37 0h1m1 0h2m-19 1h1m-16 1h1m26 0h1m-38 1h1m35 0h1m-29 1h1m-2 1h1m17 0h1m2 0h1m5 0h1m-28 1h1m12 0h1m-11 1h1m13 0h1m5 0h1m-17 1h1m1 0h1m-12 1h1m11 0h1m4 0h1m-17 1h1m-3 1h1m7 0h1m-1 4h1m1 0h1m-7 3h1m24 25h1m-1 1h1m-21 3h1m-1 3h1m-1 7h1m-1 3h1m-1 1h1"/><path stroke="#896959" d="M81 1h1m-4 2h1m1 0h1m1 0h1m-4 1h1m-6 1h1m6 0h1m3 0h1M76 6h1m5 0h1m1 0h1M69 7h1m1 0h1m10 0h2m3 1h1m1 0h1M71 9h1m-7 1h1m3 1h1m15 0h1m3 0h1m-30 1h1m6 0h1m3 1h1m7 0h3m4 0h1m-19 1h2m13 1h2m5 0h1m-37 1h1m1 0h1m33 0h1m-22 1h1m8 0h1m5 0h2m-39 1h1m21 0h2m11 0h1m11 0h1m-48 1h2m10 0h2m15 0h1m6 0h1m-41 1h2m1 0h1m8 0h1m2 0h2m10 0h1m3 0h1m19 0h1m-41 1h1m5 0h1m9 0h1m6 0h2m13 0h1m2 0h1m-51 1h1m5 0h3m1 0h1m7 0h1m3 0h1m2 0h1m15 0h2m5 0h1m-54 1h2m8 0h1m5 0h1m4 0h1m5 0h1m5 0h1m-34 1h1m6 0h1m22 0h1m1 0h1m2 0h1m12 0h2m8 0h1m-58 1h1m10 0h1m2 0h1m4 0h1m2 0h1m28 0h1m-48 1h1m25 0h1m-37 1h1m32 0h1m23 0h1m-61 1h1m24 0h1m8 0h1m4 0h1m1 0h1m-48 1h1m4 0h1m16 0h1m13 0h2m29 0h1m1 0h1m-69 1h1m7 0h1m6 0h1m26 0h1m23 0h1m-70 1h1m1 0h1m32 0h1m4 0h1m2 0h1m7 0h1m-30 1h1m2 0h1m1 0h1m4 0h1m6 0h1m-32 1h1m24 0h1m38 0h1m3 0h1m-70 1h1m11 0h1m1 0h1m8 0h1m8 0h1m7 0h1m3 0h3m-42 1h1m3 0h1m33 0h2m17 0h1m-60 1h2m6 0h2m7 0h1m15 0h1m11 0h1m15 0h1m-58 1h1m1 0h2m3 0h1m11 0h1m5 0h1m7 0h1m7 0h1m9 0h1m13 0h1m-5 1h1m-60 1h1m15 0h1m3 0h1m7 0h1m4 0h1m6 0h1m11 0h1m7 0h1m-63 1h1m4 0h1m28 0h1m6 0h1m7 0h1m-57 1h1m9 0h1m20 0h1m2 0h1m4 0h1m5 0h1m4 0h1m3 0h1m-48 1h1m24 0h1m7 0h1m20 0h1m6 0h1m-10 1h1m-56 1h1m7 0h1m15 0h1m20 0h1m8 0h1m9 0h1m-40 1h1m15 0h1m9 0h1m6 0h1m-36 1h1m10 0h1m8 0h1m5 0h1m8 0h1m-59 1h1m5 0h1m1 0h1m25 0h1m3 0h2m6 0h1m1 0h2m4 0h1m-48 1h2m21 0h1m-25 1h1m3 0h1m26 0h1m4 0h1m-12 1h1m7 0h1m7 0h1m-48 1h1m24 0h1m8 0h1m7 0h1m-39 1h1m4 1h2m11 0h1m4 0h2m6 0h1m5 0h1m5 0h1m-36 1h1m10 0h1m2 0h1m4 0h1m7 0h1m-31 1h1m15 0h1m8 0h1m8 0h1m-37 1h1m6 0h1m6 0h1m9 0h1m5 0h1m-29 1h2m2 0h1m15 0h1m7 0h1m-23 1h1m1 0h2m15 0h1m1 0h1m-31 1h1m15 0h1m11 0h1m-27 1h1m7 0h1m3 0h1m10 0h1m-23 1h1m4 0h1m12 0h3m1 0h1m-20 1h1m2 0h1m-6 1h1m16 0h1m-20 1h1m13 0h2m1 0h1m-16 1h1m1 0h1m6 2h1m16 16h1m-1 12h1m-21 1h1m-1 1h1m-1 2h1m19 0h1m-7 6h1m5 2h1m-7 1h1m-1 1h1m-15 9h1"/><path stroke="#886858" d="M82 1h2m-2 1h2m-7 2h1m-6 2h1m1 0h1m10 0h1M70 7h1m-6 2h1m10 0h1m-11 1h1m4 0h1m2 0h1m10 0h1m-11 1h1m7 0h1m4 0h1m-19 1h1m11 0h2m-24 1h1m1 0h1m6 0h2m-16 1h1m15 0h1m4 0h1m7 0h1m-18 1h1m4 0h1m2 0h1m16 0h1m-40 1h1m1 0h1m15 0h2m18 0h1m-43 1h1m2 0h1m10 0h1m17 0h1m4 0h1m6 0h1m-41 1h1m13 0h1m-7 1h1m4 0h1m-19 1h1m32 0h1m4 0h1m8 0h1m-53 1h1m11 0h1m7 0h1m7 0h1m7 0h1m8 0h1m4 0h1m-32 1h1m15 0h1m-28 1h1m5 0h1m1 0h1m27 0h1m2 0h1m-33 1h1m6 0h2m-32 1h1m1 0h1m6 0h1m16 0h1m7 0h1m1 0h1m22 0h1m-59 1h1m9 0h2m10 0h1m4 0h1m28 0h2m4 0h2m-63 1h1m2 0h1m4 0h1m12 0h1m2 0h1m7 0h1m30 0h1m-71 1h1m11 0h1m5 0h1m2 0h1m22 0h1m15 0h1m6 0h1m-46 1h1m8 0h1m8 0h1m-46 1h1m12 0h1m12 0h1m2 0h1m-28 1h1m1 0h1m22 0h1m15 0h1m22 0h1m-68 1h1m18 0h1m20 0h1m2 0h1m2 0h1m1 0h1m21 0h1m2 0h1m4 0h1m-70 1h1m2 0h1m8 0h1m2 0h2m15 0h1m4 0h1m5 0h1m24 0h1m-73 1h1m25 0h1m12 0h1m26 0h1m4 0h1m-73 1h1m8 0h1m3 0h2m2 0h1m3 0h1m1 0h1m6 0h1m1 0h2m6 0h1m4 0h1m23 0h2m-72 1h1m18 0h1m2 0h1m5 0h1m19 0h1m28 0h1m-35 1h1m29 0h1m3 0h1m-69 1h1m2 0h1m18 0h1m1 0h1m5 0h1m7 0h2m15 0h1m-50 1h1m14 0h1m7 0h1m22 0h1m9 0h1m-66 1h1m37 0h1m14 0h1m12 0h1m4 0h1m-69 1h1m1 0h1m29 0h1m4 0h1m5 0h1m4 0h1m1 0h1m1 0h1m11 0h1m-62 1h1m29 0h1m21 0h1m8 0h1m1 0h1m-70 1h2m29 0h2m3 0h1m18 0h1m-56 1h2m46 0h1m8 0h1m-55 1h1m1 0h1m24 0h1m23 0h1m4 0h1m2 0h2m-60 1h1m21 0h1m14 0h1m4 0h1m12 0h1m2 0h1m-8 1h1m2 0h1m-53 1h1m1 0h1m17 0h1m6 0h2m15 0h1m2 0h1m-48 1h1m40 0h1m9 0h1m-48 1h1m17 0h1m-25 1h1m5 0h2m20 0h2m16 0h1m-49 1h1m28 0h1m8 0h1m5 0h1m3 0h1m-19 1h1m-29 1h1m32 0h1m-18 1h1m10 0h1m8 0h1m-31 1h1m15 0h1m-8 1h1m10 0h1m-10 1h1m7 0h1m-23 1h1m27 0h1m-22 1h1m19 0h1m-27 1h1m15 0h1m-14 1h1m7 0h1m10 0h1m-22 1h1m7 0h1m-5 1h1m1 0h1m-4 2h2m5 0h1m-4 1h2m-2 2h2m14 33h1m5 2h1m-21 3h1m19 1h1m-21 8h1"/><path stroke="#886958" d="M84 1h1m-2 2h1m-6 1h1m1 0h2m-7 1h1m3 0h1m7 0h1M72 7h2m3 0h1m2 0h1M70 8h1m2 0h1m4 0h1M69 9h1m10 0h1m7 0h1m-28 2h1m1 0h1m12 0h2m-19 1h1m6 0h1m19 0h1m2 0h1m-33 1h1m5 0h1m-7 1h1m3 0h1m5 0h1m22 0h1m-38 1h1m6 0h1m5 0h1m24 0h1m-34 1h1m28 0h1m-17 1h1m7 0h2m6 0h1m-33 1h1m5 0h1m9 0h1m2 0h1m2 0h1m6 0h1m8 0h1m-49 1h1m12 0h1m14 0h1m10 0h1m4 0h1m-25 1h1m5 0h1m10 0h2m-43 1h1m11 0h1m35 0h1m2 1h1m-56 1h1m1 0h1m3 0h1m16 0h1m16 0h1m15 0h1m-59 1h1m5 0h1m7 0h1m-15 2h1m2 0h1m13 0h1m2 0h1m12 0h1m-40 1h1m2 0h1m17 0h1m1 0h2m3 0h1m9 0h1m-19 1h1m14 0h2m33 0h1m-67 1h1m12 0h1m8 0h1m4 0h1m4 0h1m6 0h1m19 0h1m-67 1h1m3 0h1m37 0h1m5 0h1m15 0h1m8 0h1m1 0h1m-79 1h1m8 0h1m17 0h1m9 0h1m4 0h1m7 0h1m22 0h2m3 0h1m-70 1h1m8 0h1m24 0h1m10 0h1m-50 1h1m15 0h1m2 0h1m20 0h1m25 0h1m7 0h1m-76 1h1m7 0h1m14 0h1m1 0h1m8 0h1m30 0h2m5 0h1m-65 1h1m11 1h1m10 0h1m6 0h1m4 0h1m-39 1h1m3 0h1m7 0h1m11 0h1m3 0h1m16 0h1m-23 1h1m7 0h1m5 0h1m36 0h1m-64 1h1m31 0h2m20 0h1m3 0h1m-72 1h1m36 0h1m7 0h1m18 0h3m6 0h1m-72 1h1m30 0h1m23 0h1m5 0h1m2 0h2m-64 1h1m24 0h1m2 0h1m16 0h1m7 0h1m10 0h1m5 0h1m-9 1h1m-34 1h2m10 0h1m-44 1h1m4 0h1m3 0h1m26 0h1m3 0h1m8 0h1m-15 1h1m-34 1h1m26 0h1m4 0h1m5 0h1m19 0h1m-59 1h1m36 0h1m16 0h2m2 0h1m-20 1h1m11 0h1m2 0h1m-26 1h1m14 0h1m-12 1h1m5 0h1m2 0h1m3 0h2m2 0h1m1 0h1m-20 1h1m4 0h1m-37 1h1m19 0h1m-11 1h1m7 0h1m5 0h1m14 0h1m-36 1h1m17 0h2m12 0h1m3 0h2m-32 1h1m3 0h2m11 0h1m7 0h1m-32 1h1m19 0h1m10 0h1m-30 1h1m3 0h1m8 0h1m12 0h1m-20 1h1m10 0h1m6 0h1m-27 1h1m8 0h1m-4 1h1m12 0h1m-15 1h1m6 0h1m-11 1h1m8 0h1m-9 2h1m7 0h1m0 1h1m1 0h2m-11 3h1m4 24h1m-1 2h1m-1 6h1m19 1h1m-7 1h1m-15 3h1"/><path stroke="#896858" d="M79 2h1m4 1h1m-9 2h2m-3 1h1m-2 1h1m-3 1h1m1 0h2m-6 1h1m6 0h1m1 0h1m-13 1h2m8 0h1m4 0h1m3 0h1m-23 1h1m1 0h1m6 0h1m-12 1h1m16 0h2m7 0h1m2 0h1m-8 1h1m-26 1h1m10 0h1m6 0h2m4 0h1m1 0h1m-22 1h1m-14 1h1m7 0h1m14 0h1m3 0h1m9 0h1m-25 1h2m7 0h1m2 0h1m11 0h2m-39 1h1m6 0h1m24 0h1m2 0h1m-35 1h1m3 0h1m8 0h1m8 0h1m5 0h1m7 0h1m-35 1h1m9 0h1m1 0h1m11 0h1m-30 1h1m14 0h1m3 0h2m24 0h1m-53 1h1m3 0h1m7 0h1m6 0h1m4 0h1m1 0h1m-21 1h1m25 0h1m1 0h1m14 0h1m4 0h1m-59 1h1m20 0h1m13 0h1m21 0h1m-56 1h1m24 0h1m4 0h1m2 0h1m-43 1h2m11 0h1m-3 1h1m13 0h1m8 0h2m22 0h1m3 0h1m5 0h1m-69 1h1m1 0h3m5 0h1m12 0h1m1 0h1m15 0h1m25 0h1m-72 1h1m8 0h1m4 0h1m5 0h1m5 0h1m19 0h1m20 0h1m1 0h2m2 0h1m-78 1h1m4 0h1m2 0h1m15 0h1m15 0h1m11 0h1m-51 1h1m2 0h1m8 0h1m2 0h1m10 0h1m1 0h1m15 0h1m22 0h2m6 0h1m-68 1h2m23 0h1m32 0h1m7 0h1m-63 1h1m15 0h1m2 0h1m4 0h2m1 0h1m4 0h1m25 0h1m-66 1h1m3 0h1m43 0h1m24 0h1m-78 1h1m74 0h1m-72 1h1m65 0h2m1 0h1m2 0h1m-75 1h1m19 0h1m27 0h1m11 0h1m7 0h1m-67 1h2m6 0h1m5 0h1m2 0h1m29 0h1m12 0h1m11 0h1m-75 1h1m37 0h2m6 0h1m10 0h1m4 0h1m-60 1h2m30 0h1m1 0h2m3 0h1m2 0h1m4 0h1m26 0h1m-76 1h1m41 0h1m7 0h1m11 0h1m8 0h1m1 0h1m1 0h1m-69 1h1m20 0h1m8 0h2m8 0h1m15 0h1m9 0h1m-72 1h1m2 0h1m6 0h1m14 0h1m2 0h1m11 0h1m9 0h1m6 0h1m7 0h1m3 0h1m-61 1h2m31 0h1m4 0h1m15 0h1m-35 1h1m7 0h1m7 0h1m10 0h2m-30 1h4m4 0h1m8 0h1m5 0h1m6 0h1m3 0h1m-62 1h1m33 0h1m8 0h2m12 0h1m3 0h1m-55 1h1m21 0h1m1 0h1m25 0h1m-54 1h2m1 0h1m21 0h1m13 0h1m2 0h1m1 0h1m-43 1h1m2 0h1m1 0h1m30 0h1m9 0h1m1 0h1m-27 1h1m-15 1h1m27 0h1m-16 1h1m3 0h1m7 0h1m4 0h1m1 0h1m-41 1h1m2 0h1m12 0h1m22 0h2m-37 1h1m8 0h1m12 0h1m2 0h1m5 0h1m-35 1h1m21 0h1m2 0h1m10 0h1m-38 1h1m1 0h1m12 0h1m10 0h1m4 0h1m2 0h1m-31 1h1m3 0h1m3 0h1m8 0h1m-10 1h2m3 0h1m9 0h1m-8 1h1m-7 1h1m2 0h1m-15 1h1m2 0h1m12 0h2m-4 1h1m3 0h1m-10 1h1m2 0h1m-9 1h1m1 0h2m0 1h1m3 0h1m-7 1h1m2 0h2m-4 1h1m-2 1h1m22 34h1m-21 5h1m-1 1h1m-1 2h1m-1 4h1"/><path stroke="#886859" d="M80 2h1m0 1h1m-6 1h1m6 0h1m0 1h1m1 0h1M73 6h1m9 0h1m-3 1h1M69 8h1m12 0h1m1 1h1m2 0h1m-10 1h1m8 0h1m-6 1h1m7 0h1m-19 1h1m1 0h2m5 0h1m8 0h1m-23 1h1m8 0h1m7 0h1m1 0h2m3 0h1m-14 1h1m6 0h1m4 0h2m-37 1h1m24 0h1m-30 1h1m10 0h2m1 0h1m6 0h1m15 0h1m-37 1h2m13 0h1m-21 1h1m11 0h1m5 0h1m11 0h2m5 0h1m1 0h1m-39 1h1m18 0h1m3 0h1m8 0h1m8 0h1m-46 1h1m11 0h1m32 0h2m-36 1h1m5 0h1m13 0h1m9 0h1m9 0h1m-50 1h1m26 0h1m4 0h1m-38 1h1m22 0h2m-28 1h1m2 0h1m5 0h1m8 0h1m9 0h1m6 0h1m15 0h1m-58 1h2m3 0h1m23 0h1m5 0h1m28 0h1m-36 1h1m3 0h1m2 0h1m20 0h2m-61 1h1m11 0h1m15 0h1m4 0h1m8 0h1m17 0h1m-37 1h1m2 0h1m3 0h1m7 0h1m24 0h1m-71 1h1m11 0h1m1 0h1m5 0h1m11 0h1m13 0h1m-43 1h1m6 0h1m2 0h1m54 0h2m2 0h1m-58 1h4m3 0h1m8 0h1m8 0h1m-41 1h1m4 0h1m10 0h1m28 0h1m3 0h1m20 0h1m-59 1h1m21 0h1m2 0h1m7 0h2m-37 1h2m1 0h1m19 0h1m6 0h2m1 0h2m27 0h1m-72 1h1m24 0h1m13 0h2m4 0h1m3 0h2m-16 1h1m8 0h1m2 0h1m15 0h1m7 0h1m-70 1h1m7 0h1m16 0h1m38 0h1m-67 1h1m15 0h1m18 0h1m5 0h1m9 0h1m13 0h1m1 0h2m-38 1h1m5 0h1m4 0h1m14 0h1m19 0h1m1 0h2m-46 1h1m17 0h1m7 0h2m1 0h1m6 0h1m-62 1h1m1 0h1m-4 1h1m5 0h1m18 0h1m22 0h1m1 0h1m3 0h1m4 0h1m-59 1h1m28 0h1m1 0h1m4 0h1m3 0h1m-47 1h1m6 0h2m26 0h2m2 0h1m11 0h1m5 0h1m2 0h1m-61 1h1m30 0h1m10 0h1m6 0h1m3 0h1m-50 1h1m7 0h2m26 0h1m14 0h1m-51 1h1m7 0h1m20 0h1m16 0h1m-48 1h1m27 0h1m14 0h1m1 0h1m-20 1h1m22 0h1m1 0h1m2 0h1m-44 1h1m24 0h1m7 0h1m4 0h1m1 0h1m-47 1h2m33 0h1m9 0h1m-46 1h1m2 0h1m18 0h1m2 0h1m8 0h1m5 0h2m2 0h1m-44 1h1m4 0h2m25 0h1m-6 1h2m1 0h1m4 0h1m3 0h1m-40 1h2m13 0h1m-16 1h1m12 0h1m3 0h1m-21 1h1m14 0h1m2 0h1m-18 1h1m19 0h1m7 0h1m-18 1h1m2 0h1m10 0h1m5 0h1m-13 1h1m4 0h1m-18 1h1m14 0h1m3 0h1m-4 1h1m-15 1h1m8 0h1m1 0h1m-11 1h1m5 0h2m2 0h1m-6 1h1m2 0h1m-13 2h1m7 0h1m-8 1h3m2 30h1m13 0h1m5 0h1m-1 2h1m-7 1h1m-15 3h1m13 0h1m5 1h1m-1 1h1m-7 1h1m-15 10h1"/><path stroke="#896958" d="M77 3h1m4 1h1M73 5h1m4 0h1m1 0h1M71 6h1m14 0h2M67 8h1m3 0h1m8 0h1m7 0h1M72 9h1m5 0h1m2 0h1m3 0h1m3 0h1m-26 1h1m5 0h1m16 2h1m-29 1h1m12 0h1m-11 1h1m24 0h1m-34 1h1m4 0h1m29 0h1m-33 1h1m4 0h1m4 0h1m15 0h1m2 0h1m-37 1h1m4 0h1m4 0h1m1 0h1m9 0h1m-21 1h1m9 0h1m5 0h1m22 0h2m-47 1h1m6 0h1m13 0h1m14 0h1m9 0h2m-45 1h3m4 0h1m5 0h2m15 0h1m7 0h1m1 0h1m-48 1h1m2 0h2m10 0h1m3 0h1m-2 1h1m8 0h1m1 0h1m18 0h2m-48 1h1m23 0h1m19 0h1m8 0h1m-61 1h1m12 0h2m3 0h1m7 0h1m32 0h2m-62 1h1m10 0h3m3 0h2m1 0h2m6 0h1m23 0h2m-40 1h2m8 0h2m5 0h1m26 0h1m-65 1h1m41 0h1m17 0h1m5 0h1m-70 1h1m1 0h1m8 0h2m10 0h1m16 0h1m23 0h1m2 0h1m-67 1h1m1 0h1m23 0h1m14 0h1m-36 1h1m2 0h1m5 0h2m13 0h2m7 0h1m24 0h1m-37 1h1m4 0h1m36 0h1m-69 1h1m8 0h1m10 0h1m6 0h1m4 0h1m2 0h1m-42 1h1m4 0h2m8 0h3m35 0h1m14 0h1m-67 1h1m17 0h1m13 0h1m42 0h2m-74 1h1m2 0h1m10 0h2m5 0h1m2 0h1m3 0h1m1 0h1m4 0h2m3 0h1m22 0h1m3 0h1m-71 1h1m6 0h1m60 0h1m-62 1h1m13 0h1m7 0h1m6 0h1m1 0h2m2 0h2m2 0h1m5 0h1m15 0h2m-54 1h1m3 0h1m7 0h1m4 0h1m1 0h1m8 0h1m16 0h1m-56 1h1m1 0h2m41 0h1m18 0h1m2 0h1m5 0h1m-72 1h2m4 0h1m16 0h1m1 0h1m4 0h1m9 0h1m7 0h1m24 0h1m-75 1h1m6 0h1m16 0h1m20 0h1m25 0h1m1 0h1m-77 1h1m4 0h1m34 0h1m3 0h1m1 0h1m6 0h1m-4 1h2m2 0h1m7 0h1m5 0h3m-61 1h1m32 0h1m4 0h1m4 0h1m2 0h1m7 0h1m1 0h1m-57 1h1m24 0h1m31 0h1m-64 1h1m3 0h1m3 0h1m27 0h1m14 0h1m5 0h1m-55 1h1m4 0h1m16 0h1m4 0h1m3 0h1m11 0h1m4 0h1m7 0h1m-21 1h1m5 0h1m2 0h1m8 0h1m-56 1h1m7 0h1m23 0h2m17 0h1m-54 1h1m25 0h1m1 0h1m5 0h1m1 0h1m6 0h1m-36 1h1m2 0h1m22 0h1m13 0h1m-45 1h1m3 0h1m3 0h1m12 0h1m-21 1h1m21 0h1m7 0h1m-32 1h1m5 0h1m17 0h1m14 0h1m-33 1h1m15 0h1m5 0h1m-21 1h2m8 0h1m6 0h1m8 0h1m1 0h1m-29 1h1m9 0h1m3 0h2m5 0h1m-25 1h1m13 0h1m11 0h1m-29 1h3m14 0h1m-20 1h1m1 0h1m3 0h1m10 0h1m7 0h1m-21 1h1m9 0h1m-2 1h1m9 0h1m-14 1h1m9 0h1m-15 1h1m7 1h1m2 0h1m-12 1h1m-3 3h1m1 0h1m-2 1h3m2 24h1m19 7h1m-21 1h1m13 4h1"/><path stroke="#886959" d="M79 3h1m5 0h1M75 4h1m10 0h1M75 7h1m8 0h1m3 0h1M68 8h1m12 0h1m1 0h1m2 0h1M66 9h3m17 0h1m-24 1h1m12 0h1m6 0h1m6 0h1m-29 1h1m5 0h1m5 0h1m6 0h1m2 0h1m-24 1h1m1 0h1m9 0h1m-13 1h1m14 0h1m1 0h1m-19 1h1m5 0h1m7 0h1m-18 1h1m11 0h1m7 0h1m15 0h1m-24 1h1m11 0h1m-32 1h1m4 0h1m4 0h1m-13 1h1m4 0h1m4 0h1m16 0h1m13 0h1m-27 1h1m4 0h1m5 0h1m1 0h1m7 0h1m5 0h1m-45 1h1m24 0h1m7 0h1m7 0h1m-17 1h2m7 0h1m-43 1h1m1 0h1m17 0h1m17 0h1m17 0h1m-58 1h1m13 0h1m11 0h1m4 0h1m2 0h1m2 0h1m13 0h1m2 0h1m-50 1h1m10 0h1m1 0h1m5 0h1m24 0h1m3 0h1m-47 1h1m26 0h1m22 0h2m-63 1h1m4 0h1m3 0h1m9 0h1m5 0h1m14 0h1m-31 1h1m3 0h1m11 0h1m-33 1h1m14 0h1m19 0h1m25 0h1m-58 1h1m16 0h1m6 0h1m11 0h1m32 0h1m-78 1h1m21 0h1m6 0h1m6 0h1m10 0h1m4 0h1m23 0h1m-65 1h1m8 0h1m3 0h1m22 0h1m1 0h1m-50 1h1m1 0h1m7 0h1m2 0h1m20 0h1m38 0h1m-26 1h1m19 0h1m9 0h1m-76 1h1m17 0h1m4 0h1m1 0h1m6 0h1m13 0h1m-27 1h1m51 0h1m-70 1h2m5 0h2m8 0h1m5 0h1m1 0h1m2 0h1m3 0h1m2 0h1m6 0h1m17 0h1m13 0h1m-76 1h2m14 0h1m26 0h1m27 0h1m3 0h1m-78 1h2m5 0h1m1 0h1m7 0h1m25 0h1m4 0h1m2 0h1m6 0h1m11 0h1m2 0h1m-73 1h1m7 0h1m7 0h1m9 0h1m16 0h1m16 0h1m1 0h1m1 0h1m-55 1h1m1 0h2m12 0h1m27 0h1m6 0h1m6 0h1m8 0h1m-43 1h1m4 0h1m19 0h1m-59 1h1m28 0h1m5 0h1m11 0h1m3 0h1m11 0h1m6 0h1m-62 1h1m20 0h1m23 0h1m5 0h1m1 0h1m8 0h1m-71 1h1m24 0h2m3 0h1m9 0h1m25 0h1m1 0h1m-68 1h1m5 0h1m30 0h1m7 0h1m6 0h1m8 0h1m-59 1h1m2 0h1m36 0h1m5 0h1m13 0h1m-64 2h1m38 0h1m1 0h2m-16 1h1m2 0h2m5 0h2m-37 1h1m1 0h1m7 0h1m23 0h1m6 0h1m11 0h1m-53 1h1m21 1h1m4 0h1m2 0h1m4 0h1m10 0h1m-46 1h1m30 0h1m2 0h1m-29 1h1m1 0h1m13 0h1m7 0h1m-31 1h1m19 0h1m8 0h1m-28 1h1m15 0h1m11 0h1m2 0h1m-22 1h1m5 0h1m13 0h1m4 0h1m-14 1h1m-14 1h1m12 0h1m3 0h1m-17 1h1m4 0h1m1 0h1m7 0h1m-17 1h1m2 1h1m9 0h1m-13 1h1m3 0h1m4 0h1m-6 2h1m2 0h1m-13 1h1m6 0h1m-8 1h1m6 1h1m13 31h1m-1 1h1m-15 5h1m-1 7h1"/><path stroke="#795949" d="M84 4h1m-4 2h1m-12 5h1m13 1h1m-18 1h1m3 2h1m7 0h1m12 1h1m-27 1h1m24 0h1m-36 1h1m7 0h1m15 0h1m-10 1h1m-12 1h1m15 0h2m-27 1h1m28 1h2m-20 1h1m8 0h1m7 0h1m15 0h1m-51 1h1m5 1h1m38 0h1m-50 1h1m6 0h2m-3 1h1m14 0h2m29 1h1m-59 1h1m14 0h2m7 0h1m-4 1h1m15 0h1m-37 2h2m31 0h1m23 0h1m7 0h1m-51 1h1m46 0h1m-66 1h1m12 1h1m5 1h1m46 1h1m-27 1h1m-43 1h1m30 0h1m20 0h1m10 0h1m-66 1h1m6 0h1m8 0h1m22 0h1m-3 1h1m-34 1h1m46 0h1m-50 1h1m73 1h2m-65 1h1m60 0h1m-64 1h1m57 0h1m6 0h1m-35 1h1m3 2h1m-12 1h1m27 0h1m-47 1h1m15 0h1m8 0h1m7 0h1m10 0h1m-35 1h2m3 0h1m28 0h1m-38 2h1m3 0h1m6 0h1m23 0h1m-4 1h1m1 0h1m-43 1h1m22 0h1m-19 1h1m25 0h2m1 0h1m2 0h1m-19 1h1m13 0h1m-5 1h1m4 0h1m-8 1h5m-18 1h1m10 0h1m-14 1h1m8 0h1m3 0h2m1 0h2m-13 2h1m2 1h1m-8 1h1m2 0h1m-6 1h1m2 0h1m2 1h1m-37 1h1m24 1h1m4 1h1m-6 1h1m1 0h1m-6 1h1m-1 1h1m46 0h1m-64 1h1m6 0h1m8 0h1m46 0h1m-58 1h2m54 0h1m-1 1h1m0 1h1m-58 3h1m56 0h1m-21 1h1m18 3h1m-1 3h1m-1 5h1m-22 1h1m21 0h1m-70 2h1m26 1h1m12 1h1m-15 3h1m13 1h1m6 1h1m-42 1h1m5 0h1m28 0h1m-16 1h1m13 2h1m-14 2h1m12 1h1m-14 1h1m11 0h1m-13 1h1m9 0h1m-12 1h1m6 1h1"/><path stroke="#785849" d="M85 4h1m-4 1h1m-4 6h1m3 2h1m6 0h1m-2 1h1m-28 1h1m13 1h1m-19 1h2m27 2h1m7 0h1m-12 1h1m-36 2h1m14 0h1m-11 1h1m-3 1h1m15 0h1m7 0h1m-34 1h1m6 0h1m16 0h1m7 0h1m22 0h1m-35 1h1m8 0h1m20 1h1m-50 1h1m7 0h1m46 0h1m-27 1h1m-34 1h1m15 0h1m-28 1h1m8 0h1m30 0h1m31 0h1m-35 1h1m-34 1h1m38 0h1m-34 1h1m14 0h1m-19 1h1m12 2h1m7 0h1m38 0h1m-43 1h1m15 0h1m7 0h1m4 0h1m18 0h1m-66 1h1m30 0h1m31 0h1m-34 1h1m-35 1h1m31 0h1m15 0h1m14 0h1m1 4h1m1 0h1m-4 1h1m-61 1h1m55 0h2m1 0h1m-6 1h3m5 0h1m-60 1h1m51 0h1m4 0h1m-11 2h1m-48 2h1m11 0h1m30 0h1m-21 1h1m18 0h1m1 0h1m-16 1h1m8 0h1m1 0h1m-39 1h1m37 0h1m-24 1h1m3 2h1m-20 1h1m15 0h1m-19 1h1m22 1h1m-20 1h1m19 0h2m-3 1h3m-5 1h1m-5 1h1m4 0h1m-39 1h1m19 0h1m8 0h1m-3 1h1m7 0h1m-5 1h1m-10 2h1m3 1h1m41 0h1m-48 1h1m40 0h1m4 0h1m1 0h1m-58 1h1m55 1h1m-11 1h1m-59 1h1m68 0h1m-20 2h3m1 0h1m-42 1h1m34 0h1m4 0h1m-3 1h1m16 0h1m-57 1h1m35 0h1m20 2h1m-1 1h1m-2 1h1m0 2h1m-2 1h1m-42 7h1m19 2h1m-22 1h1m20 0h1m-22 1h1m20 2h1m-2 4h1m-20 1h1m19 0h1m-21 1h1m-15 1h1m12 5h1m0 1h1m4 0h1m-6 1h1m-1 1h1"/><path stroke="#785949" d="M83 5h1m3 2h1m-2 4h1m-13 2h1m8 4h1m-11 1h1m-19 1h1m14 0h1m15 0h1m-35 1h1m39 0h1m-35 1h1m7 0h1m8 0h1m15 0h1m-36 1h2m14 0h1m5 1h1m-35 1h1m16 0h1m4 1h1m-27 1h1m-2 1h1m55 0h1m-44 1h1m-11 1h1m56 0h1m-68 1h2m6 0h1m8 0h1m47 0h1m-51 1h1m-19 1h1m14 0h1m47 0h1m-27 1h1m-2 1h1m-36 1h1m24 0h1m39 0h1m-59 1h1m51 0h1m3 0h1m-20 1h1m11 0h1m3 0h1m-42 1h1m14 0h1m23 0h1m-13 2h2m6 0h1m-10 1h1m-11 1h1m39 0h2m-69 1h1m47 0h1m17 0h1m2 0h1m-16 1h1m-58 1h1m46 0h1m22 0h1m-74 1h1m40 0h1m6 0h1m8 0h1m11 0h2m-33 1h1m32 0h1m-43 1h1m22 0h1m11 0h1m-15 1h1m12 0h3m-58 1h1m47 1h1m-21 1h1m19 0h2m2 0h1m-38 1h1m11 0h1m7 0h1m11 0h1m-48 1h1m15 0h1m24 0h1m-31 1h1m27 0h1m3 0h1m-5 1h1m4 0h2m-19 1h1m-20 1h2m23 0h1m2 0h1m2 0h2m-12 2h1m1 0h1m6 0h1m-5 1h1m-12 2h1m1 0h1m5 0h2m-21 1h1m10 0h1m-21 1h1m22 0h2m-6 1h1m-6 1h1m5 0h1m-7 1h1m-5 1h1m4 0h1m-3 1h1m37 0h1m-57 2h1m10 0h1m40 0h1m0 1h1m-66 1h1m63 0h1m3 0h1m-69 1h1m57 0h1m-53 1h1m5 1h1m-1 1h1m39 0h1m4 0h1m10 0h1m-16 1h1m-48 1h1m61 0h1m-56 3h1m54 1h1m-1 6h1m0 1h1m-44 4h1m42 0h1m-23 1h1m-42 1h1m19 0h1m-27 2h1m45 1h1m-35 1h1m27 0h2m4 0h1m-47 1h1m12 2h1m-1 1h1m26 0h1m5 0h1m-20 1h1m-2 1h1m14 2h1m-7 4h1m-10 2h1m-1 2h1"/><path stroke="#795849" d="M80 6h1m-5 2h1m-2 1h1m-4 1h2m14 0h1m-2 1h1m-16 3h1m8 0h1m6 0h1m4 2h1m-27 1h1m14 0h1m-26 1h1m21 1h1m-27 1h1m31 0h1m-27 1h1m5 1h1m11 2h1m15 0h1m-36 1h1m32 0h1m-36 1h1m8 0h1m-30 2h1m9 3h1m15 0h2m-19 1h1m21 1h1m-43 1h1m47 0h1m23 0h1m6 0h1m-35 1h2m6 0h1m24 0h1m-75 1h1m6 0h1m8 0h1m46 0h1m-43 1h1m15 0h1m8 0h1m15 0h1m-52 1h2m42 0h1m-55 1h1m15 0h1m16 0h1m14 0h2m6 0h1m8 0h1m7 0h1m-19 1h1m-52 1h1m8 0h1m38 0h1m24 0h1m-76 1h1m48 0h1m14 0h1m-18 1h1m14 0h1m-58 1h1m39 0h1m15 0h1m7 0h1m-28 1h2m14 0h1m15 0h2m-36 1h1m24 0h1m-20 1h1m20 0h1m4 0h1m-45 1h1m38 0h1m-7 1h1m4 0h1m-18 1h1m16 0h1m-7 1h1m1 0h1m-18 1h1m16 0h1m-47 2h1m-10 1h1m12 1h1m25 0h1m2 1h1m-7 1h1m-14 1h1m12 0h1m-24 1h1m24 0h1m-28 1h1m24 0h2m-29 1h1m6 1h1m12 0h1m-18 2h1m12 0h1m-17 1h1m-2 1h1m14 0h1m-5 1h1m-5 1h1m4 0h2m-12 1h1m45 0h1m-44 1h1m40 0h1m-55 1h1m55 0h1m-58 1h1m8 2h1m39 0h1m-62 1h1m56 0h1m1 0h1m-47 2h1m41 0h1m-4 2h1m16 0h1m-58 4h1m34 0h1m21 2h1m-2 1h1m-69 7h1m26 1h1m41 1h1m-24 1h2m-7 1h1m4 0h1m-47 2h1m5 1h1m5 1h1m0 1h1m27 0h1m-42 1h1m45 0h1m-35 2h1m27 0h1m-1 2h1m-29 2h1m28 0h1m-4 2h1"/><path stroke="#785848" d="M78 7h1m7 0h1M77 8h1m-4 1h1m-7 3h2m-5 2h1m12 1h1m-10 1h1m14 0h2m3 2h1m-28 1h1m-2 1h1m6 0h2m-3 1h1m22 0h1m-3 1h1m-43 1h1m23 0h1m21 1h1m-34 1h1m12 1h1m-3 1h1m21 1h1m-3 1h1m7 0h1m-51 1h1m15 0h2m5 1h1m22 0h1m-42 1h1m22 0h1m-50 1h1m14 0h1m6 1h1m44 1h1m-67 1h1m15 0h1m15 0h1m7 0h1m19 0h1m-54 1h1m22 0h1m-26 1h1m55 0h1m6 0h1m-59 1h1m32 0h1m20 1h1m7 0h1m-59 1h1m56 0h1m-59 1h1m14 0h1m15 0h1m15 0h1m-59 1h1m72 0h1m-43 1h1m23 0h1m-52 1h1m64 0h1m-67 1h1m30 0h1m39 0h1m1 0h1m-44 1h1m34 1h1m-32 1h1m6 0h1m25 0h1m-28 1h1m15 0h2m4 0h1m-58 1h2m18 0h1m36 0h1m-59 1h1m31 0h1m15 0h1m-20 1h1m16 0h1m2 0h1m1 0h1m-48 1h1m30 0h1m10 0h1m-46 1h1m7 0h2m12 1h1m-10 1h1m26 0h1m1 0h1m2 0h1m-19 1h1m-19 1h1m28 0h1m-32 1h1m15 0h1m8 0h1m-20 1h1m19 0h1m-31 1h1m5 1h1m22 0h1m-18 1h1m14 0h1m-8 1h1m-13 1h1m10 0h1m2 0h1m-6 1h1m1 0h1m-7 1h1m1 0h1m3 0h1m-9 1h1m3 0h1m-31 2h1m22 0h2m2 0h1m41 0h1m-49 1h2m42 0h2m-54 1h1m11 0h1m37 0h1m2 0h1m-54 1h1m49 0h1m-52 1h1m47 0h1m-48 2h1m41 0h1m3 0h1m-7 1h1m-41 1h1m41 0h1m12 0h1m-19 1h1m-38 1h1m36 0h1m-38 1h1m33 0h1m-2 2h1m0 1h1m-1 10h1m20 0h1m-69 3h1m5 0h1m40 2h1m-48 1h1m12 0h1m27 1h1m-15 3h1m19 0h1m-42 1h1m19 0h1m-15 3h1m13 0h1m-1 2h1m-1 5h1m3 0h1"/><path stroke="#795848" d="M79 7h1m0 3h1m-10 1h1m6 0h1m-3 1h1m-7 3h1m-11 1h1m16 0h1m-4 1h1m-10 1h1m15 0h1m-4 1h1m15 0h1m-2 1h1m-39 3h1m-14 2h1m14 1h1m-12 1h1m7 0h2m12 1h2m-3 1h1m28 1h1m-66 1h1m6 0h1m15 0h1m40 0h1m-44 1h1m-19 1h1m8 0h1m6 0h1m24 0h1m23 0h1m-52 1h1m8 0h1m-19 1h1m22 0h2m26 0h2m-23 1h1m-27 1h1m0 3h1m16 0h1m-4 1h2m30 0h2m-28 1h1m24 0h1m17 0h1m-69 1h1m22 0h1m8 0h1m23 0h1m10 0h1m-71 1h1m31 0h2m-27 1h1m14 0h1m24 0h1m7 0h1m12 0h1m-17 1h1m11 0h1m-39 1h1m23 0h1m-51 1h2m30 0h1m7 0h1m23 0h1m-66 1h1m7 0h1m48 0h1m-52 1h1m51 0h2m-36 1h1m-24 1h1m54 0h1m-34 1h1m15 0h1m9 0h1m6 0h2m-20 1h1m15 0h1m-35 1h1m6 0h1m7 0h1m-18 1h1m27 0h1m1 0h1m2 0h1m-29 1h1m16 0h1m8 0h1m-4 1h2m-29 1h2m22 0h1m-36 2h1m25 0h1m2 0h2m-7 1h2m-15 1h1m-11 1h2m15 0h1m2 0h1m-6 1h1m2 0h1m-6 1h1m3 1h1m2 0h1m-39 1h1m32 0h1m-9 1h1m-20 1h1m17 0h1m1 0h1m2 0h1m2 0h1m35 1h1m-2 1h1m-45 1h2m1 0h1m37 0h1m-44 1h1m39 0h1m-3 1h1m3 0h1m-8 1h1m3 0h1m8 0h1m-16 1h1m3 0h1m-13 4h1m-1 1h1m22 0h1m-58 1h1m34 0h1m21 7h1m-1 2h1m-44 2h1m41 0h1m-1 2h1m-28 1h1m26 0h1m-23 2h1m-41 1h1m33 0h2m4 2h1m-35 1h1m33 0h1m0 1h1m-7 2h1m5 0h1m-35 1h1m-2 1h1m33 0h1m-7 1h1m-15 1h1m0 3h1m3 2h1m-3 1h1m-4 2h1"/><path stroke="#785948" d="M84 8h1m-2 1h1m-3 1h1m-5 2h1m-12 1h1m8 0h1m-12 1h1m8 0h1m6 0h1m5 1h1m-26 1h1m10 2h1m-19 1h1m-5 2h1m45 1h2m-51 1h1m15 0h1m30 0h1m-42 1h1m6 0h1m8 0h1m-32 3h1m32 0h1m-28 1h1m15 0h2m-28 1h1m23 0h1m7 0h1m6 1h1m-19 1h1m-28 1h1m31 0h1m39 0h1m-75 1h1m31 0h1m5 1h1m31 0h1m-43 1h1m47 0h1m-42 1h1m15 0h1m23 0h1m-75 1h1m14 0h1m44 0h1m9 1h1m7 0h1m-69 2h1m22 0h1m40 0h1m-29 2h1m23 0h1m-35 1h1m12 1h1m25 0h1m-44 1h1m6 0h2m-27 1h1m61 0h1m-25 1h1m7 0h1m9 0h1m2 0h2m-58 1h1m24 0h1m7 0h1m-44 1h1m48 0h1m7 0h1m-12 1h1m10 0h1m-14 1h1m8 0h1m-28 1h1m15 0h1m9 0h2m-25 3h1m20 0h1m-8 1h1m2 0h1m-39 1h1m23 0h1m-27 1h2m32 0h1m2 0h1m-32 1h1m30 0h1m-25 1h1m13 1h1m-12 1h1m12 0h1m-6 1h1m-15 2h1m9 0h1m7 0h1m-24 3h1m9 0h1m-1 1h1m-3 1h1m3 0h1m-26 1h1m14 0h1m6 0h1m-29 2h1m5 0h1m-1 1h1m16 0h2m37 0h1m2 0h1m-4 1h1m-7 2h1m-51 1h1m47 0h1m1 0h1m-51 1h1m44 1h1m-5 1h1m21 2h1m-1 4h1m-2 5h1m0 1h1m-24 2h1m-34 3h1m26 1h2m-30 1h1m-7 2h1m6 0h1m12 0h1m0 1h1m12 0h1m-15 1h2m-16 1h1m28 0h1m-30 2h1m28 0h1m4 0h1m-34 1h1m27 0h1m-15 2h1m-16 1h1m13 1h1m7 2h1m-7 3h1"/><path stroke="#795948" d="M85 8h1m-4 1h1m6 1h1m-5 2h1m-4 1h1m8 0h1m-29 2h1m23 0h1m-20 1h1m6 1h1m14 0h1m-3 1h1m-26 1h1m10 2h1m7 0h2m-36 1h1m24 0h1m15 0h1m-16 3h1m13 1h2m6 0h2m-61 2h1m5 1h1m31 0h1m15 0h1m-31 3h1m-3 1h1m-28 1h1m7 0h1m31 0h1m-42 1h1m15 0h1m5 1h1m22 0h1m23 0h1m-67 1h1m32 0h1m-36 1h1m15 0h1m8 0h1m7 0h1m-19 1h1m34 0h1m4 0h1m5 1h1m-20 1h1m-35 1h1m16 0h1m12 1h1m7 0h1m8 0h1m17 0h1m-46 1h1m23 0h1m18 0h2m2 0h1m-7 1h1m-37 1h1m15 0h1m-44 1h1m63 0h1m-18 1h1m11 0h1m4 0h1m-37 1h1m-2 1h1m6 0h1m23 0h2m-35 1h1m6 0h1m20 0h1m1 0h1m2 0h1m-53 1h2m47 0h1m-51 1h1m15 0h1m29 0h2m-39 1h1m29 0h1m2 0h1m1 0h1m2 0h1m-41 1h1m3 0h1m26 0h1m4 0h1m1 0h1m-28 1h1m7 0h1m-27 1h1m12 1h2m13 1h3m6 0h1m-23 2h1m9 0h1m-20 1h1m22 0h1m-4 1h1m-1 1h2m-6 2h2m-41 4h1m27 0h1m-16 1h1m11 0h1m3 0h1m36 0h1m-67 1h1m5 0h1m17 0h1m3 0h1m39 1h1m-9 1h1m0 2h1m-56 1h1m50 0h1m-46 2h1m56 0h1m-58 1h1m36 0h1m-2 1h2m18 1h1m-23 1h1m21 0h1m0 6h1m-2 2h1m-69 4h1m25 1h1m19 0h1m-47 1h1m25 1h2m-22 1h1m5 0h2m13 0h1m-15 1h1m13 0h1m-1 1h1m19 0h1m-21 1h1m-28 1h1m5 0h1m19 0h1m13 1h1m-35 1h1m6 1h1m12 2h1m-14 2h1m26 1h1m-5 2h1m-10 1h1"/><path stroke="#a88979" d="M24 11h1m3 2h1m-4 3h1m4 0h1m4 1h1m-2 1h1m-15 1h1m5 0h1m7 0h1m-15 1h1m7 0h1m9 0h1m2 0h1m-15 2h1m6 0h1m1 0h1m-9 1h1m-6 1h1m9 0h1m-9 1h1m4 0h1m-12 1h1m4 0h1m3 1h1m-7 1h1m-7 4h1m-3 1h1m1 0h1m-4 1h1m2 0h1m12 32h1m-1 1h1m-2 11h1"/><path stroke="#a98879" d="M25 11h1m3 3h1m-8 1h1m-1 1h1m9 0h2m-9 1h1m11 1h1m-7 1h1m7 0h1m-17 1h1m16 0h1m-8 1h1m1 0h1m-10 1h1m0 1h1m3 0h1m-11 1h1m7 0h1m1 0h2m-9 1h1m1 1h1m-8 1h1m-4 1h1m2 1h1m2 0h2m-6 1h1m2 0h1m-7 1h1m-2 1h1m2 0h1m-3 1h1m-3 2h1m1 0h1m10 30h1m6 3h1m0 1h1m2 2h2m-12 7h1m1 16h1m1 1h1m1 1h1m2 1h1m-8 9h1m6 3h1"/><path stroke="#a88879" d="M24 12h1m0 1h1m3 0h1m-3 1h2m-1 2h1m-6 1h1m10 0h1m-14 1h1m5 1h1m7 0h1m1 1h1m1 1h1m-20 1h1m7 0h1m-9 1h1m1 0h1m7 0h1m-13 2h1m8 0h1m-8 1h1m7 0h1m-2 1h1m-11 1h1m6 0h2m-2 1h1m-10 7h1m-2 1h1m12 29h2m2 1h1m1 2h1m1 1h1m-2 11h1m-1 15h1m-7 9h1m5 3h1m0 1h1"/><path stroke="#a88878" d="M25 12h3m-5 1h1m6 1h1m-8 1h1m5 0h3m3 1h1m-10 1h2m-3 1h1m6 0h1m-4 1h1m-9 1h1m7 0h1m1 0h2m-11 1h1m4 0h1m6 0h1m-10 1h1m6 0h1m-14 1h1m9 0h1m-6 1h1m5 0h1m-10 3h3m-1 1h1m-5 2h1m0 1h1m-7 5h1m15 31h1m0 1h2m0 27h1m1 1h1"/><path stroke="#a88978" d="M24 13h1m1 0h2m-3 1h1m2 1h1m3 0h1m-2 2h1m1 0h1m2 0h1m-11 1h1m9 0h1m-15 1h2m6 0h1m9 0h2m-17 1h1m-3 1h1m1 0h2m3 0h1m-10 1h1m11 0h1m1 0h1m-13 1h1m2 0h1m7 0h1m-10 1h1m2 0h1m-10 1h1m3 0h1m7 0h2m-16 1h2m8 0h1m-10 1h1m1 0h1m-6 2h2m-1 1h1m3 0h1m-6 2h1m1 2h1m-5 3h1m21 32h1m0 1h1M27 93h1m3 1h1m3 3h1m1 0h1"/><path stroke="#987868" d="M23 14h1m8 5h1m1 1h1m-13 2h1m9 1h1m-10 3h1m-7 1h1m-7 10h1m0 1h1m12 32h1m7 0h1m2 1h1m0 2h1m-13 1h1m11 2h1m-1 1h1m55 0h1m-66 2h1m64 0h1m-21 1h1m19 0h1m-64 1h2m37 2h1m-5 2h1m-5 2h1m-10 2h1m4 0h1m35 0h1m-44 1h1m24 1h1m-51 2h1m41 0h1m6 0h1m-4 1h1m-41 4h1m28 0h1m2 0h1m-3 1h1m-37 1h1m34 0h1m-36 3h1m2 4h1m2 1h1m5 1h1m-2 2h1m23 1h1m-7 3h1"/><path stroke="#a98979" d="M24 14h1m1 0h1m6 1h1m-3 1h1m2 0h1m-5 1h1m8 1h1m-12 1h1m8 0h2m-17 1h1m9 1h1m7 0h1m-19 3h1m-1 1h1m2 1h1m3 0h1m-16 5h1m3 0h1m-2 2h2m11 46h1m2 2h1m-8 11h2m0 1h2m7 5h1m-8 8h1m2 2h1"/><path stroke="#a98878" d="M31 14h1m-5 1h1m4 2h1m4 0h1m-11 1h1m5 0h1m-13 1h1m2 1h1m14 0h1m2 0h1m-24 1h1m4 0h1m6 0h1m-13 1h1m4 0h1m-4 1h1m-5 2h1m8 2h1m-7 1h1m-3 1h1m-7 6h1m-1 1h1m16 43h1m5 3h2m1 16h1m-12 7h1"/><path stroke="#997968" d="M24 15h1m1 1h2m0 1h1m-3 3h1m1 5h1m-10 3h1m0 1h1m-3 3h1m-4 2h1m-3 4h1m13 29h2m-4 1h1m5 1h1m-1 2h1m-7 1h1m55 4h1m-51 1h1m43 2h1m-45 1h1m61 2h1m-28 2h1m26 0h1m-28 1h1m-5 1h1m1 0h1m-14 4h1m2 0h1m-3 1h1m40 0h1m-20 1h1m18 0h1m-68 1h1m41 1h1m-8 2h1m1 0h1m-39 1h1m8 0h1m27 0h1m-4 1h1m2 0h1m-26 2h1m20 1h1m-28 2h1m5 0h1m-1 1h1m-10 2h1m2 0h1m0 3h1m2 1h1m27 1h1m-5 2h1"/><path stroke="#997868" d="M25 15h1m4 3h1m-4 2h1m7 0h1m-16 1h1m9 1h1m2 1h1m-14 2h1m1 1h1M12 37h1m13 29h1m-2 9h1m-1 1h1m5 2h1m61 0h1m-63 1h1m36 4h1m-5 2h1m28 2h1m-34 1h1m-6 1h1m-4 1h1m22 0h1m-25 1h1m1 0h1m17 0h1m1 0h1m-6 2h2m2 0h1m-8 1h1m4 0h1m-41 1h1m39 0h1m-7 1h1m0 1h1m-5 1h1m-2 1h1m-36 3h1m-1 3h1m11 1h1m-4 4h1m1 0h2m27 0h1m-2 1h1m-9 3h1m-2 1h1"/><path stroke="#a98978" d="M26 15h1m-4 1h2m4 0h1m-8 1h1m1 0h1m-1 1h1m3 0h2m5 0h1m2 0h1m-3 1h1m-7 1h1m2 0h1m2 0h1m1 1h1m-10 1h1m7 0h1m-20 1h1m16 0h2m-17 1h1m5 1h1m-6 1h1m-1 2h1m-5 1h1m-1 1h1m1 1h1m-6 4h1m-2 1h1m13 29h1m9 5h1m-8 24h1m1 1h1"/><path stroke="#997969" d="M21 17h1m2 2h1m-2 3h1m0 1h1m4 2h1m-6 2h1m1 1h1m-14 5h1m11 33h1m57 9h1m-53 1h1m5 3h1m33 3h1m-35 1h1m27 1h1m2 0h1m-11 4h2m-10 1h1m5 0h1m14 3h1m1 1h1m-7 1h1m-39 1h1m1 1h1m34 0h1m-34 1h1m30 1h1m-34 2h1m5 1h1m-7 1h1m30 9h1m-5 2h1m-2 1h2m-3 1h1"/><path stroke="#997869" d="M29 17h1m-8 1h1m6 3h1m7 0h1m-7 1h1m-7 1h1m-7 1h1m7 0h1m-13 6h1m1 1h1m11 37h1m-5 1h1m67 1h1m-3 1h1m1 3h1m-57 1h1m55 0h1m-15 2h1m-55 1h2m2 2h1m39 2h1m0 1h1m22 2h1m-33 1h1m-8 3h1m3 0h1m-3 1h1m16 0h1m-2 2h1m-46 2h1m38 0h1m2 0h1m2 0h1m-7 1h2m-2 2h1m-31 1h1m21 0h1m-34 1h1m-1 5h1m0 1h1m4 2h1m-2 1h1m6 0h1m26 2h1m-4 2h1"/><path stroke="#987969" d="M23 18h1m1 1h1m7 0h1m-6 2h1m9 1h1m-21 2h1m-3 3h1m1 1h1m3 2h1m-12 8h1m0 1h1m19 30h1m1 1h1m0 1h1m-5 1h1m57 0h1m-59 1h1m55 0h1m-3 1h1m-61 3h1m4 3h1m1 1h1m4 0h1m-5 1h1m0 1h1m1 0h1m56 0h1m-31 3h1m-5 1h2m1 0h1m-14 2h1m1 0h1m22 1h1m-1 1h1m-23 1h1m22 0h1m-5 1h1m21 0h1m-66 1h1m64 0h1m-69 1h1m37 0h2m3 0h1m24 0h1m-62 1h1m35 0h1m24 1h1m-57 2h1m20 0h1m3 0h1m-38 2h1m36 11h1m-3 1h1"/><path stroke="#987869" d="M31 18h1m4 3h1m-11 3h1m-6 1h1m-6 6h1m2 1h1m-9 8h1m13 27h1m69 2h1m-71 2h1m11 1h1m-13 1h1m5 1h1m61 2h1m-57 2h1m-11 1h1m0 1h1m8 0h1m33 1h1m-40 1h1m4 0h1m29 1h1m25 3h1m-43 2h1m41 0h1m-1 2h1m-40 1h1m15 2h1m-6 2h1m3 0h1m-8 1h1m30 0h1m-63 1h1m29 0h1m1 0h1m-5 2h1m-2 1h2m-29 1h1m5 1h1m-7 3h1m-5 1h1m5 3h2m19 7h1"/><path stroke="#987968" d="M21 21h1m12 3h1m-5 2h1m-6 1h1m-5 2h1m-8 5h1m1 1h1m-6 4h1m18 29h1m0 2h1m5 4h1m-7 1h1m45 3h1m-52 1h1m66 2h1m-60 1h1m0 1h1m0 1h2m29 0h1m-5 1h1m-12 3h1m4 0h1m-5 1h1m21 0h1m-23 1h1m1 0h1m16 1h1m-4 1h2m2 0h1m-49 2h1m-1 2h1m39 0h1m1 0h1m-9 1h2m3 0h1m-40 1h1m9 0h1m-5 1h1m-1 5h1m5 1h1m-12 1h1m2 1h2m6 0h1m-6 1h1m4 3h1"/><path stroke="#d1d9c0" d="M84 21h1m2 4h1m1 4h1m-12 1h1m11 4h2m-3 1h1m-38 2h1m-3 1h1m31 0h1m-38 4h1m2 7h1m7 1h2m-9 2h2m1 1h1m23 38h1m12 3h1m-10 2h1"/><path stroke="#d0d9c1" d="M85 21h1m-1 1h1m-7 3h1m-3 1h1m10 3h1m-10 1h1m10 3h1m-2 1h1m-5 2h1m-33 1h1m29 1h1m-35 1h1m-3 1h2m5 0h1m-10 3h1m10 0h1m-11 1h1m10 3h2m-11 1h1m9 0h1m-5 3h3m-6 2h1m-1 1h1m38 24h1m-3 3h1m-3 4h1m4 6h1m-12 4h1m-2 2h1m-1 2h1m-2 2h1"/><path stroke="#d1d8c1" d="M82 22h1m-2 1h3m1 0h1m-9 2h1m-2 1h1m12 5h1m-10 1h1m9 0h1m-10 2h1m2 2h1m-40 5h1m8 0h1m-9 5h2m10 3h1m-2 2h1m-8 3h1m28 30h1m-2 1h1m-2 3h1m13 1h1m-1 1h1m-2 1h1m-11 7h1m-4 3h1"/><path stroke="#d0d8c1" d="M83 22h2m-5 2h1m-5 3h1m10 0h1m0 1h1m-11 1h1m0 2h1m11 2h1m-12 1h1m5 1h1m1 0h1m-7 1h1m4 0h1m-38 3h2m-6 1h1m-3 1h1m1 0h1m-3 1h1m11 2h1m2 5h1m-12 1h1m9 0h1m20 33h1m-2 3h1m2 10h1m-3 4h1"/><path stroke="#d0d9c0" d="M80 23h1m-3 1h2m-2 1h1m7 0h1m0 1h1m-7 10h1m-28 3h1m0 4h1m0 2h2m-5 7h1m34 30h1m-9 1h1m-5 7h1m3 7h1m-2 1h1m-2 1h1m-1 1h1"/><path stroke="#f8f8f1" d="M84 23h1m1 4h1m-66 4h1m55 0h1m0 1h1m-60 1h1m0 1h1m-2 1h1m6 3h1m54 0h1m-56 2h2m25 0h1m-44 2h1m0 1h1m17 0h1M9 44h1m-3 2h1m49 2h1M4 49h1m41 0h1M4 50h1m-4 1h2m-3 1h1m-1 1h1m-1 2h1m34 0h1m13 0h1m-11 5h1m1 6h1m1 0h1m-3 1h1m1 3h3m0 4h1m-3 1h1m1 1h1m7 3h1m-3 3h1m-2 2h1m1 4h1"/><path stroke="#d1d8c0" d="M86 23h1m-6 1h1m-6 1h1m3 8h1m6 2h1m-4 2h2m-39 4h1m7 0h1m-1 1h1m-10 3h1m10 1h1m-11 1h1m1 3h1m5 2h1m-3 1h1m36 24h1m-2 2h1m-1 1h1m-10 2h1m-5 7h1m13 3h1m-10 3h1m-4 7h1"/><path stroke="#484841" d="M82 24h1m-5 3h1m0 1h1m2 0h1m1 1h1m-1 3h1m-33 8h1m-6 2h1m4 0h1m-4 3h1m-2 2h1m1 2h1m1 1h1m-1 1h1M30 72h1m-1 1h1m-1 2h1m5 0h1m55 1h1m-63 1h1m61 1h1m-1 2h1m-57 1h1m46 1h1m8 0h1m-11 1h1m9 0h1m-11 3h1m0 3h1m2 0h1m-59 6h1m63 1h1m-65 1h1m1 0h1m-2 1h1m4 0h1m54 0h1m-56 1h1m19 0h1m-21 1h2m47 0h1m-30 2h1m-28 1h1m6 0h1m25 0h1m-34 1h1m5 0h1m28 0h1m-8 1h1m5 1h1m2 0h1m-30 1h1m19 0h1m1 0h1m-2 1h1m3 0h1m1 1h1m0 1h1m-10 1h1"/><path stroke="#484941" d="M83 24h1m0 2h2m-3 1h1m-3 1h1m-3 1h2m5 0h1m-5 1h1m3 0h1m-7 1h1m7 1h1m-6 1h1m0 1h1m-2 1h1m-1 1h1m-33 4h1m0 1h1m-5 1h1m2 0h1m1 0h1m-7 2h1m2 0h1m1 0h1m2 3h1m-2 1h1m-3 1h1m0 1h1m-3 2h1M29 72h1m-3 1h1m6 0h1m-8 1h2m1 0h1m3 0h2m-6 2h1m3 1h1m-6 1h1m4 0h1m-2 1h1m48 5h2m-1 4h1m-1 2h1m-4 2h2m-2 1h1m2 1h1m-57 1h1m54 0h1m-29 1h1m27 1h1m9 0h1m-39 1h2m27 0h1m6 0h1m-61 1h1m24 0h1m7 0h1m-36 1h1m1 0h1m5 0h1m45 0h1m-55 1h2m33 0h1m-34 1h1m25 0h1m-29 1h1m7 0h1m22 0h1m-25 1h1m18 0h1m8 0h1m13 0h1m-49 1h1m29 0h1m-4 1h1m5 0h1m-7 1h1m6 1h2m-7 1h1m4 0h2"/><path stroke="#484940" d="M84 24h1m-1 1h1m-6 2h1m6 1h1m-6 1h1m3 1h1m-2 1h1m-1 2h1m-3 1h1m2 0h1m-2 1h1m-36 6h1m-2 2h1m0 1h1m-3 1h1m0 1h1m5 1h1m-2 1h1m-1 1h1m-4 1h1m4 0h1m-5 1h1M28 68h1m0 1h1m-1 1h1m-2 1h2m4 1h1m-2 1h1m0 2h1m-8 1h1m7 0h1m-9 1h1m7 0h1m-1 1h1m-2 1h1m48 0h1m-48 1h1m46 6h1m8 3h1m-7 1h1m-3 2h1m7 0h1m-12 1h1m-52 5h1m2 0h1m22 1h1m25 0h2m-29 1h1m5 0h1m23 0h1m-59 1h1m27 0h1m28 0h1m-57 1h1m30 0h1m-31 1h1m24 0h1m25 0h1m-24 1h1m5 1h2m11 0h1m-18 1h1m0 1h1m-2 1h1m-3 1h1m2 0h1m-7 1h1m4 0h1m-5 1h1m1 0h1m1 1h1m-6 1h1m0 1h1"/><path stroke="#f8f9f0" d="M85 24h1m-10 5h1m-55 5h1m-6 2h1m7 2h1m2 5h1m14 0h1m10 0h1m-26 1h1M7 45h1m24 2h1m-1 1h1m-2 2h1m2 1h1M1 53h1m46 0h1M2 54h1m31 0h1m-1 1h1m0 1h1m1 0h1m1 6h2m1 3h1m-1 2h1m2 7h1m6 4h1m0 1h1m0 1h1m-2 1h1m-2 3h3m-1 1h1m-2 1h1"/><path stroke="#d1d9c1" d="M86 24h1m-10 3h1m10 0h1m-10 5h1m-29 6h1m-3 13h1m4 1h1m22 37h1m-3 4h1m13 0h1m-2 2h1"/><path stroke="#484840" d="M80 25h2m-1 1h1m-2 2h1m4 0h1m-3 1h1m-4 1h1m1 1h1m2 0h1m0 1h2m-2 1h2m-2 1h1m-5 1h1m-35 6h1m-3 2h1m7 1h1m-7 1h1m2 0h1m-2 1h1m2 0h1m-2 1h2m-4 1h1m3 2h1m-5 1h1M27 70h1m6 1h1m-7 1h1m6 0h2m-8 1h1m62 1h1m-66 1h1m1 0h1m-2 2h1m7 1h1m55 1h1m-10 4h1m8 1h1m-7 3h1m-1 1h1m-7 2h2m-2 1h2m10 3h1m-1 1h1m-65 1h1m25 1h2m0 1h1m29 2h1m-53 1h1m27 0h1m-28 1h1m22 0h1m2 0h2m18 0h1m-52 1h1m4 0h1m26 0h2m-36 1h1m35 0h1m-9 1h1m1 0h1m3 0h1m-8 1h1m1 0h1m6 1h1m-3 1h1m-5 2h1m2 0h1m-2 1h1"/><path stroke="#494841" d="M82 25h1m-5 1h1m4 2h2m-2 4h1m1 0h1M51 43h1m-4 1h1m2 0h1m-1 2h1m2 0h1m-6 2h1m2 0h1m2 0h2m-2 1h2m-6 1h1m1 1h1M27 68h1m0 1h1m1 0h1m-4 3h1m8 1h1m-4 1h1m-6 1h1m63 0h1m-64 2h1m52 4h1m-1 1h1m9 3h1m-11 3h1m1 0h1m7 0h1m-11 2h1m9 0h1m-1 1h1m-1 2h1m-13 1h1m1 0h1m0 2h1m7 1h1m-5 2h1m-61 1h1m1 0h1m3 0h1m30 0h1m-35 1h1m30 0h1m21 0h1m-57 1h1m29 0h1m5 0h1m18 0h1m-26 1h2m-1 1h2m-24 2h1m17 0h1m-19 1h1m22 0h1m-5 1h1m-2 1h1m1 0h1m4 0h1m-6 2h1m-1 1h1"/><path stroke="#494840" d="M83 25h1m-4 1h1m1 0h2m-3 1h2m-1 2h1m2 0h1m-5 1h1m5 1h1m-3 2h1m-3 1h1m-33 7h1m-2 1h1m1 1h2m-2 2h1m1 0h1m-6 1h1m5 0h1m-5 2h1M36 74h1m-9 2h1m7 0h1m-4 1h1m48 2h1m-50 1h1m51 8h1m-2 2h1m-3 1h1m2 0h2m-4 1h1m-1 3h1m-57 1h1m1 0h2m-4 1h1m-1 1h1m-1 1h1m1 0h1m5 0h2m51 0h1m-33 1h1m-24 1h1m20 0h1m4 0h2m3 0h1m17 0h1m-50 1h2m-1 2h1m20 0h1m4 0h1m-28 1h1m20 0h1m3 1h1m4 0h1m10 0h1m-41 1h1m23 0h1m-24 1h2m20 0h1m1 3h1m-6 1h1m2 1h1m-4 1h1"/><path stroke="#f9f9f0" d="M85 25h1m1 4h1m0 1h1m-69 3h1m57 0h1m-55 1h1m54 0h1m-63 1h1m-2 1h1m8 0h1m0 3h1m25 0h1m-24 3h1m14 2h1m-16 1h1m15 0h1M6 46h1m23 0h1m25 1h1m-26 1h1M5 49h1m-3 1h1m-3 2h1m0 1h1m32 0h1M1 56h1m0 1h1m36 6h1m1 2h1m0 1h1m0 1h1m-3 1h1m4 4h1m-1 1h1m-1 2h1m4 3h1m0 1h1m1 2h1m-2 1h1m-1 3h1m-1 2h1"/><path stroke="#f8f9f1" d="M75 26h1m1 4h1m-57 2h1m0 1h1m66 0h1m-71 1h1m1 0h1m3 1h1m54 0h1m-67 3h1m-2 1h1m11 0h1m-14 1h2m14 0h1M9 43h1m0 1h1m-3 2h1m-3 1h1m-1 1h1m39 0h1m-14 1h1m13 0h1m-16 1h1m-1 1h1m0 2h1M0 54h1m34 0h1m1 3h1m-1 2h1m0 1h1m1 1h1m-3 1h1m1 1h1m3 5h1m-1 1h1m0 2h1m-1 4h1m-2 1h1m8 4h1m-2 1h1m-2 1h1m2 0h1m-4 1h1m1 0h1m-2 2h1m-1 1h1"/><path stroke="#494941" d="M79 26h1m0 1h1m3 0h1m-2 4h1m2 0h1m-6 2h1m6 0h1m-39 7h1m2 4h1m-4 1h1m2 0h1m-2 1h1m-4 1h1m1 0h1m-3 2h1m1 0h1m2 0h1M27 69h1m0 1h1m1 0h1m-3 3h1m0 1h1m5 1h1m-7 1h1m3 0h1m2 1h1m55 0h1m-63 1h1m5 1h1m-3 1h2m-1 1h1m56 5h1m-11 1h1m2 3h1m-3 1h1m-2 2h2m-2 3h1m-54 1h1m53 0h1m-56 1h1m-1 1h1m4 0h1m30 0h1m-11 1h1m7 0h1m-7 1h1m-21 1h1m18 0h1m-1 1h1m8 0h1m14 0h1m-50 1h1m30 0h1m16 0h1m-43 1h1m23 0h1m-28 1h1m-1 1h1m20 0h1m6 0h3m-10 1h1m6 0h1m-7 1h1m0 1h2m4 0h1m-2 1h1m-7 1h1m1 0h1m-3 1h1"/><path stroke="#f9f8f0" d="M86 26h1m-66 7h1m1 1h1m0 1h1m-9 2h2m9 2h1m53 0h1m-69 2h1m13 0h1m25 0h1m-43 1h1m16 2h1m15 1h1m-15 2h1M4 48h1m26 1h1m15 1h1m0 1h1m0 2h1M1 55h1m34 0h1m-1 2h1m-1 1h3m0 1h1m5 13h1m-2 1h1m7 7h1m-1 3h1m-2 4h1m2 0h1"/><path stroke="#f9f8f1" d="M75 27h1m12 4h1m0 1h1m-67 1h1m55 0h1m-62 1h1m-1 1h1m60 0h1m-62 1h1m61 0h1m-57 1h1m55 0h1m-66 1h1m-1 1h1m12 2h1m-2 1h1M8 44h1m21 0h1m14 2h1M5 47h1m1 0h1m23 0h1m25 2h1m-25 1h1M2 52h1m31 0h1M1 54h1m0 1h1m36 6h1m2 7h1m2 5h1m-2 1h1m1 3h1m4 3h1m2 3h1"/><path stroke="#494940" d="M85 27h1m-3 3h2m2 0h1m-7 1h1m-1 1h2m-1 1h1m4 1h1m-3 1h1m-36 6h1m-5 1h1m2 0h1m-3 1h1m1 0h2m-1 4h1M27 71h1m2 0h1m2 0h1m-1 1h1m1 1h1m-3 2h1m0 1h1m-2 2h1m1 1h1m46 1h2m-1 1h1m8 0h1m-11 4h2m-1 2h1m8 0h1m-11 2h1m1 0h2m-2 2h1m-3 1h1m-1 6h1m-20 2h1m-29 1h2m-8 1h1m30 0h1m3 0h1m-32 1h1m22 0h1m4 0h1m-33 1h1m6 0h1m19 0h1m-27 1h1m3 0h2m21 0h1m3 0h1m13 0h1m-42 1h2m24 0h1m-3 2h1m0 1h1m-5 1h1m4 0h1m-3 1h1m-1 1h1m-3 1h1"/><path stroke="#f9f9f1" d="M76 28h1m0 1h1m0 2h1m-59 1h1m2 0h1m-1 3h1m-9 2h1m65 0h1m-66 1h1m-3 1h1m-3 2h1m15 1h1m25 0h1m-45 1h1m-3 2h1m21 0h1m0 1h1m24 0h1m-27 2h1M3 49h1m-1 2h1m29 0h1m13 0h1m0 1h1m0 2h1M1 57h1m33 0h1m2 2h1m-2 1h1m0 1h1m2 2h1m-2 1h1m3 7h1m-1 1h1m6 7h1m-1 7h1m2 0h1m-3 1h1m1 1h1"/><path stroke="#d0d8c0" d="M77 28h2m10 2h1m0 1h1m-3 3h1m-8 1h1m4 1h1m-5 1h2m-32 1h2m-6 1h1m4 0h1m-5 1h1m-6 3h1m0 1h1m1 4h1m11 2h1m-8 2h1m-3 1h1m36 30h1m-1 1h1m-9 1h1m-3 2h2m11 6h1m-2 2h1m-2 1h1m-2 1h2m-12 5h1"/><path stroke="#f8f8f0" d="M87 28h1m-66 3h1m-1 1h1m1 4h1m0 1h2m-13 3h1m-4 1h1m0 1h1m30 0h1m11 2h1M9 45h1m45 0h1m-11 2h2M5 48h1m26 1h1M2 50h1m30 2h1m0 1h1m1 1h1M0 56h1m1 0h1m33 0h1m4 8h1m-2 1h1m-1 1h1m2 2h1m-2 1h2m-1 2h1m1 5h1m5 5h1m-1 4h1"/><path stroke="#91a088" d="M20 35h1m-9 9h1m94 2h1M7 49h1m92 1h1M4 51h1m93 0h1m-3 1h1m3 1h1m-9 1h1M3 55h1m87 0h1m-2 1h1m3 0h1m6 0h1m-11 1h1m-9 1h1m2 0h1m2 1h1m-13 2h1m2 0h1m9 1h1m11 0h1m-29 2h1m0 2h1m-10 1h1m4 0h1m-8 1h1m30 0h1m-35 1h1m-3 1h1m5 0h1m1 0h1m-9 1h1m11 0h1m-22 4h1m11 1h1m-11 1h1m12 6h1m-10 5h1"/><path stroke="#90a089" d="M21 35h1m-3 1h1m-10 9h1m96 2h1M8 48h1m-3 1h1m94 0h1m-5 3h1m-5 1h1m1 0h2m-6 1h1m-5 2h1m14 0h1m-17 1h2m2 1h1m11 0h1m-23 2h1m-3 1h1m-6 2h1m-3 2h1m10 1h1m-15 1h1m3 0h1m-2 1h1m6 0h1m-17 1h1m5 0h1m22 1h1m-3 1h1m-21 1h1m-14 1h1m29 0h1m-33 1h1m-6 1h1m-1 1h1m30 0h1"/><path stroke="#91a188" d="M22 35h1m-3 1h1m-3 1h1m-4 4h1m-4 2h1m-4 3h1m95 2h1M3 54h1m89 0h2m0 2h1M3 57h1m88 4h1m-10 4h2m-18 1h1m1 0h1m-5 1h1m32 0h1m-24 2h1m-15 1h1m-5 1h1m14 0h1m17 0h1m-33 1h1m2 0h1m-9 1h1m6 0h1m-9 1h1m-2 1h1m-5 2h1m5 0h1m1 3h1m16 0h1m-7 3h1m-12 1h1m-1 1h1m-1 2h1"/><path stroke="#607088" d="M21 36h1m-6 5h1m-9 8h1m81 26h1m-2 2h1m-6 2h1m-59 1h1m57 2h1m-11 1h1m-1 1h1m-37 1h1m45 0h1m2 4h1m-14 5h1m9 1h1m5 2h1m-51 3h1m33 0h1m6 1h1m-8 2h1m-35 1h1m34 0h1m-39 8h1m1 0h1"/><path stroke="#607188" d="M22 36h1m-10 8h1m26 33h1m45 0h1m0 1h1m-7 2h1m-4 2h1m-4 1h1m1 0h1m9 7h1m-4 3h1m-4 1h1m2 0h1m-45 15h1"/><path stroke="#617189" d="M23 36h1m-10 7h1m-6 5h1m30 28h1m45 2h1m-7 2h1m-3 1h1m-48 1h1m47 0h1m-5 2h1m8 13h1m-1 2h1m-1 1h1m-45 1h1m33 0h1m-35 2h1m36 0h1m-4 2h1m-35 1h1m-12 2h1m9 3h1"/><path stroke="#90a188" d="M19 37h1m-6 4h1m-8 7h1m93 2h2m-6 4h1m-2 1h1m-9 1h1m11 1h1m-17 1h1m4 0h1m5 1h1m-14 1h1m2 0h1m7 0h1m-15 1h1m3 0h1m-1 1h1m-11 2h1m3 0h1m8 0h1m15 0h1m-2 1h2m-33 1h1m2 0h1m7 0h1m18 0h1m-4 1h1m-35 2h1m-2 3h1m-9 1h1m28 1h1m-32 1h1m2 0h1m26 0h1m-36 1h1m7 0h1m2 2h1m17 0h1m-21 1h1m13 2h1m-3 1h1m-8 3h1m-7 3h1"/><path stroke="#617088" d="M20 37h1m70 38h1m-3 1h1m1 0h1m-65 4h1m56 0h1m-57 1h1m11 0h1m43 0h1m-45 1h1m36 0h1m-44 2h1m4 0h1m-4 1h2m1 0h1m34 0h1m12 3h1m-2 4h1m-47 7h1m45 0h1m-61 8h1m13 3h1m-3 2h1"/><path stroke="#8899a9" d="M21 37h1m-2 1h1m2 1h1m-4 2h2m-1 2h1m-8 1h2m9 0h1m-10 1h1m7 1h1m-12 1h1m12 0h1m-17 1h1m9 0h1m4 0h1m1 0h1m1 0h1m-20 1h1m10 0h2m-9 1h1m12 0h1m-15 1h1m1 0h2m5 0h1m3 0h1m4 0h1m-19 1h1m2 0h1m6 0h1m1 0h1m4 0h1m-8 1h1M8 54h2m16 0h1m-7 1h1m1 0h1M7 56h2m4 0h1m7 0h1M7 57h1m4 0h1m14 0h1M7 58h2m1 0h1m2 0h1m12 0h1m1 0h1m-17 1h1m15 0h1m7 0h1m-17 1h1m-8 1h1m6 1h1m1 0h1m-13 1h1m1 0h1m22 0h1m1 0h1m-26 1h1m7 0h1m5 0h1m1 0h1M7 66h1m2 1h1m6 0h1m3 0h1m-12 1h1m-3 1h1m4 0h2m2 0h1m20 0h1m-29 1h1m3 0h1m7 0h1m-6 1h1m22 0h1m-25 1h1m2 0h1m-2 1h1M8 74h1m10 0h1M8 75h1m10 0h1m21 0h1m0 4h1m47 0h1M7 81h2m33 0h1m-33 1h1m1 0h1m6 0h1m23 0h1m41 0h1M8 83h1m1 0h1m14 0h1M7 84h1m2 0h2m13 0h1m59 0h1m-56 1h1m11 0h1m46 0h1M8 86h1m6 0h1m11 0h2m56 0h1m2 0h1M7 87h1m5 1h1m8 0h1m11 0h1m-24 1h1m4 0h1m1 0h1m5 0h1m9 0h1M7 90h1m32 0h1m-31 1h1m3 0h1m4 0h1m58 0h1M9 92h1m1 0h2m2 0h1m3 0h1m1 0h3m8 0h1m9 0h1M7 93h1m33 0h1m44 0h1M9 94h1m14 0h1m60 0h1m4 0h2m-82 1h1m8 0h1m16 0h1m40 0h1m12 0h1M8 96h1m31 0h1m46 0h1m1 0h1M8 97h1m3 0h1m6 0h1m3 0h1m18 0h1m35 0h1m-62 1h1m5 0h1m18 0h2m41 0h1m-67 1h1m23 0h1m-27 1h1m5 0h1m-3 1h1m-6 1h1m25 0h1m-19 1h1m51 0h1m-34 3h1m-2 3h2m-2 3h1m-3 1h1m2 0h1m-2 1h1"/><path stroke="#8898a9" d="M22 37h1m1 2h1m-3 1h3m-3 3h1m-2 1h1m-7 1h1m10 0h1m-15 1h1m10 0h1m1 0h1m2 1h1m-18 1h1m1 0h1m1 0h1m0 1h1m3 0h1m3 1h1m-14 1h1m9 0h1m5 0h1m-2 1h1m1 0h1m-13 1h1m3 0h1m1 0h1m1 0h3m-6 2h1m1 0h1m2 0h1M9 56h1m1 0h1m19 0h1m-22 1h2m3 0h1m9 0h1m4 0h1m-20 1h2m14 0h1m7 0h1m-5 1h1M8 60h1m6 0h1m1 0h1m0 1h1m5 0h1m6 0h1m5 0h1m-28 1h1m2 0h1m1 0h1m-7 1h1m3 0h1m24 1h1m-14 1h1m3 0h2m-16 1h1m4 0h1m3 0h1m5 0h1m1 0h3m-15 1h1m12 0h1m1 0h1m-24 1h1m4 0h1m5 0h1m-14 1h1m26 0h1m2 0h1m-17 1h1M8 71h1m2 1h1m29 0h1m-30 1h1m6 0h1m1 0h1m19 0h1m1 0h1m-28 1h1m5 0h1m0 1h1m-6 1h1m2 0h1m20 0h1m-32 2h1m4 0h1m71 0h1m-3 1h1m-73 1h1m28 0h1m44 0h1m-71 2h1m72 0h1m-78 1h1m28 0h1m-30 1h2m10 0h1m16 0h1m32 0h1m9 0h1m1 0h1m2 0h1M9 85h1m2 0h1m5 0h1m5 0h2m61 0h1M7 86h1m5 0h1m2 0h1m2 0h1m6 0h1m11 0h1m41 0h1m6 0h1m2 0h1m-77 1h1m15 0h1m45 0h1m2 0h1m1 0h1M8 88h1m5 0h1m9 0h1m5 0h1m48 0h1m10 0h1m-77 1h1m21 0h1m1 0h1m39 0h1m-64 1h1m4 0h2m55 0h1M7 91h1m10 0h1m7 0h2m10 0h1m-21 1h1m6 0h1m4 0h1m9 0h1M9 93h1m6 0h1m3 0h1m2 0h1m7 0h1m-20 1h1m64 0h2M8 95h1m8 0h1m4 0h1m11 0h1m50 0h1M7 96h1m2 0h1m3 0h1m1 0h1m5 0h1m1 0h1m11 0h1m1 0h1m37 0h1m-2 1h1m9 0h1m-71 1h1m59 0h1m-64 1h1m3 0h1m1 0h1m2 1h1m19 0h1m34 0h1m3 0h1m-59 1h1m19 0h1m-24 1h1m2 0h1m18 0h1m33 1h1m-56 1h2m20 0h1m-1 2h1m-3 6h1m2 0h1m-6 1h1"/><path stroke="#8898a8" d="M23 37h1m-4 3h2m1 1h1m-1 1h1m-9 1h1m10 1h1m-6 1h2m2 0h1m-15 2h1m3 0h2m5 0h1m-9 1h1m8 0h1m2 0h1M9 49h1m4 0h1m11 0h1m2 0h2m-19 1h1m1 1h1m16 1h1M8 53h1m19 0h2m-20 1h1m11 0h1m1 0h2m2 0h1M7 55h1m1 0h1m17 0h1m3 0h1m-8 1h1M9 57h1m-2 2h1m1 0h1m18 0h2m-18 1h1m2 0h1m1 0h1m12 0h1m3 0h1m-22 1h1m1 0h1m6 0h1m11 0h1M7 62h1m-1 1h1m6 0h1m7 0h1m4 0h1m-11 1h1m11 0h1M8 65h1m1 0h1m12 0h1m8 0h1m-22 1h2m0 1h1m-7 1h1m13 0h2m15 0h1M9 69h1m29 0h1M9 70h1m6 0h1m22 0h1m-22 1h3m21 0h1m-23 1h1m21 0h1m-19 1h1m-8 2h1m6 0h1m18 0h1M8 76h1m4 1h1m10 0h1m16 0h2m-19 1h1m18 0h1m-30 1h1m3 0h1m71 1h1m-71 1h1M9 82h1m1 0h1m10 1h1m66 0h1M8 84h1m18 0h1m53 0h1m-72 1h1m2 0h1m27 0h1m35 0h1m3 0h1m9 0h1M9 86h1m19 0h1m59 0h1M8 87h2m7 0h1m2 0h1m21 0h1m35 1h1M7 89h1m5 0h1m5 0h1m3 0h1M8 90h1m1 0h2m13 0h2m1 0h1m6 0h3m-26 1h1m2 0h1m4 0h1m2 0h1m1 0h1m3 0h1M7 92h1m9 0h1m58 0h1m1 0h1m-61 1h1m5 0h1m52 0h1M7 94h1m78 0h1m-52 1h1m51 0h1m3 0h1m-17 1h1M9 97h1m12 0h1m16 0h1m36 0h1m-59 1h1m5 0h1m-2 1h1m-2 1h1m1 1h1m16 0h1m37 0h1m-57 1h2m18 0h1m-26 1h2m3 0h1m-2 1h1m20 4h1"/><path stroke="#90a088" d="M17 38h2m-3 1h1m-4 3h2m-4 3h1m-4 2h2m94 1h1m-3 1h1m1 0h1M5 50h1m-3 2h1m91 0h1M3 53h1m95 1h1m-11 1h1M3 56h1m88 1h1m6 0h1m-19 2h1m1 0h1m1 2h1m-11 1h1m1 0h1m-4 1h2m11 0h2m-11 1h2m5 0h1m-14 1h1m4 0h1m-4 1h1m-9 2h1m-3 1h1m28 0h1m-32 1h1m10 0h1m-10 1h1m-9 1h1m31 0h1m-30 1h1m7 0h1m-15 1h1m3 0h2m4 1h1m-11 1h1m-3 1h1m8 0h1m16 0h1m-23 2h1m6 6h1"/><path stroke="#f0f1d0" d="M19 38h1m-3 5h2m-2 6h1m-8 2h1m7 0h1M4 53h1m10 1h1M5 55h1m13 0h1m-4 1h1m6 2h1m-1 1h1m1 1h1m1 0h1m2 1h1m-4 1h1m64 0h1m3 0h1M5 64h1m30 0h1m52 0h1m-3 1h1M4 66h1m32 0h1m55 0h1m-57 1h1m1 0h1m54 0h1M6 68h1m33 0h1m46 0h1m1 0h1m-9 2h1m6 0h1m-4 1h1M4 72h2m2 0h1m69 0h1M6 73h1m71 0h1M6 74h1m64 0h1m-59 1h1m57 0h1m-55 1h1M4 77h2m1 0h1m9 0h1m56 0h1M6 79h1m-1 1h1m39 0h1m17 1h1m-48 1h1m40 0h1m5 0h1m-50 1h1m13 0h1m14 0h1m-24 1h1m8 0h1m13 0h1m-26 1h1m12 0h1m1 0h1m-12 1h1m12 0h1m0 1h1m-12 1h1m13 0h1m3 0h1M4 89h1m37 1h1M4 91h1m26 0h1m1 0h1m1 0h1m8 0h2m-12 1h1m0 1h1m9 3h1m-3 1h1M5 99h2m1 0h1m37 0h1m-3 1h1m-38 1h1m3 0h2m-3 2h1m35 0h1m-3 1h1m1 0h1m-27 2h1m23 0h2m-23 1h2m2 2h2m17 0h1m-1 1h1m-14 1h1m-6 1h1m2 0h2m-1 1h1m12 0h1m-4 4h2m-3 1h1m4 0h1m-2 2h2"/><path stroke="#8999a8" d="M21 38h1m-1 1h2m2 1h1m-4 2h1m-3 1h1m1 1h2m-1 1h1m-10 1h1m6 0h1m7 0h1m-10 1h2m1 0h1m-8 1h1m5 0h1m-8 1h1m0 1h1m4 0h1m4 0h1m2 0h1m-18 1h1m9 1h1M7 53h1m23 0h1m-1 1h1M8 55h1m19 0h1m-17 1h1m13 0h1m3 0h1m-15 1h1m14 0h1m-15 1h2m10 0h1m1 0h1m-18 1h1m1 0h1m18 0h1M7 60h1m13 0h1m-5 1h1m-7 1h2m12 0h1m9 0h1m1 0h1m-20 1h1m4 0h1M9 64h1m6 0h1M7 65h1m4 0h1m2 0h1m8 0h1m3 0h1m2 0h1m7 0h1m-30 1h1m6 0h1m4 0h2m-1 1h1m10 0h1m-19 1h1m19 0h1m-26 1h1m7 0h1m16 0h1m-22 1h1m24 0h3m-27 1h1m6 0h1m-7 1h2m-4 1h1m1 0h1m2 0h1m2 0h1m18 0h1m-26 1h1M7 75h1m2 0h1m9 0h3M7 76h1m3 0h1m8 0h1m2 0h2m-5 1h1m1 1h1m66 0h1m-77 1h1m2 0h1m7 0h1m62 0h1m-2 1h1m-65 1h1m20 0h1m45 0h2m-71 1h1m3 0h1m17 0h1M9 83h1m10 0h1m5 0h1m63 0h1m-1 1h1m-80 1h1m5 0h1m8 0h2m15 0h1m-34 1h1m3 0h1m15 0h1m8 0h1m-27 1h1m5 0h1m9 0h1m2 0h1m8 0h1m1 0h1m-28 1h1m15 0h1m2 0h1m7 0h1m37 0h1m-72 1h1m1 0h1m7 0h1m1 0h1m3 0h1m6 0h1m3 0h1m-21 1h1m9 0h1m6 0h1m54 0h1M9 91h1m1 0h1m10 0h1m1 0h1m64 0h1m-76 1h1m9 0h1m13 0h1m48 0h1m-73 1h1m6 0h1m19 0h2m41 0h1m5 0h1M8 94h1m4 0h1m4 0h2m12 0h2m8 0h1m44 0h2M7 95h1m1 0h1m8 0h1m2 0h1m-10 1h2m7 0h1m17 0h1m38 0h1m7 0h1m3 0h1M7 97h1m5 0h1m1 0h1m5 0h1m2 0h1m61 0h1M9 98h3m66 0h1m2 0h1m-69 1h1m3 0h1m6 0h1m-7 1h1m1 0h1m-7 1h1m60 0h1m4 0h1m-64 1h2m3 3h2m17 0h1m1 6h1m-5 2h1m1 0h1m-1 1h1"/><path stroke="#8998a9" d="M22 38h1m-2 4h1m2 0h1m0 1h1m-2 1h1m-5 1h1m6 0h1m1 2h1m-9 1h1m-9 1h1m9 0h1m3 0h1m1 2h1m-10 1h1m-1 2h1m2 0h1m-10 2h1m7 0h2m-1 1h1m1 1h1m-11 1h1m14 1h1M7 61h1m7 0h1m-8 1h1m14 0h1m-9 1h1m10 0h1m9 0h1m1 0h1m-28 1h1m1 0h1m13 0h1m9 0h1m-18 1h2m9 1h1M7 67h1m1 0h1m4 0h1m1 0h1m-9 1h1m9 0h1m16 0h1m-21 1h2m5 0h1m1 0h1m-8 1h1m1 0h1m-10 1h1m1 0h1m2 0h1m5 0h2m-10 1h2m1 1h1m1 2h1m-9 1h1m8 0h1m21 2h1m-1 1h1m46 0h1m2 0h1M8 80h1m9 0h1m22 0h2m-33 1h1m10 1h1m67 0h1m-79 1h1m9 0h1m20 0h1m42 0h1M9 84h1m79 0h1M8 85h1m7 0h1m23 0h1m35 0h1m11 0h1m-78 1h2m4 0h1m2 0h1m11 0h1m7 0h1m35 0h1m4 0h1m-72 1h2m4 0h1m4 0h1m18 0h1M7 88h1m7 0h1m2 0h1m4 0h1m7 0h1M9 89h1m7 0h1m3 0h1m10 0h1m-17 1h1m2 0h1m3 0h1M8 91h1m4 0h1m7 0h1m15 0h1m-22 1h1m3 0h1m22 0h1m-33 1h1m2 0h1m6 0h1m8 0h1m-8 1h1m52 0h1m-57 1h1m16 0h1m38 0h1m2 0h1m-70 2h1m7 0h1m-7 1h1m1 0h1m62 0h1m8 0h1m-67 1h1m21 0h1m-31 1h1m3 0h1m-1 1h1m4 2h1m1 1h1m17 0h1m1 0h1m-2 1h2m-19 1h1m15 0h1m0 1h2m-2 3h1"/><path stroke="#8999a9" d="M23 38h1m-2 3h1m-7 3h1m3 0h1m-7 1h1m-2 1h1m12 0h3m-17 1h1m1 0h1m12 0h1m0 1h1m-18 1h1m13 0h1m2 0h1m-14 1h1m12 0h1m1 0h1m-11 1h1m7 0h1m-15 1h1m0 1h1m5 0h1m8 0h1m-10 1h1m3 2h1m1 0h1m1 0h1M8 57h1m19 0h2M9 58h1m1 1h1m1 0h1m3 0h1m2 0h1m6 0h1m-17 1h2m9 0h1m13 0h1m-25 1h1m23 0h1m-20 1h1m3 0h1M8 63h1m16 0h1m2 0h1m-10 1h1m2 0h3m-12 1h1m4 0h2m2 0h1m-10 1h1m2 0h1m2 0h1m1 0h1m-11 1h2m9 0h1m9 0h1m-20 1h3m3 0h2m-1 1h1m-10 1h1m9 0h1m-11 1h1m1 0h1m-4 1h1m4 0h1m-3 1h2m7 0h1M7 74h1m12 0h1m2 0h2m17 0h2m-2 1h1M8 77h1m1 0h2m11 0h1m67 0h1m-77 1h1m-9 2h1m7 0h1m4 0h1m66 0h1m-72 1h2m1 0h1m1 0h1m19 0h1m43 0h3m-66 1h1m64 0h1M7 83h1m5 0h1m9 0h2m16 0h1m46 0h1m-77 1h1m9 0h2m56 0h1m-52 1h1m50 0h1m9 0h1m-73 1h1m12 0h1m43 0h1m1 0h1m1 0h1m-65 1h1m15 0h1m2 0h1m45 0h1m9 0h1M9 88h3m7 0h1m16 0h1m5 0h1m-28 1h1m72 0h1m1 0h1M9 90h1m4 0h1m7 0h1m55 0h1m-63 1h1m11 0h1m1 0h1m8 0h2m-28 1h1m14 0h2m47 0h1m-68 1h1m2 0h1m62 0h1m1 0h1m9 0h1m-79 1h2m2 0h1m2 0h1m2 0h2m12 0h1m1 0h1m-23 1h2m59 0h1m2 0h1M9 96h1m1 0h1m5 0h2m4 0h1m13 0h1m47 0h1m-75 1h1m5 0h1m2 0h1m56 0h1m-58 1h3m-13 1h2m2 0h1m7 0h1m57 0h1m-68 1h1m5 0h1m57 0h1m-63 1h1m1 0h4m22 0h1m-23 1h1m53 0h1m-54 1h1m1 1h1m-1 1h1m16 2h1m0 8h2"/><path stroke="#8998a8" d="M24 38h1m-5 1h1m-1 3h1m3 1h1m2 0h1m-1 1h1m-15 1h1m10 0h1m-10 1h1m-4 2h1m11 0h1m-1 1h1M9 50h2m9 0h1m1 0h2m1 0h1m-3 1h2m-1 1h1m4 0h1m-3 1h1M7 54h1m21 0h2m-21 1h2m12 0h1m3 1h1m-16 1h2m9 0h1m-11 1h1m15 0h1M7 59h1m10 0h2M9 60h1m4 0h1m14 0h1m-19 1h1m9 0h1m-4 1h1m7 0h1m9 0h1m-26 1h1m4 0h1m2 0h1m1 0h1M8 64h1m6 0h1m2 0h1m6 0h1M9 65h1m1 0h1m6 1h1m-4 1h1m8 0h1m11 0h1m-3 1h1m-17 1h1M8 70h1m3 0h1m-4 1h1m4 0h1m26 0h1m-30 1h1m8 0h2m-8 2h1m5 0h1m19 0h1m-30 2h1m30 0h1M9 77h1m11 0h1m-10 1h2m1 1h1m1 0h1m25 0h1m-28 1h1m64 2h1m8 0h1m-79 1h1m68 0h1m4 0h1m4 0h1m-64 1h1m12 0h1m35 0h1m-64 1h2m12 0h1m-11 2h1m9 0h1m4 0h1m57 0h1m-80 1h1m4 0h1m58 0h1m3 0h1m8 0h1M8 89h1m26 0h1m43 0h1m-68 1h2m24 0h1m51 0h1m-74 1h1m18 0h1m5 0h1m34 0h1m-68 1h1m20 0h1m9 0h1m47 0h1m-78 1h1m4 0h1m1 0h1m14 0h1m52 0h1m-53 1h1m7 0h1m-33 1h3m24 0h1m47 0h1m-72 1h1m4 0h1m58 0h1m-64 1h1m21 0h1m-26 1h1m2 0h1m2 0h1m56 0h1m-56 1h1m19 0h1m33 0h1m-52 1h1m18 0h1m37 0h1m-59 1h1m52 0h1m-1 1h1m-35 1h2m-20 3h1m16 2h1m-1 2h1m-1 1h1m-2 3h1m2 0h1"/><path stroke="#91a089" d="M17 39h1m-3 1h1m90 7h1m-1 1h1m-8 3h1m-6 2h1m4 0h1m-10 2h1m-9 4h1m4 0h1m-9 1h1m6 0h1m4 1h1m-16 1h1m1 0h1m2 0h1m-3 1h2m-5 2h1m22 1h1m-21 1h1m-10 1h1m6 0h1m-11 1h1m24 1h1m-36 2h1m7 2h1m18 0h1m-21 1h1m14 1h1m-5 2h1m-3 1h1m-19 2h1m13 0h1m-3 1h1m-5 2h1m-4 2h1m-4 1h1"/><path stroke="#f1f0d1" d="M18 39h1m0 3h1m-1 7h1M6 50h1m10 0h1m-7 3h1m3 2h1m2 0h1m13 0h1M4 58h1m15 0h1M6 59h1m14 0h1m12 0h1M4 62h1m25 0h2M4 63h1m88 0h2M4 64h1m27 0h1m60 0h1m-60 1h1m55 0h1m4 0h2m-14 4h1m5 0h1m-13 2h1M9 72h1m66 0h1m6 0h2M4 73h1m2 0h1m3 0h1m66 1h1m-68 1h1m4 1h1m53 0h1m-52 1h1m51 0h1m-51 2h1m3 1h1m33 1h1M6 82h1m8 0h1m43 0h1m-41 1h1m10 0h2m26 0h1m-41 1h1m1 0h1m11 0h1m1 2h1m2 0h1M4 88h2m21 0h1m9 0h1m8 1h1m-2 1h1m-13 2h1m10 0h1m0 1h1M6 95h1m35 0h1m3 1h1m-3 1h2m-36 3h1m2 1h1m32 0h1m-35 1h2m30 0h1m-28 1h1m26 0h1m-27 2h1m0 1h1m1 0h1m-2 2h1m6 0h1m-5 1h1m0 1h1m3 0h1m15 0h1m-12 3h1m0 1h1m9 0h1m1 1h1m-3 3h1m0 1h1"/><path stroke="#f0f0d0" d="M19 39h1m-3 1h1m-1 2h1m-1 4h1m-1 1h1m0 1h1m-1 2h1M8 51h1m10 0h1M5 52h1m4 0h1m-6 1h1m6 0h1m5 0h1M5 54h1m7 0h2m-2 1h1M4 57h2m26 0h1m-1 1h1M4 59h1m17 0h1m2 0h1m-2 1h1M4 61h1m22 0h1m68 0h1m-65 1h1m58 0h1m2 0h1m4 0h1m-68 1h1m58 0h1M5 65h1m-1 1h2m82 0h1m5 0h1M4 67h1m81 0h2M5 68h1m87 0h1m-15 1h1m8 0h1m-7 1h1m2 0h1m-13 2h1m-62 2h1m54 1h1m-55 1h2m56 0h1m-54 2h1m-8 1h1m8 0h1m24 0h1m21 0h1m-56 1h1m8 0h2m22 0h1m16 0h1M4 81h2m38 0h3m18 0h1M4 82h1m40 0h1m15 0h2M6 83h1m54 0h1m-17 1h1M5 85h1m16 0h1m-2 1h1m24 0h1M4 87h1m18 0h2m2 0h1M6 88h1m34 0h1M5 89h1m23 0h1m14 0h2M5 90h1m28 1h1m8 0h1m0 3h1M4 96h1m0 1h1m3 2h1m35 0h1m-39 1h1m1 0h1m35 0h1m-1 1h1m-38 1h1m1 0h1m35 0h1m-34 1h1m2 1h2m-1 2h1m0 1h1m1 0h2m24 1h1m-20 3h1m18 0h1m-2 1h1m0 2h1m-3 1h1m-4 2h1m2 3h1"/><path stroke="#91a189" d="M16 40h1m-7 6h1m88 4h1m-3 1h1m0 1h1m-1 2h1m-7 1h1m-4 1h1m3 0h1m-6 1h1m4 0h1m-9 1h1m12 0h1m-3 1h1m5 0h1m-22 1h1m5 0h1m6 0h1m-11 1h1m-3 1h1m-2 1h1m20 0h1m-33 2h1m4 0h1m-9 2h1m5 0h1m-5 1h1m26 0h1m-37 2h1m2 1h1m-9 1h1m-1 1h1m12 0h1m-13 2h2m-10 1h1m-1 1h1m29 0h1m-22 1h1m13 2h1m-17 2h1m-1 1h1m8 1h1"/><path stroke="#f0f0d1" d="M18 40h1m0 8h1m-2 1h1M8 50h1m-2 1h1m-4 1h1m4 0h1m22 0h1M6 53h1m3 0h1m2 0h2m2 0h1m-7 1h1m4 0h1m16 0h1m-20 1h1M4 56h1m10 0h1m2 0h1M6 58h1m19 1h1m-4 1h1m2 1h1m1 0h1m0 1h1m3 0h1m64 0h1m-66 1h2M6 64h1m87 0h1m-62 1h1m3 0h2m-3 1h1m2 0h1m50 0h1m2 1h1m1 0h1M4 68h1m-1 1h1m79 0h1M6 71h1m69 0h1m5 0h1M6 72h1m75 1h1m-72 1h1m-8 2h1m62 0h2m-4 1h1m2 0h1m3 0h2M7 78h1m1 0h1m7 0h1m1 0h1m44 0h1m2 0h1m4 0h1m-29 1h1m16 0h2m5 0h1M5 80h1m55 0h1m-34 2h1m-12 1h2m0 1h1m0 1h1m14 0h1m-14 1h1m10 0h1m1 0h1m9 0h1m-20 1h1m11 1h1m7 0h1m-17 1h2m10 0h1m3 1h1M5 91h2m-1 1h1m-1 1h1m38 1h1m-6 1h1m2 0h1m-3 1h1m4 2h1M4 99h1m4 2h1m1 1h1m0 1h1m1 0h1m-1 2h3m2 0h1m3 1h1m-2 1h1m22 0h1m-23 1h1m2 0h1m18 0h1m-24 1h1m21 0h1m-17 2h1m15 0h1m-15 1h1m6 1h1m7 1h1m-9 1h1m3 0h1m1 1h1m-6 1h1m4 1h1m0 1h1"/><path stroke="#f1f0d0" d="M19 40h1m-2 6h1m-1 1h1m-2 1h1M5 51h1m1 1h1m4 0h1m6 0h1M9 53h1m22 0h1m-16 1h1m-1 1h1M5 56h1m-1 2h1m16 0h1m1 0h1m8 1h1M6 60h1m25 0h1m67 1h1M5 62h1m22 0h1m66 0h1M6 63h1m26 1h1m56 0h1M6 65h1m31 1h1M6 67h1m76 0h1M5 69h2m-1 1h1m72 0h1m1 1h1m-1 1h1M8 73h1m62 0h1M4 74h2m7 0h1m54 1h1m1 0h1m3 0h1M5 76h2m-1 1h1m8 0h1M5 78h1m39 0h1m25 0h1M5 79h1m3 0h1m13 0h1m22 0h1m18 0h1M4 80h1m8 0h1m50 0h1m-54 1h1m11 0h1m2 0h1m34 0h1m-46 1h1m8 0h1m3 0h1M5 83h1m21 0h1M5 84h1m23 0h1m3 0h1m12 1h1M4 86h2m18 0h2m18 0h1M6 87h1m18 0h1m10 0h1m7 0h1m-17 1h1m10 0h1m-8 2h2m12 1h1m-2 1h1M4 93h1m34 0h1m4 0h1m-8 1h1M4 95h1m36 0h1m3 0h2m-5 1h2M4 98h1m39 0h1m-41 2h1m1 0h1m39 0h1m-3 1h1m-34 2h1m4 0h1m-3 1h1m3 0h1m25 1h1m-29 1h1m1 0h1m27 0h1m-22 1h1m-5 1h1m3 0h1m-1 2h1m5 0h1m3 2h1m8 0h1m-9 2h2m-3 1h1m2 0h1m-3 1h2m4 0h1m2 0h1m-1 1h1m-1 1h1"/><path stroke="#f1f1d0" d="M17 41h1m1 2h1m-3 1h1m0 1h2m-1 5h1M9 51h1m7 0h1m0 3h1M6 55h1m26 1h2m-18 1h1m1 0h2m13 0h1M5 59h1m20 1h1m7 0h1M5 61h1m19 0h1m8 0h1M5 63h1m23 0h1m4 1h1m60 0h1m-61 1h1m-1 1h1m51 0h1m8 0h1M5 67h1m34 0h1m41 1h1m1 0h1m-44 1h1m39 0h1M7 72h1m1 1h2m61 0h1m8 0h1m-72 1h1m-7 1h1m11 2h1m47 0h1m2 0h1M4 78h1m1 0h1m58 0h1M4 79h1m2 0h1m2 0h1m8 0h1m2 0h1M9 80h1m1 0h1m11 0h2m40 0h1m1 0h1M6 81h1m6 0h1m1 0h1m8 0h1m2 0h1M5 82h1m7 0h1m30 0h1m-29 1h1m28 0h1m16 0h1m-32 1h1M4 85h1m18 0h1m7 0h1m1 0h1m1 2h1m2 0h1m7 0h1m-22 1h1M6 89h1m21 0h1m12 0h1m-12 1h1m12 0h1m-9 2h1M5 93h1m31 0h2m7 0h1M5 94h1m32 0h1m7 0h1m-3 2h1M4 97h1m41 0h1M5 98h1m39 0h1M7 99h1m3 1h1m-2 1h1m34 2h1m-31 1h1m1 1h1m2 0h1m25 0h1m-3 2h1m-1 1h1m-19 2h2m-2 1h1m2 0h1m2 0h1m-4 1h1m3 0h1m12 0h1m-17 1h1m3 0h1m-3 1h1m7 1h1m4 0h1m-6 1h1m5 0h1m-8 1h2m-1 1h1m1 0h1"/><path stroke="#f0f1d1" d="M18 41h2m-2 3h1m-2 1h1m1 1h1m-1 1h1M7 50h1m-2 1h1m-1 1h1m1 0h1m2 0h1m5 0h2m13 2h1M6 56h1m-1 1h1m14 0h2m10 0h1m-15 1h1m13 0h1m-5 3h1m2 0h2m66 1h1m-66 2h1M4 65h1m81 1h1m-3 1h1m-46 1h1m41 0h1m0 1h1m-6 1h1M4 71h1m2 0h1m66 1h1m2 0h1m4 0h1m-9 1h1M5 75h1m6 0h1m1 0h1m61 0h1m1 0h1m-3 1h1m-59 1h1m51 0h1M8 78h1m11 0h1m23 0h1M8 79h1m1 1h1m33 0h1m-33 1h1m1 0h1m10 0h1m36 0h1m-49 1h1m11 0h1m19 1h1m-30 1h1m27 1h1M6 86h1m-2 1h1m39 0h1m-17 1h1m15 0h1m-3 1h1m-13 1h1m12 0h1m-13 1h1M5 92h1m31 0h1M4 94h1m1 0h1m34 0h1M5 95h1m0 1h1m-1 1h1m37 2h1m-37 1h1m-1 1h1m4 3h1m31 0h1m-24 2h1m23 1h1m-21 2h1m2 0h1m15 0h1m-16 1h1m14 0h1m-16 1h1m14 0h1m-12 1h1m-4 1h1m3 0h2m7 0h1m1 0h1m-11 2h1m4 1h1m2 0h1m-1 1h1m1 0h1m-4 2h1"/><path stroke="#8899a8" d="M24 41h3m-11 1h1m8 0h2m-11 1h1m6 0h1m2 0h1m1 2h1m-13 1h1m3 0h1m1 0h1m1 1h2m-14 2h1m-2 1h1m1 0h1m11 1h1m4 0h1m-16 1h1m5 0h1m5 0h1m-1 2h1m-16 1h1m12 0h1m3 0h2m-21 1h1m15 1h1m-12 1h2m-8 1h1m0 1h1m8 0h1M8 61h3m8 0h2m1 0h1M9 62h1m4 0h1m1 0h1m2 0h1m4 0h1m-8 1h1m2 0h1m3 0h1M7 64h1m2 0h1m3 0h1m6 0h1m17 0h1m-26 1h1m1 0h2M8 66h2m4 0h1m-7 1h1m9 0h2M9 68h1m1 0h1m12 0h1m12 0h1M7 69h1m4 0h1m8 0h1m1 0h1M7 70h1m5 0h1m4 0h1m1 0h1m2 0h1m14 0h1m-15 1h1m-2 1h2m18 0h1m-30 2h1m3 0h1M9 75h1m6 0h1m-8 1h1m12 0h1m18 0h1m-30 1h1m1 0h1m7 0h1m20 0h1m-34 1h1m3 0h1m8 0h1m18 0h1m48 0h1m-80 1h1m12 0h1m-9 1h1m1 0h1m65 0h1m5 0h1M9 81h1m8 0h1m72 0h1M7 82h2m14 0h1m17 0h1m44 0h1m-9 1h1m-66 1h1m2 0h1m7 0h1m17 0h1m35 0h1M7 85h1m67 0h1m9 0h1m-45 1h3m47 0h1m-80 1h1m9 0h1m52 0h1m12 0h2m-70 1h2m11 0h1m54 0h1m2 0h1m-67 1h1m63 0h1m-72 1h1m5 0h1m14 0h1m48 0h1m-48 1h1m46 0h1M8 92h1m30 0h1m48 0h1m2 0h1M8 93h1m23 0h2m6 0h1m-26 1h2m5 0h1m52 0h1m-60 1h1m6 0h2m-6 1h1m57 0h1m-64 1h1m25 0h2m39 0h1M8 98h1m31 0h2m-27 1h1m60 0h2m3 0h1m-68 1h2m26 0h1m32 0h1m-56 2h1m-1 1h1m20 0h1m0 5h1m-2 1h1m1 1h1m-2 1h1m-2 1h1m0 1h1"/><path stroke="#617188" d="M15 42h1m14 22h1m9 11h1m49 1h1m-3 1h1m-60 4h1m54 2h1m2 4h1m-1 4h1m-3 1h1m-12 3h1m-1 1h1m14 1h1m-16 1h1m5 4h1m-7 2h1m-35 1h1m-9 5h1m1 1h1m5 0h1"/><path stroke="#f1f1d1" d="M18 42h1m0 2h1m-1 9h1M4 54h1m1 0h1m5 0h1m6 0h1M4 55h1m11 0h1m16 0h1m-17 1h1m1 0h2m11 0h1m-15 1h1m2 1h1m12 0h1m-11 1h1m7 0h1M4 60h2m22 0h1m4 0h1M6 61h1m92 0h1M6 62h1m27 0h1m-5 1h2m66 0h1m-68 1h1m4 1h1m52 0h1m-52 2h1m50 0h1m-2 1h1m-4 1h1M4 70h2m72 0h1M5 71h1m-1 2h1m67 0h1m5 0h1M9 74h1m66 0h1m2 0h1M6 75h1m8 0h1m57 0h1m3 0h1m-63 1h1m58 0h1m-54 2h1m40 0h1m5 0h1m-5 1h1m-2 1h1m4 0h1m-6 1h1m-37 1h1m18 0h1m10 0h1M4 83h1m23 0h1m28 0h1M4 84h1m1 0h1m39 0h1M6 85h1m14 0h1m22 0h1m-6 2h1m-13 2h1m11 0h2M4 90h1m1 0h1m22 0h1m11 0h1M4 92h1m31 0h1m9 0h1m-11 1h1m2 1h2m-2 1h1m4 0h1M5 96h1m0 2h2m-3 2h1m0 1h1m2 1h1m4 0h2m29 0h1m-31 1h1m-4 1h1m6 0h1m1 1h1m23 0h1m-27 2h1m2 1h1m1 0h1m-1 1h2m3 1h1m1 1h1m1 3h1m1 0h1m2 0h2m-6 1h1m4 0h1m-2 1h2m2 3h1m3 0h1"/><path stroke="#90a189" d="M13 43h1m-3 1h1m93 3h1m-3 1h1m-1 1h1m-4 2h1m-6 4h1m1 0h1m-13 2h1m16 0h1m-12 1h1m5 0h1m-14 1h1m3 0h1m13 1h1m-1 1h1m-14 1h1m-14 1h1m-6 1h2m-4 1h1m-2 1h1m11 1h1m-18 1h1m1 0h1m3 1h1m6 0h1m17 0h1m-29 1h1m7 0h1m-17 1h1m1 0h1m4 0h1m-3 1h1m6 0h1m16 0h1m-27 1h1m23 0h1m-35 1h1m7 0h1m6 0h1m14 1h1m-32 1h1m3 0h1m6 0h1m-3 1h1m14 2h1m-20 7h1m3 0h1m-2 1h1"/><path stroke="#607189" d="M12 45h1m27 34h1m39 2h2m2 17h1m-11 1h1m-35 3h1m37 1h1m-52 4h1m12 1h1m-6 3h1"/><path stroke="#607089" d="M11 46h1m28 27h1m-1 1h1m47 2h1m-5 2h1m0 1h1m-56 3h1m45 0h1m-45 1h2m6 0h1m-6 1h1m55 12h1m-7 3h1m-7 3h1m-40 5h1m-11 2h2"/><path stroke="#617089" d="M10 47h1m29 25h1m46 5h1m-48 1h1m44 0h1m-46 2h1m38 1h1m-4 2h1m-37 1h1m43 0h1m-11 2h1m9 0h1m-1 10h1m-11 1h1m12 1h2m-15 4h1m1 2h1m-49 4h1m4 2h1m2 2h1"/><path stroke="#385068" d="M103 50h1m-2 1h1m0 1h1m-1 3h1m-1 2h1m-1 4h1m-27 2h1m-4 2h1m26 2h1m-41 4h1m40 1h1m-46 1h1m41 0h1m0 1h1m0 1h2m-54 2h1m-2 3h2m49 1h1m1 0h1m-52 3h1m52 1h1m-5 1h1m-51 1h1m50 1h1m-53 4h1m30 0h1m-32 3h1m1 5h1m-1 1h1m-2 2h1m18 0h1m-21 8h1m-1 1h1m1 3h1"/><path stroke="#c1c9b1" d="M104 50h1m-4 5h1m-5 1h1m-19 9h1m24 1h1m-30 2h1m21 0h1m6 0h1m-34 1h1m30 1h1m1 0h1m-7 1h1m1 0h1m3 0h1m-37 1h1m-7 1h1m1 1h1m-5 1h1m43 1h1m-9 2h1m0 1h1m-2 2h1m7 2h1m-8 2h1m-51 1h1m49 5h1m3 0h1m-55 1h1m56 0h1m-36 4h2m-23 1h1m-2 2h1m-1 3h1m-1 2h1m-1 3h1m22 1h1m-24 1h1m-1 1h1m0 8h2m-2 2h1"/><path stroke="#395068" d="M101 51h1m1 0h1m-5 1h1m1 1h3m-8 1h1m-4 1h1m-9 4h1m-10 5h1m26 0h1m-3 2h1m1 0h1m-34 1h1m32 0h1m-4 1h1m-3 2h1m3 1h1m-49 4h1m48 0h1m-6 1h1m4 0h1m-54 1h1m49 1h1m1 0h1m-55 3h1m49 0h1m-49 2h1m49 0h1m1 0h1m-1 1h1m-55 2h1m1 0h1m51 0h2m-1 1h1m-55 1h2m49 1h1m-1 1h1m-52 2h1m-1 2h1m18 3h1m-1 3h1m-1 2h1m-21 2h1m0 1h2m-2 1h1m-1 2h1m-2 2h1m1 1h1m-2 1h1m-2 1h1m-1 2h1"/><path stroke="#c1c8b0" d="M104 51h1m-1 2h1m-7 2h1m-1 1h2m-2 1h1m5 0h1m-11 1h1m1 0h1m7 1h1m-16 1h1m2 0h1m-8 3h2m17 0h1m-22 1h1m-4 1h1m1 0h1m21 0h1m-28 2h1m26 0h1m-32 1h1m29 0h1m-1 2h1m-40 3h1m31 0h1m-35 1h1m34 0h1m-42 2h1m0 1h1m38 2h1m-50 1h1m48 0h1m-50 2h1m-1 2h1m-1 4h1m-1 1h1m48 3h1m3 0h1m-54 1h1m49 0h1m-50 3h1m1 0h1m4 0h1m40 0h1m-48 1h2m18 2h1m-23 1h1m22 1h1m-3 6h1m1 0h1m-3 1h1m-20 8h1"/><path stroke="#385168" d="M100 52h1m-20 9h1m-9 4h1m-3 1h1m-4 2h1m30 0h1m-1 1h1m3 3h1m-49 2h1m42 0h1m2 0h2m-4 1h1m-49 1h1m47 0h1m-1 1h1m1 0h2m-54 1h2m50 0h1m-54 1h1m1 1h1m48 0h1m2 0h1m-54 1h1m51 2h1m-3 1h2m-1 1h1m-3 2h1m3 1h1m-1 1h1m-53 4h1m-1 5h1m17 0h1m-20 2h1m-1 1h1m0 3h1m-3 2h1m0 4h1m0 2h1"/><path stroke="#395168" d="M101 52h1m-7 2h1m7 0h1m-14 3h1m12 5h1m-26 1h1m24 0h1m-6 5h1m2 0h1m-37 1h1m-2 1h1m33 7h1m4 1h1m-55 1h2m47 0h1m4 1h1m-54 1h1m51 0h1m-54 1h1m-2 1h1m54 1h1m-54 1h1m35 1h1m14 2h1m-54 1h1m49 2h1m-49 1h1m28 1h1m-30 1h1m-2 8h1m-2 1h1m19 1h1m-21 3h2m-2 7h1"/><path stroke="#385169" d="M102 52h1m-6 1h2m-5 2h1m-13 6h1m-8 3h1m26 2h1m-3 1h1m-35 2h1m-4 1h1m-2 1h1m-3 1h1m38 2h1m0 2h1m2 1h1m-2 2h1m-3 3h1m1 0h1m-4 1h1m-51 3h1m35 1h1m14 0h1m1 0h1m-4 1h1m-21 2h1m18 0h1m-20 4h1m-12 5h1m-21 3h1m1 0h1m-1 1h1m-2 6h1m-2 7h1"/><path stroke="#c1c9b0" d="M104 52h1m-5 2h1m-2 1h1m-6 4h1m-8 2h1m-3 1h1m18 0h1m-1 2h1m-29 2h1m-3 1h1m1 1h1m-4 1h1m23 1h1m-32 2h1m29 0h1m7 1h1m-60 4h1m10 0h1m39 0h2m6 0h1m-59 1h2m8 0h1m40 2h1m-51 1h1m56 1h1m-8 1h1m-2 1h1m-1 1h1m-1 1h1m7 1h1m-9 1h1m-50 2h1m54 0h1m-7 1h1m2 0h1m-3 1h1m4 0h2m-52 1h1m46 0h1m-4 1h2m-2 1h1m-50 3h1m1 0h1m19 0h1m0 2h1m-1 3h1m-1 1h1m-3 5h1m-22 3h1m-1 3h1m1 2h2m-4 2h1"/><path stroke="#c0c8b0" d="M101 54h1m0 1h1m-8 3h1m8 2h1m-17 1h1m1 0h1m-4 1h1m-6 1h1m-3 1h1m-3 1h1m1 1h1m-9 3h1m1 0h1m22 0h1m3 0h1m-1 2h1m-38 1h1m33 0h1m5 0h1m-48 4h1m-14 1h1m9 1h1m42 0h1m-28 4h1m33 2h1m-58 1h1m49 2h1m-1 1h1m-2 2h1m-50 1h1m54 0h1m-56 4h1m49 0h1m-29 2h1m0 1h1m-1 1h1m-2 2h1m-23 12h1m2 3h1m-4 1h1"/><path stroke="#c0c9b1" d="M102 54h1m1 1h1m-9 1h1m-6 3h1m-4 1h1m-5 2h1m3 0h1m-6 1h1m-3 2h1m-7 2h1m-8 3h1m1 0h1m29 0h2m-36 1h1m30 1h1m-35 1h1m-1 1h1m40 0h1m-47 1h2m37 0h1m-2 1h1m-44 2h1m1 0h1m48 3h1m-9 2h1m7 2h1m-8 1h1m-1 3h1m6 1h1m-5 1h1m2 0h1m-4 2h1m-54 1h1m-1 9h1m21 1h1m-23 1h1m21 0h2m-2 4h1m-23 5h1m-1 6h1"/><path stroke="#c1c8b1" d="M104 54h1m-8 3h1m6 1h1m-15 1h1m1 0h1m-3 1h1m-5 1h1m-9 5h1m25 3h1m-36 1h1m2 0h1m-5 1h2m-3 1h1m31 0h1m-35 1h1m-6 1h1m-3 2h2m37 0h1m-44 1h1m49 1h1m-58 1h1m56 0h1m-1 1h1m-8 2h1m-51 1h1m49 1h1m6 4h1m-1 1h1m-4 1h1m1 0h1m-5 2h1m2 1h1m-50 1h1m45 0h1m-2 1h1m-50 1h1m20 1h1m-23 1h1m20 2h1m-1 6h2m-2 2h1m0 1h1m-24 2h1m0 6h1m-2 1h1"/><path stroke="#c0c9b0" d="M100 55h1m-1 1h1m-7 1h1m1 0h1m-5 1h2m-1 1h1m-3 1h1m-3 1h1m14 0h1m-28 5h1m-4 2h1m-5 1h1m31 0h1m-7 1h1m-1 1h1m2 0h1m-34 2h1m30 0h1m-37 1h1m34 0h1m-36 1h2m-3 1h1m-6 1h1m2 0h1m45 9h1m-58 1h1m55 2h1m0 2h1m-4 2h1m-48 2h1m-8 2h1m8 0h1m-10 4h1m21 1h2m-24 4h1m20 4h1m-22 6h1m2 2h1m-2 1h1"/><path stroke="#385069" d="M91 56h2m10 0h1m-17 2h1m15 0h1m-21 2h2m18 0h1m-25 2h1m23 3h1m-32 1h1m-6 2h1m34 5h1m-55 5h1m50 1h1m1 0h1m-2 2h1m2 0h1m-56 1h1m50 0h1m1 0h1m1 0h1m-55 1h1m53 0h1m-55 1h1m48 0h1m2 0h1m-3 1h1m3 3h1m-24 1h1m-33 1h1m-1 1h1m0 2h1m0 6h1m-3 1h1m19 1h1m-21 4h1m1 5h1m-2 4h1m-1 1h1"/><path stroke="#c0c8b1" d="M104 56h1m-10 1h1m-10 5h1m-3 1h1m-4 1h2m1 0h1m-6 2h1m-4 1h1m1 0h1m-7 1h1m23 1h1m6 0h1m-33 1h1m27 0h1m-33 1h1m2 0h1m26 0h1m-33 1h1m30 3h1m7 0h1m-8 6h1m-2 1h1m-1 5h1m-1 2h1m0 1h1m0 2h1m2 0h1m-6 1h1m1 0h1m-1 1h1m1 0h1m-51 1h1m-4 1h1m21 7h1m-38 4h1m36 0h1m-23 1h1m0 11h1m1 0h1"/><path stroke="#395169" d="M89 57h1m-2 1h1m-3 1h1m16 0h1m-5 8h1m2 1h1m-5 1h1m4 2h1m-45 1h1m40 0h2m-44 1h1m39 0h1m-43 1h1m46 0h1m-3 2h2m-3 1h1m-3 1h1m-1 2h1m2 0h1m-4 3h1m-50 2h1m51 1h1m-52 1h1m33 0h1m14 0h1m-52 1h1m49 0h1m-18 1h1m16 0h2m-1 1h1m-51 1h1m29 0h1m-32 3h1m-1 5h2m18 7h1m-21 3h1m0 2h1"/><path stroke="#a12840" d="M101 57h1m-3 1h1m1 0h1m-4 1h1m2 0h1m-8 2h1m3 0h1m-2 1h1m-2 2h1m-4 1h2m2 1h2m-8 1h1m-9 1h1m5 2h1m-15 2h1m6 2h1m-18 1h1m6 0h1m-9 1h2m3 0h1m3 0h1m-13 1h3m-1 1h1m10 0h1m-19 3h2m4 3h1m-6 2h1"/><path stroke="#a02941" d="M100 58h1m-1 2h1m-4 1h1m-8 2h1m5 0h1m-10 1h1m9 0h2m-8 1h1m5 0h1m-10 1h1m3 0h1m3 1h1m-12 1h1m4 0h1m-4 1h1m-13 1h1m10 0h1m-12 1h1m4 0h1m5 0h1m-7 1h1m-11 1h1m5 0h1m-11 2h1m-1 3h1m2 0h1m3 0h1m-15 1h1m6 1h1m1 1h1m-13 2h1m6 0h1m-5 2h1m-2 1h1"/><path stroke="#a12940" d="M97 59h1m-1 4h1m2 0h2m-3 2h1m-17 1h1m2 2h1m3 1h1m-8 1h1m-10 1h1m13 0h1m-19 3h1m9 1h1m-6 1h1m2 0h1m-4 1h1m-16 2h1m10 0h2m-4 1h1m-6 3h1m-6 1h1m-2 1h1"/><path stroke="#a02840" d="M99 59h1m-3 1h1m3 2h1m-17 3h1m2 0h1m9 0h1m-5 1h1m-10 1h1m-9 2h1m2 0h1m5 0h1m4 0h1m-8 1h1m-1 1h1m-1 2h1m-13 1h1m2 0h1m-15 4h1m-5 1h1m8 0h1m-11 1h1m9 2h1m-8 1h1m-4 2h1"/><path stroke="#a02841" d="M100 59h1m-2 1h1m-7 1h1m1 0h1m-8 3h1m11 0h1m-1 1h1m-17 1h1m-4 1h1m8 0h1m0 1h2m-15 1h1m-3 1h1m1 1h1m0 1h1m6 0h1m-4 1h1m-17 1h1m9 0h1m-15 2h1m13 0h1m-8 3h1m-13 1h1m8 1h1m-12 1h1m3 0h1m4 0h1m-9 2h1m2 0h1m-5 2h1"/><path stroke="#a02940" d="M95 60h1m5 1h1m-9 1h1m-5 1h1m2 1h1m8 0h1m-10 1h1m-2 1h1m-4 1h1m3 0h1m-13 3h1m9 0h1m-8 1h1m-13 1h1m-3 1h1m4 1h1m-9 3h1m2 0h1m-10 1h1m2 1h1m5 0h1m-11 1h1m10 0h1m-13 1h1m4 1h1m-4 1h1m-4 2h1"/><path stroke="#a12841" d="M96 60h1m4 0h1m-7 3h1m-5 1h1m-13 4h1m12 1h1m-20 2h1m5 0h1m-5 2h1m4 0h1m-13 1h1m4 0h1m7 0h1m-13 1h1m5 0h1m0 2h1m-7 1h1m-11 2h1m5 1h1m-9 3h1m2 0h1"/><path stroke="#a12941" d="M98 60h1m-7 3h1m6 0h1m-1 1h1m-14 1h1m-2 1h1m-4 1h1m-3 1h1m13 0h1m-8 2h1m-1 1h1m-16 1h1m12 0h1m-9 1h1m-9 1h1m10 0h1m-2 1h1m-14 1h1m5 0h1m-14 2h1m-2 1h1m-2 1h1m2 1h1m-5 3h1m3 1h1m-5 2h1"/><path stroke="#395069" d="M80 62h1m-12 5h1m32 0h1m-3 2h1m-1 4h2m1 0h1m-51 2h1m44 0h1m1 0h1m-49 1h1m46 2h1m0 1h1m2 0h1m-4 1h1m-51 2h1m47 0h1m-51 2h1m-1 1h1m49 0h1m2 0h2m-5 1h1m1 0h1m-53 1h1m52 0h1m-1 2h1m-54 4h1m0 2h1m-2 6h1m0 3h1m18 1h1m-19 1h1m-1 1h1m-3 1h1m1 0h1m-1 1h1m-2 4h2m-1 1h1"/><path stroke="#d8b119" d="M69 84h1m-2 3h1m2 0h1m1 1h1m-12 1h1m-3 1h1m-6 1h1m8 0h1m5 0h1m-14 1h1m4 0h1m-10 1h1m5 1h1m-5 1h2m0 1h1"/><path stroke="#d9b018" d="M70 84h2m-1 1h1m0 3h1m-10 1h1m1 0h1m5 0h1m-13 1h1m1 0h1m1 0h1m6 0h1m-18 2h1m2 0h1m3 0h1m-5 1h1m4 0h1m-2 1h1m-4 1h2m-1 1h1m-2 1h1m-1 4h1"/><path stroke="#d9b019" d="M67 85h1m0 1h1m3 1h1m-5 1h2m5 0h1m-12 1h1m7 1h1m-17 1h1m1 0h1m1 0h1m4 0h2m2 0h1m-11 1h1m2 2h1m1 0h1m-6 1h1m1 0h2"/><path stroke="#d9b118" d="M68 85h1m3 0h1m-10 2h1m5 0h1m3 0h1m-11 1h1m1 0h1m4 0h1m-5 1h1m5 0h1m-16 1h1m-4 2h1m3 0h1m2 0h1m1 0h1m-10 1h2m2 0h1m1 2h1"/><path stroke="#d8b018" d="M69 85h1m-5 1h3m5 0h1m-8 1h1m3 0h1m-7 1h1m9 0h1m-8 1h1m2 0h1m-6 1h1m1 1h1m-2 1h1m-10 1h1m4 0h1m3 0h1m-12 1h1m0 2h1m3 0h1m-3 1h1m-2 1h1"/><path stroke="#d8b118" d="M70 85h1m-2 1h1m-5 1h1m-5 1h1m4 0h2m3 0h1m-4 1h1m-7 1h1m3 0h1m1 0h1m-14 2h1m12 0h1m-10 1h2m4 0h1m-5 1h1m-5 6h1"/><path stroke="#d9b119" d="M70 86h1m1 0h1m-9 1h1m9 0h1m-13 1h1m-5 2h1m5 0h1m2 0h1m-18 1h1m8 0h1m1 0h1m6 0h1m-18 1h1m12 0h2m-3 1h1m-7 1h2m-2 5h1"/><path stroke="#d8b019" d="M71 86h1m-5 1h1m-9 2h3m7 0h1m3 0h2m-26 1h1m19 0h1m1 0h1m-15 1h1m4 0h2m3 1h1m-4 1h1m-11 1h1m1 0h1m6 0h1m-5 2h1"/></svg>