<svg xmlns="http://www.w3.org/2000/svg" shape-rendering="crispEdges" viewBox="0 -0.5 120 118"><path stroke="#40e8f9" d="M90 0h1m-7 3h1m0 4h1M42 8h1m44 0h2m4 0h1M72 9h1m4 0h1m11 0h1m-36 1h1m21 0h2m3 0h1m3 0h1m10 0h1m1 0h1m1 0h1m3 0h2m-68 1h1m20 0h1m14 0h1m3 0h1m14 0h1m11 0h1m-68 1h1m22 0h1m33 0h1m4 0h1m-25 1h1m31 1h1m-74 1h1m78 0h2m-80 1h1m79 0h1m-84 1h1m79 0h1m-35 1h1m34 0h1m1 0h1m-80 1h1m45 1h1m-36 5h1m1 2h1m42 0h1m-37 3h1m40 1h1m-2 2h1m-76 2h1m1 1h1m44 0h1m-55 2h2m2 0h2m-7 1h1m2 0h1m1 0h1m2 0h2m21 1h1m-28 1h1m58 0h2M6 42h1m6 0h1m5 0h3m-4 1h1m4 1h1m62 1h1m-72 1h1m9 0h1m-9 2h1m9 1h1m1 1h1m-13 1h1m6 1h1m-2 1h1m1 0h1m2 0h1m2 0h1m-9 1h1m5 0h2m-4 1h1m14 1h1m-17 1h1m3 0h2m1 1h1m3 0h1m53 11h1m2 0h1m20 28h1m-12 2h1m-11 4h1m-1 1h1m-17 4h1m-40 3h1m-3 1h1"/><path stroke="#40d9f9" d="M91 0h1m-3 1h1m5 1h1m-4 1h1m-6 1h1m-1 1h1m1 0h1M45 6h1m55 0h1M48 7h2m37 0h1m1 0h1m3 0h1m6 0h1m2 0h1M51 8h1m50 0h2M52 9h1m54 0h1m0 1h1m-44 2h1m6 3h3m-41 3h1m-1 1h1m81 0h1m-79 3h1m56 5h2m-45 2h1m44 0h1m-44 1h1m46 1h1m-73 1h1m37 4h1m-58 5h1m62 0h1m2 1h1M9 43h1m73 1h1m-71 1h1m-8 1h1m6 0h1m-6 1h2m-2 1h1m6 0h1m-7 1h1m1 0h1m2 2h1m5 3h1m3 2h1m0 2h1"/><path stroke="#91a9a8" d="M92 0h1m23 12h1m-30 7h1m9 5h1m9 0h1m-9 1h1m18 1h1m-91 2h1m84 0h1m-3 1h1m6 0h1m-1 3h1m-1 2h1m-63 3h1m39 1h1m1 6h1m-39 7h1m-3 1h1m4 0h1M8 53h1m93 0h2m-37 1h1m35 0h1m-14 1h1m-33 1h1m43 0h1m-47 1h1m2 0h1m-1 1h1m42 0h1m5 0h1m-94 1h1m36 0h1m24 0h1m25 0h1m-82 1h1m79 0h1m-63 1h1m55 0h1m2 0h1m-50 1h1m-21 1h1m15 0h1m50 0h1m-48 1h1m8 0h1m-10 1h1m3 2h2m35 0h1m-76 1h1m-8 1h1m43 0h1m34 0h1m-52 1h1m5 3h1m30 0h1m-56 1h1m47 1h1m1 1h1m-14 5h1m-16 1h1m8 0h1m1 0h1m-14 1h1m8 0h1m-35 1h2m30 0h1m9 0h1m-11 1h1m1 0h1m-8 3h1m-27 5h1m24 0h2m14 0h1m-40 1h1m-5 1h1m35 1h1m-10 4h1m8 1h1m-10 3h2m36 3h1m8 1h1m-48 1h2m-2 1h1m1 0h1m42 0h1m2 1h1m-3 1h1"/><path stroke="#40e9f9" d="M88 1h1M78 7h1m4 0h1m-9 1h2m3 0h1m3 0h1m9 0h1M44 9h1m29 0h1m1 0h1m3 0h2m4 0h1m6 0h1m2 0h1m-58 1h2m29 0h1m2 0h1m8 0h1m5 0h1m-13 1h1m9 0h1m5 0h1m1 0h1m12 0h1m-49 1h1m28 0h1m5 0h1m-59 1h1m1 0h1m22 0h1m-27 1h1m1 0h1m31 0h1m34 0h1m1 1h1m3 0h1m5 0h1m-84 1h1m3 1h1m73 0h1m3 1h1m-81 1h1m78 0h1m-76 1h1m48 2h1m1 2h1m-43 2h1m-24 7h1m73 0h1m-80 2h1m2 0h1m44 1h1m-49 1h2m48 0h1m2 2h1m-61 1h1m4 0h1m3 0h1m53 0h1m-1 1h1m-28 1h1m30 0h1m-66 1h1m5 0h1m-1 2h3m-5 1h1m1 0h1m-7 1h1m4 0h1m4 0h1m2 1h1m-10 1h1m4 1h1m1 0h1m-2 2h2m-6 1h1m5 0h1m-6 1h1m2 0h1m-3 1h1m6 0h1m-3 1h1m6 0h1m-11 1h1m6 0h1m4 0h1m-4 1h1m-7 1h1m63 8h1m15 26h1m-3 1h1m-12 8h2m-5 3h1"/><path stroke="#41d8f8" d="M90 1h1m-2 1h1m2 0h2M81 5h1m1 0h1m10 0h1m5 0h1m-5 1h1M45 7h1m42 0h1m5 0h2m2 0h1M52 8h1m54 0h1m-2 2h1m2 0h2m-49 1h1m49 1h1m1 1h1m0 1h1m2 1h1m-39 3h1m-44 2h1m-2 1h1m2 0h1m51 3h2m-45 3h1m45 0h1m-45 1h1m0 1h1m46 0h1m-45 2h1m46 3h1m-37 1h1m-1 1h1m1 1h1m4 3h1m-61 2h1m-1 2h2m-6 1h1m1 0h2m70 0h1M7 46h1m75 1h1m1 0h1m1 0h1m-74 1h1m-8 1h1m7 0h2m-7 1h1m1 0h1m1 0h1m-1 2h1m3 0h1m32 0h1m-36 1h1m5 2h1m66 14h2m21 29h1m-21 6h1m-4 1h2m-73 3h1"/><path stroke="#41d9f8" d="M91 1h1m2 1h1M85 4h1m2 0h1m-1 1h1m4 0h1m1 0h1m2 0h2M88 6h1m11 0h1m-2 1h1m1 0h1m-2 1h1M49 9h1m51 0h1m-41 2h1m48 0h2m-1 1h1m2 0h1m3 2h1m-41 3h1m-46 1h1m-2 1h1m1 1h1m0 1h1m2 0h1m47 0h1m-48 2h1m53 3h1m7 6h1m-1 1h1m-36 3h1m-55 4h1m60 0h1M9 41h1m2 0h1m-6 1h1m70 0h1M6 43h1m-4 1h1m77 0h1M1 45h1m7 0h1m74 0h1M5 46h1m81 0h1m-31 3h1m-47 1h1m4 0h1m-5 1h1m3 1h1m1 1h1m2 2h1m1 2h1m86 40h1"/><path stroke="#40d8f8" d="M92 1h1m-5 1h1m-4 1h1m8 0h1M83 4h2m7 0h1m8 1h1M80 6h2m7 0h1m13 0h1M49 8h1m55 0h1M51 9h1m52 0h2m2 0h1m0 2h1m9 3h1m-45 2h1m-44 5h1m1 0h1m5 2h1m1 1h1m53 4h1m-47 1h1m5 1h1m43 0h1m-70 3h1m1 1h1m36 4h1m-1 1h3m-62 1h1m-2 2h1m66 0h1m-68 1h1m70 0h1m9 0h1M2 45h1m1 0h1m1 0h1m76 0h1m5 0h1M2 46h1m81 0h2m-72 1h1m73 0h1M9 48h1m1 0h1m4 0h1m70 0h1m-78 1h1m1 0h1m0 1h1m1 1h1m2 3h1m28 0h1m42 16h1m16 25h1m0 1h1m3 0h1m-9 2h1m-12 5h1m-3 2h1m-4 1h1m-10 4h1"/><path stroke="#41d8f9" d="M93 1h1m-5 2h1m6 0h1m-4 1h1m3 0h2M82 5h1m1 0h1m1 0h1m3 0h3m-2 1h1m5 0h1M44 7h1m5 0h1m41 0h1m3 0h1m5 0h1M43 8h1m3 0h2m-2 1h1m2 0h1m3 0h1m1 1h1m54 0h1m-52 1h1m2 1h2m1 1h2m49 0h1m-48 1h1m45 0h1m1 4h1m-84 2h1m2 0h1m0 2h2m0 1h1m11 6h1m-1 1h1m1 0h1m-1 1h2m45 1h1m-39 3h1m3 2h2m27 0h1m-27 1h1M8 42h1m2 0h1m-1 1h1m66 0h1m6 2h1M3 46h1m7 0h2m75 0h1M4 47h2m-1 1h1m1 0h1m4 0h1m1 1h1m0 4h1m11 6h1m61 11h1M2 100h1m1 1h1m5 3h1m3 2h1m1 1h1"/><path stroke="#90a8a8" d="M94 1h1M73 12h1m11 6h1m19 7h1m-66 3h1m71 1h1m-70 1h1m66 0h1m-49 2h1m35 10h1m1 2h1m-4 2h1m1 5h1m2 1h1m0 4h1m-31 1h1m29 1h1m-60 1h1m55 1h1m-3 1h1m-63 2h1m13 0h1M1 65h1m37 0h1m50 0h1m11 0h1m-51 3h2m-40 1h1m22 0h1m13 0h2m65 2h1m-60 2h1m18 0h1m-39 2h2m-31 1h1m37 2h1m7 0h1m-9 4h1m-9 4h1m0 1h2m12 1h1m-17 2h1m65 3h1m-66 2h1m74 2h1m-77 1h1m8 0h1M0 99h1m102 0h1m-51 4h1m34 5h1"/><path stroke="#41e8f9" d="M86 2h1m-5 4h1m-2 1h2m1 0h1m-4 1h1M40 9h1m41 0h1m4 0h1m6 0h1m-47 1h2m30 0h1m6 0h1m1 0h1m3 0h1m7 0h1m-46 1h1m23 0h2m1 0h1m1 0h1m5 0h1m12 0h1m-45 1h1m26 0h1m1 0h1m1 0h1m4 0h2m1 0h1m0 1h1m7 0h1m-42 1h1m37 0h1m1 0h1m3 0h1m1 0h1m-1 1h1m-79 1h1m40 1h2m-41 1h1m-2 1h1m44 0h1m32 1h1m-24 5h1m10 1h1m-51 2h2m41 1h1m1 2h1m0 2h1m-80 4h1m4 0h1m-3 1h1m18 0h1m-26 1h1m7 0h1m-6 1h2m59 1h1m-59 1h2m-11 1h1m1 1h1m3 0h1m4 0h1m-7 1h1m-3 1h3m-2 1h1m4 0h1m1 0h1m34 0h1m-40 1h1m1 1h1m1 0h1m3 0h1m-7 1h1m-4 1h1m4 0h1m-6 1h1m2 0h1m-4 1h1m6 1h1m-1 1h1m1 0h1m2 0h1m0 1h1m1 0h1m3 1h1m-4 1h1m71 1h1m-12 9h1m-1 35h1m-17 8h1m-55 1h1"/><path stroke="#40d8f9" d="M87 2h1m-2 1h2m2 0h1m2 0h1m1 0h1m-6 1h1m5 1h2m-8 1h1m1 0h1M43 7h1m46 0h2m5 0h1m6 0h1m-7 1h2m1 0h1m2 0h1m1 0h1M56 9h1m56 2h1m-1 1h1m-2 1h1m3 0h1m0 1h1m-85 5h1m50 1h1m-52 1h1m8 2h1m47 0h1m2 2h1m1 1h1m-47 1h1m-1 1h1m1 0h1m17 10h1m9 4h1M8 43h1m3 0h1m64 0h1M4 44h3m2 0h2m3 0h1M5 45h1m3 1h2m0 1h2m-3 1h1m48 0h1m-47 1h1m-3 2h1m1 0h1m-1 1h1m5 2h1m1 2h1m88 39h1M6 102h1m5 3h1m7 4h1m60 2h1m1 1h1"/><path stroke="#40d9f8" d="M90 2h1m-3 1h1m2 0h1m-1 1h1m2 0h3m2 0h1M85 5h1M46 6h1m32 0h1m6 0h1m6 0h1m1 0h1M46 7h1m58 0h1m-4 2h2m2 0h1m-50 1h1m49 0h1m-51 1h1m54 0h1m4 4h1m1 0h1m-38 4h1m-50 1h1m2 0h1m1 3h1m53 2h1m1 1h1m2 2h1m1 3h2m-43 1h1m43 1h1m-92 8h1m63 0h1M9 42h1m-5 1h1m1 0h1m-1 1h1m3 0h1m70 0h1M7 45h1m4 0h1m1 0h1M4 46h1m9 0h1m-9 1h2m76 0h1M8 49h1m6 1h1m39 0h1m-39 2h1m-1 1h1m-1 1h1m1 1h1m25 0h1m-24 1h2m19 0h1m-18 2h1m61 12h1M8 103h1"/><path stroke="#41d9f9" d="M91 2h1m5 1h1M86 4h1m2 0h1m-3 2h1m6 0h1m3 0h2m2 0h1M47 7h1m2 1h1m-3 1h1m4 0h1m1 0h1m53 0h1m-55 1h1m2 0h2m50 2h1m4 0h1m-48 1h1m44 0h1m1 0h1m-45 1h1m4 2h1m-45 4h1m4 1h1m-1 1h1m60 8h2m-43 1h2m41 1h1m-66 3h1m30 2h1m7 3h1m-1 1h1m4 2h2M8 44h1m-6 1h1m4 1h1m74 0h1m2 0h1m-77 1h1m2 0h1m72 0h1M6 48h1m6 0h1m-5 2h1m6 1h1m36 0h1m-39 1h1m33 1h1m-30 2h1m3 2h1m65 11h2m-1 36h1m-3 2h1"/><path stroke="#90a9a8" d="M96 2h1m1 1h1M81 16h1m11 6h1m17 0h1m-3 8h1M99 43h1m12 0h1m-12 7h2M4 51h1m98 1h1m-94 2h1m43 0h1m-41 2h1m44 0h1m-5 1h1m46 0h1m-6 1h1m8 1h1m-48 2h1m37 0h1m2 1h1m-67 1h1m63 0h2m-58 1h1m-27 1h1M3 66h1m46 0h1m-14 2h1m16 0h1m34 0h1m-22 2h1m23 0h1m-5 1h1m-44 1h1m-29 1h1m24 1h1m14 0h1M9 75h1m17 3h1m17 2h1m9 0h1m-2 2h1m-10 2h1m3 4h1m-1 1h1m-1 1h1m-9 1h1m-30 1h1m96 1h1m-3 1h1m-52 1h1m57 0h1m-98 2h1m22 0h1m15 1h1m-16 1h1m14 0h1m-3 3h1m-3 1h1m34 3h1m-47 1h3m43 0h1m-47 1h2m43 2h1m-47 1h1"/><path stroke="#2888c9" d="M51 4h1m0 2h1m2 0h1m-1 1h1m2 0h1m3 2h1m2 1h2m0 1h1m17 8h1m2 1h1m-45 6h1m-1 1h1m55 0h1m0 1h1m-43 6h1m1 3h1m36 0h1m-56 1h1m67 2h1m0 1h1m-61 1h1m57 0h1m2 1h1m-58 1h1m33 1h1M1 47h1m0 1h2m60 0h1M3 49h1m57 0h1m2 0h1M4 50h2m50 0h1m7 0h1m2 0h1M7 52h4m54 0h1m20 0h1m-39 2h1m24 0h2m-4 1h1m-57 1h1m56 0h2m-56 1h1m28 0h1m32 0h1m-56 2h1m9 1h1m-7 2h1m6 0h1M2 68h1m3 0h1m55 0h1m-2 2h1M2 71h1m57 1h1m3 0h1m-55 1h1m6 1h1m31 0h1m6 0h1m15 0h1m-59 1h1m5 0h1m25 1h1m2 0h1m21 0h1m2 0h2m2 0h2m-65 1h1m24 0h1m4 0h1m3 0h1m25 0h1m-35 1h1m32 0h1m-49 1h1m8 0h1m5 0h1m36 0h1m-58 1h1m14 0h2m1 0h1m2 0h1m-19 1h1m2 0h1m-1 1h1m8 0h1m-4 1h1m74 15h1m-2 1h2m3 0h1m-15 1h1m-99 1h1m95 0h1m-88 4h1m53 0h1m-56 1h1m4 0h1m53 0h1m-60 1h1m2 0h1m54 0h1m3 0h1m-55 3h1m1 0h1m-2 1h1m1 0h1m1 0h1m2 1h1m-5 1h1m18 0h1m-15 1h2m6 0h1m1 0h2m-3 2h1"/><path stroke="#2989c9" d="M52 4h2m37 18h1m5 4h2m0 1h1m-54 1h1m-5 2h1m62 0h1m-1 1h1m-74 1h1m77 0h1m-51 1h2m42 0h1m-45 1h1m2 0h1m-2 1h1m-22 2h1m69 4h1m-57 3h1m4 2h1m28 0h1M2 47h1m63 2h1m-4 1h1m4 0h1m-12 2h1m-46 1h2m57 0h1m2 0h1m-64 1h1m1 0h1m39 0h1m14 0h1m3 0h1m-56 2h1m1 0h1m24 0h1m40 1h1m-42 1h1m40 0h1m-65 1h1m1 1h1m16 0h2m-8 1h1m4 0h1M1 67h1m61 2h1m31 0h1M2 70h2m60 0h2M6 72h1m3 0h1m2 0h1m37 1h1m12 0h1M9 74h1m5 0h1m55 0h1m6 0h1m-62 1h1m27 0h1m22 0h1m3 0h1m-56 1h2m23 0h2m6 0h1m22 0h1m2 0h1m-59 1h1m3 0h2m18 0h2m-23 1h1m23 0h1m-21 1h1m16 0h1m1 0h1m-7 1h1m1 0h1m-18 1h1m5 0h1m-6 1h1m4 0h1m3 0h1m5 0h1m-14 1h1m2 1h1m83 13h1m-4 2h1m2 0h1M0 100h1m109 0h1m1 0h1M3 101h1m-4 1h1m3 1h2m-1 1h1m60 0h1m-63 1h1m3 0h1m53 0h1m3 0h1m-61 1h2m2 1h1m3 0h1m0 1h1m58 1h1m-60 1h1m1 0h1m54 0h2m-55 2h1m59 1h1m-1 1h1m-56 1h1m1 0h2m7 1h1m1 0h1m-3 1h1"/><path stroke="#41e9f9" d="M82 4h1m-5 2h1m6 0h1M46 8h1m32 0h1M42 9h1m32 0h1m3 0h1m4 0h1m6 0h1m5 0h2m1 0h1m-54 1h1m3 0h1m20 0h1m6 0h1m3 0h1m2 0h1m4 0h2m-51 1h1m11 0h2m16 0h1m9 0h1m12 0h1m1 0h2m3 0h1m3 0h1m1 0h1m-19 1h1m1 0h2m7 0h1m3 0h1m2 0h1m-72 1h1m26 0h1m37 0h2m5 0h1m-74 1h1m-1 1h1m75 1h1m1 0h1m2 0h1m1 0h1m-86 1h1m83 0h1m-81 2h1m10 7h1m42 0h1m2 2h1m1 4h1m-74 1h1m-2 1h1m40 0h1m-41 1h1m-7 2h1m52 0h1m-55 1h1m5 0h1m49 0h1m-62 1h1m30 0h1m-20 1h1m-11 1h1m1 0h1m2 0h1m59 0h1m-65 1h2m1 0h1m62 0h1m-66 2h1m1 0h1m6 0h1m59 0h1m3 0h1m-73 1h1m69 0h1m-66 1h1m34 0h1m-34 2h1m3 2h1m-9 2h1m9 0h1m-9 1h1m4 1h1m4 0h1m0 2h1m2 0h1m3 1h1m-11 1h3m1 1h1m68 5h1m-13 6h1m17 24h1m2 3h1m-15 4h2"/><path stroke="#91a8a9" d="M100 4h1m5 3h1m-6 19h1m14 1h1m1 0h1m-91 2h1m31 7h1m37 7h1m2 1h1m1 7h1M6 52h1m95 3h1m-50 3h1m21 0h1m-25 1h1m-37 1h1m31 1h1m-22 1h1m71 0h1m2 0h1m-88 1h1m14 0h1m13 0h1m15 0h1m-19 1h1m-2 1h1m-25 1h1m20 0h1m50 0h1m4 0h1m-44 1h1M7 68h1m47 0h1m-10 1h1m19 0h1m-16 1h1m-37 2h1m26 1h1m-20 3h1m14 0h2m-15 1h1m11 0h1m35 1h1m-20 2h1m22 0h1m-57 1h1m33 0h1m-3 1h1m-38 1h1m8 0h1m23 1h1m-39 2h1m31 0h1m2 0h1m9 1h1m-1 3h1m-17 1h1m15 1h1m-41 2h1m39 0h1m-17 1h1m0 2h1m-1 1h1m72 0h1m-7 2h1m-69 1h1m11 1h1m3 0h1m22 6h1m-38 1h1m44 0h1"/><path stroke="#31c1f8" d="M48 5h1m20 8h1m13 6h1m-49 3h2m-3 1h1m-6 2h1m4 1h1m2 0h1m1 0h1m-5 2h1m-6 1h1m15 0h2m-10 1h1m63 0h1m-75 1h1m4 0h1m5 0h1m3 1h1m3 0h1m3 0h1m52 0h1m-58 1h1m0 1h1m5 0h1m-16 1h1m9 0h1m1 0h1m2 0h1m-17 1h1m25 0h1m-23 2h1m4 0h1m8 0h1m1 1h1m-4 1h1m4 0h1m5 0h1m-15 1h2m6 0h1m4 0h1m27 0h1m-44 1h1m14 0h1m7 0h1m-16 1h2m3 0h1m2 1h1m5 0h1m-17 1h1m20 0h1m1 0h1M1 46h1m61 0h2m6 0h1m8 0h1m1 0h1m-11 1h1m3 0h1m4 2h1m1 0h1m1 0h2m-12 1h1m-64 2h1m72 0h1m-11 1h1m2 1h1m2 0h1m-62 2h1m61 0h3m-1 1h1m-61 1h1m4 2h2m-1 21h1m1 0h1m-1 1h1m-2 2h1m31 18h1m-47 6h1m57 0h1m-57 1h1m61 1h1m-59 1h1m1 1h1m7 1h1m-3 4h1"/><path stroke="#2888c8" d="M49 5h1m1 0h1m2 0h1m5 3h1m-1 1h1m3 1h1m6 3h2m13 6h1m-1 1h1m26 1h1m-69 3h1m1 1h1m47 0h1m10 5h1m-1 2h1m-44 1h1m-29 1h1m22 1h1m-19 1h1m19 3h1m51 1h1m0 2h1m-23 2h1M4 48h1m58 0h1m24 0h1M6 49h1m55 1h1M5 51h4m57 0h1m5 1h1m-59 2h1m55 0h1m3 1h1m2 0h1m-3 1h1m1 0h1m-36 3h1m-11 1h1m-2 1h1m-1 1h1M2 67h1m58 0h1M1 68h1m61 0h1M5 69h1m55 0h1m2 0h1M6 70h1m55 0h1m3 0h1m-6 1h1m3 0h1m23 0h1M5 72h1m2 0h1m57 0h1m1 0h2M7 73h1m1 0h1m1 0h1m2 0h1m34 0h1m22 0h1m-63 1h1m2 0h1m2 0h1m1 0h1m31 0h1m16 0h1m-50 1h1m27 0h2m-32 1h1m27 0h1m6 0h1m18 0h1m-57 1h1m1 0h2m26 0h1m-26 1h1m20 0h1m37 0h1m-60 1h1m4 0h1m9 0h1m2 0h1m2 0h1m36 0h1m-58 1h1m1 0h2m11 0h1m7 0h1m34 0h1m-37 1h1m-6 1h1m-11 1h1m1 0h1m6 0h1m-3 1h1m72 13h1m6 0h1m-6 2h1M1 102h1m56 0h1m2 0h1m-60 1h2m60 0h1m-58 1h1m54 0h1m-58 1h1m5 0h1m76 0h1m-79 1h1m-2 1h1m57 0h1m-58 1h3m56 0h1m2 0h2m-57 1h2m53 0h1m2 0h1m4 1h1m-63 1h1m3 0h1m55 0h1m3 0h1m-45 1h2m1 0h1m-16 1h1m10 0h1m39 0h1m-54 1h1m13 0h1m41 0h2m-49 1h2m-6 1h1"/><path stroke="#2889c9" d="M50 5h1m1 0h1m2 0h1m-3 1h2m1 1h2m0 1h1m2 0h1m-1 1h1m11 5h1m41 6h1m-27 1h1m6 4h1m-54 4h1m57 0h1m1 0h1m-60 2h1m16 1h1m46 0h2m1 0h1m-53 4h1m-2 1h2m-15 2h1m16 9h1M2 49h1m1 0h1m53 0h1M6 50h1m80 0h1m-22 2h1m4 0h1m-62 1h1m44 0h1m12 0h1m1 0h1m-59 1h1m56 0h1m6 0h1m-60 1h1m52 0h1m1 0h1m2 0h1m-58 1h1m55 0h1m1 0h1m5 1h1m-59 2h1m-1 1h1m8 0h1m-2 1h1m-6 1h1M5 68h1m91 0h1M1 69h1m-1 1h1m6 1h1m53 0h1m5 0h1m-58 1h1m0 1h1m52 0h1m1 0h1m1 0h1m1 0h1m1 0h1m-23 1h1m23 0h1m-25 1h1m2 0h1m20 0h2m-62 1h1m6 0h1m50 1h1m3 0h1m-62 1h2m5 0h1m52 1h1m-50 1h1m7 1h1m-10 1h1m7 0h1m3 0h1m-11 1h1m4 1h1m1 0h1m69 11h1m1 3h1M3 102h1m-3 1h1m90 0h1m-83 2h1m54 0h1m1 0h1m-56 1h1m2 1h1m-2 1h1m-3 1h2m62 0h2m-64 1h1m60 0h1m-36 2h1m36 0h1m0 1h1m1 0h3m-54 1h1m53 0h1m-59 1h1m9 0h1m46 0h1m-57 1h2m0 1h1"/><path stroke="#2989c8" d="M53 5h1m9 5h1m16 7h1m36 2h1m-28 2h1m-1 1h1m1 1h1m1 1h1m-53 3h2m54 0h1m3 1h1m-62 1h1m64 2h1m0 1h1m-6 2h1m-65 1h1m21 0h1m-3 1h1m-2 1h1m-14 1h1m16 0h1m-8 5h1m3 2h1M1 48h1m58 0h1m4 1h1M8 50h1m45 1h1m7 0h1m4 0h1m2 0h1m-60 1h1m56 0h1M9 53h1m40 0h1m18 0h1m-57 2h1m62 0h1m2 1h2m4 0h1m-67 1h1m22 0h1m31 0h1m-56 1h1m2 0h1m17 0h1m-19 1h1m2 1h1m9 1h1m-8 1h1m4 0h1m3 0h1M2 66h1m0 2h1m57 0h1M9 70h1m53 0h1M9 71h1m56 0h1m2 0h1M4 72h1m2 0h1m1 0h1m4 0h1m47 0h1m2 0h1m1 0h1M8 73h1m7 0h1m-3 1h1m32 0h1m20 0h2m3 0h2m-63 1h2m55 0h1m4 0h1m3 0h1m-66 1h1m6 0h1m24 0h1m6 0h1m19 0h1m-54 1h1m59 0h1m-58 1h1m1 0h3m10 0h1m8 0h1m28 0h1m-49 1h1m11 0h1m-11 1h1m3 0h1m10 0h1m-9 1h2m3 0h1m-5 2h1m70 11h1M1 101h1m111 0h1M4 102h1m-5 1h1m1 1h2m50 0h1m35 0h1m-14 6h1m-58 1h1m55 1h1m1 0h1m1 0h1m-58 1h1m4 1h1m49 0h1m-40 1h1m40 0h1m-53 1h1m5 1h1"/><path stroke="#285061" d="M56 5h1m11 5h1m7 4h1m0 1h1m36 6h1m-20 3h1m14 1h1m-6 1h1m3 0h1m-7 1h1m0 1h1m10 2h1m-4 1h1m-5 2h1m1 0h1m-2 1h1m6 0h1m-15 1h1m3 0h1m1 0h1m2 1h1m3 0h1m-19 2h1m3 0h1m16 1h1m-24 1h1m2 0h1m17 0h1m-20 1h2m11 0h1m2 0h1m1 0h1m2 0h1m-2 1h1m-4 2h1m2 0h1m-14 1h1m-14 1h1m9 1h1m-43 2h1m-6 3h2m31 0h1m-36 1h2m44 0h1m-47 1h1m36 0h1m-1 2h1m-4 1h2m2 0h1m7 2h1m-48 2h1m38 0h1m-3 1h1m20 0h1m-5 1h1m-1 2h1m-5 1h1m-44 2h2m40 0h1m-41 1h1m35 0h1m-7 2h2m2 0h1m3 0h2m2 0h1m-47 1h1m1 0h1m-4 1h1m2 0h1m36 0h1m-51 1h1m45 0h2m1 0h2m-8 3h1m1 0h1m-41 9h1m3 1h1m-12 2h1m-33 3h1m36 1h1m5 2h1m-5 1h1m54 0h1m-64 1h1m74 0h1m-70 1h1m57 0h1m8 0h1m-68 1h1m67 0h1m-69 1h1m67 1h1m-57 1h1m-4 1h1m1 0h1m0 1h1m26 9h1m-3 1h1m1 0h1m-4 1h1m3 0h1m-5 2h1"/><path stroke="#295061" d="M57 5h1m7 4h1m1 1h1m5 3h2m5 3h1m3 2h1m34 1h1m-3 1h1m-6 2h1m2 0h2m-4 1h1m-5 1h1m3 0h1m-15 2h1m6 0h2m7 3h1m-3 1h1m-5 1h1m1 0h1m4 1h1m-8 1h1m5 0h1m-10 1h1m3 0h1m3 1h1m-12 1h3m1 0h1m6 0h1m2 0h1m-6 1h1m-13 1h1m9 0h1m-3 1h1m3 0h1m1 0h2m-17 1h1m13 0h1m4 3h1m-24 1h1m9 0h1m-4 1h1m-10 1h1m1 0h1m-1 1h1m4 0h1m-10 1h1m-32 1h1m33 0h1m-3 1h1m0 1h1m-4 1h1m-2 1h1m-41 1h1m36 0h1m-39 1h1m-4 1h1m-1 1h1m32 0h1m-38 2h1m48 0h1m-53 1h2m58 0h1m9 2h1m-20 1h1m14 2h1m-65 1h2m11 0h1m50 0h1m1 0h1m-68 1h1m60 0h2m-3 1h1m1 0h1m-3 1h1m-46 1h1m4 0h1m34 0h2m1 0h1m2 0h2m-48 1h1m4 0h1m-1 1h1m32 0h1m1 0h1m-39 1h1m33 0h1m2 0h1m-42 2h1m-12 1h1m76 0h1M11 87h1m-1 1h1m32 1h1m-3 2h1m11 0h1m62 4h1m-66 2h1m52 0h1m10 1h1m2 1h1m-62 6h2m-3 1h1m30 8h1m1 0h1"/><path stroke="#285160" d="M58 5h1m2 2h1m56 12h1m-3 1h1m1 0h1m-3 1h1m-19 4h1m2 2h1m5 0h1m-3 1h1m8 1h1m-8 1h1m6 0h1m1 0h1m-4 2h1m-8 1h1m7 0h1m-8 1h1m5 0h1m-5 1h1m-10 1h1m-2 1h1m1 0h1m13 0h1m1 0h1m-20 1h1m4 0h1m5 1h1m1 0h1m-16 1h1m-1 2h1m11 0h2m8 0h1m-27 1h2m10 1h1m-2 1h1m-15 2h1m2 1h1m5 0h1m-39 2h1m38 3h1m-13 1h1m10 2h1m-1 1h1m-57 1h1m55 0h2m-63 2h1m15 0h1m34 0h1m20 0h1m-2 1h1m-20 1h2m16 0h1m-2 1h1m-4 3h1m3 0h1m-48 1h1m41 0h1m-43 1h1m41 0h1m-7 2h1m2 0h1m3 0h1m-46 1h1m-7 1h1m1 0h2m1 0h1m30 0h2m7 0h1m2 0h1m-48 1h1m38 0h1m5 0h1m-45 1h1m42 0h1m19 0h1M51 85h1m-4 2h1m-1 3h1m5 0h1m-7 4h1m66 2h1m-74 2h1m75 0h1m-77 1h1m73 1h1m-58 4h1m-18 1h1m12 0h1m-14 1h1m45 7h2m-4 2h1m-2 1h2"/><path stroke="#41e8f8" d="M80 5h1m2 1h1m-5 1h2M41 8h1m3 0h1m28 0h1m7 0h1m12 0h1M45 9h1m39 0h1m9 0h1m-53 1h1m46 0h1m4 0h1m3 0h1m2 0h1m-52 1h1m21 0h1m1 0h1m1 0h1m1 0h1m8 0h1m1 0h1m-17 1h1m32 0h1m-9 1h1m-32 1h1m9 0h1m31 0h1m-77 1h1m73 0h1m3 0h1m-4 1h1m5 1h3m-6 1h1m2 1h1M54 29h1m3 1h1m-33 2h1m1 0h1m69 0h1m-78 3h1m-4 1h1m3 0h1m1 2h1m-12 1h1m6 0h2m-6 1h1m4 0h1m53 0h1m2 0h1m-66 1h1m1 0h1m5 0h3m1 0h1m-1 1h1m-9 1h1m4 0h1m1 0h1m58 0h1m-67 1h1m2 0h1m1 0h1m-4 1h1m4 0h1m30 0h1m-30 1h1m-11 1h1m2 0h1m3 0h1m-5 1h1m1 0h1m3 0h1m-9 1h2m2 1h1m5 0h1m-7 1h1m4 0h1m1 1h2m-9 2h1m6 0h1m-5 1h1m8 0h1m-8 1h1m11 0h1m-12 1h1m6 0h1m3 1h1m-6 1h1m74 0h1m-4 1h1m-9 4h1m-3 1h1m2 2h1m2 33h1m-12 6h1m-69 4h1"/><path stroke="#90a9a9" d="M102 5h1m1 1h1m14 12h1m-31 2h1m19 3h1m-65 3h1m53 20h1m3 4h1m-48 3h1m-5 2h1m4 1h1m-42 1h1m42 3h1m36 0h1m-47 1h1m-39 1h1m46 0h1m-28 1h2m10 0h2m0 2h1m-1 1h1m-1 1h1m15 0h1m-17 1h1m-31 1h1m-6 1h1m34 0h1M3 72h1m42 0h1m32 1h1m-43 1h1m5 0h1m32 0h1m-22 1h1m-3 1h1m-3 1h1m19 0h1m-25 2h1m8 0h2m-7 2h3m-31 1h1m-9 1h1m31 0h1m2 0h1m1 0h1m-5 1h1m7 1h1m-12 1h1m10 0h1m-44 1h1m1 1h1m40 1h1m-44 3h1m27 0h1m66 0h1m-69 2h1m8 1h1m-10 1h1m15 4h1m-16 1h1m14 0h1m53 0h1m-70 1h1m-2 1h1m12 1h1m-14 2h1m3 0h1"/><path stroke="#30c0f8" d="M47 6h1m1 0h1m5 2h1m1 0h1m3 2h1m2 1h1m7 3h1m-40 8h1m-3 2h1m1 0h1m1 1h1m4 1h1m-7 1h1m-3 1h1m1 0h1m2 1h1m-2 1h1m3 0h1m-9 1h1m2 0h2m3 0h1m2 0h1m1 0h1m7 0h1m-15 1h2m1 0h1m6 0h1m7 0h1m-20 1h1m11 0h1m2 1h1m1 1h2m-7 1h1m1 0h1m-9 1h1m2 0h2m2 0h1m13 0h1m-17 2h1m2 0h1m6 0h1m1 0h1m5 0h1m-16 1h1m15 0h1m-18 1h1m5 0h1m12 0h1m-18 1h1m5 0h1m3 0h1m4 0h2m1 0h1m3 0h1m-19 1h1m2 0h1m9 1h1m6 0h2m-20 1h1m3 0h1m16 0h1m-15 1h1m2 0h1m4 0h1m3 0h1m-11 1h1m10 0h1m-6 1h1m2 0h1m5 0h2m-18 1h2m2 0h1m6 0h2m7 0h1m-2 1h1m-6 2h1m-68 1h1m69 0h2m-4 1h1m-4 1h1m3 0h1M30 83h1m-1 1h1m78 13h1m1 1h1m-47 5h1m27 2h1m-23 1h1m17 1h1m-11 4h1m-50 3h1m-1 3h1"/><path stroke="#31c0f9" d="M48 6h1m8 3h1m4 1h1M30 22h1m58 0h1m-59 1h1m1 0h1m5 1h1m-8 1h1m1 0h1m5 0h1m-3 1h1m-9 1h1m68 1h1m-67 1h1m5 0h1m8 0h2m-18 1h1m2 0h1m5 0h1m10 0h1m-11 1h1m7 0h1m-14 1h2m16 0h1m-17 1h1m1 0h2m-6 1h1m6 0h1m11 0h2m5 2h1m-24 1h1m4 0h1m4 0h1m1 0h1m-8 1h1m4 1h1m14 1h1m1 0h1m2 0h1m-17 1h1m13 0h1m-15 1h2m1 0h1m8 0h2m-6 1h1m7 0h1m-14 1h2m1 0h2m9 0h1m1 0h1m6 0h1m-19 1h1m3 0h1m4 0h2m5 0h1m-4 1h1m1 0h1m-18 1h1m19 0h1m1 0h1m-18 1h2m8 0h2m2 0h1m1 0h1m-7 1h1m-4 1h1m1 0h1m4 0h1m2 0h1m2 0h1m-13 1h2m7 0h1m-10 1h1m5 0h1m3 1h1m-68 1h1m62 0h1m5 0h1m-68 1h1m11 24h1m0 1h1m47 29h1m-50 4h1m3 0h1m-5 3h1"/><path stroke="#30c1f8" d="M50 6h1m9 4h1m4 1h1m1 1h1m9 4h1m1 1h1m-49 5h1m2 0h1m2 1h1m-4 1h1m59 1h1m-60 1h1m0 1h1m1 0h1m1 0h1m-12 1h1m1 0h1m16 0h1m49 0h1m-63 1h1m0 1h1m1 0h1m9 0h2m50 0h1m-65 1h1m9 0h1m4 0h1m49 0h1m-73 1h1m13 0h1m3 0h1m5 0h1m48 0h1m-59 1h1m3 0h1m2 0h1m-19 1h1m10 0h1m-4 1h1m1 0h3m7 1h2m-7 1h1m3 0h2m-4 1h1m1 0h1m-6 1h1m4 0h1m3 0h1m5 0h1m2 0h1m-18 1h1m3 0h1m7 0h1m32 0h1m-47 1h1m6 0h1m4 1h1m9 0h1m21 0h1m-25 1h1m2 0h2m-11 1h2m3 0h1m1 0h1m4 0h1m1 1h1m-1 1h1m-14 1h1m1 0h1m5 0h1m9 0h1m3 1h1m-14 1h1m-2 1h1m4 0h1m-67 1h1m66 0h1m5 0h1m-10 1h1m5 1h2m-2 1h1m2 0h1m-4 1h2m-60 2h1m5 3h1m2 22h1m-1 1h1m0 1h1m74 12h1m-76 17h1m-3 2h1m1 0h1"/><path stroke="#31c1f9" d="M51 6h1m2 1h1m-2 1h1m9 3h1M31 21h1m55 0h1m-53 2h2m54 0h1m-62 2h2m7 0h1m-10 1h1m65 0h1m-64 1h1m4 1h1m-5 1h1m3 0h1m-8 1h1m6 1h1m12 0h1m51 0h1m-71 1h1m1 0h1m5 0h1m63 0h1m-70 1h2m13 0h1m-9 1h1m3 0h1m3 0h1m-9 1h1m6 0h1m-9 1h2m-1 1h1m18 0h1m1 0h1m-15 1h1m11 0h1m4 0h1m-24 1h1m9 0h2m-6 1h1m5 0h1m2 1h1m2 0h2m2 0h1m-9 1h1m5 0h1m-10 1h1m8 1h1m0 1h1m1 0h1m7 0h1m-11 1h1m1 0h1m11 0h1m1 0h1M3 47h1m65 0h1m3 0h1m1 0h1m-9 1h1m2 0h1m1 0h1m0 2h1m7 0h1m-10 1h1m3 0h1m1 0h1m1 0h1m4 0h1m-2 1h1m-8 1h3m2 2h1m1 0h1m-4 1h1m1 1h1M31 79h2m-3 3h1m64 22h1m-27 1h1m-43 8h1m1 0h1m53 0h1"/><path stroke="#2988c9" d="M56 6h2m4 2h1m3 3h1m1 0h1m0 1h1m8 4h1m4 2h1m-41 7h1m3 1h1m52 2h1m-56 1h1m58 2h1m2 0h2m-75 2h1m77 0h1m-77 1h1m2 2h1m22 0h1m-21 1h1m15 1h1m-10 3h1m9 5h1m1 2h1M5 49h1m57 0h1m1 2h1m2 0h1m0 1h2m-4 1h1m3 1h1m-57 1h1m30 0h1m-30 2h1m57 0h1m-50 3h2m6 0h1m1 0h1m-11 1h1m6 0h1m4 0h1m-7 1h1m1 0h2M3 67h1m0 1h1m-3 1h2m2 0h1m58 0h1m1 1h1M3 71h1m6 0h3m58 1h1M6 73h1m8 0h1m32 0h1m1 0h1m-40 1h1m34 0h1m-32 1h1m57 0h1m-62 1h1m6 0h1m27 0h1m29 0h1m-32 1h1m1 0h1m23 0h1m-55 1h1m19 0h1m40 0h1m-59 1h1m23 0h1m33 0h1m-46 1h1m-9 1h1m6 0h2m0 1h1m4 0h1m-7 1h2m-8 1h1m89 11h1m-3 1h1m-6 3h1m-3 1h1m-50 1h1m1 1h1m-7 1h1m4 0h1m1 0h1m-60 1h1m2 1h1m56 0h1m3 0h1m-60 1h1m55 0h2m1 0h1m1 0h1m0 1h1m-59 1h1m57 0h1m-53 2h2m67 0h1m-48 1h1m32 0h1m11 0h1m-3 1h1m-50 1h1m-14 1h2m10 0h1m2 0h1m-2 1h1m-4 1h1m2 0h1m45 0h2m-51 1h1"/><path stroke="#295161" d="M58 6h2m2 1h1m1 1h1m1 1h1m4 3h1m43 9h1m-24 1h1m20 0h1m3 0h1m-7 1h1m-15 2h1m12 6h1m1 1h1m-8 2h1m8 0h2m-15 1h1m5 0h1m5 0h1m-12 1h1m7 0h1m0 1h1m1 0h1m4 0h1m-1 1h1m-20 1h1m10 0h1m-14 1h1m-4 1h1m-1 2h1m-2 1h1m-4 3h1m5 1h1m-1 1h2m-5 1h1m1 0h1m-39 1h1m1 0h1m31 0h1m-41 3h1m36 0h1m-40 1h1m-3 1h2m39 0h1m-12 1h1m-22 1h2m19 0h1m12 0h1m15 6h2m-65 1h1m10 0h1m33 0h1m-77 1h1m39 0h1m55 0h1m-97 1h1m46 0h1m44 0h2m1 0h1m-51 1h1m-3 1h2m1 0h1m42 0h1m2 0h1m-49 1h1m41 0h1m5 0h1m-54 1h1m1 1h1m42 0h1m1 0h1m20 0h1m-68 1h1m4 0h1m61 0h1m-68 1h1m36 0h1m3 0h1m-41 1h1m38 0h2m1 0h1M54 88h1m-7 1h1m-7 1h1m11 2h1m-7 3h1m-1 1h1m56 2h1m13 0h1m-66 1h1m63 0h1m-4 1h1m2 0h1m-77 2h1m13 3h1m30 5h1m1 1h1m-3 1h1m-3 1h1"/><path stroke="#285161" d="M60 6h1m11 6h1m5 3h1m38 6h1m-4 2h1m-1 1h1m-8 1h3m-6 1h1m-2 2h1m3 5h1m5 0h1m-11 1h1m4 0h1m-4 1h1m5 0h1m0 1h1m3 0h1m-10 1h2m-10 1h1m4 0h1m4 0h1m6 0h1m-21 1h2m-3 3h1m18 1h1m-23 1h1m1 1h1m10 0h1m-3 1h1m-8 1h1m-9 2h2m5 0h1m-8 1h2m-35 1h2m-4 1h1m37 0h1m-38 1h1m-5 1h1m35 2h2m-47 2h1m36 0h1m-40 1h1m-4 2h2m50 0h2m17 0h1m-96 2h1m75 0h1m19 0h1m-65 1h1m45 0h1m14 0h1m-52 2h1m51 1h1m-9 2h1m-46 1h1m4 0h1m43 0h1m-43 1h1m31 0h1m2 0h2m-47 1h1m43 1h1m22 0h1m-63 1h1m40 0h1m21 0h2m-31 1h2m-3 1h1m2 0h1m1 0h1M11 89h1m42 0h1m-13 3h1m-1 1h1m-1 3h1m76 0h1m-69 1h1m-1 1h2m1 0h1m62 2h1m-4 1h1m-55 2h1m-5 1h2"/><path stroke="#41e9f8" d="M84 6h1m1 1h1M44 8h1m32 0h2m4 0h1m1 0h1m4 0h1m5 0h1M41 9h1m1 0h1m2 0h1m26 0h1m-33 1h2m2 0h2m5 0h1m22 0h1m2 0h1m15 0h1m8 0h1m-64 1h1m9 0h1m36 0h1m11 0h3m1 0h1m-42 1h1m40 0h2m1 0h1m-6 1h1m5 0h1m2 0h2m-3 2h1m-76 1h1m38 0h1m37 0h1m6 0h1m-83 1h1m-5 1h1m80 0h1m-2 3h1m-72 1h2m67 0h1m-15 8h2m1 2h1m0 1h1m-36 1h1m0 1h2m-45 1h1m-1 1h1m15 0h1m-22 1h1m2 0h1m73 0h1m-81 1h1m-1 1h1m1 0h1m-4 2h1M4 43h1m15 0h1m61 0h1M2 44h1m18 0h1m62 0h1m3 0h1M0 45h1m14 0h1m72 0h1m-66 1h1m-6 1h1m7 0h1m-4 1h1m-3 1h1m1 0h1m1 0h1m-6 1h1m2 0h1m-1 1h1m1 0h1m3 0h1m-4 2h1m2 0h1m-6 1h1m6 0h1m-3 1h1m-3 1h1m5 1h1m1 0h1m-7 1h1m0 1h1m82 39h1m-12 2h1m-6 1h1m-3 2h1m-3 1h1m-15 3h1m8 0h1m-7 5h1m2 0h1"/><path stroke="#31c0f8" d="M51 7h3m2 1h1m1 1h2m6 3h1m14 6h1m3 2h1m-49 4h1m3 0h1m-5 1h1m-5 1h1m2 0h1m10 1h1m49 0h1m-62 1h1m-6 1h2m-4 1h1m1 1h1m14 0h1m1 0h2m-4 1h1m5 0h2m2 0h1m-14 1h1m9 0h1m49 0h1m-63 1h1m7 0h1m-2 1h1m14 0h1m36 0h1m-57 1h1m4 0h1m-3 3h1m3 0h1m4 0h1m11 0h1m-7 1h1m1 0h1m-1 1h1m4 0h1m1 0h1m0 1h1m1 0h1m-19 1h1m4 0h1m3 0h2m9 0h1m-9 1h1m7 0h1m2 0h1m-20 1h1m9 0h1m2 0h2m-17 1h1m9 0h1m-5 1h1m3 1h1m11 0h1m1 0h1m-10 1h1m2 0h1m1 1h1m5 1h1m1 0h1m-9 1h1m1 0h1m-4 2h1m-37 3h1m-3 1h1m-8 22h1m-2 1h1m71 19h1m-83 10h1m9 3h1m-1 3h1"/><path stroke="#2988c8" d="M59 7h1m3 2h1m4 3h1m1 0h1m11 6h1m1 1h1m2 1h1m0 1h1m-44 4h1m-3 1h1m2 1h1m-5 1h2m-2 1h1m2 1h1m58 0h1m-75 1h1m29 1h1m44 1h1m5 0h1m-75 2h1m8 4h1m0 1h2m63 2h1m-60 1h1m7 4h2M1 49h1m5 1h1m57 0h1M9 51h1m54 0h1m4 0h1m-18 1h1m-42 1h1m54 0h1m5 0h2m1 1h1m-62 1h1m1 0h1m56 0h1m4 0h1m-63 1h1m32 0h1m-29 1h1m59 0h1m-59 1h1m52 0h1m6 0h1m-46 1h1m-14 2h1m1 0h2m1 0h1m68 6h1M4 69h1m2 0h1m54 0h1M8 70h1m84 0h1M5 71h3m62 1h1m-5 1h1m1 0h1m-3 1h1m3 0h1m-60 1h1m7 0h1m28 0h1m1 0h1m19 0h2m-58 1h1m5 1h1m20 0h1m8 0h1m23 0h1m-32 1h2m3 0h1m27 0h1m-55 1h1m13 0h1m6 0h1m-22 2h1m5 0h1m11 0h1m-13 1h1m9 1h1m70 15h2m0 2h1M2 101h1m108 0h1M2 102h1m2 0h1m56 1h1m-57 1h1m1 0h2m55 0h1m-60 1h1m5 2h2m54 0h1m3 0h1m-59 2h1m1 0h1m53 0h1m7 0h1m-3 1h1m-61 1h1m58 0h1m-58 1h1m1 0h2m1 0h1m-3 1h1m3 0h1m1 1h1m11 0h1m42 0h1m-55 1h2m7 0h2m42 0h1m-53 2h1"/><path stroke="#295160" d="M60 7h1m18 9h1m14 7h1m21 0h1m-9 1h1m-3 1h1m4 0h1m-10 2h1m1 0h1m1 2h1m5 5h1m-9 1h1m7 0h1m3 0h1m-11 1h1m1 0h1m4 0h1m-12 1h2m12 0h1m-16 2h1m16 1h1m-24 1h1m20 0h1m-1 1h1m-8 1h1m6 0h1m-26 2h1m0 1h1m4 2h1m-40 2h1m32 0h1m-4 1h1m1 0h1m1 0h1m-6 2h1m-41 2h1m38 0h3m-43 1h1m52 1h1m-57 1h1m42 0h1m-47 1h1m13 0h2m29 0h1m-34 1h1m36 0h1m-78 4h1m91 0h1m-63 1h1m60 0h1m4 0h1m-4 1h1m-68 1h1m64 2h1m-49 1h1m1 1h1m42 0h1m-52 1h1m40 0h1m2 0h1m1 0h1m22 0h1m-72 1h1m43 0h1m-39 1h1m34 0h1m-1 1h1m2 0h1m26 0h1M49 86h1m-4 2h1m-36 2h1m36 1h1m-7 3h1m76 3h1m-3 1h1m-76 2h1m-1 1h1m5 0h1m10 1h1m-5 2h1m34 7h1m-1 1h1m-1 1h1m-6 2h1"/><path stroke="#40e8f8" d="M76 7h1m9 1h1m10 0h1M78 9h1m4 0h1m6 0h1m8 0h1m-50 1h1m23 0h1m-36 1h1m1 0h1m11 0h1m4 0h1m25 0h1m-48 1h1m60 0h1m7 1h1m7 1h1m-44 1h1m35 0h1m5 1h1m1 0h1m-6 1h1m1 0h1m1 0h1m-80 1h2m76 1h1m-63 8h1m42 1h1m-73 6h1m-4 2h3m15 0h1m60 0h1m-83 1h2m54 1h1m-59 2h1m10 0h1m51 0h1M8 41h1m15 0h1m22 0h1m-31 1h1m6 0h1m-6 1h1m31 0h1m37 0h1m-37 1h1m36 0h1m-75 1h1m8 0h2m-6 2h1m-4 1h1m3 0h1m3 0h2m-8 1h1m4 1h1m-8 1h1m1 0h1m3 2h1m5 0h1m1 2h1m1 0h1m-5 1h1m6 0h1m-11 2h2m2 1h1m3 0h2m82 36h1m-10 1h1m-12 4h1m-41 1h1m38 1h1m-21 8h1m10 0h1m-66 1h1"/><path stroke="#40e9f8" d="M77 7h1m11 1h1m1 0h2m-5 1h1m3 0h1m-49 1h1m8 0h1m17 0h1m12 0h1m12 0h1m-46 1h1m36 0h1m6 0h1m-58 1h1m62 0h1m6 0h1m-45 1h1m32 0h1m5 0h2m0 1h1m2 0h1m2 0h1m-33 1h1m30 0h1m-38 1h1m35 0h1m-76 1h1m83 0h1m-3 1h1m-87 2h1m57 3h1m-35 6h1m40 0h1m-33 4h1m-41 1h1m74 0h2m-2 1h1m-78 2h1m-9 1h1m3 1h1m6 0h1m48 0h1m-65 1h1m12 0h1m-7 1h1m2 0h1m-7 2h1m1 0h1m6 0h1m1 0h1m0 1h1m-7 1h1m-1 1h1m3 0h1m1 3h1m-10 1h3m2 1h1m4 0h2m-8 1h1m1 0h1m3 0h1m-8 1h1m4 2h1m-1 1h1m3 0h1m1 0h1m-4 1h2m6 0h1m2 0h1m-4 1h1m-8 1h1m2 0h1m67 7h1m16 28h1m-9 2h1m3 0h1m3 0h1m-7 1h1m-12 3h1m-1 1h1m-4 1h1m-11 9h1"/><path stroke="#30c0f9" d="M54 8h1M32 22h1m3 2h1m-1 1h1m1 0h1m-8 1h1m9 0h1m-11 1h2m2 0h1m3 0h1m-3 1h1m9 0h1m-19 1h1m69 0h2m-68 1h1m12 0h1m1 0h1m2 0h1m-11 1h1m-8 1h1m10 0h1m4 0h1m-19 1h1m11 0h1m1 0h1m7 0h1m2 0h1m-20 1h1m1 0h1m1 0h1m3 0h1m3 0h1m1 0h1m-17 1h1m3 0h1m6 0h1m-7 1h1m3 0h4m-3 1h1m8 0h1m7 0h1m-15 1h1m2 0h1m2 0h1m1 0h1m7 0h1m-4 1h1m2 0h1m3 0h1m-24 1h1m12 0h1m11 0h1m-11 1h1m10 0h1m-11 1h1m-11 1h1m14 0h1m1 0h1m3 0h3m-17 1h1m5 0h1m-5 1h1m6 0h2m-9 1h2m3 1h2m2 0h1m6 0h1m-9 1h1m1 0h1m1 0h1m4 0h1m7 0h1m-18 1h1m4 0h1m2 0h1m6 0h1m-16 1h1m7 0h1m2 0h1m2 0h1m-13 1h1m3 0h1m-1 1h2m5 0h2m-8 1h1m5 0h1m1 1h1m-54 6h1m-3 19h1m0 1h1m1 3h1m76 12h1m1 1h1m-45 8h1m15 7h1m-56 2h1m2 1h2m-1 2h1m-1 1h1"/><path stroke="#2889c8" d="M59 8h1m4 1h1m9 5h1m0 1h2m4 2h1m-38 7h1m48 0h1m-50 1h1m57 4h1m1 0h1m-77 1h1m74 0h1m-75 1h1m1 1h1m1 1h1m25 0h1m-1 2h1m39 1h1m-5 3h1m-46 2h1m0 1h1m59 0h1m-55 3h1M0 46h1m61 3h1M3 50h1m57 0h1m4 0h1m-4 1h1m0 1h1m2 0h1m-53 2h1m35 1h1m33 0h1m-8 1h1m-59 1h1m55 0h1m-57 1h2m23 0h1m-23 1h1m19 0h1m40 0h1m-56 2h1m0 1h1M1 66h1m2 1h1m3 2h1m-5 1h2m1 0h1m2 0h1m-7 1h1m58 0h2m2 0h1m-56 1h1m38 0h1m11 0h1m-51 1h1m56 0h1M8 74h1m3 0h1m35 0h1m30 0h1m-70 1h1m5 0h1m27 0h1m4 0h1m27 0h1m1 0h1m-59 1h1m26 0h1m-28 1h1m2 0h1m22 0h1m28 0h1m1 0h1m-59 1h1m18 0h1m2 0h1m4 0h1m29 0h1m-60 1h1m1 0h1m2 0h1m4 0h1m4 0h1m4 0h1m7 0h1m-23 1h3m1 0h1m12 0h1m-17 1h1m12 0h2m-15 1h1m82 15h1m-9 2h1M1 100h1m111 0h1m-2 1h1m-19 1h1m-89 1h2m53 1h1m1 0h2m-54 2h1m52 0h1m4 0h1m-1 1h1m-54 1h1m51 0h1m1 0h1m3 0h1m-60 1h1m55 0h1m1 0h1m0 1h1m1 1h2m-56 1h1m56 0h1m-58 1h1m1 0h1m11 0h1m1 0h1m1 0h1m42 2h1"/><path stroke="#285060" d="M63 8h1m5 3h2m4 3h1m17 9h1m18 0h1m-17 1h1m3 2h1m4 1h1m10 1h1m-13 6h1m6 0h1m-9 1h1m11 0h1m-15 1h1m7 0h1m-10 1h1m13 1h2m-16 1h1m15 0h2m-8 1h1m4 0h1m1 0h1m-22 1h1m20 0h1m-25 1h2m12 1h2m8 0h1m-24 1h1m12 0h1m-16 1h2m-4 1h1m-2 2h1m0 1h1m-32 1h1m-2 1h1m28 0h1m0 1h2m-4 1h1m1 0h1m9 1h2m-50 1h1m-8 2h2m1 0h1m41 0h2m-3 1h1m0 1h1m19 1h1m-19 3h1m18 0h1m-21 1h1m18 0h1m-3 1h2m-10 3h1m4 0h2m1 0h1m-48 1h1m40 0h1m-41 1h1m-8 1h1m43 0h1m3 0h1m-11 1h1m-38 1h1m33 0h2m-47 2h1m73 0h1m1 0h1m-31 1h1m-51 1h1m49 0h1m-36 7h1m-3 1h1m1 0h1m-8 2h1m-3 1h1m-35 5h1m42 1h1m-13 1h1m63 0h1m-53 1h1m51 0h1m-59 1h1m5 0h1m51 0h1m11 0h1m-66 1h1m-1 1h1m60 0h1m-61 1h1m59 0h1m0 1h1m-74 2h1m15 0h1m-2 2h1m27 6h1m0 2h1"/><path stroke="#91a9a9" d="M108 8h1m3 2h1m5 3h1m-40 2h1m-51 9h1m73 2h1m-64 3h1m57 18h1m-38 4h1m7 4h1m-22 2h1m-31 1h1m27 0h1m62 0h1m-51 1h1m41 1h1m-78 1h1m78 0h1m-66 1h1m6 0h2m-12 1h1m-20 1h1m79 0h1m-59 2h1m18 0h1m31 0h1m-78 2h1m37 0h1m13 0h1m-49 2h1m33 0h1m-14 1h1m32 0h1m-34 2h1m6 0h1m18 0h1m-27 2h1m1 0h1m-25 3h1m40 2h1m-14 1h1m10 0h1m-6 2h1m1 0h1m-25 1h1m17 1h1m-2 1h1m-4 1h1m-30 4h1m43 0h1m-8 2h1m-1 1h1m66 0h1M15 96h1m40 0h1m-1 1h1m-16 6h1m9 0h1m2 0h1m-15 2h1m-1 3h1m2 0h1m-3 2h1m42 1h1m-1 2h1"/><path stroke="#90a8a9" d="M110 9h1m-34 5h1m13 7h1m3 2h1m-50 1h1m70 2h1m-74 2h1m73 0h1m-1 2h1m-1 3h1m-58 1h1m-6 2h1m2 2h1m37 5h1m2 8h1m-4 1h1m-33 1h1m36 1h1m-91 1h1m37 1h1m20 0h1m31 1h1m-8 2h1m7 1h1m-59 4h1m12 1h1m34 0h1M5 67h1m-5 4h1m44 0h1m-10 1h1m9 0h1m13 0h1M5 73h1m59 1h1m11 0h1m-42 4h1m18 1h1m-3 1h1m3 0h1m-7 2h1m4 1h1m-8 8h1m-36 1h1m34 0h1m-36 1h1m-4 1h1m103 1h2m-3 1h1m-75 3h1m0 1h1m7 0h1m-10 2h1m8 0h1m5 0h1m-1 1h1m-15 3h1m46 3h2"/><path stroke="#49f9f8" d="M43 11h1m3 0h1m1 0h1m1 1h1m1 0h1m25 0h2m-39 1h1m1 0h1m3 0h1m14 0h1m13 0h1m1 0h1m6 0h1m6 0h1m-46 1h1m2 0h1m10 0h2m34 0h1m3 0h1m-66 1h1m1 0h1m1 0h1m13 0h1m26 0h2m1 0h1m1 0h1m9 0h1m2 0h1m1 0h1m-58 1h1m1 0h2m35 0h1m9 0h1m6 0h1m-53 1h1m19 0h1m23 0h1m8 0h1m1 0h1m1 0h1m-67 1h2m6 0h1m1 0h1m10 0h1m11 0h1m19 0h2m7 0h1m-63 1h1m1 0h1m1 0h1m6 0h1m8 0h1m2 0h1m4 0h1m2 0h3m16 0h1m2 0h1m9 0h2m5 0h1m-57 1h1m2 0h1m3 0h1m7 0h1m1 0h1m33 0h1m5 0h1m-72 1h1m5 0h1m6 0h1m7 0h1m3 0h1m4 0h1m12 0h1m17 0h1m2 0h1m-50 1h1m7 0h1m3 0h1m4 0h2m11 0h1m12 0h2m-52 1h1m11 0h1m4 0h3m4 0h1m33 0h1m-50 1h1m19 0h1m9 0h1m17 0h1m-57 1h1m6 0h1m11 0h1m1 0h1m9 0h1m-26 1h1m5 0h1m4 0h1m5 0h1m10 0h1m1 0h1m5 0h1m-5 1h1m-8 1h1m-21 1h1m27 0h1m1 0h1m-28 1h1m15 0h1m-11 1h1m4 0h1m1 0h1m7 0h1m7 0h1m-26 1h1m1 0h2m17 0h1m3 0h1m1 0h1m-68 1h1m40 0h1m3 0h1m1 0h1m2 0h1m1 0h1m3 0h1m2 0h1m3 0h1m2 0h1m2 0h1m-27 1h1m1 0h1m14 0h1m-4 1h1m2 0h1m8 0h1m-68 1h1m40 0h1m2 0h1m2 0h1m7 0h1m7 0h3m-23 1h1m3 0h2m1 0h2m14 0h1m-12 1h1m7 0h1m-65 1h1m5 0h1m4 0h1m1 0h1m38 0h1m13 0h1m-67 1h1m57 0h1m5 0h2m-56 1h1m48 0h1m1 0h1m-63 1h2m1 0h1m3 0h1m5 0h1m42 0h2m6 0h1m-63 1h1m7 0h1m2 0h2m1 0h1m41 0h1m-55 1h1m5 0h1m9 0h2m2 0h1m-20 1h1m7 0h1m10 0h1m1 0h1m-13 1h2m9 0h1m-21 1h1m7 0h1m-8 1h1m10 0h1m8 0h1m-22 1h1m6 0h1m6 0h1m7 0h1m-22 1h1m13 0h1m-17 1h1m13 0h1m1 0h1m-11 1h1m10 0h1m-16 1h1m11 0h1m-6 1h1m-1 2h1m-27 1h1m90 5h1m-6 2h1m-4 1h1m9 28h1m-4 2h1M5 101h1m62 3h1"/><path stroke="#48f8f9" d="M44 11h1m-3 1h2m8 0h1m4 0h1m17 0h1m-35 1h1m40 0h1m4 0h1m-39 1h1m15 1h1m32 0h2m-48 1h1m5 0h2m2 0h2m6 0h1m22 0h1m-52 1h2m1 0h1m20 0h1m1 0h1m16 0h1m1 0h1m15 0h1m-47 1h1m9 0h1m21 0h1m18 0h1m-63 1h1m2 0h1m5 0h1m11 0h1m8 0h1m2 0h1m8 0h2m2 0h1m-47 1h1m1 0h1m1 0h1m5 0h1m3 0h1m1 0h1m2 0h1m1 0h1m6 0h1m21 0h1m6 0h1m2 0h1m-64 1h2m4 0h1m2 0h1m1 0h1m27 0h1m1 0h1m22 0h1m2 0h1m-53 1h1m2 0h1m3 0h1m11 0h3m14 0h1m-46 1h1m21 0h1m4 0h1m4 0h1m1 0h1m1 0h3m11 0h1m-44 1h1m11 0h1m1 0h1m-12 1h1m2 0h2m3 0h1m7 0h1m3 0h1m-27 1h1m4 0h1m3 0h1m12 0h1m10 0h1m3 0h1m-30 1h1m1 0h1m3 0h1m3 0h2m6 0h1m10 0h1m-30 1h1m5 0h1m18 0h1m5 0h1m-35 1h1m2 0h1m11 0h2m8 0h1m-23 1h1m5 0h1m12 0h1m10 0h2m-30 1h1m1 0h1m2 0h1m1 0h1m4 0h1m4 0h1m10 0h1m4 0h1m-24 1h2m2 0h1m18 0h1m-65 2h1m43 0h1m3 0h1m4 0h1m2 0h1m8 0h1m-72 1h2m40 0h1m17 0h1m4 0h1m5 0h1m-71 1h1m4 0h3m1 0h1m50 0h2m-54 1h1m38 0h1m3 0h1m11 0h1m1 0h1m-65 1h1m8 0h2m47 0h1m4 0h1m-57 1h1m47 0h1m-53 1h2m2 0h2m6 0h1m35 0h1m8 0h1m-53 1h1m6 0h1m1 0h1m39 0h1m6 0h1m-62 1h1m3 0h1m12 0h1m33 0h1m2 0h1m1 0h1m-46 1h1m1 0h1m1 0h1m3 0h1m33 0h1m-52 1h2m5 0h3m9 0h1m-26 1h1m1 0h2m7 0h1m15 0h1m-12 1h1m1 0h3m3 0h1m-25 1h2m5 0h1m15 0h1m1 0h1m-16 1h1m12 0h1m6 0h1m-25 1h1m16 0h1m2 0h1m-24 1h1m17 0h1m-12 1h1m3 0h1m4 0h1m2 1h1m-7 1h2m-10 1h1m8 0h2m-5 2h1m61 6h1m-2 2h1M15 81h1m48 21h1m11 6h2m4 2h1m-45 1h1m-12 1h1"/><path stroke="#48f9f8" d="M45 11h1m-6 1h1m35 0h2m6 0h2m-46 1h1m6 0h1m4 0h1m1 0h2m3 0h2m24 0h1m5 0h1m2 0h2m-58 1h1m11 0h1m15 0h1m14 0h1m4 0h2m4 0h1m-55 1h1m1 0h1m7 0h1m8 0h1m1 0h1m31 0h1m9 0h1m-58 1h1m8 0h1m3 0h1m3 0h1m5 0h2m2 0h1m10 0h1m4 0h1m4 0h1m-55 1h1m12 0h2m6 0h1m34 0h2m2 0h1m6 0h1m-68 1h2m9 0h1m2 0h1m1 0h1m4 0h1m8 0h1m1 0h1m17 0h1m-42 1h1m2 0h1m3 0h1m19 0h1m16 0h1m8 0h2m3 0h1m-66 1h2m1 0h1m9 0h1m18 0h1m28 0h1m-42 1h1m13 0h1m4 0h1m17 0h1m4 0h1m-33 1h1m13 0h1m10 0h3m9 0h1m-45 1h2m12 0h1m-29 1h1m5 0h1m3 0h1m20 0h1m19 0h1m3 0h1m-50 1h1m4 0h1m4 0h1m5 0h1m2 0h1m10 0h1m14 0h1m-51 1h2m5 0h1m1 0h1m10 0h1m3 0h1m4 0h1m9 0h1m-36 1h2m21 0h1m2 0h1m2 0h1m4 0h1m3 0h1m-39 1h1m15 0h1m5 0h1m1 0h2m2 0h2m9 0h1m-38 1h1m11 0h1m8 0h1m9 0h1m1 0h1m-16 1h1m2 0h1m3 0h1m1 0h1m3 0h2m4 0h1m-30 1h1m6 0h2m4 0h2m-11 1h1m10 0h1m5 0h1m-8 1h1m9 0h1m2 0h1m-67 1h2m44 0h1m12 0h1m5 0h2m6 0h1m-30 1h1m1 0h1m2 0h1m2 0h1m4 0h1m2 0h1m-61 1h1m9 0h1m41 0h1m2 0h1m2 0h1m5 0h2m-63 1h1m3 0h1m3 0h1m36 0h1m14 0h1m2 0h1m-56 1h1m38 0h1m1 0h1m4 0h1m-54 1h2m11 0h1m34 0h1m13 0h2m-64 1h1m4 1h1m2 0h1m52 0h1m-65 1h1m11 0h1m-3 1h1m11 0h2m37 0h2m-60 1h1m13 0h1m1 0h1m4 0h1m-9 1h1m6 0h1m-11 1h1m-11 1h1m11 0h1m2 0h1m9 0h1m3 0h1m-29 1h1m1 0h1m1 0h1m4 0h3m-12 1h1m10 0h2m2 0h1m5 0h1m-11 1h1m3 0h1m3 0h1m4 0h1m-21 1h1m13 0h1m2 0h2m-19 1h1m7 0h1m1 0h1m1 0h1m-15 1h1m2 0h2m3 0h2m1 2h1m60 7h1m-1 1h1m-11 3h1m-2 2h1M15 82h1m89 12h1m5 1h1m-101 9h1m3 2h1"/><path stroke="#49f9f9" d="M46 11h1m-1 1h1m1 0h3m4 0h1m22 0h1m-33 1h1m11 0h1m3 0h1m27 0h1m5 0h1m-53 1h1m8 0h1m2 0h1m33 0h1m3 0h1m2 0h1m-56 1h1m2 0h1m10 0h1m3 0h1m7 0h1m15 0h1m4 0h2m3 0h1m-52 1h1m7 0h1m3 0h1m10 0h1m2 0h1m21 0h1m16 0h1m-53 1h1m13 0h1m2 0h2m16 0h1m-49 1h1m7 0h1m3 0h1m10 0h1m4 0h1m2 0h1m32 0h1m2 0h1m-72 1h1m12 0h1m27 0h1m15 0h1m-52 1h1m3 0h1m2 0h1m20 0h1m6 0h1m1 0h1m14 0h1m2 0h1m8 0h1m-52 1h1m4 0h1m2 0h1m9 0h1m16 0h1m1 0h1m-53 1h1m2 0h1m1 0h2m1 0h2m11 0h1m1 0h1m1 0h2m6 0h1m4 0h1m5 0h1m-36 1h1m6 0h1m14 0h1m23 0h1m-51 1h1m1 0h1m9 0h1m3 0h1m1 0h2m6 0h1m11 0h1m14 0h1m-41 1h1m10 0h1m5 0h1m3 0h1m6 0h1m14 0h1m-42 1h1m1 0h1m3 0h1m1 0h1m10 0h1m1 0h1m2 0h1m-22 1h1m1 0h1m1 0h1m7 0h1m10 0h1m1 0h1m-33 1h1m4 0h1m1 0h1m2 0h1m3 0h1m-9 1h1m1 0h1m2 0h1m5 0h1m1 0h1m2 0h1m12 0h1m-33 1h1m3 0h1m1 0h1m2 0h1m4 0h1m1 0h1m3 0h1m4 1h1m6 0h1m-68 1h1m37 0h1m14 0h1m2 0h2m-55 1h1m40 0h1m3 0h1m8 0h1m-18 1h1m5 0h1m7 0h1m11 0h1m1 0h1m-65 1h1m2 0h1m37 0h1m2 0h1m3 0h1m12 0h1m-63 1h2m64 0h1m-64 2h1m40 0h1m8 0h1m9 0h1m-68 1h2m5 0h1m2 0h2m37 0h1m12 0h1m-62 1h1m12 0h2m48 0h1m-65 1h2m2 0h1m59 1h1m-58 1h1m5 0h1m7 0h1m-10 1h1m7 0h1m-13 1h2m14 0h1m-23 1h1m6 0h1m20 0h1m-26 1h1m16 0h2m3 0h1m-25 2h1m13 0h1m8 0h1m-19 1h1m-3 1h1m2 0h2m-6 1h1m7 0h1m7 0h1m-10 1h1m-3 1h1m1 0h1m2 0h1m-4 1h2m66 5h1m-5 2h1m-4 2h1m1 1h1m-7 1h1m-3 1h1m3 0h1m-6 2h1m11 27h1M3 100h1m56 0h1m13 7h1m-56 1h1"/><path stroke="#48f9f9" d="M48 11h1m-8 1h1m3 1h1m3 0h1m3 0h1m2 0h1m31 0h1m-43 1h1m5 0h1m2 0h1m1 0h2m1 0h1m22 0h1m9 0h1m5 0h1m3 0h1m-60 1h1m6 0h1m9 0h1m5 0h1m2 0h1m25 0h1m-57 1h1m5 0h1m17 0h1m21 0h1m1 0h2m12 0h1m1 0h1m-59 1h1m1 0h1m12 0h1m1 0h1m1 0h1m20 0h1m1 0h1m1 0h1m1 0h1m6 0h1m9 0h1m-65 1h2m22 0h1m6 0h1m1 0h1m8 0h1m11 0h1m3 0h1m2 0h1m2 0h1m1 0h1m-71 1h1m6 0h1m17 0h1m35 0h1m6 0h1m1 0h1m-42 1h1m8 0h1m11 0h1m1 0h1m1 0h1m3 0h1m2 0h1m-61 1h1m7 0h1m4 0h1m8 0h1m4 0h1m2 0h1m8 0h1m3 0h1m13 0h1m5 0h1m2 0h1m-64 1h1m1 0h1m8 0h2m13 0h1m14 0h1m16 0h1m1 0h1m2 0h1m-51 1h1m2 0h1m11 0h1m4 0h2m24 0h1m-54 1h1m6 0h1m4 0h1m8 0h2m5 0h1m1 0h1m7 0h1m8 0h1m-35 1h1m4 0h1m3 0h1m2 0h2m23 0h1m-46 1h1m3 0h1m7 0h1m7 0h1m1 0h1m-26 1h1m2 0h2m15 0h2m7 0h1m1 0h1m-30 1h1m21 0h1m12 0h1m-28 1h1m2 0h1m5 0h1m7 0h1m5 0h1m4 0h1m-28 1h2m7 0h1m-8 1h1m15 0h1m6 0h1m-26 1h1m10 0h1m10 0h1m6 0h1m-66 1h1m41 0h1m14 0h1m1 0h1m1 0h1m-61 1h1m1 0h1m45 0h1m5 0h1m2 0h1m-57 1h1m63 0h1m-23 1h1m9 0h1m3 0h1m-62 1h1m1 0h1m6 0h1m2 0h1m37 0h1m6 0h1m6 0h1m-65 1h1m52 0h1m6 0h1m-8 1h2m7 0h1m-62 1h1m6 0h1m4 0h1m45 0h2m5 0h1m-61 1h1m1 0h1m5 0h1m1 0h1m4 0h1m34 0h1m4 0h1m1 0h1m-53 1h1m2 0h1m-12 2h1m1 0h1m18 0h1m-9 1h1m2 0h2m-17 1h1m1 0h1m17 0h1m5 0h1m-21 1h2m2 0h1m3 0h1m1 0h1m1 0h1m-6 1h1m3 0h2m1 0h1m5 0h2m-19 1h1m5 0h1m10 0h1m-19 1h1m1 0h1m0 1h1m-6 1h1m4 0h1m1 1h1m3 0h2m-5 1h1m-7 1h1m2 0h1m57 10h1m-5 2h1m1 0h1m12 25h1m-44 11h1m-50 4h1m62 0h1m-60 2h1m1 1h1"/><path stroke="#91a8a8" d="M71 11h1m42 0h1m-40 2h1m7 4h1m31 10h1m-2 1h1m3 3h1m-1 4h1m-22 9h1m2 1h1M2 50h1m56 5h1m43 0h1m-50 3h1m-35 1h1m76 0h1m-56 1h1m54 0h1m2 1h1m1 0h1m-56 1h1m58 0h1m-79 1h1m2 0h1m24 3h1m1 0h1m-43 1h1m39 0h1m-7 2h1m-38 2h1m30 1h1m27 0h1m44 0h1m-73 1h1M7 74h1m32 0h2m-21 1h1m16 0h1m-2 1h1m-25 1h1m3 2h1m57 0h1m-57 1h1m-4 2h1m19 2h2m9 0h1m2 0h1m-8 1h2m2 0h1m-6 1h1m1 1h1m4 0h1m-8 1h1m-26 1h1m22 0h1m-1 3h1m-25 1h1m24 1h1m76 0h1m-78 2h1m76 0h1m-70 1h1m-1 2h1m4 2h1m2 0h2m-2 1h1m-17 3h1m-2 2h1m39 1h1m5 1h1m3 1h1"/><path stroke="#48f8f8" d="M44 12h2m1 0h1m2 1h2m26 0h1m4 0h2m-43 1h2m17 0h1m17 0h2m3 0h1m4 0h1m10 0h1m-55 1h1m5 0h1m10 0h2m23 0h1m14 0h1m1 0h1m-69 1h1m16 0h1m1 0h1m3 0h1m42 0h1m1 0h1m-59 1h1m14 0h1m1 0h1m10 0h1m20 0h1m4 0h1m5 0h2m-65 1h1m8 0h1m10 0h2m6 0h1m13 0h1m5 0h1m12 0h1m-61 1h1m11 0h1m4 0h1m1 0h1m4 0h2m7 0h1m16 0h1m1 0h2m7 0h1m-65 1h1m12 0h1m2 0h2m6 0h1m8 0h1m2 0h1m19 0h1m14 0h1m-69 1h1m1 0h1m3 0h1m5 0h1m15 0h1m1 0h1m4 0h1m13 0h1m1 0h1m-47 1h1m3 0h1m5 0h1m13 0h2m6 0h2m25 0h1m-60 1h2m1 0h1m48 0h1m-51 1h1m1 0h1m7 0h1m2 0h1m5 0h1m3 0h1m7 0h1m19 0h1m2 0h1m-54 1h2m11 0h1m14 0h1m6 0h1m1 0h1m11 0h1m-51 1h1m14 0h1m12 0h1m-23 1h1m6 0h1m-8 1h1m6 0h1m6 0h1m2 0h1m9 0h1m-11 1h1m8 0h2m7 0h1m-35 1h1m10 0h1m13 0h2m8 0h1m-12 1h1m2 0h1m8 0h1m-7 1h1m-64 1h1m39 0h1m2 0h1m6 0h1m3 0h1m13 0h1m-21 1h1m-43 1h1m40 0h1m4 0h1m10 0h1m5 0h1m-25 1h1m3 0h1m15 0h1m5 0h1m-69 1h2m7 0h1m42 0h1m2 0h3m6 0h2m-66 1h1m4 0h1m4 0h2m38 0h3m7 0h1m4 0h1m-55 1h1m35 0h1m4 0h2m2 0h2m-48 1h1m40 0h1m1 0h2m-55 1h1m2 0h1m2 0h1m-7 1h1m56 0h1m2 0h1m-63 1h1m6 0h2m54 0h1m-56 1h1m8 0h1m41 0h2m-57 1h1m5 0h1m5 0h1m-11 1h1m2 0h1m1 0h1m5 0h1m-15 1h1m2 0h1m3 0h2m17 0h1m-26 1h1m11 0h1m14 0h1m-28 1h1m0 1h1m2 0h1m4 0h1m2 0h1m2 0h1m4 0h3m-24 1h1m19 1h1m-9 2h1m3 0h1m-12 1h1m6 0h1m64 5h1m-4 1h1m-4 2h2m-5 1h1m2 0h1m-3 2h1m-5 1h1m-4 1h1m1 0h2M14 81h1m93 14h1M7 102h1m5 3h1m56 0h1m9 4h1m-56 2h1"/><path stroke="#49f8f9" d="M54 12h1m3 0h1m22 0h1m-43 1h1m3 0h1m37 0h1m7 0h1m7 0h1m-44 1h1m9 0h2m16 0h1m5 0h1m2 0h1m3 0h1m5 0h1m-59 1h1m3 0h1m1 0h1m8 0h1m7 0h1m2 0h1m23 0h1m1 0h1m8 0h1m-67 1h1m2 0h2m6 0h2m32 0h1m1 0h1m4 0h1m4 0h1m1 0h1m1 0h2m5 0h1m-68 1h1m4 0h1m5 0h1m3 0h1m3 0h1m1 0h1m6 0h1m4 0h1m11 0h1m-43 1h1m4 0h1m10 0h1m1 0h1m1 0h1m14 0h1m12 0h1m4 0h1m2 0h1m5 0h1m-49 1h1m37 0h1m4 0h1m-56 1h1m6 0h1m11 0h1m12 0h1m4 0h1m8 0h1m1 0h1m11 0h1m3 0h1m1 0h1m-70 1h1m17 0h1m8 0h1m8 0h2m13 0h1m7 0h1m8 0h1m-57 1h1m8 0h1m17 0h1m20 0h1m2 0h1m1 0h1m-60 1h1m6 0h2m1 0h1m4 0h1m5 0h2m5 0h1m8 0h1m12 0h1m2 0h1m2 0h1m-35 1h1m8 0h1m5 0h1m-35 1h2m5 0h1m26 0h1m1 0h1m-14 1h1m3 0h1m3 0h1m6 0h1m-29 1h1m1 0h1m6 0h1m6 0h1m9 0h1m-31 1h1m11 0h1m12 0h1m9 0h1m-35 1h1m1 0h1m4 0h1m4 0h1m9 0h1m-11 1h1m2 0h1m16 0h2m-24 1h1m17 0h1m4 0h1m2 0h1m-28 1h1m9 0h1m5 0h1m7 0h1m4 0h1m-67 1h1m35 0h1m15 0h2m-55 1h1m37 0h1m1 0h2m-42 1h1m41 0h1m10 0h1m1 0h1m6 0h1m-65 1h1m47 0h1m10 0h1m9 0h1m-65 1h1m1 0h1m49 0h1m12 0h1m-71 1h1m3 0h1m1 0h1m2 0h1m40 0h1m10 0h1m-56 1h1m5 0h1m45 0h1m5 0h1m2 0h1m-64 1h1m3 0h1m7 0h1m1 0h1m36 0h1m-38 1h1m37 0h2m-52 1h2m7 0h4m1 0h1m41 0h1m-61 1h1m16 0h1m40 0h1m-51 1h1m2 0h1m-7 1h1m5 0h1m6 0h1m1 0h1m-19 1h1m1 0h1m4 0h1m10 0h1m6 1h1m1 0h1m-23 1h1m12 0h1m3 0h1m-17 1h1m3 0h1m6 0h3m-12 1h1m11 0h1m-9 1h2m6 0h1m-19 1h1m5 0h1m2 0h1m1 0h1m-10 1h1m4 0h1m-7 1h2m4 0h1m-4 1h1m4 0h1m2 0h1m-6 1h1m65 5h1m-7 4h1m-4 1h1M1 99h1m34 13h1"/><path stroke="#49f8f8" d="M56 12h1m25 0h2m2 0h1m-30 1h1m22 0h1m11 0h1m-54 1h3m3 0h1m1 0h1m11 0h1m25 0h1m10 0h1m-47 1h1m2 0h2m7 0h1m18 0h1m4 0h1m5 0h1m-54 1h1m25 0h1m6 0h1m23 0h1m1 0h1m8 0h1m-68 1h2m11 0h1m1 0h1m1 0h1m13 0h1m17 0h1m7 0h1m2 0h1m-45 1h1m6 0h1m11 0h1m15 0h1m4 0h2m2 0h2m-59 1h1m9 0h1m4 0h2m1 0h1m3 0h1m9 0h1m1 0h1m29 0h2m3 0h1m-66 1h1m16 0h1m3 0h1m8 0h1m16 0h1m12 0h1m4 0h1m-65 1h1m7 0h1m5 0h1m4 0h1m3 0h1m26 0h1m4 0h1m2 0h1m4 0h1m-53 1h1m40 0h1m1 0h1m-47 1h1m13 0h1m9 0h1m1 0h1m5 0h1m7 0h1m4 0h1m3 0h1m1 0h2m-56 1h1m7 0h1m14 0h1m5 0h1m2 0h1m2 0h1m10 0h1m2 0h1m-51 1h1m5 0h1m24 0h1m3 0h1m15 0h1m-50 1h1m9 0h1m-13 1h1m6 0h1m4 0h1m10 0h1m5 0h1m3 0h1m-29 1h1m2 0h1m1 0h2m7 0h1m2 0h1m9 0h1m2 0h3m-28 1h1m8 0h1m10 0h1m9 0h1m-18 1h1m10 0h1m8 0h1m-23 1h1m5 0h1m1 0h1m6 0h1m-18 1h2m5 0h1m2 0h1m5 0h1m3 0h1m-25 1h1m5 0h1m18 0h1m2 0h1m-69 1h1m2 0h1m44 0h1m2 0h2m2 0h1m6 0h1m2 0h1m1 0h1m1 0h1m-72 1h1m3 0h1m3 0h1m42 0h1m3 0h1m7 0h1m4 0h1m4 0h1m-71 1h1m49 0h2m1 0h1m-56 1h1m60 0h1m-61 1h1m3 0h1m56 0h1m1 0h1m-60 1h1m57 0h1m-53 1h1m49 0h1m1 0h1m-62 1h1m11 0h1m1 0h1m41 0h1m6 0h1m-55 1h1m7 0h1m1 0h1m-22 1h1m3 0h3m5 0h1m-12 1h1m4 0h1m-5 1h1m7 0h1m10 0h1m4 0h1m-26 1h1m6 0h1m5 0h1m9 0h1m2 0h2m-13 1h1m3 0h1m4 0h1m-23 1h1m6 0h1m1 0h1m6 0h1m5 0h1m2 0h1m-21 1h2m1 0h1m18 0h1m-26 1h1m4 0h1m5 0h1m1 0h1m-12 1h1m4 0h2m4 0h1m4 0h1m-17 1h1m2 0h1m8 0h1m-9 1h1m10 0h1m-12 1h1m68 7h1m-7 2h1m2 0h1m-8 2h1m3 0h1m-4 1h2m-6 3h1m10 28h1m-43 4h1m-54 2h1m62 3h1"/><path stroke="#30c1f9" d="M70 13h1M30 23h1m1 0h1m-3 1h1m1 0h1m2 0h1m2 0h1m1 0h1m-8 1h1m7 0h1m-13 1h1m2 0h1m-4 1h1m7 0h1m-8 1h1m2 0h1m5 0h1m-5 1h1m-6 1h1m3 0h1m12 0h1m-14 1h1m1 1h1m-2 1h1m4 0h1m7 0h1m6 0h2m-18 1h1m15 0h1m-15 1h1m10 0h2m-3 1h1m1 0h1m-8 2h1m1 0h1m5 0h1m8 0h2m1 0h1m1 0h1m-5 1h1m-14 1h1m2 0h1m2 0h2m4 0h1m5 0h1m-14 1h1m1 0h1m8 0h1m-12 1h1m4 0h1m2 1h1m-11 1h1m20 0h1m-12 1h1m16 0h1m-12 1h1m1 0h2m0 1h1m3 0h1m-9 2h1m9 0h1m1 0h1m-13 1h1m13 0h1m-6 1h1m1 0h1m-5 1h1m4 6h1m1 0h1m-59 1h1m10 0h1m23 42h1m39 0h1m-3 1h1m-3 1h1m-7 3h1m-19 1h1m7 5h1m-51 3h1"/><path stroke="#295060" d="M82 17h1m35 4h1m-5 1h1m3 0h1m-9 1h1m4 0h1m-6 1h3m-5 2h1m-3 1h1m-2 2h1m6 1h1m-3 5h1m-7 2h3m7 0h1m-13 1h1m5 0h1m4 0h1m3 0h1m-20 1h1m15 3h1m-20 1h1m10 1h1m-13 2h1m6 0h2m-12 1h2m-3 1h1m0 1h1m-35 1h1m32 0h1m3 0h1m-6 1h1m-34 1h1m-6 1h1m38 0h1m-2 2h1m8 0h1m-20 2h1m8 1h2m-1 1h1m19 0h1m-20 1h1m18 1h1m-3 2h1m-20 1h1m20 0h1m-98 1h1m40 0h1m48 1h1m0 1h1m1 1h1m-49 1h1m39 0h1m4 0h1m2 0h1m-49 1h1m-6 1h1m2 0h2m36 0h1m5 1h1m1 0h1m-6 1h2m1 0h1m18 0h1m-29 1h1m3 1h1m-5 1h1m1 0h1m24 0h1m-27 1h1m-39 7h1m0 2h1m-7 2h1m-1 4h1m5 1h1m60 6h1m1 0h1m-76 5h1m15 0h1m29 8h2m-6 2h1m1 0h1m2 0h1m-3 1h1m-4 1h1"/><path stroke="#d9d8c1" d="M44 22h1m70 4h1m-4 2h1m-4 1h1m-51 3h1m0 6h1m52 9h1M5 52h1m107 0h1M7 53h1m49 1h1m-5 1h1m-1 1h1m-5 1h1m4 0h1m-5 1h2m-33 1h1m28 0h1m27 0h1m33 0h1m-66 1h1m1 0h1m-37 1h1m30 0h1m-18 1h1m18 0h1m13 0h1m54 0h1m-98 1h1m20 0h1m75 0h1m-66 1h1m17 4h1m-55 2h2m1 0h1m1 1h1m54 0h1m37 0h1m2 1h1m-95 1h1m93 0h1m-50 1h1m48 0h1m-60 2h1m2 0h2m-30 2h1m3 0h1m19 0h1m0 1h1m-8 2h1m65 0h1m-72 1h1m17 0h1m-19 1h2m66 1h1m-78 1h1m3 0h1m-26 1h1m24 0h1m17 0h1m-40 2h2m95 0h1m-76 1h1m21 0h1m-22 1h1m70 1h1m2 0h1M10 92h1m7 0h1m41 0h1m-43 2h1m16 0h1m-24 2h1m24 0h1m-22 1h1m18 0h2m18 0h1m4 0h1M2 99h1m33 1h1m2 0h1m13 2h1m-44 1h1m1 1h1m24 0h1m-24 1h1m20 0h2m34 0h1m-34 1h1m-2 1h1m37 0h1m-56 1h1m3 2h1m11 0h1m46 0h1"/><path stroke="#f0f9d9" d="M43 23h1m-3 4h1M1 53h1m61 0h1M1 54h1m60 0h1m2 0h1M4 55h1m57 0h1M4 57h1m56 0h1m7 0h1M3 58h1m58 0h1m7 0h1m-9 2h1m2 0h1m7 0h1M2 61h1m64 0h1M1 62h1m73 0h1m-9 1h1M4 64h1m63 0h2m6 0h1m6 0h1m-48 1h1m26 0h1m1 0h1m2 0h2m4 0h1m7 0h1M5 66h1m60 0h1m1 0h1m3 0h1m-39 2h1m32 0h1m7 2h1m-2 1h1M1 75h1m81 0h1m-1 1h1M1 77h1m61 0h1m3 0h1M2 78h1m62 0h1M3 79h1m63 0h1m4 0h1m10 0h1m-21 1h1m1 0h1m4 0h1M2 81h1m59 0h2m3 0h2m7 0h1M1 82h1m60 0h1m2 0h1m2 0h1m6 0h1m6 0h1M2 83h1m58 0h1m5 0h1m2 0h1m2 0h1m-10 1h2M2 85h1m68 0h2m26 0h1M1 86h1m59 0h1m2 0h1m18 0h1M2 87h1m60 0h1m4 0h1m2 0h1M2 88h1m-1 2h1m31 0h1m26 0h1m3 0h3m-6 1h1m7 0h1m-5 1h3m4 0h1m8 0h2M3 93h1m62 0h1m5 0h1M3 94h1m70 0h1m1 0h1m5 0h1m-14 1h1M4 96h1m57 0h1m13 0h1m5 0h1M3 97h1m58 0h1m20 0h1m-9 1h1m7 0h1m-51 1h1m28 1h1m3 0h1m14 0h1m-49 1h1m31 0h1m6 0h1m9 0h1m-49 1h1m31 0h1m14 2h2m-9 1h1m8 0h1m-2 1h1m-2 1h1m1 1h1m-50 1h1"/><path stroke="#b9a889" d="M44 23h1m15 8h1m47 16h1m0 1h1m-12 2h1m16 0h1m0 2h1m-58 1h1m47 0h1m-2 1h1m9 0h1m-12 1h1m3 1h1m5 0h1m-36 2h1m-2 1h1m35 0h1m-56 1h1m24 0h1m29 0h1m-32 1h1m30 0h1m-68 1h1m35 0h2m-8 1h1m-32 1h1m29 0h1m8 1h1m-3 1h1m-67 1h1m28 0h1m30 0h1m1 0h1m5 0h1m27 0h1m-6 1h1m6 1h1m-31 1h1m28 0h1m-2 1h1m-8 1h1m-22 1h1m21 2h1m5 0h1m-30 1h1m1 0h1m27 0h1m-10 2h1m2 0h1m-4 1h1m7 0h1m1 0h1m-33 1h1m21 0h1m-6 1h1m5 0h1m1 0h1m6 0h1m-11 1h2m6 0h1m-57 1h1m42 0h1m-43 1h1m18 0h1m1 0h1m4 0h1m1 0h1m13 0h1m2 0h1m1 0h1m2 0h1m-32 1h1m5 0h1m16 0h1m3 0h1m-20 1h1m-2 1h1m14 0h1m13 0h1m-96 1h1m77 0h1m11 0h1m-32 1h1m6 0h1m20 0h1m-48 1h1m17 1h1m26 0h1m9 0h1m-35 1h1m6 0h3m16 0h1m7 1h1m-28 1h1m-30 1h1m19 1h1m0 1h1m4 1h1m1 0h1m-7 1h1m4 0h1m16 0h1m-45 1h1m19 0h1m1 0h1m6 1h1m-10 2h1m0 1h1m7 0h1m-10 1h2m-3 1h1m1 0h1m4 0h1m-1 3h1"/><path stroke="#f0f9d8" d="M45 23h1m12 10h1M3 52h1m-2 1h1m60 1h1m-54 1h1m54 0h1m1 1h1M4 58h1m59 0h1m7 0h2M1 59h1m73 0h1m-15 1h1m5 0h1m-2 1h1m2 0h1m-8 1h1m4 0h1m1 0h1m12 0h1M4 63h1m63 0h1m7 0h1m-15 1h2m6 0h2m-11 1h1m2 0h1m16 0h1m-49 1h1m42 0h1m6 0h1m-51 1h2m34 0h1m1 0h2m3 0h1M9 68h1m71 0h1m-9 1h2m-2 2h1m1 0h2m-43 3h1m47 0h1M3 75h1m29 1h1m32 0h1M3 77h1m77 0h1m-1 1h2m-20 1h1m4 0h1m0 1h1m-9 1h1m12 0h1M4 82h1m56 0h1m8 0h1m-6 1h1m7 1h1m2 0h1m4 0h1m-14 1h1m14 0h1m-22 1h1m5 0h1m7 0h1M4 87h1m28 0h1m32 0h1m2 0h1m2 0h1M2 89h1m63 0h1m4 0h3m-10 1h1m8 0h1m9 0h1M3 91h1m67 0h1m3 0h1M1 92h2m1 0h1m28 0h2m37 0h1m0 1h1m-9 1h1m3 0h1m2 0h2m-13 1h1m2 0h1m7 0h1M1 96h2m70 0h1m1 0h1m6 1h1m-49 1h1m34 0h1m-8 1h1m13 0h1m-43 1h1m47 0h1m-10 1h1m-4 1h1m5 1h1m-44 1h1m40 0h1m-42 1h1m40 1h1m6 0h1m-49 1h1m-1 1h1"/><path stroke="#f1f9d9" d="M46 23h1m15 8h1M1 52h1m1 2h1m-3 2h1m59 0h1M3 57h1m67 1h1M4 59h1m67 0h2M2 60h1m1 0h1m64 0h2m-6 1h1m2 0h1m3 0h1m3 0h1M2 62h2m64 0h1M1 63h1m70 0h1m2 0h1m-15 1h1m11 0h1M3 65h1m63 0h1m7 0h2m6 0h1m-19 1h1M7 67h1m74 0h2m-51 2h1m36 0h1m1 0h1m10 0h1m-12 1h1m3 0h1m4 0h2m-1 1h1m-50 1h1m42 0h1M3 73h1m30 0h1M1 74h1m31 0h1M2 75h1m59 0h2m18 0h1M1 76h2m58 0h1m20 0h1m-22 1h1m-1 1h1m7 0h3m-10 1h1m6 0h1M2 80h1m63 0h1M4 81h1m61 1h1m5 0h1m1 0h1m6 1h2M3 84h1m59 1h2m1 0h1m3 0h1m2 0h1m7 0h1M2 86h1m31 0h1m30 0h2m5 0h1M4 88h1m28 0h1m41 0h1m-13 1h1m5 0h1m11 0h3M1 90h1m2 0h1m-1 1h1m60 0h1m1 0h1m5 0h1m2 0h1m-14 1h1m6 0h1m10 0h1M4 93h1m56 0h1m5 0h3m6 0h1m-43 1h1m32 0h1m13 0h1m1 0h1m-17 1h1m6 0h1m-42 1h1m31 0h1m2 0h1m1 0h1m3 0h1M1 97h1m2 0h1m29 0h1m39 0h1m-12 1h1m8 0h2m-8 1h1m3 0h2m1 0h1m1 0h1m7 0h1m-20 1h1m2 0h1m8 0h1m-43 1h1m31 0h1m1 1h1m4 0h1m1 1h1m6 0h1m-49 1h1m40 1h2m-2 1h1m6 3h1m-49 1h1m0 1h1"/><path stroke="#595948" d="M117 23h1m0 1h1m-6 2h1m-6 2h1m-2 1h1m-6 10h1m5 1h1m-17 9h1m-1 3h1m2 0h1m-1 5h1m-3 2h1m24 0h1m-24 2h1m-3 1h1m-2 1h1m-1 1h1m24 3h1m-1 1h1m-11 1h1m10 0h1m-15 4h2m-3 2h1m-46 4h1m-1 1h1m-2 2h1m43 6h1"/><path stroke="#595848" d="M118 23h1m-10 5h1m-4 17h1m-3 2h1m12 1h1m-14 1h1m-1 1h1m-11 1h2m-2 1h1m22 0h1m-25 1h1m24 0h1m-26 2h1m-2 1h1m2 0h1m22 0h1m-27 1h1m24 2h1m0 2h1m-27 1h1m25 0h1m-10 3h1m-1 1h1m8 1h1m-12 1h1m-3 4h1m-4 3h1m-4 12h1"/><path stroke="#d8d8c0" d="M43 24h1m2 2h1m11 8h1m2 1h1m-2 2h1m49 7h1m2 0h1m-16 2h1m3 3h1m-45 4h1m5 0h1M9 54h1m49 0h1m-49 1h1m43 0h1m-5 1h1m58 0h1m-61 1h1m1 0h1m-35 2h1m30 0h1m8 0h1m23 0h1m-62 1h1m21 0h1m66 0h1m-99 1h1m33 0h1m-20 2h1m13 0h1m-7 1h1m22 1h1m-42 1h1m18 0h1m8 0h1m-1 1h1m67 0h1M8 68h1m27 0h1m28 0h1m-31 1h1m13 0h1m18 0h1m44 2h1m-98 1h1m93 0h1m-1 1h1m-51 1h1m49 0h1m-89 1h1m45 1h1m-57 1h1m40 0h1m16 0h1m-43 1h1m21 0h1m59 0h1m-95 1h1m31 0h1m11 0h1m52 0h1m-94 2h1m-9 1h1m9 0h1m1 1h1m16 0h1m4 0h1m63 0h1m-98 1h1m99 0h1m-54 2h1m49 0h1m-97 1h2m39 0h1m4 0h1m-23 1h1m-2 1h1m-28 1h1m24 0h2m73 0h1M10 91h1m24 2h1m3 1h1m-22 1h1m17 0h1m-1 1h1m18 0h1m-18 1h2m-1 1h1m-34 3h1m31 2h1m0 3h1m-1 2h1m44 2h1m-55 2h1"/><path stroke="#f0f8d9" d="M47 24h1m11 7h1m1 0h1M2 54h1m58 0h1m2 1h1m1 0h1M3 56h2m64 3h1m4 0h1m-12 1h1m8 0h1m10 0h1M3 61h1m57 0h2m10 0h1m1 0h1m-5 1h1M2 63h2m62 0h1m4 0h1m2 0h1m6 0h1m-48 1h1m29 0h1m-2 2h1m6 0h1m2 0h1m1 0h1m-10 1h1m2 1h1m13 0h1m-3 1h1m-48 1h1m40 2h1M1 73h1m80 0h1m-21 1h1m-30 1h2m46 0h1M3 76h1m58 0h1M2 77h1m31 0h1m29 0h2m17 0h1M1 78h1m60 0h1M4 80h1m62 0h1m13 0h2m-19 1h1m6 0h1m-3 1h1m1 0h1m-6 1h1m8 0h1M4 84h1m56 0h1m1 0h1m6 0h1m1 0h1M4 85h1m71 0h1m5 0h1M4 86h1m58 0h1m5 0h1m11 0h1m-18 1h1m8 0h2m-10 1h1m7 0h1M3 89h1m29 0h1m28 0h1m11 0h1M3 90h1m68 0h1m9 0h1m-20 1h2m1 0h1m-6 1h1m7 0h1M2 93h1m67 0h1M2 94h1m0 1h1m29 0h1m32 0h1m4 0h1m1 0h1m1 0h1m6 0h2m-50 1h1m32 0h1m13 0h1m-1 1h1M2 98h1m78 0h2m-49 1h1m28 0h1m8 0h1m1 0h1m7 0h1m-8 1h1m-9 1h2m5 0h1m1 0h1m-8 1h1m0 2h1m1 0h2m-2 1h1m9 0h1m-49 1h1m-2 4h1"/><path stroke="#585848" d="M115 24h1m2 21h1m-2 2h1m-17 1h1m2 0h1m-7 1h1m-2 1h1m19 0h1m-24 3h2m21 0h1m-25 4h2m-1 2h1m-9 1h2m4 0h1m24 0h1m-26 1h1m-2 5h1m25 0h1m-10 1h1m-3 2h1m10 0h1m-1 1h1m-14 1h1m-1 1h1m-7 2h1m3 12h1m0 11h1m-1 1h1m-5 1h1"/><path stroke="#585948" d="M116 24h1m-5 1h2m-3 1h1m-1 1h1m-6 1h1m0 10h1m0 6h1m-8 1h1m4 1h1m10 0h1m-15 1h1m1 2h1m-13 3h1m24 0h1m-27 2h1m1 1h2m21 0h1m-24 1h1m22 0h1m-24 2h2m22 0h1m-1 7h1m-10 2h1m-4 4h2m-5 3h1m-46 7h1m43 6h1m-8 14h1"/><path stroke="#595849" d="M117 24h1m-3 1h1m-4 1h1m-5 1h1m0 13h1m-9 1h1m2 5h1m1 1h1m-8 1h1m18 1h1m-28 4h1m25 4h1m-23 2h1m-2 1h1m-2 1h1m23 2h2m-1 1h1m-11 5h1m-3 3h1m-19 6h1m9 8h1m2 1h1m1 8h1m-11 7h1"/><path stroke="#f1f9d8" d="M42 25h1m20 7h1m-7 3h1M4 52h1m56 0h1m-1 1h1M2 55h1m58 0h1m1 0h1M2 56h1m60 0h1m2 0h1m2 0h1M1 57h2m64 0h1m3 0h1m-7 1h1m3 0h1m-5 1h1m1 0h2m2 0h1m-53 1h1m44 0h1m17 0h1m-20 1h1m-41 1h1m37 0h1m21 0h1m-59 1h1m47 0h1m-41 2h1m36 0h1m-7 1h1m9 0h1m-7 1h1m1 0h1m2 0h2m6 0h1m-49 1h1m36 0h1m3 0h1m1 1h1m4 3h1M2 74h1m1 3h1m63 0h1M2 79h1m58 0h1m-1 1h1m3 1h1m3 0h1m3 0h1m-11 1h1m9 0h1m7 0h1M3 83h1m60 0h1m6 0h2m1 0h1m1 0h1m6 0h1m-18 1h3m-2 1h1M3 86h1m66 0h2m2 0h1m-10 1h1m9 0h1M3 88h1m66 0h1m11 0h2m-50 1h1m26 0h1m3 0h1m10 1h1M1 91h2m66 0h1m2 0h1m1 0h1m-11 1h1m11 0h1m4 1h1M1 94h1m31 0h1m34 0h1m1 0h1M4 95h1m61 1h1m2 0h1m-37 1h1m29 0h2m4 0h1M1 98h1m31 0h1m27 0h1m8 0h1m3 0h1m1 0h1M3 99h1m63 0h1m1 2h2m10 0h1m1 0h1m-51 1h1m33 0h1m3 0h1m10 0h2m-50 1h1m35 0h1m3 0h1m-4 1h1m-38 1h1m38 0h1"/><path stroke="#d8d8c1" d="M46 25h1m69 1h1m-3 1h1m-74 1h1m68 1h1m-49 4h1m49 11h1m0 1h1m-4 3h1m-57 7h1m58 0h1M13 57h1m1 0h1m33 1h1m-5 1h1m-32 1h1m5 0h1m23 0h1m13 0h1m-15 1h1m65 0h1m-68 1h1m5 0h1m47 0h1m12 0h1M1 64h1m36 0h1m10 0h1m-5 1h1m64 0h1m-63 1h2m60 0h1M6 67h1m4 1h1m5 0h1m27 0h1m-10 1h1m73 0h1m-97 1h1m21 0h1m32 0h2m-55 1h1m40 4h1m-33 1h1m84 0h1m2 0h1m-88 1h1m-13 1h1m15 0h2m3 0h1m13 1h1m-2 1h1m61 0h1m-99 1h1m31 1h1m3 0h1m61 0h1m-72 2h1m1 0h1m2 0h1m-31 2h1m25 0h1m-5 2h1m2 0h1m20 0h1m-25 3h1m1 0h1m-2 1h1m1 1h1m-30 1h1m25 0h2m17 0h1m57 0h1M12 95h1m5 1h1m-1 2h1m-15 2h1m33 1h2m-1 1h1m-24 4h1m19 2h1m1 0h1m-4 1h1m-10 2h1m6 1h1"/><path stroke="#585849" d="M114 25h1m-5 1h1m-4 2h1m1 13h1m-4 2h1m11 1h1m-14 2h1m12 0h1m-26 1h1m8 0h1m15 0h1m-13 1h1m11 3h1m-1 3h1m-26 2h1m24 1h1m-26 3h1m1 0h1m21 1h1m-26 4h1m25 1h1m-30 1h1m28 1h1m-14 2h1m-4 4h1m-7 1h1m5 1h1m-3 12h1"/><path stroke="#b9a888" d="M116 25h1m-9 4h1m-1 16h2m-3 1h1m1 0h1m6 0h1m-2 1h1m0 1h1m-9 1h1m-3 3h1m2 0h1m4 0h1m-1 1h1m-24 1h1m15 0h1m8 1h1m-12 1h1m1 1h1m-48 2h1m18 1h1m-20 1h1m17 0h1m0 1h1m-3 1h1m8 0h1m27 0h1m-55 2h1m18 0h1m7 0h1m-1 1h1m-9 1h1m7 0h1m28 0h1m-99 1h1m67 0h1m-2 1h1m-9 1h2m30 0h1m-63 1h1m30 0h1m7 0h1m21 0h1m-29 1h1m28 0h1m6 0h1m-1 1h1m-12 1h1m-22 3h1m24 0h1m-9 1h1m14 0h1m-31 1h1m17 0h2m-47 2h1m27 0h1m-9 1h1m6 0h1m-28 1h1m25 0h1m22 0h1m-9 1h1m-24 1h1m2 0h1m4 0h1m-2 1h1m19 0h1m10 0h1m-38 1h1m37 0h1m-59 2h1m21 0h1m5 0h1m20 0h1m-89 1h1m60 0h1m34 0h1m-36 1h1m4 0h1m15 0h1m-44 1h1m27 0h1m14 0h1m5 0h1m-49 1h1m19 0h1m35 0h2m-58 1h1m26 0h1m14 0h1m-44 3h1m27 2h1m-1 1h1m-3 2h1m-6 1h1m7 0h1m-8 3h1"/><path stroke="#d8d9c0" d="M117 25h1m-74 5h1m15 0h1m37 15h1m4 3h1m9 1h1m-52 3h1m7 4h1m42 0h1M13 58h1m3 0h1m40 0h1m-12 1h1m2 0h1m-5 1h1m2 0h1m-35 1h1m32 0h1m-35 1h1m25 0h2m-25 1h1m24 0h1m5 0h2m-10 1h1m-24 1h1m20 0h1M4 66h1m31 1h1m11 1h1m-32 1h1m27 1h1m2 1h1m22 0h1m2 1h1m-57 1h1m16 0h1m27 1h1m-9 2h2m-30 1h1m26 0h1m55 0h1m-61 2h2m21 0h1m-28 1h1m28 0h2m-27 1h1m62 1h1M14 83h1m11 1h1m28 0h1m-27 1h1m8 0h1m16 0h1m54 0h1m-72 2h1m-30 1h1m7 0h1m16 1h1m3 0h1m-2 1h1m21 0h1m-1 1h1m-25 1h1m2 0h1m15 0h1m54 1h1m-73 1h1m21 0h1m43 0h1m5 0h1M10 95h1m44 0h1m56 0h1m-99 1h1m20 0h1m3 0h1m-22 1h1m18 0h1m1 2h1m-3 1h1m17 0h1m3 0h1m1 0h1m-26 2h3m-1 2h1m-2 1h1m-3 1h1m37 0h1m-37 3h1m1 0h1m-3 1h1m1 0h1m-12 2h1m2 0h2m2 0h1"/><path stroke="#d9d9c0" d="M118 25h1m-77 1h1m2 1h1m65 1h1m-51 8h1m48 7h2m-13 2h1m10 0h1m-1 4h1m-1 2h1m-1 2h1m2 0h1m-59 1h1m2 0h1m54 0h1m-58 1h3m-5 1h1m3 1h1m51 0h1m2 0h1m-67 1h2m32 0h1m-70 1h1m3 0h1m85 0h1m-55 1h1m-27 1h1m26 0h1m8 0h1m54 0h1M11 62h1m12 0h1m14 1h1m18 0h1m51 0h1m-94 1h1m-7 1h1m23 0h1m12 2h1m14 0h1m-15 4h1M4 73h1m56 0h1m13 0h2m-57 1h2m13 0h1m-13 1h1m11 0h1m22 0h1m6 0h2m46 0h1m-90 1h1m35 1h1m8 0h1m43 0h1m-82 1h1m19 0h1m3 0h1m3 0h1m11 0h1m-60 2h1m35 0h1m-37 3h1m46 0h1m-23 1h1m-28 1h1m18 0h1m1 0h1m9 0h1m55 0h1m-63 1h1m1 0h1m74 0h1M10 87h1m25 0h2m2 1h1m-5 1h1m18 0h1m54 0h1m-72 2h1m-5 1h1m0 1h1m23 2h1m-48 1h1m41 2h1m4 1h1m-26 1h1m1 3h1m29 0h1m-29 4h1m-5 1h1m-14 1h1m13 0h1m44 0h1m-47 1h1"/><path stroke="#b9a988" d="M114 26h1m-8 19h1m6 0h1m1 0h1m-3 1h1m-7 2h1m6 1h1m0 1h1m-3 1h2m-8 3h2m5 0h1m-7 1h1m5 0h1m-2 1h1m-55 1h1m54 1h1m-39 3h1m9 0h1m-8 1h1m33 0h1m-68 1h1m36 0h1m2 0h1m27 0h1m-36 1h1m33 0h1m-38 1h1m36 0h1m-97 1h1m96 1h1m-29 1h1m27 0h2m-40 1h1m7 1h1m-68 1h1m90 0h1m4 1h1m-38 1h1m29 1h1m1 1h1m-24 1h1m22 0h1m6 1h1m-10 2h2m-22 1h1m13 0h1m-18 1h1m20 0h1m-22 1h1m2 0h1m13 0h1m-22 1h1m28 0h1m-52 1h1m20 0h1m4 0h1m20 0h1m2 0h1m-2 1h2m5 0h1m-37 1h1m1 0h1m20 0h1m4 0h1m9 0h1m-58 1h1m24 0h1m19 0h1m-9 1h1m9 0h1m1 0h1m7 0h1m-2 1h1m-38 1h2m5 0h1m22 0h1m-1 1h1m-31 1h1m25 0h1m-21 1h1m1 0h1m14 0h1m-22 3h1m6 0h1m13 0h1m-15 1h1m-69 1h1m65 0h1m-27 1h1m25 1h1m-8 2h1m-2 1h1m7 0h2m-9 1h1m6 2h1m-9 1h1"/><path stroke="#585949" d="M109 27h1m-5 21h1m12 0h1m-20 1h1m6 0h1m-12 5h1m-4 1h1m25 0h1m-27 3h2m23 0h1m-31 1h1m30 1h1m-25 1h1m22 3h1m-1 1h1m-11 5h1m10 0h1m-16 1h1m-2 1h2m-2 13h1m0 11h1m-7 4h1m-7 3h1"/><path stroke="#595949" d="M110 27h1m-6 11h1m2 3h1m8 4h1m-13 2h1m-6 1h1m16 1h1m-22 1h1m21 0h1m-2 1h1m-26 2h1m0 1h2m22 0h1m-26 5h1m1 3h1m22 0h1m-10 6h1m-3 2h1m-2 1h1m-4 2h2m-10 3h1m-6 28h1"/><path stroke="#b8a889" d="M112 27h1m-6 22h1m6 0h1m-7 1h1m-1 2h1m-52 1h1m48 0h1m-27 6h1m24 0h1m-27 2h1m34 0h1m1 0h1m-57 1h1m17 0h1m8 0h1m5 1h1m-76 1h1m41 0h1m17 0h2m5 0h2m7 0h1m21 0h1m-39 1h1m7 1h1m27 0h1m-31 2h1m-6 2h1m34 0h1m-30 1h1m-9 1h1m9 0h1m21 1h1m-52 1h1m21 0h1m34 0h1m-1 1h1m-12 1h1m-20 1h1m20 0h2m-24 1h1m-5 1h1m3 0h1m16 0h1m-17 1h2m27 0h1m1 0h1m-37 1h1m-4 1h1m30 0h1m7 0h1m-40 1h1m9 0h1m26 1h1m-57 1h2m26 0h1m22 0h1m5 0h1m-58 1h2m17 0h1m7 0h1m1 0h1m12 0h1m7 0h1m-30 1h2m27 0h1m-25 1h1m19 0h1m-46 1h1m41 0h1m3 0h1m10 1h1m-27 1h1m14 0h1m10 0h1m-58 1h1m56 0h1m-32 1h1m18 0h1m-28 1h1m2 0h1m3 0h2m29 0h1m-57 1h1m17 0h3m4 0h1m2 0h1m-69 1h1m38 0h2m20 2h1m6 0h1m-1 1h1m-9 2h1m5 1h2"/><path stroke="#d8d9c1" d="M113 27h1m-57 9h1m41 8h1m10 2h1m-1 1h1m-10 2h1M1 50h1m98 0h1m-41 2h1m-5 2h1m3 0h1m5 0h1m-55 2h2m38 0h1m-2 1h1m20 0h1m-57 1h1m29 1h1m36 0h1m-71 3h1m28 0h1m-7 2h1m21 0h1m54 0h1M2 65h1m34 0h1m10 0h2m63 0h1m-53 1h1m51 0h1m-50 1h1m48 1h1M12 69h2m21 1h1m13 0h1m-36 1h1m20 0h1m-19 1h1m17 0h1m0 1h1M6 74h1m1 1h1m27 0h1m23 0h1m-1 1h1m6 0h1m-32 1h1m20 0h1m-24 1h1m78 0h1m-40 1h1m35 0h1m-64 1h1m65 0h1M13 81h1m31 0h2m13 0h1m49 0h1m-97 1h1m25 2h1m-31 1h1m23 0h1m78 0h1m-98 2h1m93 0h1m-76 1h1m-18 2h1m18 0h1m17 1h1m-18 1h1m71 0h1m-73 1h1m-2 2h3m-26 2h2m20 1h1m-2 1h1m-28 3h1m27 1h1m-1 1h1m2 0h1m-2 1h2m-22 2h1m16 0h2m0 1h1m-2 3h1"/><path stroke="#497860" d="M117 27h1m-7 3h1m5 1h1m-4 1h1m-6 5h1m-11 4h1m-1 6h1m1 4h1m-12 5h1m5 0h1m4 2h1m-49 1h1m2 0h2m46 0h1m-49 1h1m-6 2h1m3 0h1m43 0h1m-45 1h1m1 0h1m-44 1h1m36 0h1m1 0h1m3 0h1m-14 1h1m44 0h1m-47 1h1m-31 1h1m27 0h2m-30 1h1m26 0h1m10 0h1m-9 2h1m-5 1h2m0 1h1m0 3h1m-3 1h1m4 11h1m-31 2h1m-3 1h1m33 0h1m4 0h1m-42 1h1m32 1h1m8 0h1m-42 1h1m37 0h1m-1 1h1m-34 1h1m25 0h1m3 0h1m5 0h1m3 0h1m-7 1h1m-5 1h1m-1 1h1m-2 1h1m10 0h1m-13 1h1m7 0h1m-10 1h1m-2 2h1"/><path stroke="#d9d9c1" d="M45 28h1m-2 1h1m17 5h1m37 9h1m12 3h1m-1 2h1m-4 2h1m2 0h1m-16 1h1m11 3h1m-43 1h1m41 0h1m-56 1h2m-43 2h2m94 0h1m-98 2h1m2 0h1m24 1h1m1 0h1m1 0h1m50 1h1m-82 1h1m-5 1h1m27 0h1m70 0h1M11 66h1m50 0h1m-46 1h1m17 0h1m13 0h1m-15 1h1m-26 1h1m34 0h1m67 0h1m-66 1h1m64 0h1m-99 1h1m57 1h1m-12 1h1m-28 3h2m-2 1h1m19 0h1m-5 1h1m-34 2h1m41 0h1m-16 2h1m9 1h1m57 0h1m-54 1h1m-47 1h1m13 0h1m-19 1h1m2 0h1m99 1h1m-77 1h1m17 0h1m54 0h1M10 89h1m7 0h1m94 0h1m-59 1h1m57 0h1m-79 1h1m-26 2h1m7 0h1m18 0h1m17 0h1m-21 2h1m24 1h1m-24 2h1m22 0h1m-23 1h1m-3 2h2m25 0h1m-29 1h1m-1 1h1m0 3h1m1 4h1m-5 2h1"/><path stroke="#b9a989" d="M110 28h1m-2 19h1m6 0h1m-2 1h1m0 1h1m-3 1h1m-8 1h1m-3 1h1m1 0h1m7 0h1m-7 1h1m5 0h1m-11 1h1m8 0h1m-55 1h1m53 0h1m-9 1h1m9 0h1m-12 1h2m-47 1h1m17 1h1m-2 1h1m36 0h1m-35 1h1m5 0h1m-10 1h1m8 0h1m29 0h1m-38 1h1m15 0h1m-1 1h1m-12 1h1m0 2h1m-9 1h1m36 0h1m-97 1h1m28 0h1m30 0h1m1 0h1m5 0h1m-7 2h1m3 0h1m2 0h1m-10 1h2m4 0h1m23 0h1m5 1h1m-28 1h1m21 0h1m6 0h1m-61 1h1m47 0h2m-26 1h1m24 0h1m1 0h2m5 1h2m-30 1h1m21 2h1m6 0h1m-31 1h2m19 0h1m1 0h1m-29 1h1m28 0h1m-31 1h1m6 0h1m18 0h1m9 0h2m-40 1h1m1 1h1m7 0h1m16 0h1m1 0h1m-2 2h1m-48 1h1m48 0h1m-4 1h1m-47 1h1m27 0h1m14 0h1m3 0h3m1 0h1m-26 1h1m21 0h1m-88 1h1m65 0h1m19 0h1m9 0h1m-39 1h2m26 0h1m-28 1h1m-60 1h1m65 0h2m-2 1h2m-2 1h2m14 0h1m-23 1h1m4 1h1m2 1h1m-8 1h1m4 0h2m-10 1h1m-1 3h1m8 2h1m-1 1h1"/><path stroke="#497960" d="M115 28h1m1 1h1m-10 1h1m8 0h1m-1 2h1m-4 8h1m-19 3h1m-2 2h1m7 4h1m-3 4h1m-12 1h1m5 4h1m2 1h1m-9 1h1m-39 1h1m2 1h1m34 0h1m-49 2h1m11 0h1m-41 2h1m74 0h1m-48 1h1m7 0h1m-11 1h1m1 0h1m-6 3h1m2 0h1m75 0h1m-79 1h1m-2 1h1m0 1h1m17 7h1m-1 3h1m-11 2h1m4 0h1m-40 2h1m29 0h2m2 0h1m-3 1h1m7 0h1m-13 1h1m4 0h1m-4 1h1m6 0h1m-8 1h1m3 0h1m9 0h1m-45 1h1m39 0h1m-40 2h1m30 0h1m6 0h1m-10 1h1m8 0h2m-9 1h1m-1 1h1m5 1h1m-5 1h1m2 0h1m-5 2h1"/><path stroke="#497861" d="M117 28h1m-8 9h1m-11 3h1m-1 1h1m-1 12h1m-5 1h1m7 0h1m-5 1h1m3 1h1m-9 1h1m3 1h1m-1 1h1m-49 2h1m4 0h1m-1 1h1m-7 1h1m-38 2h2m25 0h1m49 0h1m-79 1h1m41 0h1m-41 1h1m21 0h1m19 0h1m-14 1h1m-7 1h1m13 1h1m-9 1h1m-3 1h2m-5 1h1m4 1h1m6 10h1m-2 1h1m6 0h1m-45 6h2m36 0h2m-9 2h1m12 0h1m-7 1h1m1 3h1m-3 4h1m-2 1h1"/><path stroke="#487961" d="M113 29h1m0 2h1m-2 8h1m-15 3h1m4 9h1m-5 3h2m-6 1h1m4 2h1m-11 1h1m12 0h1m-50 2h1m43 0h1m-86 7h1m37 0h2m-40 1h1m41 0h1m31 0h1m-49 1h1m-3 3h1m7 1h1m6 10h1m-6 3h1m2 0h1m1 0h1m-2 2h1m-6 1h1m-5 1h2m5 0h2m-35 1h1m28 0h1m-2 1h1m1 1h1m-36 1h1m34 0h1m5 0h1m3 0h1m-8 1h1m-7 2h1m12 0h1m-15 1h1m13 0h1m-15 2h1m2 0h1m4 0h1m5 0h1m-15 1h1m1 0h1m1 0h1m3 1h1m-8 1h1m0 1h1m-2 1h1"/><path stroke="#487861" d="M116 29h1m-2 3h1m0 1h1M96 51h1m1 1h1m-2 1h1m6 0h1m-5 3h1m-10 1h1m12 0h1m-26 1h1m6 1h1m-36 1h1m2 0h1m-3 2h1m-40 1h1m28 3h1m16 0h1m-22 2h1m5 1h1m-3 2h1m-3 1h1m0 1h1m-4 1h1m17 8h1m0 1h1m-46 4h1m33 0h1m5 0h1m4 0h1m-8 1h1m-38 1h1m2 0h1m33 0h1m-34 1h1m27 1h1m11 0h1m-8 1h2m-6 1h1m4 0h1m-38 1h1m31 0h1m4 1h1m-36 1h2m28 0h1m-1 1h1m3 0h1m-8 2h1m2 2h1m-3 1h1m-2 2h2m-2 1h1"/><path stroke="#487860" d="M113 31h1m3 4h1m0 1h1m-19 6h1m15 2h1m-21 2h1m-1 6h1m3 0h1m-10 3h1m7 0h1m1 0h1m-5 1h1m3 0h1m-2 1h1m-46 1h1m35 1h1m11 1h1m-50 2h1m-2 1h1m37 0h1m-40 1h1m1 0h1m1 0h1m34 0h1m-79 1h1m37 0h2m-38 3h1m23 0h1m3 1h1m-3 1h1m2 0h1m-2 1h1m-6 6h1m19 1h1m20 2h1m-31 5h1m3 0h1m-4 2h1m-10 2h1m11 1h1m-39 1h1m37 0h1m-39 1h1m27 1h1m1 0h1m-31 1h1m27 0h1m8 0h1m-7 1h1m3 3h1m-7 1h2m1 0h1m5 2h1m-9 1h1"/><path stroke="#497961" d="M115 31h2m0 2h1m-1 1h1m-4 7h1m-14 2h1m13 0h1m-20 1h1m-1 1h2m4 6h1m-4 1h1m-4 1h1m0 1h1m-1 1h1m6 0h1m-48 2h1m39 0h1m-44 4h3m44 0h1m-50 2h1m-40 1h1m1 0h1m35 2h1m8 0h1m-21 1h1m3 0h1m43 0h1m1 0h1m-76 2h1m23 0h1m1 0h2m11 0h1m-17 1h1m3 0h1m5 2h1m-9 1h1m14 9h1m1 4h1m-7 1h1m1 0h1m-42 1h1m40 0h1m-12 1h1m-31 1h1m1 0h2m41 0h1m-42 1h1m30 0h1m-31 1h1m28 0h1m5 0h1m-36 1h1m-2 2h1m28 1h1m11 0h1m-14 2h1m5 1h1m1 0h1m-3 2h1m-8 5h1"/><path stroke="#b84810" d="M106 38h1m-1 2h1m-5 1h1m2 1h1m-4 2h1m-2 29h1m-3 1h2m-4 1h1m-5 2h1m4 0h1m-10 1h1m1 0h1m10 0h1m-13 1h1m12 0h1m-6 1h1m-11 2h2m12 0h1m-7 2h1m-6 1h1m-4 4h1m5 5h1m3 0h1m-8 5h1m-4 1h1m3 2h1"/><path stroke="#487960" d="M111 38h2m-16 4h1m3 0h1m13 0h1m-1 2h1m-16 2h1m-4 1h1m3 5h1m2 0h1m-14 4h1m7 0h1m1 3h1m-45 1h1m33 1h1m-39 1h1m0 1h1m1 0h1m-2 2h3m-44 1h1m24 0h1m4 0h1m47 0h1m-35 1h1m-17 1h1m-4 2h2m9 1h1m3 12h1m-3 1h1m-39 4h1m36 0h1m5 0h1m-46 1h1m1 0h1m31 0h1m4 0h2m4 0h1m-42 1h1m28 0h1m-2 1h1m-29 1h1m35 1h1m-40 1h1m30 0h2m-31 1h1m28 0h1m-1 1h1m2 0h1m-5 1h1m2 1h1m-3 2h1m7 0h1m-1 1h1m-10 1h1m1 1h1"/><path stroke="#b94911" d="M103 39h1m1 1h1m-1 1h1m-3 2h1m-9 33h1m3 0h1m-6 1h1m1 0h1m5 0h2m-16 7h1m0 3h1m13 0h1m-11 1h1m8 0h2m-2 2h1m-9 1h1m3 1h1m4 0h1m-13 4h1m-1 2h1m-4 1h1m0 2h1m4 0h1"/><path stroke="#b94811" d="M104 39h1m2 2h1m-15 8h1m3 27h2m-10 3h1m4 0h1m7 0h1m-1 2h1m-9 2h1m8 8h1m-10 1h1m-7 1h1m13 2h1m-14 1h1m4 1h1m-7 1h1m13 0h1m-5 1h1m-3 1h1"/><path stroke="#b84911" d="M105 39h1m-2 1h1m-1 2h1m-5 34h1m-7 2h1m8 0h1m-2 2h2m-13 2h1m11 1h1m-7 1h1m5 1h1m-15 1h1m-1 3h1m13 0h1m-10 1h1m7 3h2m-16 1h1m-1 1h2m8 0h1m-11 2h1m2 0h1m-1 3h1m-3 2h1"/><path stroke="#b84910" d="M106 39h1m-5 1h1m-1 3h1m-9 4h1m-1 1h1m5 27h2m-1 1h1m-12 2h1m7 0h1m-1 1h1m-8 2h1m6 0h1m-1 1h1m-11 4h1m14 0h1m-16 1h1m2 0h1m-3 1h1m4 0h1m-2 1h1m4 1h1m-8 3h1m11 1h1m-16 2h1m0 3h1m-2 3h1m0 1h1"/><path stroke="#b94810" d="M107 39h1m-7 1h1m5 0h1m-5 1h2m1 0h1M88 80h2m1 0h1m-4 1h1m0 2h1m8 0h1m-5 1h1m8 0h1m-10 1h1m-4 1h1m10 3h1m-15 2h2m1 3h1m-1 1h1m2 0h1m3 1h1m-4 3h1"/><path stroke="#b84811" d="M103 40h1m-1 4h1m-6 31h1m-3 1h1m6 0h1m-12 1h1m2 0h1m-8 2h1m5 1h1m-1 1h1m8 0h1m-13 2h1m-3 2h1m5 0h1m-6 2h1m3 0h1m-7 1h1m9 0h1m-1 1h1m-11 1h1m9 1h1m3 1h1m-14 1h1m4 0h1m3 0h1m-10 1h1m12 3h1m-9 1h1m2 0h1m-10 3h1m-1 2h1m-1 1h1"/><path stroke="#b94910" d="M102 42h2m-11 6h1m1 0h1m4 25h1m0 1h1m-3 1h1m-3 2h1m-6 1h1m-2 1h1m-3 2h1m4 1h1m8 0h1m-16 1h1m13 0h1m-14 1h1m1 0h1m10 0h1m-15 1h1m3 4h1m-4 1h1m13 0h1m-2 1h1m-12 1h1m10 2h1m-9 2h1m7 0h1m-14 1h1m8 0h1m-10 1h1m6 0h1m4 0h1m-8 1h1m-6 1h1m1 1h1m-2 2h1"/><path stroke="#e87830" d="M106 42h1m-8 35h1m-5 1h1m-3 1h1m-2 2h1m-1 3h1m4 2h1m-8 2h1m6 1h1m2 0h1m-10 1h2m4 1h1m1 7h2m-4 1h1m-5 1h1m-2 1h2"/><path stroke="#e97830" d="M107 42h1m-7 35h1m-5 2h1m-1 1h1m2 0h1m-4 1h1m2 1h1m-8 1h1m-4 1h1m2 1h1m3 5h1m2 0h1m-4 2h1m-6 2h1m4 0h1m2 0h1m-4 1h1m-6 1h2m-1 1h1m-2 1h2m-4 3h1m-1 1h1"/><path stroke="#e87831" d="M104 43h1M95 79h1m-1 1h1m-3 1h1m5 0h2m-9 1h1m4 0h1m-6 1h1m-1 2h1m3 0h1m-4 1h1m1 0h2m-2 4h2m-5 1h1m3 2h1m3 0h1m-2 2h2m-6 1h1m1 0h1m-3 1h1m-6 1h1m4 0h1m-2 2h1"/><path stroke="#e97930" d="M105 43h1m-7 35h2m-9 1h1m2 2h1m-3 1h1m0 4h1m-3 1h1m2 0h1m-6 2h1m5 0h1m-5 3h1m0 1h1m-4 1h1m5 0h1m-4 1h1m5 1h2m-4 1h1m1 0h2m-9 2h2"/><path stroke="#b8a988" d="M109 44h1m4 3h1m-8 1h1m-8 1h1m4 1h1m1 0h1m1 0h1m-5 1h2m1 0h2m-2 2h1m-3 2h2m0 2h1m5 0h2m0 1h1m-1 1h1m-32 2h1m29 1h1m-56 1h1m19 0h1m15 0h1m19 0h1m-32 2h1m-9 1h1m1 0h2m35 0h1m-33 1h1m-5 1h1m28 1h1m4 0h1m-31 1h1m30 1h2m-37 2h1m26 0h1m-49 1h1m25 0h1m22 0h1m-25 1h1m21 0h1m9 0h1m-33 1h1m21 0h1m-27 1h1m5 0h1m18 0h1m2 0h1m-4 1h1m2 0h1m-50 1h1m25 0h1m-6 1h1m24 0h1m3 0h1m-33 1h1m1 0h1m24 0h1m9 0h2m-58 1h1m56 0h1m-9 1h1m-22 1h1m20 0h1m-1 3h1m1 0h1m-30 1h1m5 0h1m18 0h1m-87 1h1m59 0h1m4 0h1m10 0h1m13 0h1m6 0h1m-59 2h2m18 0h1m28 0h1m-89 2h1m38 0h1m28 0h1m-9 3h1m-2 1h1m-21 1h1m20 1h1m-3 1h1m6 0h1m2 2h1m-8 1h1m-4 1h1m2 1h1m3 0h2m-1 4h1"/><path stroke="#f8f9f0" d="M111 44h1m-1 4h1m-1 1h1m-1 3h1m-1 1h1M5 54h2m105 1h1M9 56h2m101 0h1M7 57h1m104 0h1M8 58h1m-2 1h1m6 0h1m97 0h1m-97 2h1M6 62h1m11 0h1m3 0h1m-5 1h1M5 64h1m27 0h1M6 65h1m12 0h1m12 0h1m79 0h1M6 66h1m20 0h1m4 0h1m-9 1h2m3 1h1m-10 1h1m5 0h1m-6 1h2m1 0h1m2 0h1m-7 1h1m2 0h1m-7 1h1m1 0h2m4 0h2m83 0h1m-84 1h1m2 0h1m-8 1h1m86 0h1M6 76h1m-2 1h2m3 0h1m101 2h1M12 80h1m-4 1h1m102 0h1m-96 1h1M7 83h1m12 0h1m90 0h1M6 84h1m13 0h1m1 0h1m2 0h1m85 0h1M7 85h1m9 0h1m2 0h1m91 0h1m-98 1h1m7 0h1m6 0h1m80 0h1m-83 1h1m1 0h1m80 0h1m-92 1h1m2 0h2m85 0h1M8 89h1m23 0h1M9 91h1m11 0h1m3 0h1m4 0h1m-11 1h1m2 0h3m-5 1h2m3 0h2m3 0h1m-5 2h1M6 96h1m14 0h2M5 97h1m1 0h2m1 0h1m-5 1h1m16 0h1M7 99h1m8 0h1m-5 1h1m7 0h1m2 0h1m-12 1h1m5 0h1m4 0h1m-8 1h1m5 0h1m-2 1h2m-10 1h1m9 0h2m2 0h1m-12 1h1m1 0h1m0 2h1m2 0h1m1 0h1m6 0h1m-6 1h1m5 0h1m-10 1h1m7 0h1m-6 1h1"/><path stroke="#f8f8f1" d="M111 45h1m0 2h1M7 54h1m104 0h1M7 55h1m-1 1h1m-3 1h1m-1 1h1m5 0h1m-2 2h1m-3 2h1m7 0h1m95 0h1m-93 1h1m10 1h1m-22 1h1m10 0h2M9 66h1m9 0h1m10 0h1m-12 1h1m3 0h1m-4 1h2m89 0h1m-91 1h3m1 0h1m3 0h1m-4 1h1m4 0h1m-6 1h1m-8 1h1m4 0h1m87 0h1m-92 1h3m3 0h1m83 0h2m-86 2h1M7 77h1m104 0h1M9 78h1m1 0h1m-7 1h1m5 0h1m-6 1h1m1 0h1m8 0h1M7 82h1m3 0h1m33 1h1M8 84h1m14 0h1M5 85h1m10 0h1m4 0h1m4 0h1M8 86h1m10 0h1m2 0h1M8 87h1m11 0h1m5 0h1m1 0h1m3 0h1m-5 1h1m-5 1h1m1 0h3M9 90h1m17 0h2M7 91h1m18 0h2m3 0h1M8 92h1m17 0h1m1 0h1m-4 1h1m2 0h1m3 0h1m-11 1h1m2 0h1m86 0h1M11 96h1m18 0h1m1 0h1m-20 1h1m13 0h1M7 98h1m2 0h1m19 0h1m1 0h1m-16 1h1m6 0h1m-18 1h1m24 0h1m-13 1h1m7 0h1m2 0h1m-23 1h1m5 0h1m9 1h2m3 0h2m-12 1h1m10 2h1m-7 1h1m2 1h2m-6 1h1m3 0h1m0 2h1"/><path stroke="#f9f8f1" d="M112 45h1m-1 1h1m-2 1h1m0 5h1m-2 2h1M5 55h2m104 0h1m-1 1h1M10 57h1m-5 3h1m-1 1h1m2 0h2m-6 2h1m2 0h1m15 0h1M7 64h1m2 0h1m11 0h1m3 0h1m1 0h1m1 0h1M4 65h1m2 0h1m20 0h1m-5 1h1m-15 1h1m17 0h1m2 0h1m-8 1h1m5 0h2m-8 1h1m7 0h1m78 0h1m-83 1h1m-11 1h1m2 0h1m8 0h1m-10 1h1m2 0h1m6 0h1m-7 2h5M7 75h1m16 0h1M5 76h1m2 0h1m23 0h1M9 77h1m101 1h1M12 79h1m-2 1h1m4 0h1m-6 1h1m6 0h2M5 82h1m14 0h1m91 1h1M9 84h1m1 0h1m4 0h1m2 0h1M8 85h1m6 0h1m3 0h1m20 0h1m-9 1h1M7 87h1m16 0h1m-5 1h1m1 0h1m8 0h1M5 89h3m12 0h2m1 1h1m1 0h1m86 0h1m-90 1h2m86 0h1M5 92h1m105 0h1M9 93h1m102 0h1M8 94h1m17 0h2m83 0h1M8 95h1m18 1h1M9 97h1m2 0h1m7 0h1m4 0h2m4 0h1m-6 1h1M9 99h2m14 0h1m-18 1h1m15 0h1m2 0h1m-20 1h1m4 0h2m1 0h1m2 0h1m6 0h1m-1 1h1m-3 1h1m4 0h1m1 1h1m-17 1h1m5 0h1m1 0h2m6 0h1m-6 2h1m-5 1h1m3 1h1m4 2h1"/><path stroke="#b8a989" d="M115 45h1m-8 1h1m-7 2h1m11 0h1m-6 1h1m-4 1h1m9 1h1m-58 1h1m45 1h1m10 0h1m-57 3h1m48 1h1m6 0h1m-11 1h1m7 0h1m-37 2h1m1 0h1m3 0h1m31 0h1M14 61h1m80 1h1m-11 1h1m1 1h1m-41 1h1m45 0h1m21 0h1m-31 1h1m29 0h1m-69 2h1m30 0h2m5 0h1m-2 1h1m2 0h1m27 0h1m-98 1h1m61 0h1m6 0h1m20 0h1m7 0h1m-31 2h1m28 1h1m-32 1h1m1 0h1m17 0h1m-46 1h1m20 0h1m4 0h3m19 0h1m8 1h1m-59 1h1m21 1h1m6 0h1m26 0h1m-28 1h1m21 0h1m5 0h1m-9 1h1m-4 3h1m1 0h1m-9 1h1m0 2h1m14 0h1m-29 1h1m28 0h1m-38 1h1m35 0h2m-2 1h1m-1 1h1m-96 1h1m66 0h1m4 0h1m-15 1h1m1 0h1m4 0h1m29 0h1m-35 1h1m-23 1h1m20 0h1m21 1h1m-18 1h1m-66 1h1m57 0h1m0 1h1m-21 1h1m18 0h2m-2 2h1m1 1h2m-1 2h1m5 0h1m-9 2h1"/><path stroke="#f8f8f0" d="M111 46h1m-1 4h1M8 55h1m2 1h1m-6 1h1m2 0h1m-3 1h1m2 0h1m-5 1h1m2 0h1m-2 1h1m-4 1h1m-1 1h1m3 1h1m12 0h2m88 0h1M8 64h1m12 0h1m3 0h1m1 1h1m3 0h1m79 0h1M10 66h1m9 0h1m2 0h1m88 1h1m-90 1h1m2 0h1m1 0h1m-10 1h1m7 0h1m-8 1h1m11 0h1m-2 2h1m-7 1h1M5 74h1m17 0h1M5 75h1m23 1h1m1 1h1m79 0h1M8 78h1m43 1h1m-3 1h1m60 0h1M8 81h1m0 1h2m-5 1h1m1 0h1m8 0h1m0 1h1m23 0h1m69 0h1M6 85h1m11 0h1M7 86h1m12 0h1m5 0h1m-10 1h1m1 0h1M6 88h1m20 0h1m2 0h1m81 0h1m-82 1h1m-12 1h2m2 0h1m86 0h1m-92 1h1m1 0h1m5 0h1M7 92h1m21 0h1m82 0h1m-93 1h1m90 0h1M5 94h1m15 0h1m10 0h1M5 95h2m13 0h2m7 0h2m1 0h1M7 96h1m2 0h1m13 0h1m-14 1h1m12 0h1m-13 1h1m2 0h1m5 0h1m9 0h1m-21 1h1m2 0h1m8 0h1m4 0h2m-25 1h1m7 0h1m1 0h1m3 0h1m6 0h1m-17 2h2m7 0h1m4 0h1m2 0h1m3 0h1m-21 1h1m8 0h1m6 0h1m1 1h1m-13 1h1m1 0h2m1 0h1m4 0h1m4 0h1m-1 1h1m-12 2h1m6 2h1m2 0h1m1 1h1"/><path stroke="#b8a888" d="M115 46h1m-9 1h1m0 8h1m-2 1h2m-4 2h1m1 0h1m6 1h1M13 61h1m80 2h1m-11 1h1m8 0h1m21 0h1m-98 1h1m61 0h1m35 0h1m-70 1h1m30 0h1m-2 1h1m1 2h1m-33 1h1m29 1h1m1 0h1m5 1h1m29 0h1m-32 1h2m1 0h1m18 0h1m1 0h1m-3 1h1m7 0h1m-56 2h1m54 0h1m-56 1h1m27 0h1m16 0h1m-46 1h1m25 0h1m18 0h1m2 0h1m7 0h1m-57 2h1m44 0h1m-27 1h1m-20 1h1m18 0h1m6 0h1m18 0h2m-28 1h1m5 0h1m29 0h1m0 1h2m-1 1h1m-38 1h1m25 0h1m1 0h1m1 0h1m-52 1h1m18 0h1m9 0h1m10 0h1m7 0h1m-48 1h1m17 0h1m1 0h1m5 0h1m1 0h1m-11 1h1m9 0h1m6 0h1m13 0h1m-32 1h1m6 0h1m2 0h1m16 0h1m-26 1h1m7 0h1m21 0h1m5 0h1m-97 3h1m94 0h1m-35 1h1m-4 1h1m-19 1h1m20 0h1m3 0h1m-26 1h1m17 0h1m-59 1h1m81 0h1m-23 1h1m-2 1h1m5 0h1m-1 2h1m-1 1h2m0 1h2m-2 1h1m-3 1h2m-2 1h2"/><path stroke="#f9f8f0" d="M112 48h1m-1 2h1m-1 3h1M9 55h1m-2 2h1m102 0h1m0 1h1M9 60h1m8 0h1m92 0h2m-96 1h1m1 0h1m91 0h2m-92 1h1M7 63h1m1 1h1m9 0h1m4 0h1m2 0h1m83 0h1M8 65h1m-1 1h1m102 0h1M9 67h1m10 0h3m2 1h1m2 1h1m-6 1h1m-4 1h1m2 1h1m4 0h2m-6 1h1m1 0h1m-2 1h1m86 0h1m-83 1h1m80 0h2m-87 1h1M8 77h1m-3 1h2m4 0h2m40 0h1M7 79h1m7 0h1m37 0h1M5 80h1m-1 1h1m1 0h1m2 0h1m100 0h1M9 83h1m9 0h1m2 0h1m-11 1h1m30 0h1M9 85h1m3 0h1m8 0h1m5 1h1m4 0h1M6 87h1m14 0h2m7 0h1M7 88h1m21 0h1m-8 1h2m1 0h1m3 0h1M8 90h1m21 0h1m1 0h1M8 91h1m-3 1h1m15 0h1M7 93h1m15 0h1m5 0h1M9 94h1m13 0h1m4 0h1m2 0h1M7 95h1m17 0h1M5 96h1m3 0h1m21 0h1m-11 1h1m1 0h1m5 0h1M5 98h1m2 0h2m1 0h1m8 0h1M4 99h1m3 0h1m12 0h1m5 0h1m4 0h1m-19 1h1m1 0h1m5 0h1m-16 1h1m3 0h1m3 0h1m6 0h1m-9 1h1m6 0h1m3 0h1m-14 1h1m1 0h1m1 0h1m11 0h1m-12 1h1m10 0h1m3 0h1m-5 1h1m-8 1h2m1 0h1m0 3h1m6 0h1"/><path stroke="#f8f9f1" d="M112 49h1M6 58h1m5 0h1m0 1h1m-3 1h1m5 0h1M7 61h2m-2 1h1m1 0h2m6 0h1m2 2h1m91 0h1M5 65h1m14 0h1m8 0h1M7 66h1m13 0h1m6 0h1m2 0h1M8 67h1m17 0h1m5 0h1m-23 1h1m16 0h1m-3 2h1m2 0h1m82 0h1m-87 1h1m1 0h1m2 0h1m1 0h1m78 0h1m-82 2h1M4 74h1m17 0h1m8 0h1M6 75h1m22 0h1M7 76h1m1 0h1m18 0h1m82 0h2m-85 1h2m26 0h1m-47 1h1m3 1h1m96 0h1M7 80h1m1 0h1m41 0h1M6 81h1m9 0h2m30 0h1M6 82h1m11 0h2m91 0h1M5 83h1m15 0h1m1 0h1M7 84h1m16 0h1m-1 1h1m86 0h1M5 86h1m21 0h1m-5 2h1m2 0h1m5 0h1m-3 1h1m81 0h1M5 90h1m16 0h1m6 0h1M5 91h1m23 0h1m2 0h1m-2 1h2M6 93h1m17 0h1M6 94h1m13 0h1m8 0h2m-5 1h1m-7 1h1m2 0h1M6 97h1m21 0h1m1 0h1m-6 1h1m3 0h1m-15 1h1m5 1h1m3 0h1m4 0h1m-14 1h1m3 0h1m2 0h1m4 0h1m-17 1h1m9 0h1m-11 1h1m5 0h1m5 2h2m3 0h1m-5 1h1m3 0h1m-3 1h3m-8 1h1m5 1h1m-5 1h1m1 1h1m2 0h1"/><path stroke="#d9d8c0" d="M99 50h1M3 51h1m93 0h1m15 0h1m-4 1h1m-51 1h1m-8 4h1m-2 1h1m21 0h1m38 0h1m-1 1h1M12 60h1m37 0h1m62 0h1m-91 1h1m15 1h1m-29 1h1m14 0h1m11 0h1m1 0h1m-4 1h1m7 0h1m-11 2h1m-25 1h1m98 0h1m-62 1h1m60 0h1M11 69h1m36 0h1m18 0h1m-51 1h1m92 0h1m-75 1h1m8 0h1M2 72h1m33 0h1m23 1h1m-25 1h1m73 1h1M10 76h1m41 1h1m-39 3h1m37 0h1m-9 1h1m-2 1h1m-32 1h1m27 0h1m-29 2h1m18 0h1m3 0h2m2 0h1m20 0h1m-22 1h1m-5 1h1m2 0h1m1 0h1m-23 4h1m18 0h1m75 1h1m-54 1h1m52 0h1M11 95h1m101 0h1m-76 1h1m-23 2h2m17 0h1m2 0h1m-21 1h1m17 0h2m17 0h1m-18 1h1m-4 1h1m19 0h1m9 1h1m-27 1h1m-5 1h1m33 0h1m-33 2h1m0 1h1m-1 2h1m-2 2h1m-9 1h1"/><path stroke="#f0f8d8" d="M1 51h2m0 2h1m2 0h1m56 4h1m1 0h2m1 0h1m-3 1h1m1 0h1m-7 1h1m3 0h1m3 0h1m4 1h1m5 0h1M4 61h1m59 0h1m17 0h1m-20 1h4m6 0h2m-11 1h1M3 64h1m61 0h1m8 0h1m6 0h1m-48 1h1m27 0h1m9 0h1m-6 1h1m3 0h1m10 0h1m-18 1h1m9 0h1m-1 1h1m6 0h1m-14 1h1m5 0h1m-5 1h1m1 0h1m-41 1h1m49 0h1M1 72h1m81 0h1m-51 1h1m27 1h1m19 0h1m1 0h1M4 75h1m59 0h1m-31 1h1m28 0h1m17 0h1m-20 1h1M3 78h1m59 0h2m18 0h1m-20 2h1m6 0h1m-6 1h1m3 0h1m4 0h1m-13 2h1M1 84h2m59 0h1m36 0h1m-26 1h1m-8 1h1m7 0h1M3 87h1m57 0h2m4 0h1m8 0h1m5 0h1M1 88h1m59 0h4m4 0h1m1 0h2m1 0h1m6 0h1m-49 2h1m29 0h1m10 0h2m6 1h2M3 92h1m60 1h1m10 0h1m6 0h1M4 94h1m57 0h1m3 0h1m4 0h1m3 0h1m-6 1h1m10 0h1m-21 1h1m1 0h2m3 1h1m1 0h1M3 98h1m61 0h1m2 0h1m2 0h1m-8 1h1m16 0h1m-19 1h1m1 0h1m3 0h1m2 0h1m1 0h1m0 1h1m-4 1h1m1 0h2m-8 1h1m12 0h1m-7 1h1m0 3h1m5 1h1"/><path stroke="#f9f9f0" d="M111 51h2M5 53h1m-1 3h1m5 1h1m-7 2h1m2 0h1m-2 1h1m7 2h1m3 0h2m90 0h1m-93 1h1m1 0h1m89 0h1m-80 1h1M9 65h1m13 0h1m2 0h1m3 0h1m-9 1h1m3 0h1m85 0h1m-86 1h1m83 0h1m-93 1h1m92 0h1m-83 1h2m80 0h1m-1 1h1m-85 1h2m0 1h1m-2 1h1m2 1h1m-8 1h1m6 0h1m-2 1h1m-2 1h1M5 78h1m0 1h1m1 0h1m1 1h1m2 2h1m33 0h1m64 0h1m-95 1h1m25 0h1m-35 1h1m6 0h1m3 0h1M6 86h1m2 0h1m7 0h2m2 0h1m7 0h1M5 87h1m12 0h1m6 0h1m1 0h1M5 88h1m2 0h1m0 1h1m101 0h1M6 90h1m2 2h1m11 0h1m5 0h1m2 0h1M5 93h1m2 0h1m0 2h1m13 0h1m4 0h1m-3 1h1m1 0h1m3 1h1m-19 1h1m12 0h1M6 99h1m13 0h1m5 0h1m3 0h1m-22 1h3m-3 1h2m16 0h1m4 0h1m-16 1h2m1 0h1m8 0h1m-13 1h2m-4 1h2m2 0h1m1 0h2m3 0h1m-10 2h1m5 0h1m4 0h1m-9 1h1m6 0h1m4 0h1m-9 1h1m2 1h1m2 0h1m-4 1h1m1 0h1m2 0h1m-5 1h1m3 0h1"/><path stroke="#f1f8d8" d="M2 52h1m59 1h1M4 54h1m57 2h1m1 0h1m-3 1h1M1 58h2m60 0h1m3 0h1M3 59h1m13 0h1m43 0h1m19 0h1M3 60h1m64 0h1m-48 1h1m48 0h1m3 0h1m6 0h1M4 62h1m56 1h2m2 0h1m4 0h1m11 0h1M2 64h1m63 0h1m-1 1h1m-33 1h1m46 0h1m-10 2h1m-39 1h1m36 0h1m-39 1h1m49 0h1m-3 1h1m-48 1h1M2 73h1m80 0h1M3 74h1m57 1h1M4 76h1m59 0h2m0 2h3m-4 1h1m4 0h1M1 80h1m66 0h1m14 0h1m-2 1h2M2 82h1m61 0h1m2 0h1m8 0h1m6 0h1M1 83h1m73 1h1m7 0h1M1 85h1m59 0h2m12 0h1m24 0h1m-28 1h1m8 0h1m-49 1h1m35 0h1m10 0h1m1 0h1m-50 1h1m31 0h3M4 89h1m70 0h2m-9 1h1m1 0h1m-9 2h1m2 0h1m8 0h2M1 93h1m32 0h1m28 0h1m10 0h1m-14 1h1m1 0h1M1 95h1m61 0h1m8 1h1m10 0h1m-23 1h1m3 0h2m5 0h2m1 0h1M4 98h1m63 1h2m0 1h1m2 0h1m9 0h1m-15 3h1m2 0h2m-41 3h1m42 0h1m-43 1h1m47 0h1m-49 1h1m46 0h1m-49 1h1m49 0h1"/><path stroke="#f9f9f1" d="M4 53h1m1 3h1m1 0h1m3 1h1m-4 1h1m101 0h1M10 59h2m99 0h1M5 60h1m12 1h1m1 0h1M6 63h1m3 0h1m-5 1h1m16 0h1m5 0h1m-6 1h2m-1 1h1m3 0h1m-1 1h2m-9 1h1m9 0h1m-14 2h1m10 0h1m-8 1h1m88 0h1m-93 2h1m11 0h1m-7 2h1m1 0h1m2 0h1m-5 1h1m2 0h1m-20 1h1m20 0h2m21 1h1m56 0h1M9 79h2m2 0h1m1 1h1m96 0h1m-64 1h1M8 82h1m12 0h1m24 0h1m-37 1h2m-7 1h1m17 1h1m1 0h1m1 0h1m13 0h1m-26 1h1m7 0h2m5 0h1m80 0h1M9 87h1m13 0h1m87 0h1M9 88h1m-3 2h1m18 0h1m4 0h1M6 91h1m105 0h1m-83 2h1M7 94h1m16 0h1m-3 1h1m1 0h1m6 0h1M8 96h1m16 0h1m3 0h1m-8 1h1m-10 1h1m8 0h1m1 0h1m3 0h1M5 99h1m6 0h2m8 0h1m8 0h1m-26 1h1m10 0h2m9 0h2m1 0h1m-7 1h1m4 0h1m-19 1h1m15 0h1m1 0h1m1 0h1m-18 1h1m7 0h1m8 0h1m-19 1h1m3 0h1m6 0h1m4 0h1m-2 1h1m-12 1h3m4 0h1m1 0h1m1 0h1m-9 1h1m1 0h1m1 1h1m1 0h1m2 0h2m-2 2h1"/><path stroke="#f1f8d9" d="M8 54h1m55 0h1M1 55h1m1 0h1m63 0h1m-3 1h1m2 0h1m-5 1h1m5 0h1m-10 1h1M2 59h1m60 0h2M1 60h1m64 0h1m4 0h1m2 0h1m1 0h1M1 61h1m69 0h1m11 0h1m-14 1h1m1 0h1m3 0h1m4 0h1m-19 1h1m5 0h1m13 0h1m-17 1h1m4 0h1m2 0h1m6 0h1m-12 1h1m1 0h1m-5 1h1m-3 1h1m0 1h1m2 0h1m1 0h1m2 0h1m5 1h1m-9 1h1m-41 1h1m47 1h1m-2 1h1m-16 4h1m15 0h1M4 78h1m-4 1h1m2 0h1m59 0h1m1 0h1m4 0h1m9 0h2M3 80h1m58 0h1m9 0h3M1 81h1m1 0h1m68 0h1m8 0h1M3 82h1m0 1h1m57 0h1m5 0h2m-1 1h1m1 0h1m2 0h1m7 0h1M3 85h1m61 0h1m3 0h1m-35 1h1M1 87h1m74 1h1M1 89h1m62 0h1m2 0h2m1 0h1m-9 1h1m6 0h1m1 0h1m9 0h1m-49 1h2m26 0h1m6 0h1m12 0h1m-11 1h1m-39 1h1m28 0h1m2 0h1m5 0h1m11 0h1m-20 1h1M2 95h1m31 0h1m27 0h1m2 0h1m2 0h1m7 0h1M3 96h1m67 0h1M2 97h1m64 0h1m3 0h1m4 0h1m-15 1h1m1 0h1m1 0h2m-7 1h1m3 0h1m-33 1h1m34 0h1m2 0h1m-8 1h1m6 0h1m4 1h1m4 0h1m-49 1h1m37 0h1m11 0h1m-8 1h1m6 0h1m-3 1h1m1 1h1m-1 1h1m-50 4h1"/><path stroke="#e97931" d="M100 77h1m-8 1h1m2 1h1m2 0h1m-4 2h1m2 1h1m-7 2h1m-4 1h1m6 0h1m1 4h1m-7 2h1m1 0h1m4 0h1m-11 1h1m-1 3h1m4 0h1m-6 2h1m1 0h1m3 0h1m-7 2h1m1 1h1"/><path stroke="#e87930" d="M96 78h1m-7 4h1m4 1h1m3 0h2m-9 3h1m0 1h1m-1 3h1m5 0h1m-5 2h2m2 0h1m-8 1h1m2 1h1m3 0h1m-4 2h1m1 2h1m-4 2h1"/><path stroke="#e87931" d="M97 78h1m-8 2h1m1 0h2m5 0h1m-10 1h1m5 1h1m-7 1h1m6 0h1m-2 4h1m-2 1h1m-5 1h1m4 2h1m-4 1h1m6 0h1m-11 1h1m6 0h1m-5 1h1m-2 1h1m3 0h1m-7 1h1m-1 4h1"/><path stroke="#e97831" d="M100 79h1m-5 1h1m-2 2h1m0 1h1m-2 1h1m-6 2h1m6 1h1m-7 1h2m6 0h1m-10 2h1m8 1h1m-5 2h1m3 0h1m-4 6h1m-6 3h1"/></svg>