<svg xmlns="http://www.w3.org/2000/svg" shape-rendering="crispEdges" viewBox="0 -0.5 133 134"><path stroke="#e879a8" d="M64 0h1m7 4h1M56 16h1m43 2h1m-47 2h1m29 0h1m-67 5h1m53 1h1m-41 6h1m-22 2h1m24 0h1m13 2h1m-9 1h1M9 38h1m-4 6h1m55 3h1M4 48h1m23 0h1m65 5h1m-70 1h1m-2 3h1m19 0h1m55 1h1m-58 1h1m52 0h1m-55 2h1M6 63h1m3 3h1m3 2h1m15 8h1m5 2h1m-25 3h1m28 0h1m1 1h2m7 0h1m-42 2h1m1 1h1m35 0h1m-25 6h1m10 2h1m2 5h1m5 3h1"/><path stroke="#c9b8b0" d="M65 0h1m-5 5h1m29 8h1m7 4h1m-79 9h1m1 1h1m26 0h1m-39 4h1m20 1h1m82 7h1m-4 1h1m-93 9h1m3 4h1m-6 3h1m22 1h1m68 1h1m-72 1h2m-7 4h1m3 0h1m27 0h1m-30 1h1M17 75h1m102 1h2M13 79h1m21 2h1m35 0h1m38 0h1m-2 1h1m-16 1h1m-75 1h1m73 0h1m26 0h1m-51 1h1m22 0h1m-54 3h1m20 0h1m-48 1h1m105 0h1m-1 1h1m-60 1h1m-23 1h1m-25 4h1m-4 1h1m0 1h1m-3 2h1m81 1h1m-60 1h1m31 1h1m-49 1h1m19 0h1m-5 3h1m7 1h1m29 1h1m-1 1h1m-1 3h1m-38 1h1m6 1h1m-4 1h1m31 0h1m-4 1h1m-27 1h1"/><path stroke="#c9b9b0" d="M63 1h1m17 7h1m3 2h1m7 4h1m-38 1h1m-2 2h1m45 1h1m-50 5h1m-28 5h1m1 1h1m20 2h1m-12 3h1m1 1h1m73 9h1m-88 3h1m86 0h1m-93 1h1m5 1h1M2 51h1m22 0h1m-7 1h1m99 3h1m-97 2h1m44 5h1m50 0h1m-55 5h1m44 1h1m-98 1h1m51 0h1m-54 5h1m3 4h1m52 1h1m-55 1h1m105 0h1m-14 2h1m-47 3h1m-26 1h1m33 0h1m-1 1h1m49 0h1m-28 3h1m-57 1h1m80 1h1M15 93h1m46 0h1m55 0h1m-56 1h1m52 0h1m-4 1h2m-30 2h1m-71 1h1m55 3h1m1 5h1m-39 5h1m8 1h1m-1 5h1m7 11h1"/><path stroke="#f890c1" d="M64 1h1m2 1h1m-1 2h1m3 0h1m-3 1h1m1 0h1M61 6h1m5 0h1m-1 1h2m-6 2h1m1 1h1m4 0h1m1 0h1m5 0h4m1 0h1m-16 1h1m1 0h1m3 0h1m4 0h1m-18 1h2m3 0h1m1 0h1m1 0h1m5 0h1m3 0h1m-16 1h1m11 0h1m4 0h1m-22 1h1m8 0h1m2 0h1m16 0h1m-27 1h1m6 0h1m4 0h1m6 0h2m4 0h1m-25 1h1m2 0h1m17 0h1m-26 1h1m12 0h1m3 0h1m1 0h1m3 0h1m6 0h1m-25 1h2m1 0h1m24 0h1m-25 1h1m3 0h1m7 0h1m8 0h1m-21 1h4m2 0h1m18 0h1m3 0h1m-26 1h1m2 0h1m11 0h1m5 0h1m6 0h1m-28 1h1m13 0h1m5 0h1m4 0h1m3 0h1m-13 2h1m-4 1h1m4 0h1m1 0h1m-85 1h1m3 0h1m73 0h1m1 0h1m5 0h1m6 0h1m2 0h1m1 0h1m-97 1h1m2 0h1m88 0h1m-93 1h1m5 0h1m0 1h1m67 0h1m1 0h1m15 0h1m-90 1h1m-1 1h1m84 0h1m4 0h2m-85 1h1m65 0h1m16 0h1m-8 1h1m-80 1h1m69 0h2m8 0h1m-94 1h1m6 0h1m5 0h1m1 0h1m74 0h1m3 0h1m2 0h1m-99 1h1m13 0h1m9 0h1m-22 1h1m1 0h1m7 0h1m4 1h1m2 0h1m2 0h2m1 0h1m2 0h1m63 0h1m-79 1h1m1 0h2m8 0h1m2 0h1m62 0h1m-76 1h1m3 0h1m3 0h1m-19 1h1m5 0h1m11 0h1m-18 1h2m9 0h1m12 0h1m1 0h1m-28 1h1m11 0h1m8 0h1m-20 1h2m8 0h2m11 0h2m7 0h1m-11 1h1m10 0h1m-27 1h1m1 0h1m2 0h1m22 0h1m-31 1h1m13 0h1m5 0h2m5 0h1m-13 1h1m-12 1h1m4 0h2m2 0h1m23 0h1m-27 1h1m9 0h1m1 0h1m1 0h1m4 0h1m-21 1h1m1 0h1m3 0h1m4 0h1m2 0h1m3 0h1m5 0h1m-21 1h1m8 0h1m-33 1h1m28 0h1m1 0h2m4 0h1m5 0h1m-21 1h2m9 0h1m-8 1h1m8 0h1m6 0h1m1 0h1m-5 1h1m-5 1h2m6 0h1m-8 1h1m6 0h1m-29 1h1m26 0h1m-10 1h1m7 0h2m-6 1h2m-1 1h1M5 105h1m21 11h1m3 2h1m1 1h1m9 5h1"/><path stroke="#f990c0" d="M65 1h1m-1 1h1m-1 4h2m-1 1h1m-2 1h1m4 0h1m-6 1h1m1 0h1m5 0h1m3 1h1m-18 1h2m4 0h1m6 0h1m4 0h1m1 0h1m4 0h1m-14 1h1m-5 1h1m1 0h1m6 0h1m3 0h2m2 0h1m-21 1h1m3 0h2m2 0h1m3 0h1m4 0h1m-24 1h2m21 0h1m-20 1h1m10 0h1m8 0h1m2 0h1m8 0h1m-33 1h1m2 0h1m30 0h1m1 1h1m-29 1h1m2 0h1m21 0h2m3 0h1m-34 1h1m9 0h1m1 0h1m11 0h1m4 0h1m-24 1h1m28 0h1m-32 1h1m2 0h1m24 0h1m-9 1h1m4 0h1m6 0h1m4 0h1m-14 1h1m3 0h1m2 0h1m3 0h1m1 0h1m-7 1h1m3 0h1m-90 1h1m80 0h1m-85 1h1m77 0h1m5 0h1m14 0h1m-24 1h1m6 0h1m3 0h2m3 1h1m-94 1h1m4 0h1m72 0h1m4 0h1m3 0h2m9 0h1m-97 1h1m6 0h1m5 0h1m73 0h1m-85 1h1m1 0h1m2 0h1m68 0h1m15 0h1m-98 1h1m1 0h1m10 0h2m74 0h1m-86 1h1m1 0h1m80 0h1m-87 1h1m6 1h1m1 0h2m3 0h1m1 0h1m71 0h1m3 0h2m-85 1h1m7 0h1m78 0h1m-90 1h1m86 0h1m-91 1h2m1 0h1m14 0h1m8 0h1m-29 1h1m12 0h1m3 0h1m3 0h1m4 0h1m-28 1h1m2 0h2m4 0h1m9 0h1m1 0h1m2 0h1m7 0h1m-25 1h1m14 0h2m1 0h2m1 0h1m6 0h1m-28 1h1m4 0h1m5 0h1m2 0h3m3 0h1m1 0h1m-23 1h1m2 0h1m1 0h1m10 0h1m7 0h1m-24 1h1m2 0h1m5 0h2m16 0h1m-16 1h1m3 0h2m1 0h1m11 0h1m-26 1h1m2 0h1m1 0h1m2 0h1m3 0h1m12 0h1m-12 1h1m9 0h1m4 0h1m-8 1h1m2 0h1m-22 1h2m3 0h1m5 0h1m2 0h1m3 0h3m3 0h1m1 0h1m-4 1h1m7 1h1m-4 1h1m-20 1h1m3 0h2m11 0h1m3 0h1m-29 1h1m18 0h1m1 1h1m5 0h1m-19 1h1m5 0h1m4 0h2m2 0h2m-12 1h1m5 0h1m3 0h1m-3 2h1m0 3h1M40 82h1m54 20h1m-73 12h1"/><path stroke="#e878a9" d="M66 1h1m21 11h1m-7 9h1m23 0h1m-27 1h1m-3 1h1m-3 1h1m35 0h1m-43 3h1m-22 3h1m14 0h1m-16 2h1m10 0h1m-12 2h1m4 1h1m-45 1h1m38 0h1m43 9h1m-28 4h1m-40 2h1m66 0h1m-76 5h1m1 1h1m76 3h1M2 61h1m95 0h1M4 63h1m2 1h1m32 0h1M9 65h1m-1 1h1m2 0h1m3 3h1m1 1h1m2 0h1m-4 1h1m38 1h1m-34 1h1m0 1h1m2 2h1m4 0h1m21 0h1m-23 1h1m4 2h1M5 81h1m38 2h1m1 1h1m-32 2h1m6 0h1m0 4h1m6 0h1m-4 2h1m40 0h1m-36 3h1m8 1h1m3 2h1m-4 2h1"/><path stroke="#c8b8b1" d="M67 1h1m7 4h1M60 7h1m22 2h1m3 2h1m27 14h1M11 33h1m-4 6h1m104 3h1M6 43h1m20 5h1M3 49h1m22 0h1m-8 4h1m19 2h1m-17 1h1m17 0h1m73 0h1m-75 4h1m-8 2h1m75 0h1m8 2h1m-55 4h1m44 1h1m-96 1h1m-4 2h1m6 0h1m-8 4h1m58 3h1m-35 2h1m24 2h1m-26 2h1m33 3h1m-10 4h1m-48 3h1m96 1h1m-19 3h1m-25 2h1m-6 3h1m-29 5h1m3 3h1m2 2h1m26 2h1m-28 3h1m18 1h1m-2 1h1"/><path stroke="#f991c0" d="M63 2h1m2 0h1m-4 1h1m2 1h1m-5 1h1m2 0h1m1 0h1m5 0h1m-5 1h1m-6 1h1m7 0h1m3 0h2M62 8h1m12 0h1M64 9h1m5 0h1m9 0h2m-22 1h1m1 0h1m3 0h1m17 1h1m-24 1h1m2 0h1m1 0h1m1 0h1m13 0h1m-20 2h1m11 0h1m3 0h1m1 0h1m5 0h1m-27 1h1m8 0h1m7 0h1m13 0h1m-28 1h1m7 0h1m11 0h1m4 0h1m-11 1h1m8 0h1m3 0h1m-18 1h1m6 0h1m5 0h2m4 0h1m-30 1h1m8 0h1m3 0h2m8 0h2m-21 1h1m1 0h1m-3 1h1m5 0h1m13 0h1m8 0h3m-3 2h1m7 0h1m-18 1h1m1 0h3m9 0h1m-14 1h1m2 0h1m13 0h1m4 0h1m-97 1h1m78 0h1m8 0h1m3 0h1m-7 1h1m1 0h2m6 0h1m-99 1h1m3 0h1m2 0h1m74 0h1m1 0h1m7 0h1m1 0h1m-93 1h1m73 0h1m3 0h1m3 0h1m1 0h2m5 0h1m-85 1h1m68 0h1m2 0h1m10 0h1m1 0h1m1 0h1m1 0h1M14 31h1m4 0h1m6 0h1m67 0h2m8 0h1m3 0h1m-97 1h3m2 0h1m7 0h1m4 0h1m65 0h2m4 0h1m2 0h1m1 0h1m4 0h1M13 33h1m3 0h1m1 0h1m3 0h2m83 0h1m-97 1h1m10 0h1m5 0h1m2 0h1m68 0h2m-92 1h1m4 0h1m3 0h1m3 0h1m9 0h2m1 0h1m69 0h1m-95 1h1m3 0h1m13 0h1m5 0h1m66 0h1m2 0h1m-91 1h1m3 0h1m79 0h1m-84 1h1m11 0h1m6 0h1m70 0h1m-93 1h1m6 0h1m1 0h1m6 0h1m-13 1h1m1 0h1m22 0h1m62 0h1m-88 1h1m22 0h1m3 0h1m-31 1h1m14 0h1m9 0h1m4 0h1m-26 1h1m2 0h1m4 0h1m10 0h1m6 0h1m-24 1h1m3 0h1m4 0h1m6 0h1m4 0h1m3 0h1m-29 1h2m20 0h2m2 0h1m1 0h1m-25 1h1m22 0h1m-18 1h1m8 0h1m1 0h1m4 0h1m1 0h1m1 0h1m4 0h1m-27 1h2m5 0h1m4 0h1m-12 1h1m26 0h1m1 0h1m-22 1h1m1 0h1m7 0h1m13 0h2m-31 1h1m5 0h1m2 0h1m7 0h1m3 0h1m1 0h1m2 0h1m-25 1h1m1 0h1m1 0h1m6 0h1m-2 1h1m9 0h1m-13 1h1m-3 1h1m1 0h1m0 1h1m3 0h1m0 2h2m2 1h2m-4 1h1m1 0h1m-4 1h1m2 0h1m4 1h1m-6 1h1m-45 5h1m39 37h1m-42 3h1m17 9h1"/><path stroke="#f891c1" d="M64 2h1m0 2h1m-2 2h1m7 0h1m-2 1h1m1 0h1M63 8h2m2 0h1m1 0h1m3 0h1m2 0h2m-9 1h1m1 0h1m-8 1h1m2 0h1m-1 1h1m1 0h1m5 0h3m4 0h1m-4 1h1m5 0h2m-28 1h1m11 0h1m-11 1h1m5 0h1m16 0h3m-24 1h1m7 0h1m8 0h1m6 0h1m5 0h1m-30 1h1m2 0h1m3 0h1m4 0h1m1 0h1m3 0h1m1 0h1m4 0h1m1 0h1m1 0h1m-27 1h1m3 0h1m4 0h1m7 0h1m6 0h1m3 0h2m-15 1h1m3 0h1m6 0h1m3 0h2m-16 1h1m16 0h1m-20 1h1m11 0h2m8 0h1m-11 1h2m9 0h1m-31 1h1m1 0h1m20 0h1m3 0h1m4 0h1m-14 1h1m7 0h1m1 0h1m-6 1h1m6 0h1m-90 1h2m83 0h1m3 0h1m4 0h1m-1 1h1m1 0h1m-95 1h1m73 0h1m1 0h1m2 0h2m3 0h1m-82 1h1m70 0h2m11 0h1m7 0h1m-91 1h1m80 0h1m-89 1h1m1 0h1m6 0h1m69 0h1m7 0h1m-8 1h1m-81 1h1m1 0h1m3 0h1m75 0h1m2 0h1m-87 1h1m2 0h1m9 0h1m77 0h1m-85 1h1m1 0h1m6 0h1m1 0h1m1 0h1m71 0h1m-77 1h1m69 0h1m1 0h1m-90 1h1m11 0h1m1 0h1m73 0h1m-92 1h1m15 0h2m4 0h2m67 0h1m3 0h1m1 0h1m-98 1h1m3 0h2m4 0h1m4 0h2m6 0h1m71 0h1m-94 1h2m7 0h1m5 0h1m7 0h1m69 0h1m-92 1h1m8 0h2m5 0h1m15 0h1m-31 1h1m12 0h1m18 0h1m-31 1h1m6 0h1m1 0h1m7 0h1m3 0h1m9 0h1m-1 1h1m-15 1h1m2 0h1m10 0h1m-29 1h1m3 0h2m1 0h1m20 0h1m-26 1h1m7 0h1m9 0h1m1 0h1m1 0h2m3 0h1m5 0h2m-23 1h1m23 0h1m-14 1h1m2 0h2m9 0h2m-18 1h2m7 0h1m3 0h1m-21 1h1m-2 1h1m2 0h1m7 0h2m3 0h1m-16 1h1m5 0h1m6 0h1m6 0h3m3 0h1m-28 1h1m12 0h2m7 0h1m-16 1h1m1 0h1m5 0h1m1 0h1m7 0h1m-12 1h1m-5 1h1m-2 1h1m3 0h1m7 1h1m-5 1h1m5 0h1m-5 1h1m-3 1h1m-22 2h1m23 0h1m-39 9h1m79 9h1m-4 22h1m-79 9h1m21 11h1m7 4h1"/><path stroke="#e878a8" d="M68 2h1m23 12h1m-4 9h1m-28 8h1m-25 4h1m13 7h1m-26 8h1M2 52h1m91 0h1m-51 4h1m-25 1h1m74 2h1M0 61h1m0 1h2m38 0h1M6 64h1m1 0h1m27 1h2m-25 2h1m4 2h1m3 4h1m1 1h1m8 4h1m62 1h1m-60 1h1m15 0h1m-12 1h1m-2 1h1m0 1h1m5 1h2m-30 1h1m3 2h1m-4 2h1m10 2h1m8 8h1m7 4h1"/><path stroke="#c9b9b1" d="M69 2h1m1 1h1m-14 8h1m50 11h1m-91 3h1m-6 2h1m14 3h1m1 1h1m9 5h1m3 2h1m70 2h1m-1 2h1m-4 3h1M4 47h1m21 3h1m-1 1h1m90 4h1m-81 1h1m81 1h1m-1 1h1m-53 2h1m-28 2h1m54 0h1m14 3h1m-1 1h1m-43 1h1m-57 4h1m2 3h2m101 3h1m2 1h1M16 79h1m49 2h1m54 0h1m-81 2h1m29 0h1m49 0h1m-60 1h1m31 2h1m-54 1h1m48 4h1m30 0h1M16 92h1m72 1h1m-28 1h1m-51 1h1m74 1h1m23 0h1M12 97h1m96 0h1m-91 6h1m17 0h1m-21 1h1m17 1h1m-1 1h1m37 1h1m-31 2h1m-9 1h1m7 0h1m29 1h1m-39 2h1m7 3h2m23 2h1m-26 1h1m22 0h1m-3 1h1m-4 1h1"/><path stroke="#c8b9b0" d="M62 3h1m40 16h1m-89 6h1m33 4h1m-15 4h1m80 2h1m-4 6h1m-1 2h1m2 0h1m-97 7h1M1 53h1m22 1h1m17 1h1m75 0h1m-3 1h1m-75 1h1m70 0h1m-49 7h1m2 5h1m41 1h2m-96 1h1m48 0h1m-53 2h1m3 3h1m1 0h1m51 2h1m23 1h1m-61 1h1m29 1h1m28 0h1m16 0h1m-73 1h1m23 0h1m57 0h1m-51 2h1m-10 2h1m-28 1h1m58 1h1m-60 1h1m58 0h1m-78 1h1m17 0h1m26 0h1m31 1h1m-6 1h1m-77 2h1m-2 2h1m97 1h1m-92 1h1m-1 1h1m-2 1h1m53 0h1m-58 1h1m-3 1h1m54 0h1m-50 4h1m40 0h2m-18 1h1m28 1h1m-30 1h1m28 6h1m-7 3h1"/><path stroke="#f990c1" d="M64 3h1m3 0h1m-5 1h1m5 0h1m-3 1h1m2 1h1m2 0h2M61 7h1m7 0h2m-5 1h1m12 0h1M61 9h1m6 0h1m8 0h1m-17 1h1m9 0h1m10 0h1m-18 1h1m17 0h1m-25 1h1m27 0h1m-27 1h1m5 0h1m8 0h1m3 0h1m-22 1h2m17 0h1m-15 1h1m4 0h1m4 0h1m8 0h1m2 0h1m-17 1h1m1 0h1m19 0h1m-29 1h1m5 0h1m6 0h2m8 0h1m-18 1h1m7 0h1m5 0h1m6 0h1m-1 2h1m4 0h1m2 0h1m1 0h1m-34 1h1m9 0h1m-2 1h1m12 0h2m4 0h1m8 0h1m-15 1h1m2 0h3m9 0h1m-1 1h1m4 0h1m-19 1h1m1 0h1m4 0h1m3 1h1m-14 1h1m4 0h1m10 0h2m2 0h1m-98 1h1m85 0h2m10 0h1m-93 1h2m75 0h2m6 0h1m-15 1h1m7 0h2m4 0h1m-81 1h1m1 0h1m64 0h2m5 0h1m7 0h1m-88 1h1m10 0h1m63 0h1m-75 1h2m8 0h1m1 0h1m73 0h1m2 0h1m-97 1h1m88 0h2m5 0h2m-95 1h1m92 0h1m-99 1h1m6 0h1m12 0h1m3 0h1m63 0h1m-89 1h1m10 0h1m16 0h1m63 0h1m-93 1h1m6 0h1m3 0h3m7 0h1m-22 1h1m6 0h1m4 0h1m9 0h1m73 0h1m-91 1h2m7 0h1m4 0h1m3 0h1m6 0h1m2 0h1m-31 1h1m11 0h1m4 0h1m8 0h1m-14 1h3m3 0h1m13 0h1m-22 1h1m4 0h2m1 0h1m8 0h1m6 0h2m-20 1h1m-3 1h1m6 0h1m14 0h1m1 0h1m-31 1h1m1 0h1m7 0h1m9 0h1m4 0h1m-17 2h1m2 0h1m7 0h1m-6 1h1m1 0h2m3 0h1m2 0h1m-18 1h1m28 0h2m-31 1h2m20 0h1m6 0h1m-10 1h2m2 0h1m4 0h1m-24 1h4m15 0h1m4 0h1m-22 1h1m7 0h1m4 0h1m7 0h1m-15 1h1m6 0h1m-6 1h1m7 1h1m-1 1h1m1 0h1m-11 1h1m2 1h1m-4 1h1m8 0h1m-6 1h1m0 1h1m-33 52h1m21 11h1m3 2h1"/><path stroke="#f991c1" d="M65 3h1m1 0h1m1 0h1m-8 1h1m6 0h1m-7 1h2m5 0h1m-9 1h1m7 0h1m2 0h1M62 7h2m-3 1h1m6 0h1m5 0h1m3 0h1M60 9h1m5 0h1m5 0h1m1 0h2m3 0h1m-18 2h2m11 1h1m-7 1h1m4 0h2m-12 1h1m3 0h1m11 0h1m2 0h1m-22 1h1m3 0h1m9 0h1m2 0h1m1 0h1m6 0h1m-27 1h1m18 0h1m-17 1h1m2 0h2m12 0h1m5 0h1m-22 1h1m-1 1h1m9 0h1m17 0h1m2 0h1m-4 1h1m-27 1h1m3 0h1m23 0h1m-25 1h1m30 0h1m-7 1h1m11 1h1m-21 1h1m18 0h1m2 0h1m-97 1h1m74 0h2m7 0h1m5 0h1m-12 1h1m4 0h1m-81 1h1m89 0h1m3 0h1M14 29h2m3 0h1m5 0h1m77 0h1m2 0h1m-84 1h1m70 0h1m15 0h1m-98 1h1m8 0h1m79 0h1m-80 1h1m2 0h1m-7 1h1m11 0h1m62 0h1m9 0h1m-91 1h1m1 0h1m1 0h1m7 0h1m78 0h1m-93 1h1m13 0h3m1 0h2m65 0h2m-86 1h1m5 0h1m2 0h1m5 0h1m3 0h1m3 0h1m70 0h2m-96 1h1m3 0h1m11 0h2m74 0h1m-95 1h1m3 0h1m10 0h1m80 0h1m-84 1h1m6 0h1m6 0h1m4 0h1m58 0h1m2 0h1m-85 2h1m11 0h1m4 0h2m-17 1h1m8 0h1m-17 1h1m2 0h1m3 0h1m17 0h1m-16 1h1m8 0h1m-7 1h1m5 0h1m5 0h1m13 0h1m-28 1h1m22 0h1m-22 1h1m2 0h1m2 0h1m-2 1h1m2 0h1m-21 1h1m9 0h1m18 0h2m1 0h1m-11 1h1m17 0h1m-42 1h1m26 0h1m17 0h1m1 0h1m-20 1h1m5 0h1m2 0h2m6 0h1m-26 1h1m6 0h1m6 0h1m2 0h1m-3 1h1m7 0h1m-16 1h1m5 0h1m1 0h1m2 0h1m1 0h1m3 0h1m-9 1h1m-21 1h1m12 0h1m0 1h1m8 1h1m-26 2h1m22 1h1m1 1h1m0 1h1m-45 6h1M7 106h1m5 3h1m1 1h1m5 3h1m23 12h1"/><path stroke="#f890c0" d="M66 3h1m-1 2h1m-4 1h1m1 1h1m-6 1h1m10 0h2M62 9h1m0 1h1m4 0h2m4 0h3m-18 1h1m11 0h1m-2 1h1m9 0h1m3 0h1m-22 1h2m7 0h1m11 0h1m2 0h1m1 0h1m-14 1h1m12 0h1m-23 1h1m5 0h1m15 0h1m1 0h1m-24 1h1m11 0h1m7 0h1m-17 1h1m10 0h1m2 0h1m3 0h1m3 0h1m-29 1h1m5 0h3m2 0h1m1 0h1m5 0h1m-17 1h1m8 0h1m2 0h2m8 0h1m-15 1h1m4 0h1m17 0h1m-30 1h2m2 0h1m3 0h1m11 0h1m3 0h2m5 0h1m-9 1h1m7 0h1m-13 1h1m6 1h1m1 0h1m1 0h2m5 0h1m2 1h1m-18 1h1m3 0h1m4 0h1m3 0h1m6 0h1m-94 1h1m79 0h1m2 0h1m7 0h1m-95 1h1m75 0h1m-2 1h1m2 0h1m3 0h1m-88 1h1m3 0h1m2 0h1m1 0h1m81 0h1m1 0h1m-92 1h1m1 0h2m1 0h1m7 0h1m68 0h2m2 0h1m7 0h2m-84 1h1m72 0h1m5 0h1m1 0h1m-93 1h1m12 0h2m65 0h1m3 0h1m1 0h2m5 0h1m1 0h1m-99 1h1m6 0h1m5 0h1m1 0h1m79 0h1m-94 1h1m6 0h1m82 0h1m2 0h1m-93 1h1m16 0h1m5 0h1m68 0h1m-96 1h1m4 0h1m7 0h1m2 0h1m6 0h2m67 0h1m-92 1h1m7 0h1m16 0h2m1 0h2m-33 1h1m3 0h1m5 0h1m9 0h1m6 0h1m2 0h1m1 0h1m-30 1h1m6 0h1m4 0h1m13 0h1m3 0h1m-23 1h1m6 0h1m2 0h1m4 0h1m7 0h2m-23 1h1m2 0h1m9 0h1m8 0h1m-25 1h1m7 0h1m6 0h1m-13 1h1m5 0h1m9 0h1m10 0h2m-18 1h1m4 0h1m5 0h1m5 0h1m-22 1h1m2 0h1m3 0h2m8 0h1m4 0h2m-35 1h1m18 0h1m4 0h2m10 0h1m1 0h2m-31 1h2m4 0h1m4 0h1m5 0h1m5 0h2m2 0h3m1 0h1m-30 1h1m1 0h1m3 0h2m2 0h1m2 0h1m8 0h1m2 0h2m6 0h1m-19 1h1m10 0h1m3 0h1m-23 1h1m6 0h1m4 0h1m12 0h1m-23 1h2m3 0h1m13 0h1m-19 1h1m9 0h1m7 0h1m-13 1h1m7 0h3m-43 1h1m32 0h1m-6 1h1m2 0h1m3 0h1m1 0h1m7 0h1m-14 1h1m8 0h1m-10 2h1m2 0h1m4 0h1m1 0h1m-9 1h1m5 0h1m1 0h1m-1 1h1m-1 1h1m34 11h1m-62 6h1m64 25h1m-91 3h1m27 14h1m1 1h1"/><path stroke="#e978a9" d="M70 3h1m13 7h1m9 5h1m3 2h1m-11 1h1m15 2h1m-89 4h1m49 5h1m-37 2h1m18 2h1m41 0h1m-1 1h1m-52 2h1m11 0h1m39 3h1M5 46h1m100 0h1m-2 2h1M0 56h1m23 0h1M0 59h1m-1 1h1m2 2h2m0 2h1m33 2h1m-24 2h1m-3 1h1m6 3h1m4 1h1m2 1h1m-1 2h1m0 1h1m5 2h1m62 1h1m-60 1h1m5 2h1m3 2h1m-17 7h1m13 7h1m2 5h1"/><path stroke="#f891c0" d="M63 4h1m4 0h1m3 1h1m-5 1h1m5 1h2m0 2h1m1 0h1m-6 1h1m-10 1h1m7 0h1m8 0h1m-22 1h1m4 0h1m7 0h2m1 0h1m1 0h1m4 0h1m-24 1h1m1 0h1m2 0h1m7 0h1m5 0h1m6 0h1m1 0h1m-23 1h1m5 0h1m15 0h1m1 0h1m-23 1h1m6 0h1m-1 1h1m1 0h1m1 0h1m14 0h1m-22 1h2m0 1h1m4 0h2m10 0h1m1 0h1m-27 1h1m1 0h1m2 0h1m18 0h1m1 0h1m4 0h1m-31 1h1m1 0h1m18 0h1m2 2h1m1 0h1m3 0h1m0 1h1m1 0h1m2 0h1m2 0h1m-18 1h1m4 1h1m1 0h1m3 0h1m1 0h1m1 0h1m-10 1h1m4 0h1m12 0h1M16 27h1m2 0h1m90 0h1m-95 1h1m78 0h2m7 0h1m1 0h1m1 0h1m2 0h1m-96 1h1m1 0h1m3 0h1m86 0h1m1 0h3m-99 1h1m10 0h2m70 0h1m9 0h1m-85 1h1m75 0h1m4 0h1m-91 1h1m13 0h1m69 0h1m3 0h2m5 0h1m-84 1h1m69 0h3m-79 1h1m8 0h1m3 0h1m62 0h2m1 0h1m8 0h1m-92 1h1m2 0h1m1 0h1m2 0h1m9 0h1m67 0h1m-87 1h1m84 0h1m-84 1h1m4 0h1m9 0h1m2 0h2m1 0h1m58 0h1m2 0h1m-73 1h1m72 0h1m-68 1h1m-21 1h1m5 0h1m4 0h1m6 0h1m3 0h1m1 0h1m-28 1h1m10 0h1m1 0h1m3 0h1m11 0h1m-24 1h1m-2 1h1m7 0h1m19 0h2m2 0h1m-14 1h1m4 0h2m4 0h1m5 0h1m-26 1h1m2 0h1m4 0h1m1 0h1m1 0h1m5 0h1m-11 1h1m-11 1h3m19 0h1m1 0h1m2 0h1m-22 1h1m8 0h1m5 0h2m5 0h1m-22 1h1m25 0h1m1 0h1m-27 1h1m6 0h2m10 0h1m10 0h1m-24 1h1m15 0h1m-15 1h1m4 0h1m-7 1h1m11 0h1m7 0h1m-9 1h1m-15 1h1m4 0h2m9 0h1m2 0h1m-13 1h1m3 0h1m2 0h1m2 0h3m-15 1h1m4 0h2m-1 1h2m2 0h1m-8 1h1m2 0h1m-1 2h1m4 0h1m-1 1h1m-43 49h1m17 9h1"/><path stroke="#c9b8b1" d="M73 4h1m5 3h1m15 8h1m-42 4h1m50 1h1m5 3h1m-95 1h1m95 0h1m-63 1h1m63 11h1m0 5h1m-1 3h1m-1 1h1m-92 3h1m-8 6h1M0 55h1m42 1h1m-22 1h1m91 0h1m-79 2h1m73 0h1m-1 1h1m8 0h1m-80 1h2m68 0h1m-1 2h1m-43 1h1m41 0h1m-43 1h1m-4 1h1m2 0h1m-58 2h1m0 1h1m4 2h1m99 7h1m-4 1h1m-47 1h1m2 0h1m-37 2h1m28 0h1m6 0h1m-37 2h1m-1 2h1m26 1h1m-28 1h1m4 0h1m-25 1h1m20 2h1m3 2h1m75 0h1M14 95h1m79 0h1m-9 1h1m-75 3h1m81 1h1m-76 1h1m-6 1h1m0 1h1m50 0h1m-32 1h1m37 0h1m-1 1h1m-36 4h1m4 2h2m-10 1h1m7 1h1m29 1h1m-32 3h1m27 0h1"/><path stroke="#e979a8" d="M74 5h1m5 3h1m5 3h1M53 22h1m-32 5h1m27 1h1m-25 1h1m29 5h1m-9 6h1m43 1h1m-39 2h1m3 2h1m1 1h1m3 2h1m36 8h1M1 61h1m97 1h1m-59 1h1m-2 2h1m-27 2h1m0 1h1m4 3h1m1 0h1m2 1h1m2 2h1m27 0h1m-31 1h1M4 77h1m27 0h1m1 1h1m2 0h1m2 2h2m0 2h1m2 0h1m-1 2h1m1 0h1m1 2h1m-24 2h1m2 5h1m7 4h1m9 5h1"/><path stroke="#e879a9" d="M76 6h1m5 3h1m-26 5h1m44 5h1m11 6h1m-95 1h1m3 2h1m65 1h1m-63 1h1m20 5h1m42 5h1m-37 4h1m36 2h1m-1 1h1M1 54h1m40 6h1m53 1h1M5 62h1m3 2h1m25 0h1m-24 3h1m6 3h1m8 5h1m3 1h1m65 0h1m-65 1h1m19 1h1M8 79h1m27 1h1m1 0h1M7 82h1m37 1h1m0 2h1m1 0h1m-1 1h1m2 0h1m-33 2h1"/><path stroke="#c8b8b0" d="M77 6h1M59 9h1m29 3h1m7 4h1M13 29h1m-5 8h1m33 0h1m69 9h1m-89 6h1m-2 1h1m94 1h1m-97 1h2m12 2h1m-2 1h1m5 0h1m25 1h1m50 0h1m-85 2h1m83 0h1m-84 3h1m1 1h1m26 0h1m44 2h1m-95 5h1m-5 5h1m3 0h1m53 2h1m-55 1h1m50 0h1m44 0h2m-20 2h1m-75 1h1m14 0h1m85 2h1M15 90h1m23 2h1m80 0h1m-27 4h1m-11 1h1m9 1h1m-80 1h2m-2 1h1m3 0h1m-5 2h1m3 0h1m49 0h1m3 0h1m-10 2h1m-46 1h1m21 0h1m20 0h1m-26 5h1m6 0h1m-4 1h1m31 1h1m-30 1h1m-1 2h1m20 4h1"/><path stroke="#e979a9" d="M78 7h1m-21 5h1m31 1h1m5 3h1m-11 3h1m21 3h1m-35 3h1m-24 1h1m16 2h1m-35 5h1M8 40h1m41 1h1M7 42h1m-5 8h1m22 2h1m76 0h1m-78 1h1m-5 5h1m72 2h3m0 2h1m0 1h1M8 66h1m4 0h1m-4 1h1m6 1h1m-1 1h1m2 1h1m37 0h1m-38 1h1m0 1h1m2 1h1m4 2h1m0 1h1m0 2h1m2 0h1m61 1h1m-59 1h1m-2 1h1m-25 1h1m1 1h1m1 1h1m25 0h1m5 2h1m-34 1h1m33 0h1m-24 2h1m6 7h1m8 1h1"/><path stroke="#e978a8" d="M59 10h1m-5 8h1m54 5h1m-59 1h1m5 9h1m32 2h1m-48 3h1m1 1h1M28 49h1m75 1h1m-3 4h1m-78 1h1M0 57h1m-1 1h1m22 0h1m19 0h1m51 0h1M1 60h1m3 3h1m-2 1h1m1 1h1m1 0h1m1 0h1m0 1h1m26 0h1m-26 2h1m102 0h1M17 70h1m5 2h2m1 2h2m1 1h1M6 78h1m30 1h1m-28 1h1m-2 3h1m40 4h1m-20 7h1m6 0h1m1 1h1m9 5h1"/><path stroke="#c8b9b1" d="M57 13h1m-5 8h1m53 0h1M10 35h1m105 3h1M7 41h1m-3 4h1m18 1h1m-3 1h2m-4 4h1m19 3h1m-21 1h1m17 0h1m80 1h1m-9 2h1m-77 2h1m3 3h1m79 0h1m-81 2h1m28 3h1m-57 2h1m52 0h1m-50 3h1m-4 1h1m-2 1h1m106 2h1M12 78h1m103 0h1m-2 1h1m5 0h1M17 81h1m2 1h1m100 4h1m-28 1h1m26 1h1m-60 1h1m31 3h1m20 2h1m-99 2h1m0 1h2m74 0h1m-83 1h1m4 1h1m55 1h1m-62 1h1m3 2h1m56 0h1m26 1h1m-38 1h1m-21 1h1m0 2h1m-2 6h1m-1 3h1"/><path stroke="#f989b9" d="M58 13h1m0 3h1m3 2h1m-5 1h1m-2 2h1m1 0h1m-5 1h1m3 0h1m5 1h1m2 0h1m-5 1h1m7 0h1m-21 1h1m4 0h1m8 0h1m1 0h1m-11 1h1m5 0h1m-11 1h1m1 0h1m2 0h1m6 0h1m-17 1h1m5 1h1m1 0h1m5 0h1m-6 2h1m-3 1h1m-7 2h1m2 0h1m-3 1h1m40 1h1m0 1h1m-3 2h1m0 1h1m-84 1h1m1 0h1m93 0h1m-94 1h1m78 0h1m3 0h1m2 0h1M9 43h1m1 0h1m94 0h1m-9 1h1m5 0h1M7 45h1m86 0h1m8 0h2m-91 1h1m1 0h1m79 0h1m-86 1h1m3 0h1m83 1h1m3 0h2M8 49h1m3 0h1m2 0h1m82 0h1m2 0h1M8 50h1m2 0h1m1 0h1m2 0h1m12 0h2m65 0h1M9 51h1m7 0h1m11 0h1M7 52h1m90 0h1m-89 1h1m19 0h1m64 0h1m-62 1h1m-24 1h1m22 0h1m62 0h1M1 56h1m2 0h1m2 0h1m3 0h1m1 0h1m11 0h1m3 0h2m3 0h1M1 57h2m9 0h1m12 0h1m1 0h3m2 0h2M7 58h1m6 0h1m4 0h1m8 0h1m17 0h1m50 0h1m-80 1h2m7 0h1m6 0h1m10 0h1m2 0h1m50 0h1M8 60h1m14 0h2m2 0h2m4 0h1m17 0h1m-35 1h1m14 0h1m66 0h1m-71 1h1m16 0h1m4 0h4m-27 1h1m4 0h1m11 0h1m1 0h1m1 0h1m-36 1h1m5 0h1m2 0h1m9 0h1m14 0h1m2 0h1m2 0h1m1 0h1m-44 1h1m3 0h1m16 0h1m14 0h1m9 0h1m-38 1h1m1 0h1m3 0h1m13 0h1m1 0h1m1 0h1m3 0h1m-33 1h1m2 0h1m1 0h1m4 0h1m-6 1h1m7 0h1m2 0h1m3 0h1m11 0h1m-32 1h1m4 0h1m6 0h1m6 0h1m5 0h2m-23 1h1m4 0h1m4 0h1m2 0h1m3 0h1m3 0h1m-21 1h2m7 0h1m16 0h1m2 0h1m1 0h1m-22 1h1m4 0h1m7 0h1m-13 1h1m16 0h1m3 0h1m-23 1h2m2 0h1m10 0h1m4 0h1m-21 1h1m2 0h1m2 0h1m8 0h1m3 0h1m-17 1h1m7 0h1m1 0h1m2 0h1m1 0h2m-15 1h2m2 0h1m1 1h1m1 0h1m-5 1h1m3 0h1m-6 1h1m3 0h1m5 0h1m-10 1h2m2 1h2m2 0h1m-3 1h1"/><path stroke="#f989b8" d="M58 14h1m2 2h1m-4 1h1m-3 1h1m8 0h1m-11 1h1m2 0h1m6 1h1m-10 1h2m3 0h1m3 0h2m-9 1h1m3 0h1m7 0h1m-18 1h1m17 0h2m-19 1h1m3 0h1m7 0h1m-7 1h1m3 0h1m-5 1h3m1 0h1m3 0h1m-13 1h1m9 0h1m-13 3h1m2 0h1m1 0h2m1 0h1m-10 1h1m1 0h1m-1 1h1m3 0h1m-6 1h1m38 0h1m-44 1h1m41 1h1m2 0h1m15 0h1m-17 1h1m1 0h1m-5 2h1m6 0h1m1 0h1m-93 1h1m85 0h1m6 0h1m3 1h1M9 42h1m86 0h1m2 0h1m-5 1h1m4 0h1m-88 1h1m92 0h1m-10 1h1m4 0h1m2 0h1m-95 1h1m91 0h2M5 47h1m2 0h2m6 0h2m1 0h1m75 0h1m1 0h1m1 0h2m1 0h1m1 0h1M5 48h1m1 0h2m7 0h1m84 0h1m-83 1h1m82 0h1m-72 1h1m68 0h1M5 51h1m4 0h1m1 0h1m54 0h1m34 0h1m-87 1h1m82 0h1m-71 1h1m4 0h1m1 0h1m65 0h1m-7 1h1M2 55h1m3 0h1m5 0h1m14 0h3m6 0h1m63 0h1M2 56h1m7 0h1m1 0h1m87 0h1M4 57h1m10 0h1m3 0h1m10 0h1m-20 1h1m12 0h1m6 0h2m1 0h1m14 0h1m49 0h1m-86 1h2m10 0h1m3 0h2m12 0h1m53 0h1m-87 1h1m1 0h1m1 0h2m27 0h1M3 61h1m8 0h1m10 0h2m3 0h1m4 0h1m-13 1h1m1 0h1m1 0h1m5 0h1m13 0h1m-36 1h1m15 0h1m-9 1h1m6 0h1m6 0h1m9 0h1m-31 1h1m7 0h1m7 0h1m2 0h2m9 0h1m4 0h1m-34 1h1m10 0h1m1 0h1m24 0h2m3 0h1m-34 1h1m8 0h1m2 0h1m2 0h1m10 0h1m6 0h2m-39 1h1m6 0h1m8 0h1m19 0h1m-32 1h1m1 0h1m22 0h2m-30 1h1m4 0h1m1 0h1m1 0h1m6 0h1m2 0h2m10 0h1m2 0h1m-26 1h1m16 0h1m3 0h1m-22 1h3m4 0h1m2 0h1m1 0h1m1 0h1m3 0h1m-17 1h1m16 0h2m-21 1h1m5 0h1m5 0h1m3 0h2m1 0h1m1 0h1m2 1h1m-7 1h1m-3 1h1m4 0h1m-14 1h1m2 1h1m3 0h1m2 0h1m-7 1h1m1 0h1m2 0h1m2 1h1m-4 2h1"/><path stroke="#f988b8" d="M57 15h2m1 1h1m-2 1h1m-1 1h1m27 0h1m-3 1h1m3 2h1m-35 1h1m3 0h1m9 0h1m9 0h1m-21 1h2m-6 2h1m14 0h1m-17 1h1m-3 1h1m9 0h2m-5 1h2m1 0h1m3 0h1m23 0h1m-40 1h1m4 1h1m-5 1h1m5 0h1m-8 1h1m2 0h1m37 0h1m-39 2h1m39 0h1m-45 1h1m47 1h1m-2 2h1m4 1h1m-93 1h2m86 0h1m5 0h1M9 41h1m92 0h1m1 0h1m-10 1h1m2 0h1m3 0h2m1 0h1M7 43h1m4 0h2m79 0h2m-84 1h1m5 0h1m-4 1h1m1 0h1m1 0h1m76 0h1m4 0h2M6 46h1m1 0h1m11 0h2M6 47h2m4 0h1m92 0h1m-86 1h1m8 0h1m66 0h2M6 49h1m92 0h2m-89 1h1m20 0h1m63 0h1m-85 1h1m82 0h1m2 0h1M9 52h1m2 0h1m1 0h1m15 0h3m3 0h1m63 0h1M5 53h1m1 0h1m5 0h1M4 54h1m7 0h1m14 0h1m5 0h1M3 55h1m2 1h1m1 0h1m5 0h1m2 0h1m8 0h1m4 0h1m13 0h1m50 0h1M7 57h2m8 0h1m79 0h1m2 0h1M3 58h1m16 0h1m5 0h2m17 0h1m50 0h1m-85 1h1m3 0h1m3 0h1m12 0h1m12 0h1M2 60h1m2 0h2m13 0h1M8 61h1m4 0h1m16 0h1m-19 1h1m1 0h1m1 0h1m1 0h1m28 0h1m7 0h1M8 63h2m3 0h1m4 0h2m12 0h1m18 0h1m-39 1h1m27 0h1m3 0h1m3 0h1m-32 1h1m6 0h1m4 0h1m2 0h1m7 0h1m15 0h2m1 0h1m-38 1h1m9 0h3m1 1h1m5 0h1m12 0h1m-27 1h1m4 0h1m16 0h1m-33 1h1m2 0h1m15 0h1m8 0h1m-23 1h1m5 0h1m1 0h1m10 0h1m-16 1h1m8 0h1m3 0h1m7 0h1m-26 1h1m21 0h1m3 0h1m1 0h1m-26 1h1m4 0h1m1 0h1m4 0h1m3 0h1m3 0h1m3 0h2m-13 1h1m1 0h1m10 0h1m-25 1h2m5 0h2m6 0h1m-4 1h1m4 0h1m-14 1h1m1 0h1m3 0h1m1 1h1m-3 1h1m6 0h1m-3 2h1m5 0h1"/><path stroke="#f889b9" d="M57 16h1m2 1h1m-3 1h1m2 0h1m-6 1h1m5 0h2m-4 1h2m2 0h1m2 0h1m-14 1h1m6 1h1m5 0h1m3 0h1m17 0h1m-36 1h1m3 0h1m2 0h1m1 0h1m3 0h1m-15 1h1m3 0h1m1 0h1m7 0h2m-17 1h1m3 0h1m4 0h1m6 0h1m4 0h1m-16 1h1m4 0h1m2 0h1m-6 1h1m3 0h1m24 0h1m-33 1h1m2 0h1m-7 1h1m2 0h1m55 0h1m-62 1h1m2 1h1m-4 2h1m-2 2h1m41 0h1m-3 1h2m-1 1h1m-2 1h1m1 1h1m4 1h1m6 0h1m-97 1h1m86 0h1m1 0h2m-91 1h2m1 0h1m88 1h1m4 0h1m-98 1h1m8 0h1m74 0h1m1 0h1m4 0h1m-90 1h1m6 0h2m75 0h1m1 0h1m7 0h1m-94 1h1m88 0h1m2 0h1m-8 1h1m4 0h1m-86 1h2m74 0h1m3 0h1M7 49h1m10 0h1m-4 1h1m3 0h1m10 1h1m72 0h1M5 52h1m5 0h1m15 0h2m5 0h1m66 0h1M4 53h1m3 0h1m5 0h1m17 0h1m63 0h2m3 0h1M2 54h2m5 0h1m1 0h1m3 0h1m10 0h1m1 0h1m7 0h1m61 0h1M1 55h1m6 0h1m7 0h2m12 0h2m66 0h1M5 56h1m3 0h1m6 0h1m1 0h1m9 0h1m3 0h2m2 0h1m62 0h1m-82 1h1m7 0h1m8 0h1m28 0h1m33 0h2M5 58h1m1 1h1m3 0h1m1 0h1m8 0h1m1 0h1m-6 1h1m1 0h1m4 0h1m3 0h1m1 0h1m13 0h1m2 0h1m49 0h1M4 61h1m1 0h1m7 0h1m5 0h1m1 0h1m4 0h1m-13 1h1m3 0h1m12 0h2m14 0h1M7 63h1m4 0h1m1 0h1m2 0h1m2 0h1m8 0h1m12 0h1m3 0h1m6 0h1m1 0h1m-41 1h2m4 0h1m6 0h1m1 0h1m12 0h1m8 0h1m-38 1h1m5 0h1m4 0h1m27 0h1m-29 1h1m21 0h1m9 0h1m-18 1h1m2 0h2m2 0h1m6 0h1m-28 1h1m8 0h1m3 0h1m2 0h2m2 0h1m2 0h1m5 0h1m-37 1h1m18 0h1m1 0h1m10 0h1m1 0h1m1 0h1m-12 1h1m-3 1h1m11 0h1m-11 1h1m-10 1h1m1 0h2m-11 1h1m22 0h1m-18 1h1m8 0h1m1 0h1m4 0h1m-18 1h1m0 1h1m11 1h1m2 0h1m1 0h1m-3 1h1m-2 1h1m-4 1h1m2 1h1m-1 1h1"/><path stroke="#f888b9" d="M58 16h1m2 1h1m3 2h1m-7 1h1m2 0h1m-4 1h1m7 0h1m-11 1h1m5 0h1m9 1h1m1 0h1m1 0h1m-23 1h2m4 0h1m1 0h1m6 0h1m-8 1h1m26 1h1m-37 1h1m13 0h1m-15 1h1m8 0h1m1 0h1m1 0h1m-18 1h1m2 0h1m10 0h1m-15 1h1m1 0h1m10 0h1m-7 1h1m1 0h1m31 0h1m-42 1h1m5 0h1m34 0h1m-37 1h1m36 0h1m19 0h1m-60 1h1m-3 2h1m47 0h1m-3 1h1m1 1h1m1 0h1m7 1h1M9 40h1m3 0h1m81 0h1m7 0h1m1 0h1m-94 1h1m93 0h1m-13 1h1m12 0h1m-98 1h1m5 0h2m78 0h1m7 0h1m-90 1h2m3 0h1m74 0h1m6 0h1m2 0h1m-93 1h1m3 0h1m3 0h1m77 0h1m-90 1h1m4 0h1m78 0h1m3 0h2m-6 1h1M6 48h1m4 0h2m87 0h1m-7 1h1M5 50h1m1 0h1m9 0h1m10 0h1M4 51h1m2 0h2m2 0h1m2 0h1m3 0h1m9 0h1m4 0h1m63 0h2M4 52h1m10 0h1m-7 1h1m1 0h2m14 0h2m6 0h1m63 0h1M8 54h1m1 0h1m19 0h1m1 0h1m62 0h1M4 55h2m7 0h1m21 0h1m63 0h1m-85 1h1m19 0h1m59 0h1M3 57h1m1 0h1m89 0h1M6 58h1m8 0h1m1 0h2m2 0h1m8 0h1m4 0h1m8 0h1m53 0h1M5 59h1m4 0h1m38 0h1M4 60h1m6 0h1m17 0h1m1 0h1m2 0h1M5 61h1m1 0h1m17 0h1m18 0h1m-21 1h1m1 0h2m22 0h1m-28 1h1m1 0h1m1 0h1m2 0h1m21 0h1m-36 1h1m1 0h1m26 0h1m-25 1h1m6 0h1m5 0h1m9 0h2m1 0h1m6 0h1m-41 1h2m15 0h1m7 0h1m2 0h1m3 0h1m3 0h1m-33 1h1m18 0h1m7 0h1m6 0h1m5 0h1m-31 1h1m13 0h1m-15 1h1m2 0h1m1 0h1m1 0h1m4 0h1m4 0h1m2 0h1m4 0h1m1 0h1m-32 1h1m4 0h1m6 0h1m10 0h2m-13 1h2m-12 1h1m9 0h1m2 0h1m-13 1h1m16 1h1m4 1h1m-15 1h1m7 0h1m9 0h1m-13 1h1m-4 2h1m5 0h1m7 0h1m-6 2h1m1 3h1"/><path stroke="#f888b8" d="M56 17h2m-1 1h1m6 0h1m-4 1h1m-4 1h1m4 0h1m2 0h1m22 0h1m-35 1h1m6 0h1m3 1h1m-12 1h1m9 0h1m4 0h1m3 0h1m1 0h1m-15 1h1m6 0h1m1 0h1m-18 1h1m2 0h1m7 0h1m-14 1h1m16 0h1m-11 1h1m-7 1h1m-2 1h1m1 0h1m1 0h1m3 0h1m1 0h1m-9 2h1m-4 2h1m42 0h1m-3 1h1m-42 1h1m44 1h1m-87 1h1m85 0h1m-3 1h3m6 0h1m-92 2h1m80 0h1m8 0h1m-8 1h1m5 0h1m-90 1h1m3 0h1m84 0h1m-88 1h1m82 0h2m2 0h1m3 0h1m-94 1h1m5 0h1m74 0h1m3 0h1M9 45h1m1 0h1m3 0h1m-7 1h1m2 0h1m4 0h1m1 0h1m81 1h1M9 48h1m3 0h1M4 49h2m4 0h1m2 0h2m80 0h1m7 0h2M6 50h1m2 0h1m8 0h1m13 0h1m62 0h1m7 0h1m-88 1h1m78 0h1m-83 1h1m19 0h1m1 0h1m1 0h1m58 0h1m5 0h1M2 53h2m11 0h3m48 0h1m33 0h1m-84 1h1m11 0h1m1 0h1m3 0h1m1 0h1m59 0h1m2 0h1M9 55h2m4 0h1m49 0h1m29 0h1m2 1h1m-65 1h1M2 58h1m1 0h1m7 0h1m16 0h1m3 0h1m14 0h1M1 59h1m2 0h1m3 0h1m8 0h1M7 60h1m2 0h1m32 0h1m4 0h1m1 0h1m-41 1h2m3 0h2m1 0h2m6 0h1m2 0h1m13 0h1m1 0h2m3 0h1M8 62h1m1 0h1m6 0h1m26 0h1m-30 1h1m15 0h1m22 0h1m-45 1h1m15 0h1m7 0h1m9 0h1m2 0h1m5 0h1m4 0h1m-41 2h2m9 0h1m1 0h1m4 0h1m8 0h1m10 0h1m-41 1h1m8 0h1m6 0h1m7 0h1m10 0h1m-13 1h2m1 0h1m4 0h1m-13 1h1m1 0h1m14 0h1m5 0h1m-8 1h1m-29 1h1m2 0h1m5 0h1m1 0h1m5 0h1m8 0h1m-20 1h1m20 0h1m3 0h1m-25 1h2m9 0h3m1 0h1m8 0h1m-23 1h1m6 0h1m-8 1h1m10 0h1m9 0h1m-21 1h1m4 0h1m-2 1h1m11 0h2m1 0h2m-6 1h1m2 0h1m-6 2h1m-3 1h1m0 1h1m4 1h1m-1 1h1"/><path stroke="#f889b8" d="M60 18h1m-4 1h1m2 0h1m3 0h1m-10 1h3m6 1h1m16 0h1m-28 1h1m9 0h2m2 0h1m-13 1h2m4 0h1m1 0h1m3 0h1m3 1h1m1 0h2m-14 1h1m3 0h1m5 0h1m-17 1h1m14 0h1m-14 1h1m10 0h1m45 0h1m-61 1h3m5 1h1m-9 1h1m-7 1h2m62 0h1m-61 1h1m3 0h1m-2 1h1m36 2h1m2 0h3m-7 2h1m5 0h1m11 0h1M10 38h1m84 1h1m2 0h2m1 0h1m-5 1h1m2 0h1m-3 1h1m4 0h1m1 0h1m2 0h1m-94 1h1m1 0h1M8 43h1m94 0h1M7 44h3m4 0h1m85 0h1M6 45h1m6 2h2m3 0h1m-9 1h1m3 0h1m2 0h1m77 0h1m-67 1h1m66 0h1m-87 1h1m3 0h1m86 0h2M3 51h1m2 0h1m8 0h1m15 0h2m68 0h1M3 52h1m2 0h1m1 0h1m1 0h1m84 0h1M5 54h3m5 0h2m1 0h1m82 0h1m1 0h1m-88 1h1m81 0h1m4 0h1m-75 1h1m69 0h1M6 57h1m2 0h1m1 0h1m2 0h1m30 0h1M1 58h1m6 0h1m4 0h1m2 0h1m8 0h1m21 0h1M2 59h2m2 0h1m14 0h1m7 0h1m2 0h1m14 0h1m15 0h1m33 0h1M3 60h1m5 0h1m5 0h1m2 0h1m25 0h1M6 62h2m3 0h1m16 0h1m14 0h1m-22 1h1m20 0h1m4 0h1m1 0h1m10 0h1m-50 1h1m9 0h1m1 0h1m6 0h1m25 0h1m1 0h1m-46 1h1m1 0h1m6 0h2m18 0h1m6 0h1m-31 1h1m9 0h1m6 0h1m11 0h1m4 0h1m4 0h1m-45 1h1m6 0h1m4 0h1m3 0h1m10 0h1m4 0h1m6 0h1m-37 1h1m2 0h2m1 0h1m8 0h1m15 0h1m3 0h1m1 0h1m2 0h1m-33 1h1m3 0h1m2 0h1m13 0h1m-13 1h1m-8 1h1m6 0h1m18 0h1m-26 1h1m5 0h1m8 0h1m8 0h1m2 0h1m-30 1h1m2 0h1m7 0h1m8 0h2m-17 1h1m18 0h1m-11 1h2m5 0h1m2 0h1m-11 1h2m3 0h1m4 0h1m-8 1h3m1 0h1m-8 1h2m1 0h1m-5 1h1m10 1h1m-3 1h2m0 4h1"/><path stroke="#f988b9" d="M62 18h1m20 2h1m-21 1h1m-4 3h1m3 0h1m-6 1h1m11 0h1m-19 1h1m1 0h1m1 0h1m9 0h1m2 0h1m-20 1h1m1 0h1m10 0h1m-13 1h1m11 0h1m-4 1h1m-11 1h1m6 0h1m2 0h1m-11 1h1m9 0h1m-10 1h1m-3 1h1m1 0h1m4 0h1m-7 1h1m41 0h1m0 3h1m4 0h1m-2 1h1M9 39h1m87 0h1m2 0h1m-5 1h1m4 0h1M8 41h1m84 0h2m1 0h1M8 42h1m95 0h1m1 0h1m-92 1h1m83 0h1m-79 1h1m77 0h1m3 0h1M8 45h1m1 0h1m-4 1h1m10 0h1m76 0h1m1 0h1m2 0h2m-92 1h1m9 0h1m75 0h1m-82 1h1m86 0h1M9 49h1m1 0h1m4 0h2m79 0h1M4 50h1m89 0h1m3 0h2m0 1h1m-84 1h2m10 0h1m67 0h1M6 53h1m24 0h1m1 0h1m3 0h1m60 0h1M7 55h1m18 0h1m5 0h2M3 56h1m6 1h1m2 0h1m2 0h1m14 0h1m64 0h1M9 58h2m-2 1h1m13 0h1m1 0h1m2 0h1m-16 1h1m8 0h1m2 0h1m21 0h1M9 61h1m11 0h1m9 0h1m15 0h3m1 0h1m10 0h1M9 62h1m3 0h1m6 0h1m1 0h1m7 0h1m11 0h1m6 0h1m-39 1h1m4 0h1m4 0h1m2 0h1m19 0h1m-34 1h1m15 0h1m1 0h1m20 0h1m4 0h1m-45 1h1m7 0h1m7 0h1m16 0h1m6 0h3m2 0h1m-40 1h1m3 0h1m19 0h1m13 0h1m-39 1h1m2 0h1m5 0h1m2 0h2m3 0h2m13 0h1m2 0h1m-34 1h1m5 0h2m5 0h1m13 0h1m7 0h1m-33 1h1m5 0h1m14 0h1m-20 1h1m14 0h1m3 0h1m3 0h1m2 0h1m1 0h1m1 0h2m1 0h1m-31 1h1m1 0h1m6 0h1m4 0h2m2 0h3m9 0h1m-30 1h1m7 0h1m5 0h1m7 0h1m-15 2h1m2 0h1m1 0h1m4 0h1m-12 1h1m7 0h1m-6 1h1m1 0h1m8 1h1m-12 1h1m1 0h1m5 0h1m3 0h1m-7 1h1m5 0h1m1 0h1m-9 1h1m4 0h1m-1 2h1m-3 1h1"/><path stroke="#e16991" d="M87 19h1m-2 1h1m1 0h1m-7 2h1m-4 1h1m0 1h1m-6 1h1m2 0h1m9 0h1m-12 1h1m-5 1h1m8 0h1m4 0h1m-14 1h1m6 0h1m6 0h1m-13 1h2m2 0h1m-12 1h1m2 0h1m3 0h1m1 0h1m5 0h1m1 0h1m-23 1h1m19 0h1m-12 1h1m-13 1h1m20 0h1m-15 1h1m7 0h1m1 0h1m33 0h1m-41 1h2m7 0h1m8 0h1m-26 1h3m1 0h1m4 0h2m2 0h1m4 0h3m-15 1h1m5 0h1m13 0h1m-26 1h2m13 0h1m8 0h1m-37 1h1m2 0h1m2 0h1m2 0h1m15 0h1m-30 1h1m8 0h1m21 0h1m-21 1h1m7 0h1m2 0h1m9 0h2m-22 1h1m4 0h1m4 0h1m9 0h1m9 0h1m-31 1h3m1 0h1m1 0h1m2 0h1m6 0h1m7 0h1m4 0h2m-30 1h1m16 0h1m-7 1h1m3 0h1m12 0h1m-21 1h1m11 0h1m-14 1h1m13 0h2m6 0h1m-20 1h1m11 0h2m2 0h3m-17 1h1m6 0h1m8 0h1m-13 1h1m12 0h1m-13 1h1m5 0h1m2 0h1m-8 2h1m0 1h2m-3 1h1m19 0h1m-19 1h1m-2 1h1m7 0h1m-28 1h1m26 1h1m-9 1h1m1 0h1m-1 2h1M56 75h1m39 0h1m-1 1h1m3 1h1m-9 13h1m-1 5h1m-1 2h1m-1 3h1m-41 1h1m-1 1h1m-38 9h1m10 5h1m20 11h1"/><path stroke="#e97099" d="M88 19h1M7 65h1m3 2h1m69 2h1m34 0h1m-94 4h1m7 4h1m65 0h1M5 79h1m93 0h1M9 81h1m29 0h1m-27 1h1m-3 1h1m1 1h1m5 1h1m27 0h1m-32 1h1m10 3h1m0 2h1m1 0h1m-3 1h1m4 0h1m0 2h1m1 0h1m-2 1h2m3 1h1m1 1h1m-1 1h1m-1 1h1m3 1h1m47 4h1m1 2h1m1 0h2m-95 1h2m1 1h1m-5 1h1m2 0h1m-1 1h1m1 0h1m1 0h1m-1 2h1m3 2h1m6 2h3m-3 2h1m2 0h1m0 1h1m4 2h1m2 0h1m-3 2h1m3 0h1m-1 2h2m2 0h1m-1 2h1m1 0h2m2 0h1m-1 2h1m2 1h1"/><path stroke="#e06990" d="M85 20h1m-6 3h1m-2 1h1m4 0h1m-11 2h1m4 0h1m1 0h1m-10 1h1m1 0h2m4 0h1m3 0h1m-16 1h1m1 0h1m3 0h1m4 0h1m2 0h1m-11 1h2m-5 1h1m12 0h1m30 0h1m-48 1h1m4 0h1m-7 1h1m23 0h1m-32 1h1m5 0h1m7 0h1m6 0h2m-12 1h1m3 0h1m-18 1h1m13 0h1m8 0h1m8 0h1m-37 1h1m14 0h1m12 0h1m-31 1h1m5 0h1m1 0h1m2 0h1m4 0h1m4 0h1m6 0h1m6 0h1m1 0h1m1 0h1m-29 1h1m11 0h1m2 0h1m4 0h1m2 0h1m-24 1h1m5 0h1m4 0h1m3 0h1m3 0h3m4 0h1m-37 1h1m1 0h1m5 0h3m4 0h1m4 0h1m-9 1h1m13 0h1m-23 1h1m16 0h1m5 0h1m1 0h1m6 0h1m-10 1h1m-20 1h1m1 0h1m22 0h1m5 0h1m15 0h1m-46 1h1m4 0h1m13 0h1m7 0h1m-25 1h2m2 0h1m4 0h2m2 0h1m8 0h1m3 1h1m-22 1h1m1 0h1m3 0h2m-7 1h1m8 0h1m2 0h1m4 0h2m3 0h1m-22 1h1m1 0h1m2 1h1m5 0h2m-7 1h1m3 0h1m4 0h2m3 0h2m-7 1h2m-23 1h1m14 0h2m3 0h1m-6 1h1m2 0h1m6 0h1m0 1h1m-3 1h1m-9 1h1m5 0h1m3 0h1m-7 1h1m13 0h1m-14 1h1m-2 2h1m-28 6h1m22 1h1m-1 2h1m17 7h1m-9 9h1m-1 9h1m-1 3h1m1 3h1m1 1h1m2 2h1m-81 8h1m7 4h1m10 5h1m7 4h1m2 2h1"/><path stroke="#e16891" d="M87 20h1m-4 2h1m2 0h1m-7 2h1m3 0h1m-10 1h1m6 0h3m-10 1h1m11 1h1m-5 1h1m4 0h1m-5 1h1m-20 1h1m15 0h1m6 0h1m-25 1h1m2 0h1m2 0h1m6 0h1m1 0h1m2 0h1m-15 1h1m-5 2h2m-7 1h1m5 0h1m3 0h1m8 0h1m3 0h2m-23 1h1m-8 1h1m10 0h1m8 0h2m7 0h2m-33 1h1m5 0h2m2 0h1m16 0h1m5 0h2m22 0h1m-63 1h2m6 0h1m7 0h2m23 0h1m-33 1h2m5 0h2m2 0h1m7 0h1m10 0h2m-36 1h2m1 0h2m7 0h1m1 0h1m13 0h1m3 0h1m4 0h1m-30 1h1m27 0h3m-32 1h1m9 0h1m2 0h1m1 0h1m5 0h1m2 0h1m5 0h1m-32 1h1m11 0h1m2 0h1m2 0h1m-17 1h1m1 0h1m6 0h1m1 0h1m4 0h1m-11 1h1m62 0h1m-60 1h1m5 0h1m3 0h1m-4 1h1m1 0h1m1 0h1m9 0h1m-21 1h2m13 0h1m4 0h1m-11 2h1m2 0h1m-3 1h1m1 0h1m5 0h1m-2 1h1m-12 1h1m7 0h1m1 0h1m2 0h1m-7 2h1m1 0h1m-4 1h1m6 0h1m-8 1h1m-2 1h1m2 0h1m1 1h1m-6 1h1M54 79h1m37 23h1m-1 2h1m7 1h1m-95 1h1m2 2h1m18 9h1m11 6h1m3 2h1m3 2h1m1 1h1"/><path stroke="#e06991" d="M83 21h1m3 0h1m-7 1h1m1 0h1m-6 2h1m7 0h1m-1 1h2m-13 1h1m11 0h2m-12 1h1m-5 1h1m8 0h1m2 0h1m-14 1h1m2 1h1m3 0h2m7 0h1m-23 1h1m2 0h2m2 0h1m3 0h1m7 0h1m2 0h2m-27 1h1m3 0h1m6 0h1m4 0h1m3 0h1m3 0h2m-27 1h1m4 0h1m1 0h1m5 0h1m1 0h1m1 0h1m8 0h1m1 0h1m-30 1h1m9 0h1m7 0h1m5 0h2m-32 1h1m8 0h1m13 0h1m-19 1h1m9 0h2m17 0h1m-37 1h1m9 0h1m1 0h1m2 0h1m13 0h1m-32 1h2m11 0h1m8 0h1m1 0h1m7 0h1m-33 1h1m1 0h1m4 0h2m9 0h1m4 0h1m12 0h1m3 0h1m-41 1h1m19 0h1m1 0h1m3 0h1m-19 1h1m14 0h1m1 0h1m7 0h1m2 0h1m3 0h1m-34 1h1m9 0h3m16 0h1m-29 1h1m14 0h1m12 0h1m1 0h1m-25 1h1m1 0h1m4 0h1m8 0h1m5 0h2m-24 1h1m14 0h1m1 0h1m3 0h1m5 0h1m-23 1h1m6 0h1m6 0h1m-19 1h1m7 0h1m7 0h1m-8 1h1m11 0h1m-2 1h1m-10 1h1m6 0h2m7 0h1m-2 1h1m-26 1h1m15 1h1m1 0h1m5 1h1m-12 1h1m8 0h1m3 0h1m-12 1h1m11 0h1m-9 1h1m2 1h1m-8 1h2m3 2h1m4 24h1m-1 1h1m-1 12h1m-1 3h1m-41 3h1m44 0h1m-6 1h1m-86 2h1m92 1h1m-89 1h1m3 2h1m3 2h1m2 2h1m9 5h1m8 4h1m0 1h1m7 4h2"/><path stroke="#e06891" d="M84 21h1m1 0h1m1 0h1m-1 1h1m-8 1h2m2 0h1m-6 2h3m2 1h1m0 1h1m-17 1h1m16 0h1m-21 1h1m1 0h1m1 0h1m12 0h1m1 0h1m-20 1h1m3 0h1m1 0h1m0 1h2m11 0h1m2 0h1m-15 1h3m6 0h1m3 0h1m-27 1h1m-7 1h2m16 0h1m4 0h1m-25 1h1m11 0h1m16 0h1m-32 1h2m1 0h1m5 0h2m7 0h2m12 0h1m-27 1h1m9 0h1m3 0h1m14 0h1m-35 1h1m1 0h1m7 0h1m3 0h2m1 0h1m6 0h1m8 0h2m-38 1h1m8 0h1m5 0h1m4 0h1m3 0h1m7 0h2m4 0h1m-25 1h1m8 0h1m14 0h1m-28 1h1m6 0h2m3 0h1m3 0h1m9 0h1m-33 1h1m1 0h2m4 0h1m5 0h1m8 0h1m-24 1h1m7 0h1m10 0h1m6 0h1m-23 1h1m8 0h1m8 0h1m-9 1h1m1 0h1m-1 1h1m5 0h1m6 0h1m-14 1h1m2 0h1m1 0h2m6 0h1m1 0h3m-10 1h1m1 0h2m0 1h1m4 0h1m-11 1h1m2 0h1m3 0h1m-13 1h2m13 0h1m-2 1h2m-1 2h1m-8 1h1m3 0h2m-4 1h1m3 0h1m-8 1h1m10 0h2m-12 1h1m10 0h1m-10 1h1m-2 1h1m5 0h1m-5 1h1m1 0h1m-5 1h1m-25 4h1m21 4h1m-26 3h1m38 4h1m-5 5h1m-41 1h1m39 1h1m5 20h1m-95 1h1m5 3h1m0 1h1m1 1h1m16 8h1m6 4h1m14 9h1m-1 1h1"/><path stroke="#e16990" d="M85 21h1m0 1h1m-3 1h1m2 1h1m-9 1h1m-2 1h1m4 0h1m-8 1h1m1 0h2m1 0h1m1 0h1m-12 1h1m13 0h1m28 0h1m-37 1h1m1 0h1m1 0h1m3 0h2m-15 1h1m6 1h1m4 0h1m-26 1h2m2 0h1m2 0h1m2 0h1m41 0h1m-54 1h1m3 0h1m7 0h1m3 0h1m6 0h1m5 0h1m-28 1h2m9 0h1m9 0h1m5 0h1m-32 1h1m3 0h2m1 0h1m3 0h1m4 0h1m11 0h1m1 0h1m-31 1h2m1 0h1m14 0h2m2 0h1m9 0h1m20 0h1m-60 1h1m1 0h1m1 0h1m4 0h1m16 0h1m1 0h1m2 0h1m3 0h1m-39 1h2m5 0h1m14 0h1m6 0h1m-23 2h1m17 0h1m7 0h1m1 0h3m-27 1h1m5 0h1m19 0h1m1 0h1m-34 1h1m7 0h1m2 0h1m8 0h1m9 0h2m21 0h1m-51 1h1m13 0h1m12 0h1m2 0h1m-20 1h1m3 0h1m8 0h1m6 0h1m-24 1h1m1 0h1m16 0h1m4 0h1m1 1h1m-14 2h1m13 0h1m-20 1h1m1 0h1m-4 1h1m1 0h1m5 0h1m6 0h1m4 1h1m10 0h1m-25 1h1m5 0h1m-8 1h2m4 1h1m7 0h1m0 1h1m-30 1h1m24 0h1m2 0h1m-13 1h1m6 0h2m0 1h1m-1 1h1m-28 1h1m-2 2h1m-2 2h1m-7 13h1m44 2h1m-9 9h1m-1 1h1m-41 14h1m-48 3h1m2 1h1m91 2h1m-80 5h1m3 2h1m3 2h1m4 2h1m4 3h1m5 3h1m6 7h1"/><path stroke="#e06890" d="M85 22h1m-3 1h1m2 0h1m1 0h1m-12 1h1m2 2h1m1 0h1m3 0h1m-16 1h1m13 0h1m-8 1h2m-12 1h1m20 0h1m-25 1h1m19 0h1m-23 1h1m12 0h1m-13 1h1m16 0h1m2 0h1m-19 1h1m1 0h1m5 0h1m9 0h1m1 0h1m-23 1h1m2 0h1m1 0h1m12 0h1m7 0h1m-24 1h1m7 0h3m9 0h1m-9 1h1m-11 1h1m3 0h1m7 0h1m-28 1h1m3 0h1m2 0h1m6 0h1m7 0h1m-11 1h1m11 0h1m7 0h1m-34 1h1m1 0h1m23 0h2m2 0h1m5 0h1m1 0h1m-24 1h1m8 0h1m2 0h1m-27 1h1m9 0h1m9 0h1m2 0h2m4 0h1m-23 1h1m5 0h1m1 0h1m7 0h1m4 0h1m-19 1h1m10 0h2m1 0h1m4 0h2m-21 1h1m4 0h1m9 0h1m4 0h1m45 0h1m-55 1h1m3 0h2m7 0h2m-24 1h2m6 0h1m4 0h1m2 0h1m3 0h1m42 0h1m-63 1h1m5 0h1m-5 1h1m6 0h1m1 0h1m25 0h1m-30 1h1m9 0h1m2 0h1m1 0h1m-14 1h1m-2 1h1m6 0h1m-4 1h1m7 0h1m1 0h2m10 0h1m-24 1h1m7 0h1m1 1h1m1 0h1m-12 1h1m1 0h1m3 0h1m3 0h1m-8 2h1m6 0h1m1 0h1m0 1h1m-9 1h1m1 0h1m-7 12h1m13 6h1m-44 3h1m38 2h1m-1 8h1m-1 12h1m-79 7h1m2 2h2m3 2h1m8 5h2"/><path stroke="#e16890" d="M87 23h1m-6 1h2m4 0h1m-12 1h1m-5 1h1m10 0h1m4 1h1m-14 1h2m-8 1h1m4 0h1m2 0h1m3 0h1m-15 1h1m8 0h1m3 0h1m5 0h1m-9 1h1m2 0h1m-13 1h1m1 0h1m2 0h1m4 0h1m1 0h1m3 0h1m-17 1h2m6 0h1m6 0h1m1 0h1m-29 1h2m11 0h1m4 0h1m3 0h1m2 0h1m2 0h2m-30 1h1m1 0h1m20 0h1m-27 1h1m25 0h1m4 0h2m-31 1h1m5 0h1m19 1h1m6 0h1m-42 1h1m4 0h1m14 0h2m3 0h1m4 0h1m-18 1h1m5 0h2m7 0h1m30 0h1m-58 1h1m2 0h1m2 0h1m3 0h1m10 0h1m2 1h1m7 0h1m-5 1h1m-15 1h1m1 0h1m17 0h1m3 0h1m1 0h1m-18 1h2m6 0h1m3 0h2m-25 1h1m3 0h1m3 0h1m9 0h1m2 0h1m2 0h1m2 0h1m-23 1h1m2 0h1m33 0h1m-38 1h1m1 0h1m16 0h1m-11 1h1m2 0h1m2 0h1m-7 1h1m3 0h1m7 0h1m-12 1h1m1 0h1m5 0h2m2 0h1m-13 1h1m1 0h1m2 1h1m1 0h1m6 0h1m0 1h1m-10 1h2m-7 1h1m3 1h1m2 0h1m13 0h1m-16 1h2m0 1h2m2 0h1m-8 2h1M58 71h1m41 9h1m-6 23h1m4 3h1m-1 1h1m-77 8h1m10 6h2m4 3h1m10 6h1"/><path stroke="#e87198" d="M89 24h1M3 63h1m11 6h1m83 8h1M8 80h1m4 3h1m16 9h1m3 1h1m5 4h1m0 1h1m1 1h1m4 1h1m2 1h1m-1 2h1m42 2h1m2 0h1m-1 1h1m1 1h1m-91 2h1m-1 2h1m5 1h1m-2 2h1m5 1h1m0 1h1m1 1h1m3 2h1m1 1h2m-2 1h1m2 0h1m3 1h1m0 1h2m0 2h1m1 0h1m-3 1h1m1 1h1m3 0h1m-3 1h1m4 0h1m2 2h1m-3 1h1m1 0h1"/><path stroke="#e87199" d="M89 25h1m1 11h1m5 25h1m-17 9h1m-63 1h1M4 79h1m2 0h1m27 0h1m-22 4h1m-1 2h1m3 1h1m-1 1h1m4 2h2m2 1h1m1 0h1m-4 1h1m5 2h2m34 0h2m-33 3h1m1 0h1m-2 1h1m4 0h1m0 1h1m2 1h1m1 1h1m-1 1h1m-1 1h1m46 5h1m2 1h1m-90 1h1m-1 3h1m5 0h1m-4 1h1m1 0h1m3 1h2m-4 1h1m1 0h1m4 4h1m1 1h1m7 3h2m3 1h2"/><path stroke="#e97198" d="M89 26h1m0 4h1m-41 7h1m78 10h1M81 71h1m-55 4h1M4 78h1m93 0h1m-1 1h1M7 80h1m4 3h1m1 1h1m0 1h1m1 0h1m2 2h1m5 2h1m2 3h1m2 0h1m5 3h1m-3 1h1m7 3h1m-1 1h1m2 1h1m-44 6h1m-1 1h1m1 2h1m1 0h1m2 1h1m2 0h1m-1 2h1m7 2h1m-3 1h1m0 1h1m5 1h1m1 1h1m5 5h3m9 5h1m0 2h1"/><path stroke="#998161" d="M116 26h1m6 13h1m-71 3h1m68 2h1m4 0h2m-12 1h1m5 0h1m-9 3h1m-3 1h1m-3 2h1m14 0h1m-8 2h1m1 1h1m4 0h1m-4 1h1m2 0h1m-58 2h1m52 1h1m-54 1h1m52 0h1m0 1h1m3 2h1m-7 1h1m-47 1h1m18 0h1m8 1h1m3 0h1m15 0h1m-50 1h2m-1 1h1m1 0h1m15 0h1m-30 1h1m12 0h1m31 1h1m-47 1h2m28 0h1m15 0h1m-41 1h1m24 0h1m12 0h1m-3 1h1m4 0h1m11 0h1M21 73h1m41 0h1m3 0h1m11 0h1m22 0h1m16 0h2m-55 1h1m35 0h1m3 0h1m-15 1h1m24 0h2m6 0h1m1 0h1m-17 1h1m14 0h2m-51 1h2m31 0h1m2 0h1m-37 1h1m30 0h1m3 0h1m1 0h1m10 0h1m-51 1h2m2 0h1m26 0h1m17 0h1m-18 1h1m2 0h1m13 0h1m-47 1h1m-3 1h1m24 0h1m5 0h1m-5 1h1m23 0h1m-53 1h1m-19 2h1m2 0h2m13 0h1m3 0h1m-7 1h1m2 0h1m26 0h1m2 0h1m-49 1h1m47 0h1m-52 1h1m3 0h1m41 0h1m2 0h1m19 0h1m-1 1h1m2 0h1m-1 1h1m-75 1h2m1 0h1m1 0h1m1 0h1m31 0h1m34 0h1m-74 1h1m37 0h1m14 0h1m17 0h1m-68 1h1m17 0h1m24 0h1m4 0h1m-53 1h1m23 0h1m-25 1h1m1 0h2m2 0h1m1 0h1m13 0h1m3 0h1m25 0h1m-54 1h1m2 0h3m17 0h1m1 0h2m21 0h1m2 0h1m-51 1h2m45 0h2m-49 1h1m18 0h1m29 0h1m2 0h2m-43 1h1m37 0h1m-42 2h1m39 0h1m-45 1h1m-39 1h1m38 0h1m2 0h1m14 0h1m-75 1h1m11 0h1m37 0h1m1 0h1m22 0h1m22 0h1m-45 1h1m21 0h1m-61 1h1m25 0h1m8 0h1m-2 2h1m3 0h1m-5 2h1m1 0h1m-47 1h1m43 0h1m2 0h1m-12 2h1m8 0h1m1 0h2m18 0h1m-21 2h1m19 0h1m2 0h1m-26 2h1m17 0h1m-19 1h1m1 0h1m15 0h2m-16 2h1m-4 1h1m1 0h1m-25 2h1m22 0h1m4 0h1m-6 2h2m-2 1h1m-6 6h1"/><path stroke="#993951" d="M116 27h1m-2 2h2m0 1h1m-3 1h1m1 0h1m-1 1h1m-5 1h2m4 1h1m1 0h1m1 0h1m-13 3h1m7 0h1m3 0h1m1 0h1m-16 4h1m18 1h1m-21 1h1m8 0h1m1 0h1m-13 1h1m9 0h1m13 0h1m-7 2h1m-9 1h1m5 0h1m3 0h1m-5 1h1m-4 1h1m4 0h1m-22 1h1m-38 1h2m35 0h1m14 0h1m-53 1h1m7 0h1m28 0h1m6 0h1m-5 1h1m8 0h2m-51 1h2m34 0h1m7 0h1m3 0h1m-45 1h2m37 0h1m1 0h2m-12 1h1m-33 1h1m8 0h1m25 0h2m-43 1h1m6 0h2m7 0h1m-7 1h1m5 0h1m19 0h1m2 0h1m-12 1h1m-24 2h2m1 0h1m5 1h1m1 1h1m35 1h1m7 1h1m-66 1h1m11 0h1m49 0h1m2 0h1m-65 1h1m62 0h1m1 0h1m-43 1h1m36 0h1m-51 1h1m6 0h1m0 1h2m3 0h1m-14 1h2m1 0h1m-4 1h1m-15 1h1m3 0h1m7 0h1m3 0h1m33 0h1m-41 1h1m5 0h1m17 1h1m18 0h1m-51 1h1m43 0h1m-50 2h1m2 0h1m2 1h1m1 0h1m24 0h1m2 0h1m-37 1h1m37 0h1m-1 3h1m-9 1h1m-34 1h1m33 1h1m6 1h1m-24 1h1m6 2h1m6 0h1m-7 1h1m-3 1h1m52 0h1m-47 1h1m42 0h1m1 0h1m-6 1h1m1 0h1m-33 1h1m33 0h1m-65 1h1m55 0h1m-37 1h1m-26 2h2m53 0h1m1 0h1m-62 3h1m30 0h1m23 0h1m3 0h1m-29 2h2m14 1h1m3 0h1m-5 1h2m-1 1h1m-28 12h1m0 1h1m-7 1h1m-7 2h1m2 0h1m-4 1h1m1 0h1m-7 1h1m5 0h2m-7 2h1m-8 2h1m-2 1h1m3 0h1"/><path stroke="#993850" d="M117 27h1m-2 1h1m2 7h1m0 5h1m-2 3h1m-10 3h1m10 0h1m2 0h1m-62 1h1m62 0h1m4 0h1m-67 1h1m40 1h2m-38 1h1m35 0h1m3 0h1m7 0h1m3 0h1m-5 1h1m-10 1h1m1 1h3m-36 1h1m27 1h1m1 0h1m-2 1h2m-7 1h1m5 0h1m-3 1h1m-1 1h1m-34 1h1m8 0h1m-8 1h1m1 0h1m14 0h1m-18 1h1m-14 1h1m25 0h1m12 0h1m-40 1h1m23 0h1m-6 1h1m32 0h1m8 1h2m-41 2h1m-6 1h1m3 0h1m-25 1h1m-1 1h1m23 1h1m-26 1h1m2 0h2m47 0h1m-51 1h1m7 0h1m5 0h1m36 0h1m-4 1h5m-57 1h1m5 0h1m3 0h1m26 0h1m-29 1h1m42 0h1m-47 1h2m-3 1h1m2 0h1m25 0h2m2 0h1m6 0h1m-12 1h1m11 0h1m-46 1h2m3 0h1m-10 2h1m2 0h1m27 4h1m-2 1h1m-6 1h1m-13 1h1m13 0h1m4 0h1m7 0h1m-19 1h1m4 0h1m-5 1h1m6 1h1m42 0h1m-2 1h1m-42 1h1m1 0h1m39 0h2m-62 3h1m26 0h1m25 0h1m-63 1h1m57 0h1m4 0h1m-6 2h1m-30 1h1m-33 2h1m30 0h2m16 1h1m-2 1h1m-18 1h1m-2 1h1m1 0h1m-6 7h1m-1 1h1m-4 1h1m-2 1h1m1 0h1m-5 1h1m-3 1h1m5 0h1m-9 1h1m-5 4h1m1 0h1m-12 2h1m2 0h1m2 0h1m-7 1h1m1 1h1m-8 3h1m-1 1h1"/><path stroke="#993950" d="M117 28h1m-1 1h1m1 3h1m-2 1h1m3 0h1m-2 2h2m-3 1h1m2 0h2m-13 1h1m7 0h1m6 0h1m-10 1h1m1 0h1m4 1h1m-5 1h1m-2 1h1m7 0h2m-21 1h1m11 0h1m8 0h1m-1 1h1m-22 1h1m20 0h1m-24 1h1m15 2h1m1 0h1m-59 1h1m41 0h1m-1 1h1m-1 1h1m7 0h1m1 0h1m-6 1h2m-9 1h1m6 0h1m-46 1h1m34 0h1m-2 1h1m7 0h1m3 0h1m-47 2h1m1 0h1m40 0h1m-47 2h1m4 0h1m4 0h1m25 0h1m4 0h1m-31 2h1m23 0h1m2 0h1m-42 1h1m7 0h1m11 0h1m17 0h1m-38 1h1m25 0h1m-14 1h1m8 0h1m-14 1h1m53 0h1m-49 1h1m-19 1h1m8 0h1m2 0h1m9 0h1m-23 1h1m20 0h2m-12 1h1m8 0h1m39 0h1m3 0h1m-67 1h1m1 0h1m10 0h1m7 0h1m-8 2h1m-1 1h1m1 0h2m2 0h1m-21 1h1m10 0h1m6 0h1m31 0h1m-39 1h1m-4 1h2m37 0h1m-47 1h1m2 0h2m37 0h2m-49 1h1m5 0h1m5 0h1m21 0h1m10 0h1m1 0h1m1 0h1m1 0h1m-43 1h1m22 0h1m1 0h1m3 0h1m-9 1h2m1 0h1m2 0h2m8 0h1m-49 1h1m31 0h1m14 0h1m-41 1h1m-9 3h1m33 0h1m-4 2h2m-34 1h1m27 1h1m-4 1h1m1 0h2m-6 1h2m6 0h1m2 0h1m-8 1h1m-6 1h2m9 0h1m7 0h1m34 0h1m-55 2h1m54 0h1m-37 1h1m28 0h1m-39 1h1m36 0h2m-63 2h2m56 0h1m-57 1h1m-2 1h1m23 0h1m7 0h1m23 0h3m-60 1h1m-6 1h2m52 0h1m-2 1h1m-4 1h2m-24 1h1m18 0h1m6 0h1m-4 1h1m-23 1h1m0 1h1m-2 1h1m-9 9h1m4 1h1m-14 3h1m0 1h3m-3 1h1m1 0h1m-13 3h1m2 0h1m-7 2h1m4 0h1m-9 1h1m5 0h1"/><path stroke="#983850" d="M118 28h1m-1 1h1m2 2h1m-3 2h1m-7 2h1m4 0h1m5 0h1m-7 1h1m5 1h1m-4 1h1m1 0h1m3 0h1m-10 1h2m-2 2h1m11 0h1m-76 2h1m65 0h1m7 1h1m-4 1h2m-20 1h1m-45 1h1m56 0h1m-1 1h1m1 0h1m2 0h1m-7 1h1m2 0h1m-51 2h1m34 1h1m1 0h1m5 0h1m2 0h1m-50 1h1m-1 1h1m37 0h1m3 1h1m-41 1h1m0 1h2m30 0h1m3 0h1m-40 1h1m4 0h1m28 0h1m-31 1h1m18 0h1m-24 1h1m3 0h1m17 0h1m7 0h1m-25 1h1m2 0h1m10 0h1m9 0h1m-1 1h1m-38 1h1m16 0h1m4 0h1m-7 1h1m5 0h1m-24 1h1m18 1h1m32 0h1m12 0h1m-57 1h1m-2 1h1m57 0h1m-69 2h1m22 0h1m-13 1h1m2 0h1m1 0h1m1 1h1m32 1h1m-50 1h1m-3 1h1m32 0h2m-26 1h1m-6 1h1m3 1h1m20 0h1m11 0h1m-42 1h1m2 0h1m-10 2h1m4 0h1m28 0h1m-36 1h2m33 1h1m-35 1h1m1 0h1m-5 1h1m33 0h1m6 0h1m-41 2h1m39 0h1m-8 1h1m-21 1h1m1 0h1m17 0h1m-9 1h1m4 1h1m-19 3h1m19 1h1m38 0h1m-61 1h1m20 0h1m34 0h1m2 0h1m1 0h1m-65 1h1m2 1h1m51 0h2m-58 1h2m1 0h1m50 0h1m1 0h1m4 0h1m-66 1h1m3 0h1m53 0h1m-59 1h1m53 0h2m1 0h1m-57 1h1m35 0h1m17 0h1m2 0h1m-11 2h1m2 1h2m-25 1h1m18 0h1m-18 1h1m16 0h1m-24 11h1m-7 1h1m3 0h2m-2 1h1m-9 1h1m1 2h1m-7 1h1m-8 4h2m-3 2h1"/><path stroke="#983951" d="M119 29h1m-5 3h1m6 0h1m-9 2h1m5 0h1m-1 1h1m-2 1h1m6 0h1m-9 1h1m7 0h1m-8 1h1m6 1h2m-2 1h2m-9 2h2m-1 2h2m-14 1h1m9 0h1m9 0h1m2 0h1m-70 1h1m64 1h1m-60 2h1m47 1h1m-9 1h1m1 0h1m5 0h1m4 0h1m-9 1h1m1 0h1m4 0h1m-44 1h2m31 0h1m3 1h1m-36 1h1m23 0h1m3 0h1m-35 1h1m28 0h1m6 0h2m-39 1h1m30 0h1m6 0h1m-10 1h1m3 0h1m-42 1h1m5 0h1m2 0h1m31 0h1m-30 1h1m-4 1h1m3 1h2m9 0h1m12 0h1m-32 1h1m2 0h1m7 0h1m18 0h1m27 0h1m-49 1h1m6 0h1m40 0h1m-57 1h1m52 0h1m-55 1h1m51 1h1m3 0h1m-55 1h1m49 0h1m-64 1h1m9 0h2m51 0h1m-64 2h1m14 0h1m-18 1h1m13 1h2m1 0h1m32 1h1m-48 1h1m9 0h2m32 0h1m-39 1h1m27 0h1m9 0h2m-46 1h1m1 0h1m5 0h1m19 0h1m1 0h2m2 0h1m6 0h1m3 0h1m-43 1h1m2 0h1m23 0h1m10 0h1m1 0h1m-43 2h1m1 0h1m-9 2h1m3 0h1m-8 3h2m29 0h1m-32 1h1m15 3h1m13 0h1m-10 2h1m1 0h1m52 0h1m-53 1h1m-4 1h2m10 0h1m41 0h1m-43 1h1m-22 1h1m62 0h2m-62 1h1m-7 1h1m55 0h1m-60 1h1m61 0h1m-64 1h1m25 0h3m-32 2h1m29 0h1m7 0h1m18 0h1m1 0h1m1 0h2m-64 1h1m57 0h1m-60 1h1m1 0h1m27 1h1m24 0h4m-8 1h3m-24 1h1m2 0h1m20 0h1m-25 1h1m20 0h1m-4 1h1m1 0h1m-21 1h1m-5 8h2m-4 2h1m-6 1h1m3 0h1m-3 1h2m-5 1h1m-5 1h1m2 1h1m-9 1h2m-2 1h1m-8 4h2m-1 1h1"/><path stroke="#983851" d="M115 30h2m1 1h1m2 2h1m-9 1h1m8 0h1m2 1h1m-5 1h2m-2 1h1m-11 1h1m-1 2h1m7 1h1m7 0h1m-18 1h1m17 0h1m-21 1h1m23 0h1m-75 1h1m62 1h1m10 0h1m-15 1h1m8 0h1m4 0h1m-13 1h1m-55 1h1m39 0h2m-41 1h1m50 0h1m3 0h1m1 0h2m-18 1h1m8 1h1m1 0h1m-3 1h1m-50 1h1m2 1h1m-1 1h1m38 0h1m-44 1h1m6 0h1m30 0h1m5 0h1m-47 3h1m10 0h1m-6 1h1m3 0h1m2 0h1m12 0h1m-3 1h1m-11 1h1m22 0h1m-16 1h1m-17 1h1m10 0h1m-22 1h1m11 0h1m6 0h1m1 0h2m34 0h1m8 0h1m-2 1h1m-46 1h1m2 0h1m39 0h1m-52 2h1m4 0h1m35 0h1m9 0h1m-46 1h1m-18 1h1m7 0h1m7 0h1m4 0h1m29 0h1m-55 1h1m49 2h2m1 0h1m1 0h1m-58 1h1m12 0h1m24 0h1m-37 1h1m8 0h1m1 0h1m23 0h1m-25 1h1m22 0h1m-39 1h1m4 0h2m4 0h1m39 0h1m-41 1h1m36 0h1m-45 1h1m0 1h1m26 0h1m4 0h1m-35 1h2m27 0h1m5 0h1m-8 2h1m-33 2h1m28 1h1m1 0h1m-7 1h1m5 0h1m-1 1h1m7 0h1m-10 1h1m1 1h1m-4 1h1m-18 1h1m6 0h1m11 0h1m38 1h1m-1 2h1m-42 1h1m36 0h1m-58 1h1m22 0h1m-23 1h1m54 0h1m-63 1h1m0 1h1m27 0h1m-29 1h1m24 0h2m28 0h1m-58 1h1m29 0h1m20 0h1m3 0h2m-9 3h1m-29 13h1m3 0h1m-4 1h1m-5 1h1m-1 1h2m-10 2h1m2 1h1m-6 1h1m1 0h1m-3 1h1m-2 1h1m-6 1h1m-1 1h1m-3 1h1m-2 1h2"/><path stroke="#993851" d="M118 30h1m1 0h1m-7 1h1m4 0h1m1 1h1m-2 1h1m2 0h1m-6 1h1m-7 2h2m11 0h1m-14 2h1m11 0h3m1 0h1m-19 1h1m10 0h1m6 0h1m-19 1h1m19 0h1m-13 2h1m12 0h1m-76 1h1m53 0h1m20 1h1m-73 1h2m0 1h1m1 0h1m43 0h1m11 0h1m5 0h1m-19 1h1m11 0h1m-10 1h1m11 0h1m2 0h1m1 0h2m-60 1h1m49 0h1m3 1h2m-16 1h1m-41 1h1m5 0h1m-9 1h1m3 0h1m-5 1h1m41 0h2m2 0h1m-48 1h2m2 0h1m-5 1h1m3 0h1m35 0h1m-37 1h1m0 2h2m4 0h1m-14 1h2m28 0h1m7 0h1m-39 1h1m5 0h1m1 0h1m5 0h1m14 0h1m-22 1h1m14 0h1m3 0h1m-21 1h1m12 0h1m4 0h1m-20 1h1m1 0h1m-3 1h1m45 0h1m11 0h1m-67 1h1m17 0h1m-8 1h1m47 0h1m-62 1h1m10 0h1m-10 2h1m7 0h1m2 0h1m2 0h1m36 0h1m8 0h1m-9 1h1m-45 1h1m6 0h1m2 0h1m31 0h1m-39 1h1m1 0h1m1 0h1m-9 1h1m4 0h1m19 0h1m-34 1h1m11 0h1m31 0h1m-47 1h1m11 0h1m36 0h1m-43 1h1m19 1h1m4 0h2m9 0h1m1 0h1m-49 2h1m2 0h1m28 0h1m-33 2h1m33 0h1m-35 1h2m30 0h1m-8 3h1m3 0h1m6 0h1m-14 1h1m3 2h1m-12 2h1m6 1h1m3 0h1m1 0h1m40 1h1m-1 1h1m-45 1h1m-1 1h1m9 1h1m30 0h1m-63 1h1m2 0h1m54 0h1m1 0h2m-31 1h1m23 0h1m-35 1h2m27 0h1m-59 1h1m2 0h1m1 0h1m24 0h1m-32 1h1m31 0h1m22 0h1m6 0h1m-63 2h1m30 0h1m-1 1h1m0 1h1m-3 2h1m3 0h1m-3 1h1m-5 9h1m-8 2h1m-3 2h1m2 0h1m-10 1h1m1 0h1m-8 3h1m2 0h1m-5 1h1m4 0h1m-10 1h1m6 0h1m-10 1h2m3 0h1"/><path stroke="#983950" d="M119 30h1m0 1h1m-7 1h1m3 0h1m1 0h1m3 2h1m-13 1h1m10 0h1m-13 4h1m8 0h1m8 0h1m-12 1h2m8 0h2m-21 1h1m11 0h1m7 2h1m1 0h1m-75 1h1m61 0h1m-11 1h1m9 0h2m-1 1h1m7 0h1m2 0h1m-67 1h1m42 0h1m1 0h1m11 0h1m-5 1h3m-11 1h1m-40 1h1m48 0h2m-48 1h1m47 0h1m-53 1h1m33 0h1m13 0h1m-10 1h1m4 0h3m-45 1h1m-4 1h1m39 0h1m-45 2h2m8 0h1m-2 1h1m33 0h1m-7 1h1m-31 1h1m18 1h1m10 0h1m-40 1h1m12 0h1m3 0h1m2 0h1m5 0h1m-18 1h1m5 0h1m-16 1h1m14 0h1m-8 1h1m54 0h1m-55 1h1m9 0h1m45 0h1m-67 1h1m7 0h1m55 0h1m1 0h1m-47 1h2m38 0h1m-1 1h1m-51 1h1m4 0h1m2 0h1m3 0h1m-13 1h1m4 0h1m-17 1h2m53 0h1m-59 2h1m13 0h1m3 0h1m36 0h1m-48 1h1m23 0h1m-34 1h1m13 0h1m20 0h1m14 0h2m-43 1h1m19 0h1m7 0h1m-39 1h1m29 0h1m8 0h1m-37 1h1m2 0h1m2 0h1m22 0h1m15 0h1m-50 1h1m2 0h1m28 0h1m-2 1h1m2 0h1m-4 1h1m-33 1h1m38 0h1m-42 1h1m30 2h1m0 2h1m-8 2h1m1 0h1m-2 1h1m6 0h1m7 0h1m-21 1h1m55 0h1m-46 1h1m-1 1h2m-20 1h1m59 1h1m-6 1h3m1 0h1m-67 2h1m23 0h1m34 0h1m-64 1h1m6 0h1m23 0h1m29 0h1m-64 1h1m29 0h1m26 1h1m-28 1h2m8 0h1m12 0h1m3 0h1m-18 1h1m13 0h1m-3 3h1m-5 2h1m-22 7h1m0 1h1m-4 1h1m-7 3h1m4 0h1m-9 1h1m3 1h1m-6 1h1m-4 1h1m-9 3h1m0 1h1m-5 2h1"/><path stroke="#514839" d="M116 31h1m-1 2h1m-2 9h1m-1 2h1m-1 1h1m-10 6h1m-35 1h1m-1 1h1m1 0h1m0 1h1m-1 1h1m-8 1h1m7 1h1m41 0h1m-53 2h1m45 1h1m-46 1h1m14 1h1m11 0h1m8 0h1m-40 1h1m1 0h1m24 0h1m11 0h1m-27 1h1m24 0h1m10 1h1m-51 1h1m24 0h2m-24 1h1m0 1h1m18 0h1m4 1h1m26 0h1m1 0h1m-34 2h1m25 1h1m-33 1h1m4 0h2m2 0h1m22 0h2m-28 1h1m-5 1h1m-26 1h1m26 0h1m-2 2h1m32 1h1m1 0h1m-38 1h1m-14 1h1m11 0h1m-14 2h1m1 0h1m11 0h1m3 0h1m23 0h1m9 0h1m-57 2h1m55 0h1m-40 1h1m37 0h2m-39 1h1m34 0h1m-65 1h1m59 0h1m-33 1h1m27 0h1m-41 1h1m3 0h1m35 0h2m6 0h1m-2 1h1m-46 1h1m37 0h1m-38 1h1m8 0h1m-12 1h1m11 0h1m26 1h1m-29 7h1m-10 1h1m8 1h2m-19 2h1m6 0h1m9 0h2m-20 1h1m1 2h1"/><path stroke="#504939" d="M116 32h1m-2 5h1m-4 4h1m13 0h1m-18 6h1m-39 4h1m35 0h1m-32 3h1m-3 1h1m2 0h1m0 1h1m25 0h1m-26 1h1m-13 1h1m9 0h1m1 0h1m-1 2h1m36 0h1m1 4h1m-52 1h1m44 0h1m-46 1h1m11 0h1m4 0h1m-5 1h1m39 1h1m-59 1h1m22 0h1m1 0h1m1 1h1m31 0h1m-34 1h1m26 0h1m5 0h1m-8 1h1m3 0h1m-60 2h1m30 0h1m-33 1h1m23 4h1m1 1h1m32 0h1m-62 1h1m34 0h1m24 0h1m-49 1h1m14 0h1m1 0h1m4 0h1m29 0h1m-52 1h1m14 0h1m26 0h1m-47 1h1m44 0h1m5 1h1m0 1h1m-2 3h1m-36 1h2m26 1h2m-30 1h1m-9 2h1m-9 2h1m1 0h1m-3 1h1m15 1h1m-19 8h1m7 1h1m-4 2h2m2 0h1m-4 1h1m12 0h1m-2 1h1m-17 1h1m6 0h1m-11 1h1m-2 2h1m0 4h1"/><path stroke="#514939" d="M115 33h1m-2 2h1m-1 3h1m10 2h1m-11 1h1m-1 2h1m-9 7h1m-37 2h1m3 1h1m29 0h1m0 1h1m-31 2h1m40 2h1m-1 1h1m-5 1h1m-34 1h1m22 0h1m9 0h1m3 1h1m-2 1h1m-16 1h1m11 0h1m-29 1h1m-20 1h1m51 0h1m-56 1h1m2 1h1m21 0h1m-28 2h1m23 0h1m5 0h1m-2 1h1m27 0h1m-32 1h1m3 1h1m25 0h1m-29 1h1m-8 2h1m1 0h1m0 1h1m-4 1h1m2 0h1m34 0h1m-64 1h1m60 0h1m-38 1h1m3 1h1m27 0h1m-59 1h1m14 0h1m40 0h2m4 1h1m1 0h1m-65 1h1m63 0h1m-37 1h1m-14 1h1m45 0h1m-62 1h1m13 0h1m50 0h1m-56 1h1m50 0h1m2 0h1m-55 1h1m51 0h1m-1 2h1m-49 1h1m43 0h1m-44 1h1m11 0h1m26 0h1m-39 1h1m37 0h1m-41 1h1m1 0h1m1 0h1m7 0h1m-1 1h1m0 3h1m-2 2h1m-10 1h1m-8 3h1m-2 2h1m4 0h1m11 1h1m-1 2h1m1 0h1m-15 1h1m2 0h1m-11 1h1m8 0h1m0 1h1m-11 1h1m5 0h1m-8 5h1"/><path stroke="#998160" d="M117 33h1m-1 6h1m6 2h2m-2 1h2m-14 2h1m2 5h2m-3 1h1m9 1h1m-2 2h1m1 0h2m-20 1h1m14 0h1m-1 2h1m1 0h1m0 1h1m-2 1h2m0 1h1m-18 1h1m11 0h1m-15 1h1m-34 1h1m33 0h1m13 1h1m3 0h1m-23 1h1m17 0h1m-1 1h1m-54 2h1m33 0h1m3 0h1m-1 1h1m19 0h1m-27 1h1m6 0h1m-35 1h1m-9 2h1m26 0h1m34 0h1m-63 1h1m1 0h2m33 0h1m1 0h3m13 0h1M21 74h1m102 0h1m-34 1h1m22 0h1m1 0h1m3 0h1m2 0h2m-47 1h1m36 0h1m1 0h1m-97 1h1m50 0h1m54 0h1m-53 1h1m33 0h1m14 0h1m-17 1h1m2 0h1m15 0h1m-49 1h1m26 0h1m1 0h1m18 0h1m-3 1h2m-25 1h2m20 0h1m-64 1h1m42 0h1m2 0h1m17 0h1m-68 1h1m2 0h1m11 0h1m33 0h1m16 0h1m-66 1h1m15 0h1m3 0h1m23 0h1m20 0h1m-52 1h1m27 0h1m2 1h1m20 0h2m-71 1h1m2 0h1m43 0h1m21 0h1m-70 1h1m69 0h1m-83 1h1m12 0h1m46 0h1m21 0h1m-83 1h1m14 0h1m43 0h1m22 0h1m-70 1h1m45 0h1m1 0h1m-50 1h1m48 0h2m-54 1h2m24 0h1m42 0h1m-66 1h1m1 0h1m15 0h1m25 0h1m3 0h1m-45 1h1m-2 1h1m10 0h1m2 0h2m38 0h1m-95 1h1m47 0h1m2 0h1m33 0h1m1 0h1m4 0h1m2 0h1m-15 1h1m-49 1h1m54 0h2m-44 1h2m-8 1h1m18 0h1m-69 1h1m8 0h1m39 0h1m3 0h1m13 0h1m25 0h1M3 104h1m8 0h1m42 0h1m5 0h1m17 0h1m21 0h1m-23 1h1m-77 1h1m53 1h1m37 0h1m-93 1h1m54 0h2m17 0h1m-22 2h1m2 0h1m17 0h1m1 0h1m-24 1h1m-2 1h1m3 0h1m-45 3h1m40 0h1m22 0h1m-23 1h1m20 0h1m-21 1h1m-19 1h1m18 0h1m15 0h1m-47 4h1m27 1h1m6 0h2m-12 1h1m2 0h1m-3 2h1m3 0h1m-6 1h1"/><path stroke="#504838" d="M115 34h1m-1 4h1m-2 1h1m-4 3h1m2 1h1m-43 8h1m0 1h2m1 1h1m1 2h1m26 0h1m-29 1h1m26 1h1m-27 1h1m1 1h1m35 0h1m-37 1h1m13 1h1m-19 2h1m-11 1h1m17 0h1m6 0h1m-14 1h1m7 0h1m26 1h1m-52 2h1m54 0h1m-51 1h1m20 1h1m27 1h1m3 0h1m-31 1h2m23 0h1m1 0h1m-36 1h1m33 0h1m-58 2h1m-2 2h1m22 1h1m-1 1h1m37 3h1m-52 2h1m12 0h4m31 0h1m-36 1h1m31 0h1m5 0h1m-39 2h1m-28 1h1m13 0h1m1 0h1m39 0h1m-47 1h1m51 1h1m-46 1h2m8 0h2m30 0h1m2 1h1m-25 2h2m-24 1h1m-5 1h1m0 1h1m13 0h1m-11 5h1m10 0h1m-13 1h1m10 0h2m-15 1h1m-4 2h1m16 1h1m-14 6h1m-2 3h1m-7 1h1"/><path stroke="#717948" d="M116 34h1m-3 2h1m17 6h1m-5 13h1m-9 3h1m-54 1h1m49 1h1m10 0h1m-9 3h1m-1 1h1m-34 1h1m3 1h1m0 4h1m19 3h1m5 0h1m-47 5h1m-1 2h1m50 0h1m4 3h1m-11 1h1m-1 1h1m-8 1h1m11 0h1m-53 3h1m45 3h1m-38 2h1m33 2h2m-4 1h1m-33 3h1m-6 5h1m17 0h1m-19 3h1m-6 1h1m4 0h1m-1 1h1m-13 1h1m16 1h1m-6 1h1m-2 3h2m-9 4h1m10 1h1m-11 5h1m-9 4h1m-3 1h1"/><path stroke="#988061" d="M117 34h1m-70 4h1m68 3h1m7 2h1m-15 2h1m3 2h1m-5 1h1m2 0h1m9 5h1m2 1h1m-1 1h1m-2 1h1m-3 1h1m-2 1h1m2 0h2m-7 1h1m5 0h1m-2 1h1m-22 1h1m21 0h1m-6 1h1m2 0h1m-52 1h1m29 0h1m19 0h1m-56 1h1m6 0h1m32 0h1m14 0h2m-50 1h1m47 0h1m-47 1h1m13 0h3m7 1h1m3 0h1m-33 1h1m3 0h1m15 0h1m6 0h2m5 0h2m-47 1h1m12 0h1m25 0h1m24 0h1m-53 1h1m31 0h1m15 0h1m-57 1h1m35 0h1m22 0h1m-33 2h1m6 0h1m22 0h1m-47 1h1m39 0h1m2 0h1m1 0h1m2 0h1m-51 1h1m12 1h1m28 0h1m-46 2h1m36 0h1m2 0h1m-36 1h1m-58 1h1m82 0h2m3 0h1m16 0h1m-50 1h1m26 0h1m-26 1h1m24 0h2m20 0h2m-2 1h1m0 1h1m-67 1h1m64 0h1m0 1h1m-70 1h1m19 0h1m-24 1h1m4 0h1m44 0h1m21 0h1m-3 1h1m-73 1h1m4 0h1m15 0h1m-19 1h1m3 0h1m63 0h2M18 92h1m42 0h1m-46 1h1m38 0h1m4 0h1m16 0h1m25 1h1m16 0h1m-66 1h1m5 0h2m39 0h1m4 1h1m-54 1h1m4 0h1m17 0h1m-23 2h1m22 0h2m-26 1h1m11 0h1m1 0h1m1 0h1m34 1h1m2 0h1m-33 1h1m1 0h1m24 0h1m1 0h1m-43 1h1m15 0h1m23 0h1m-91 1h1m42 0h1m3 0h1m-5 1h1m1 0h1m1 0h1m16 0h1m-23 1h1m22 0h1m-26 1h1m1 0h1m-1 1h1m-11 1h1m10 0h1m42 0h1m-45 1h1m2 0h1m20 1h1m-22 1h1m18 0h1m-19 1h1m19 0h1m-22 1h1m-6 2h1m23 0h1m-40 1h1m14 0h1m2 0h1m17 0h1m-18 1h1m-16 1h1m13 1h1m0 1h1m-5 1h2m11 0h2m-10 2h1m-4 3h1m-3 1h1m1 0h1m-3 1h1"/><path stroke="#707949" d="M115 35h1m12 24h1m-63 1h1m61 2h1m-40 2h1m-2 1h1m1 2h1m-24 3h1m43 2h1m-32 1h1m47 3h1m-57 5h1m7 3h1m42 0h1m-52 1h1m50 2h1m-52 1h1m50 2h1m6 1h1m-20 2h1m7 1h1m10 0h1m-67 1h1m10 5h1m-4 5h1m35 1h1m-47 4h1m17 4h1m-10 1h1m-9 1h1m18 1h1m-1 1h1m-15 1h1"/><path stroke="#998061" d="M117 35h1m4 4h1m-74 1h1m67 0h1m5 0h1m-1 1h1m-1 3h1m2 0h1m-5 1h1m-1 1h1m-10 2h1m-46 2h1m42 0h1m13 0h1m-5 2h1m4 0h1m-6 1h1m-1 2h1m5 1h1m-17 1h1m15 0h1m-7 1h1m3 1h1m-31 2h1m13 0h1m11 0h1m2 0h1m-19 1h1m14 0h1m4 0h1m-20 1h1m-34 1h1m25 0h1m2 0h1m2 0h1m19 0h1m-34 1h1m11 0h1m-29 1h1m24 0h1m2 0h1m-14 1h1m-17 1h1m3 0h1m12 0h1m10 0h1m-11 1h1m-1 1h1m8 0h1m-35 2h1m31 0h1m6 0h1m-46 2h1m13 0h1m25 0h1m16 0h1m4 0h1m-63 1h1m24 0h1m12 0h3m11 0h1m5 0h2m3 0h1M21 76h1m54 0h1m25 0h1m9 0h1m11 0h1m-50 1h1m3 0h1m7 0h1m37 0h2M21 78h1m54 0h1m50 0h1m-16 1h1m11 2h1M21 82h1m-1 1h1m84 0h1m-50 1h1m21 0h1m26 0h1m-63 1h1m12 0h1m44 0h1m-29 1h1m2 0h2m23 0h2m-48 1h1m2 0h1m15 0h1m3 0h1m27 0h1m16 0h1m-51 1h1m26 0h1m5 0h1m-34 1h1m27 0h1m-48 1h2m46 0h1m-43 1h1m-18 1h1m79 0h1m-72 1h1m25 0h1m14 0h1m8 0h1m-44 1h2m13 0h1m2 0h1m28 0h1m15 0h1m-66 1h1m15 0h1m46 0h1m-69 1h1m19 0h2m3 0h2m21 0h1m14 0h1m-44 1h1m28 0h1m2 0h2m-38 1h1m2 0h1m3 0h1m-11 1h1m3 0h1m1 0h1m2 0h1m34 0h1m-48 1h1m38 0h1m-38 1h1m2 0h1m7 0h2m24 0h1m-39 1h2m11 0h1m-21 1h1m1 0h1m42 0h1m-45 1h1m-42 2h1m2 1h1m38 0h1m-6 1h1m21 1h2m-2 1h1m-19 1h1m-5 1h1m3 1h1m19 1h2m-25 2h1m20 1h2m-20 1h1m0 1h1m-15 1h1m24 0h1m-44 1h1m30 1h1m4 1h1m-9 2h2m3 0h2m-25 1h1"/><path stroke="#789981" d="M116 36h1M22 53h1m-3 1h1m20 3h1m71 1h1m1 2h1m0 1h1m-6 1h1m-75 1h1m74 1h1m-2 2h1m-98 5h1m0 1h1m1 0h2m-2 1h1m-1 1h2m-6 1h1m0 1h1m-1 1h1m4 1h1m50 0h1m47 0h1m3 0h1m-55 1h1m42 1h1m-3 1h1m-73 1h1m27 0h1m-29 1h2m24 0h1m3 0h1m54 0h1m-87 1h2m4 2h1m75 0h1m-1 1h1m3 0h1m-87 2h2m3 0h1m-5 1h1m3 2h1m0 1h1m73 0h1m2 0h1m-9 2h1m-99 3h1m3 2h1m0 2h1m51 0h1m-6 1h1m2 0h1m-32 2h1m2 2h1m25 0h2m-32 1h1m1 0h1m26 0h1m-25 1h1m21 0h1m2 0h1m-31 2h2m32 0h1m-34 1h1m3 1h1m0 1h1m31 0h1m-8 1h1m-4 1h1"/><path stroke="#707848" d="M117 36h1m-3 10h1m12 6h1m-1 1h1m-1 4h1m-61 1h1m-4 4h1m24 2h1m30 1h1m6 5h1m-17 1h1m15 7h1m-49 1h1m42 0h1m-54 1h1m9 0h1m-13 1h1m11 0h1m-17 2h1m44 0h1m13 0h1m-44 2h1m47 0h1m-56 4h1m-10 2h1m57 1h1m5 4h1m-49 2h1m-1 1h1m-6 3h1m4 0h1m-1 4h1m-18 4h1m11 4h1m4 6h1m-16 1h1m6 3h1m-11 5h1"/><path stroke="#e97199" d="M49 37h1m79 8h1m-13 24h1M6 81h1m1 0h1m1 0h1m-3 1h1m1 1h1m32 0h1m-27 3h1m2 0h1m1 1h1m-1 1h1m1 0h1m1 2h1m4 2h1m-2 1h1m2 1h1m3 1h1m3 1h1m-2 2h1m5 3h1m1 1h1m47 3h1m1 0h1m-4 1h1m1 1h1m-86 3h1m1 2h1m2 1h2m-3 1h1m9 4h1m1 0h1m-4 1h1m2 0h1m1 0h1m1 1h1m-2 2h1m10 3h1m-5 1h1m5 0h1m0 2h2m-3 1h1m4 0h1m-4 1h1m3 1h1"/><path stroke="#717949" d="M113 37h1m6 20h1m-9 2h1m7 0h1m-5 7h1m-26 1h1m-29 1h1m64 5h1m-49 1h1m42 3h1m4 2h1m-1 1h1m-6 1h1m4 1h1m-73 3h1m66 0h1m-14 1h1m17 1h1m-6 1h1m-1 1h1m-58 3h1m63 0h1m-51 3h1m36 0h1m-55 1h1m0 1h1m45 1h1m-31 3h1m-6 2h1m4 4h1m-1 2h1m-6 2h1m5 3h1m0 2h1m-22 4h1m2 1h1m-3 1h1m3 5h1m-3 1h1m-11 5h1"/><path stroke="#789980" d="M114 37h1M22 49h1m-1 1h2m-3 2h1m1 2h1m17 4h1m26 2h1m-33 1h1m29 0h1m47 0h1m-80 1h1m3 0h1m75 1h1m-1 1h1m4 1h1M13 72h1m0 3h1m4 0h1m102 2h1M15 78h1m3 1h1m-1 1h1m94 0h1m-97 1h1m93 0h1m1 0h1m0 1h1m6 0h1m-83 2h1m22 0h1m6 0h1m42 0h1m1 0h1m-48 1h1m53 1h1m-87 1h1m77 2h1m-77 1h1m75 0h1m-75 1h1m22 0h1m58 0h1m-11 2h1m-2 1h1m3 1h1M14 99h1m56 6h1m2 0h1m-1 1h1m-38 1h1m3 1h1m21 0h1m-2 1h1m-23 1h1m25 0h1m3 0h1m-33 1h1m3 0h1m21 2h1m2 0h1m2 0h1m-30 1h1m22 0h1m1 3h1m4 0h1m-9 2h1"/><path stroke="#799880" d="M116 37h1M23 48h1m-3 3h1m-2 1h1m2 1h1m94 1h1m-98 1h1m17 1h2m73 3h1m-76 1h1m-3 1h1m76 2h1m-4 1h1m-98 6h1m-2 1h1m1 0h1m3 2h1m100 4h1m-6 1h1m-98 2h1m45 1h1m2 0h1m54 0h1m-87 1h1m1 0h1m78 0h1m-5 1h1m8 1h1m-12 1h2m9 0h1m-55 1h1m-33 2h1m35 1h1m-37 1h1m4 0h1m70 0h1m-96 1h1m45 1h1m48 0h1m1 1h1m-1 1h1M15 96h1m97 0h1m-28 1h2m-14 3h1m-2 1h1m-58 1h1m1 1h1m55 1h1m-9 1h1m-30 1h1m24 0h1m-27 1h1m37 0h1m-33 3h1m24 0h1m-32 2h1m27 0h1m1 0h1m-30 2h1m32 0h1m-30 1h1m22 0h1m7 0h1m-31 1h1m27 0h1m-7 1h1m-1 2h1m-3 1h1m2 0h1"/><path stroke="#988161" d="M117 37h1m4 1h1m-76 1h1m74 1h1m0 2h1m-12 1h1m11 0h1m-13 3h1m4 0h1m-6 3h1m2 1h1m11 1h1m-6 4h1m-2 2h2m-16 2h1m1 0h1m13 0h2m-20 1h1m2 0h1m-40 1h1m-1 1h1m35 0h1m18 0h1m-56 1h1m35 0h2m1 0h2m13 0h1m1 0h1m-33 1h1m11 0h1m15 0h1m1 0h1m-32 1h1m8 1h1m-38 1h1m9 0h1m3 0h2m21 0h1m-10 1h1m-16 1h1m23 1h1m23 0h3m-60 1h1m39 0h1m15 0h1m2 0h1m-65 1h1m4 0h1m34 0h1m19 0h1m-60 1h2m-1 1h1m-45 1h1m42 0h2m12 0h1m40 0h1m-57 1h1m24 0h1m-15 1h1m-1 1h1m36 0h1m14 0h1m-2 1h2m-54 1h1m2 0h1m-56 1h1m54 0h1m25 0h2m3 0h2m-48 1h1m12 0h1m2 0h1m47 0h1m-67 1h1m17 0h1m27 0h1m18 0h1m-65 1h1m13 0h1m51 0h1m-54 1h1m30 0h1m-61 1h1m15 1h1m13 0h1m2 0h1m49 0h1m-53 1h1m26 0h1m1 0h1m21 0h1m-73 1h1m20 0h1m51 0h1m-27 1h1m5 0h1m-4 1h1m1 0h1m-3 1h1m1 0h2m-64 1h1m12 0h2m19 0h1m22 0h2m21 0h1m-69 1h1m20 0h1m24 0h1m2 0h1m-53 1h1m53 0h1m11 0h1m-15 1h1m11 0h1m-15 1h1m-46 1h1m16 0h1m1 0h1m28 0h1m-38 1h1m4 0h1m2 0h1m35 0h1m-50 1h1m12 0h1m26 0h1m-41 1h1m13 0h2m27 1h1m-3 1h1m-49 1h1m-5 2h2m3 0h1m18 0h1m-60 1h1m39 0h1m20 0h1m-27 1h1m2 0h1m19 0h1m2 0h1m17 0h1m-91 3h1m37 0h1m8 0h1m4 0h1m18 0h1m0 1h1m-23 1h1m19 0h2m-45 2h1m41 0h3m1 0h1m-27 2h1m-16 1h1m1 1h1m16 0h1m-4 1h1m3 0h1m-4 1h1m-3 2h1m1 0h1m2 0h1m1 0h2m-8 1h1m-3 1h1m4 0h1m-6 1h1m4 0h1m-6 1h1m-9 3h1"/><path stroke="#998060" d="M122 37h1m-6 1h1m-67 3h1m65 1h1m8 1h2m-4 1h1m-2 2h1m-8 1h1m-5 1h1m4 0h1m-7 4h1m11 0h1m1 0h1m1 0h1m-8 1h1m1 0h1m-6 1h1m5 0h2m-10 1h1m-3 1h1m9 1h1m-17 3h1m14 1h1m2 0h1m-17 1h1m13 0h1m-55 3h1m5 0h1m18 0h1m9 0h1m1 0h1m2 1h1m-34 1h1m17 0h1m10 0h1m3 0h1m-35 1h1m29 0h2m-33 1h1m17 0h2m9 0h2m1 1h1m17 0h1m-62 1h1m29 0h1m10 0h1m1 0h1m2 0h1m15 0h1m-59 1h1m13 0h1m12 0h1m12 0h1m1 0h1m14 0h1m-3 1h1m2 0h1m1 0h1m-36 1h2m7 0h1m3 0h1m10 0h1m2 0h1m7 0h1m-15 1h1m-41 1h3m1 0h1m23 0h1m11 0h2m1 0h1m-8 1h1m6 0h1m-58 1h1m-39 1h1m45 0h1m6 0h1m30 0h1m-41 1h1m8 0h1m2 0h1m25 0h1m-31 1h2m4 0h1m26 0h1m-32 1h1m30 0h1m-47 1h1m12 0h2m3 0h1m22 0h1m-24 1h1m22 0h5m19 0h1m-68 1h1m42 0h1m25 0h1m-70 1h1m45 0h1m1 0h2m-7 1h1m-26 1h2m-34 1h1m13 0h1m-5 1h1m47 0h1m-85 1h1m34 0h1m3 0h2m42 0h2m25 0h1m-74 1h1m3 0h1m19 0h1m46 0h1m-72 2h1m1 0h1m1 0h1m34 0h1m26 0h1m-45 1h1m42 0h1m-44 1h1m24 0h1m1 0h1m-50 1h1m59 0h3m-45 1h2m4 0h1m23 0h1m10 0h1m-95 1h1m35 0h1m21 1h1m22 0h1m8 0h1m-7 1h1m-85 1h1m80 0h1m4 0h1m-31 1h1m24 0h1m-26 1h1m1 0h1m-3 1h1m-57 1h1m56 1h1m-75 2h1m50 0h1m4 0h1m18 0h1m-34 1h1m7 0h1m3 1h1m19 0h1m-33 1h1m11 0h1m18 0h1m1 0h1m-26 2h1m1 1h1m2 0h2m-43 1h1m17 0h2m8 0h1m8 0h1m3 0h1m16 1h1m-31 1h1m10 0h1m-12 1h1m7 0h1m17 0h1m-29 1h1m24 0h2m-17 1h1m5 1h1m4 0h2m-6 1h1m-8 1h1m6 0h1m-7 2h1"/><path stroke="#717848" d="M113 38h1m-3 6h1m20 3h1m-5 3h1M69 60h1m50 0h1m-1 1h1m7 0h1m-14 4h1m3 1h1m-8 1h1m15 2h1m-15 1h1m-23 1h1m-1 2h1m35 1h1m-49 8h1m-9 1h1m43 0h1m-8 2h1m-54 1h1m15 4h1m38 1h1m7 0h1m-40 2h1m39 0h2m-56 1h1m51 0h1m-6 3h1m-3 1h1m10 1h1m-5 2h1m-5 2h1m-40 3h1m-15 1h1m44 0h1m-33 16h1m-19 9h1"/><path stroke="#504839" d="M112 39h1m2 0h1m-4 1h1m1 1h1m-1 4h1M68 55h1m7 0h1m-9 2h1m8 0h1m39 0h1m-38 1h1m-2 1h1m23 0h1m-1 1h1m-23 1h1m30 0h1m-47 1h1m14 0h1m35 1h1m-35 1h1m-21 1h1m25 0h1m22 1h1m4 0h1m-32 1h1m1 0h2m30 0h1m-34 1h1m1 0h1m-1 1h1m29 0h1m-34 2h1m-1 1h1m1 0h2m-1 1h1m-8 1h1m5 0h1m2 0h1m-3 1h1m-9 1h1m0 1h1m1 2h2m-30 1h1m26 0h1m32 0h1m-34 1h1m-15 1h1m43 0h1m-2 1h1m-4 1h1m-42 3h1m44 0h1m2 0h1m-35 1h1m27 1h1m-47 1h2m54 0h1m-11 2h1m-18 1h1m16 0h1m-1 1h1m-44 1h1m14 3h1m-2 2h1m0 1h1m-13 3h1m1 2h1m-1 1h1m-5 1h1m13 0h1m-12 1h1m10 0h1m-18 1h1m5 0h2m-11 1h1m2 0h1m2 1h1m-8 1h1m9 0h1m-11 1h1m7 0h1m2 0h1m-11 1h1m5 0h1m-7 3h1"/><path stroke="#789881" d="M113 39h1M24 50h2m-5 3h1m17 4h1m72 0h1m-73 1h1m74 0h1m-78 1h1m-3 1h2m2 0h1m76 1h2m-83 1h2m73 1h1m-74 1h1m29 6h1m-51 3h1m0 1h1m-7 3h1m1 2h1m2 0h1m103 0h1m-61 3h1m3 0h1m47 1h1m-48 1h1m-1 1h1m46 0h1m-50 1h1m46 0h1m1 0h1m-1 1h1m-3 1h1m5 0h1m-81 1h1m24 0h1m-48 1h1m97 1h1m-73 1h1m75 0h1m-56 1h1m53 1h1M14 96h1m95 0h1m-93 3h1m50 2h1m-3 5h1m-4 2h1m-23 1h1m21 0h1m2 2h1m6 1h1m-9 2h1m-1 1h1m3 0h1m-2 3h1m-7 3h1"/><path stroke="#514838" d="M124 39h1m-10 1h1m-5 1h1m15 1h1m-17 1h1m2 1h1m-7 5h1m-40 1h1m7 4h1m-11 3h1m35 1h1m9 1h1m-32 2h1m9 1h1m-26 1h1m14 0h1m9 0h1m-26 1h1m-1 3h1m17 0h1m1 0h1m-3 1h1m33 0h1m-54 1h1m19 1h2m30 0h3m-30 1h1m27 0h1m-60 1h1m58 0h1m-36 1h1m1 2h1m-30 2h1m0 1h1m24 0h1m-1 1h1m8 1h1m-23 1h1m17 1h1m-34 1h1m25 0h1m5 0h1m-24 1h1m55 0h1m-66 2h1m53 1h1m9 0h1m-11 1h1m10 0h1m-8 1h1m6 0h1m-8 1h1m5 0h1m-49 3h1m41 0h1m-33 1h1m0 1h1m27 0h1m-42 1h1m-4 1h1m2 6h1m-2 2h1m13 0h1m-2 2h1m-21 1h2m9 0h1m-12 3h1m9 0h1m-3 1h1m-5 1h1m-1 1h1m5 0h1m-7 1h1m3 0h1m-8 1h1m2 1h1m-5 1h1"/><path stroke="#504938" d="M114 40h1m13 3h1m-19 1h1m-1 1h1m-41 6h1m35 1h1m-33 2h1m30 0h1m-27 2h1m-2 1h1m39 1h1m-41 1h1m2 1h1m-15 2h1m25 0h1m18 0h1m5 0h1m-17 1h1m15 0h1m-55 1h1m23 0h1m-23 1h1m23 0h1m30 1h1m-32 2h1m-1 1h1m-2 2h1m27 0h1m-34 1h2m34 0h1m-61 1h1m22 0h1m1 0h1m-5 1h1m2 0h3m-6 1h1m1 1h1m-3 1h1m-25 1h1m-2 1h1m28 1h1m7 0h1m-12 1h1m1 0h1m-4 1h2m2 1h1m31 2h1m-54 1h1m4 0h1m-16 1h1m15 0h1m39 0h1m6 1h1m-36 1h1m36 0h1m-48 3h1m9 0h1m-11 2h1m-3 2h1m1 0h1m-4 1h1m12 3h1m-12 3h1m9 2h1m-20 2h1m6 1h1m1 0h1m9 1h1m-14 1h1m-1 1h1m-1 2h1m-8 3h1m-1 1h1"/><path stroke="#988060" d="M124 40h1m-3 1h1m-1 1h1m0 1h1m-12 2h1m-2 1h1m-1 1h2m-2 2h1m5 0h1m-5 1h1m12 0h2m-16 1h1m14 2h1m-3 1h1m-2 1h2m-5 1h1m1 0h1m1 0h1m0 1h1m-58 1h1m39 0h1m-2 1h1m13 1h1m-17 1h1m1 0h1m17 0h1m-20 1h1m-14 1h1m32 0h1m-54 2h1m2 0h1m23 0h1m7 0h1m-41 1h1m6 0h1m45 0h1m-15 1h1m-30 1h1m-16 1h1m4 0h1m35 0h1m1 0h1m17 0h1m-24 1h1m1 0h2m-5 1h2m2 0h1m4 0h1m11 0h1m3 1h1m-23 1h1m3 0h1m17 0h1m-63 1h1m2 0h1m26 0h1m22 0h1m4 0h1m-46 1h1m1 0h1m7 1h1m-17 1h1m1 0h1m14 0h1m23 0h1m2 0h1m8 0h1m-56 1h1m37 0h1m-35 1h1m3 0h1m31 0h1m-32 1h1m15 0h1m30 0h1m-51 1h1m29 0h1m21 0h1m-50 1h1m-4 1h1m3 0h1m-21 1h1m0 1h1m16 0h1m27 0h1m18 1h2m-69 1h1m3 0h1m-18 1h1m7 0h1m8 0h1m62 0h1m-72 1h1m3 0h1m18 0h1m29 0h1m-48 1h3m63 0h1m-71 1h1m46 1h1m-86 1h1m41 0h1m1 0h1m60 0h1m-63 2h1m15 0h1m2 0h1m23 0h1m14 0h1m-64 1h1m2 0h2m15 0h1m43 0h1m-48 1h1m34 0h1m-51 1h1m12 0h1m7 0h1m34 0h1m-61 1h1m11 0h1m1 0h2m2 0h1m30 0h1m1 0h1m6 0h1m-92 1h1m58 0h1m25 0h2m4 0h1m-51 1h1m1 0h1m42 0h1m2 0h1m-51 1h1m3 0h1m2 0h1m37 0h1m-44 1h2m14 0h1m25 1h1m-48 2h1m19 0h1m-20 2h1m20 0h1m-24 1h1m2 0h1m20 0h1m-75 1h1m51 0h1m18 1h1m-23 2h2m20 0h1m-22 1h1m3 0h1m-15 1h1m11 0h1m1 1h1m-41 1h1m35 0h1m3 0h1m-7 1h1m1 0h1m18 0h1m-52 1h1m1 1h1m18 0h1m9 0h1m3 0h1m0 1h1m7 0h2m-16 2h1m1 0h1m3 1h1m3 0h1m-29 1h1m18 0h1m4 0h1m-3 2h1m-4 1h1m-6 4h1"/><path stroke="#707849" d="M131 41h1m-14 15h1m1 0h1m-5 1h1m-52 4h1m38 0h1m-13 3h1m-29 2h1m26 2h1m-12 7h1m47 0h1m-49 1h1m42 0h1m-65 1h1m20 0h1m47 0h1m-6 1h1m-4 3h1m-41 5h1m47 0h1m-18 1h1m-1 1h1m16 0h1m-62 1h1m60 0h1m-61 1h1m47 5h1m-47 2h1m-4 1h1m52 2h1m-46 1h1m4 2h1m-6 1h1m4 0h1m29 1h1m-22 2h1m-29 2h1m18 1h1m-1 1h1m-6 1h1m6 3h1m-20 2h1m5 2h1m-7 3h1m12 0h1"/><path stroke="#707948" d="M112 42h1m1 4h1m13 3h1m-1 2h1m-22 2h1m20 1h1m-9 1h1m7 1h1m-25 6h1m-14 3h1m27 0h1m0 1h1m-55 4h1m61 1h1m-14 3h1m-36 4h1m-9 1h1m55 2h1m-11 2h1m-8 6h1m-41 1h1m39 0h1m17 0h1m-7 1h1m6 4h1m-22 1h1m16 1h1m-3 1h1m-9 4h1m-5 2h1m-33 1h1m-13 2h1m6 0h1m4 1h1m23 0h1m-42 4h1m-1 1h1m16 0h1m-6 2h1m-4 2h2m-4 1h1m-5 2h1m3 5h1"/><path stroke="#514938" d="M114 42h1m-6 4h1m-2 2h1m-36 5h1m32 0h1m-34 1h1m30 1h1m-30 1h1m40 2h1m1 1h1m-36 4h1m6 0h1m25 1h2m-54 1h1m19 0h1m0 1h3m31 1h1m-34 2h1m1 0h1m1 1h1m-30 1h1m23 0h1m2 2h1m26 0h1m-33 1h1m-2 1h1m1 0h2m0 1h1m-4 1h2m34 1h1m0 1h1m-3 1h1m-29 1h1m-7 1h1m4 0h1m-25 1h1m17 0h1m1 1h1m31 0h1m-63 1h1m9 0h1m16 0h1m30 1h1m-45 2h1m11 0h1m-12 2h1m-3 5h1m3 0h1m-2 1h1m10 0h1m-15 1h1m13 0h1m-2 2h1m-13 5h1m-9 8h1m3 4h1"/><path stroke="#988160" d="M126 42h1m-10 1h1m4 0h1m-6 1h1m7 0h1m-2 1h2m-9 2h1m-2 1h1m13 0h1m-17 1h1m12 0h1m-16 1h1m0 1h1m9 0h1m1 0h1m-4 1h1m1 0h1m-19 8h1m17 0h2m1 0h1m-54 1h1m48 0h1m-49 2h1m31 1h2m-7 1h1m5 0h1m-6 1h2m1 0h3m-5 1h1m-36 1h1m33 0h1m-29 1h1m30 0h1m19 0h1m-58 1h1m38 0h1m-45 1h1m58 0h1m-60 1h2m36 0h1m1 0h1m1 0h1m14 0h1m3 0h1m1 0h1m-35 1h1m29 0h1m-45 1h1m24 0h1m-30 1h1m11 0h1m16 0h1m-26 1h1m10 0h1m34 0h1m-50 1h1m34 0h1m2 0h1m-37 1h2m27 1h1m2 0h1m-36 1h1m-13 1h1m37 0h1m-29 1h1m2 1h1m25 0h1m-27 1h2m-4 1h1m1 0h1m1 0h1m27 0h2m17 0h1m-67 1h1m16 0h1m28 0h1m20 0h1m-83 1h1m57 0h1m2 0h1m-49 1h1m15 0h1m4 0h1m-19 1h2m41 0h1m1 0h1m1 0h1m-3 1h2m-53 1h1m50 0h1m1 0h1m-7 1h1m23 0h1m-22 1h1m18 0h1m-80 1h1m46 0h1m12 0h1m-61 1h1m11 0h1m47 0h1m1 0h1m-4 1h1m14 0h1m-66 2h1m2 0h1m47 0h1m-29 1h1m28 0h1m2 0h2m2 0h1m-46 1h1m1 0h1m6 0h1m30 0h1m-88 1h1m41 0h1m38 0h1m1 0h1m3 0h1m-47 1h1m40 2h1m-89 1h1m5 0h1m33 0h1m2 0h1m1 0h1m-44 1h1m42 0h1m-57 1h1m52 0h1m19 0h1m1 0h1m-34 1h1m8 2h1m23 0h1m-68 3h1m33 0h1m7 0h1m2 0h1m-44 1h1m63 0h1m-25 1h2m-18 2h1m7 0h1m11 0h1m-37 1h1m51 0h1m-19 1h1m1 0h1m12 0h1m-18 1h1m3 0h1m13 0h1m-18 1h2m10 0h1m2 0h1m-14 1h1m-26 1h1m26 0h1m3 1h1m-6 1h1m-19 2h1m1 1h1m1 1h1m3 2h1"/><path stroke="#e9d1b0" d="M22 46h1m1 1h1m13 7h1m1 1h1m-6 8h1m-25 8h1m4 5h1m-5 4h1m21 0h1m0 5h1m7 2h1m64 1h1m-1 1h1m-75 1h1m73 0h1m-93 1h1m18 0h1m72 0h1m-72 1h1m52 0h1m-49 2h1m-32 7h1m22 3h1m3 1h2m-1 1h2m-7 3h1m25 2h1m-18 1h1m-8 3h1m2 2h1m1 1h1m18 0h1m-1 1h1m-1 1h1"/><path stroke="#e9d0b1" d="M23 46h1m-5 9h1m0 22h1m-7 3h1m5 0h1m-5 1h1m-1 1h1m22 5h2m-2 1h1m-25 4h1m20 0h1m1 0h1m-28 1h1m96 0h1m-69 1h1m67 2h1m-95 8h1m22 0h2m1 0h1m-23 1h1m16 4h2m1 1h1m-5 1h1m-1 1h1m7 0h1m-9 1h1m4 0h1m-6 1h1m4 0h1m-1 1h1m-2 1h1m21 0h1m-1 1h1"/><path stroke="#799980" d="M116 46h1m-95 2h1m0 1h3m-2 3h1m-3 2h1m93 1h1m-79 1h1m78 0h1m-80 1h1m1 0h1m-2 1h1m74 0h1m-4 1h1m-73 2h1m75 0h1m-78 1h1m72 3h1m-1 2h1m-1 2h1m-99 1h1m1 7h1m1 0h1m-5 1h1m4 0h1m-5 1h1m98 0h1m-48 1h1m52 0h1m-5 1h1m2 0h1m-5 1h1m1 0h1m-51 1h1m-26 1h1m24 0h1m44 0h2m-47 1h1m-1 1h1m48 0h1m-52 1h1m-1 1h1m2 0h1m-26 1h1m69 0h1m5 2h1M17 92h1m96 0h1m6 0h1M13 96h1m0 1h1m3 1h1m65 0h2m-15 2h1m-56 1h3m55 0h1m-58 1h1m-1 1h1m18 2h1m24 0h1m7 1h1m-29 1h1m0 1h1m-3 1h1m-5 1h1m29 1h1m3 1h1m-5 1h1m-27 1h1m25 2h2m-1 1h1m-24 1h1m20 0h1"/><path stroke="#e87099" d="M129 46h1M2 63h1m94 13h1m0 1h1M5 80h2m0 1h1m3 0h1m-3 1h1m2 0h1m2 1h1m0 1h1m2 2h1m1 0h1m-3 1h1m3 0h1m8 7h1m4 0h1m1 1h1m-1 2h1m5 2h1m1 1h1m3 2h1m42 4h1m3 2h1m-89 2h1m1 1h1m3 2h1m-1 2h1m2 1h1m0 1h1m4 0h1m-2 1h1m2 2h2m-1 1h1m4 0h1m-4 1h1m3 0h2m2 3h1m2 1h1m2 2h1m2 0h1m0 1h1m1 0h1m-3 1h1m1 2h1"/><path stroke="#e8d1b0" d="M25 47h1M11 72h1m-1 1h1m6 3h1m-9 2h2m-1 1h2m1 2h1m5 0h1m-3 2h1m15 1h1m8 2h1m-10 1h1m7 1h1m-28 3h1m18 0h1m-23 3h1m7 3h1m-10 2h1m-1 1h1m-1 2h1m22 0h1m1 0h1m-25 1h1m1 0h1m20 0h1m-20 2h1m23 0h1m-7 2h1m4 3h1m0 1h1m19 4h1m-20 2h1"/><path stroke="#799981" d="M114 47h1m-93 4h1m-1 1h1m-1 4h1m92 1h1m-79 2h1m75 3h1M15 73h1m-3 3h1m107 1h1m-3 4h1m-84 2h1m78 0h1m-78 1h1m3 1h1m26 0h1m40 0h1m-75 1h1m30 0h1m-31 1h1m4 0h1m79 1h1m-83 2h1m74 1h1M16 98h2m-5 1h1m0 2h1m57 0h1m1 1h1m-4 2h1m-8 1h1m5 0h1m-33 1h1m29 0h1m5 2h1m-34 2h1m19 0h1m-24 2h1m28 0h1m6 1h1m-8 1h1m6 1h1m-34 1h1m26 1h1m-3 1h1"/><path stroke="#789880" d="M24 48h1m-4 2h1m2 1h1m-2 1h1m-5 2h1m2 1h1m15 3h1m0 1h1m-2 1h1m72 0h1m2 0h1m3 0h1m-81 1h1m72 0h1m2 1h1m1 0h1m-79 1h1m74 0h1m-48 8h1m-53 1h1m-1 1h1m104 3h1m2 0h1M18 77h1m-5 1h1m2 0h1m-1 1h1m98 0h1m3 1h1M19 81h1m90 1h1m7 0h1m-79 1h1m-3 2h1m2 0h1m21 0h1m51 0h1m-75 1h1m67 0h1m-72 1h1m24 0h1m1 0h3m-31 1h2m24 0h1m2 0h1m47 0h1m-75 1h1m74 0h1m2 0h1m3 0h1m-60 1h1m51 0h1m6 0h1m-81 1h1m77 0h1M13 95h1m98 0h1m-98 2h2m94 0h1m-3 1h1m-97 2h2m-2 1h1m53 1h1m6 1h1m-57 1h1m47 0h2m-1 1h1m-32 1h1m33 0h1m-34 2h1m2 0h1m25 0h2m-1 1h1m6 0h1m-11 1h1m9 0h1m-1 1h1m-35 1h1m-5 1h1m5 0h1m-5 1h1m22 8h1"/><path stroke="#e9d0b0" d="M26 48h1m10 16h1m-27 6h1m-1 4h1m2 0h1m0 1h2m3 0h1m-1 3h1m-1 1h1m-4 3h2m89 2h1m-73 1h1m2 0h1m3 0h1m-5 1h1m-6 3h1m8 2h1m-30 1h1m-3 1h1m77 0h1m17 1h1m-93 1h1m25 0h1m-32 1h1m-1 2h1m1 5h1m27 3h2m1 0h1m-6 1h1m3 0h1m-10 1h1m25 0h1m-1 1h1m-22 3h1m-3 4h1"/><path stroke="#799881" d="M23 51h1m-4 2h1m0 1h1m92 2h1m-78 2h1m72 0h1m-71 1h1m74 0h1m-48 2h1m46 1h1m-51 1h1m46 0h1m1 1h1m-4 4h1m-94 7h1m-4 1h1m101 1h1M17 80h1m51 0h1m45 0h1m6 0h1m-87 1h1m80 0h1m-51 1h1m-26 2h1m71 0h1m-75 1h1m29 0h1m-31 1h1m22 0h1m48 1h1m2 0h1m-1 1h1m-74 2h1m75 0h1m-78 1h1m70 0h1m2 1h1m-1 1h1m-3 1h1m-97 3h1m-2 3h1m46 4h1m8 0h1m-4 1h1m-4 1h1m-29 1h1m26 0h1m-2 4h1m-28 2h2m1 0h1m-1 2h1m1 0h1m30 1h1m-11 2h1m3 1h1"/><path stroke="#e8d0b0" d="M39 54h1m2 2h1M11 69h1m0 4h1m-2 2h1m7 2h1m-10 2h1m23 4h1m4 0h1m68 0h1m-75 2h1m4 5h1m-4 1h1m6 1h1m-10 11h1m3 0h1m3 2h1m-25 1h1m23 1h1m-9 3h1m25 3h1m-28 1h1m4 1h1m3 3h1"/><path stroke="#717849" d="M120 54h1m7 4h1m-9 4h1m-28 1h1m-4 3h1m23 2h1m-23 4h1M72 82h1m50 0h1m-44 1h1m-12 1h1m2 0h1m55 0h1m-57 2h1m-1 1h1m55 3h1m-18 2h1m11 0h1m6 1h1m-19 1h1m-33 3h1m10 9h1m-22 1h1m-1 1h1m31 1h1m-40 5h1m-1 1h1m5 1h1m-6 2h1m6 0h1m10 1h1"/><path stroke="#e9d1b1" d="M41 55h1m-21 1h1m-2 18h1m-8 6h1m5 3h1m23 6h1m-11 1h1m-20 1h1m76 1h1m-81 2h1m2 0h1m26 0h1m-31 3h1m0 5h1m4 3h1m16 1h1m0 8h1m-1 1h1m24 6h1m-1 1h1"/><path stroke="#f1c999" d="M96 62h1m1 1h1m-4 2h1M6 66h1m1 1h1m88 1h1m2 0h1M8 69h1m86 0h1m4 0h1M9 70h2m89 0h1m-6 1h2m-87 2h1m-5 1h2m90 0h2m-77 2h1m75 0h1m-73 1h1m-6 1h1m5 0h1m-5 1h1m3 0h1m3 1h1m65 0h1m-86 1h1m12 0h1m-12 1h1m8 0h1m2 0h1m2 0h1M6 83h1m21 0h1m1 0h1m-7 1h1m1 0h1M5 85h1m1 0h1m88 0h2m-51 1h1m47 0h1m3 0h1m-5 1h1M5 88h1m2 0h1m1 0h1m16 0h1m17 0h1m3 0h2m45 0h2m2 0h1M8 89h1m11 0h1m9 0h1M5 90h1m3 0h1m39 0h1m47 0h1M6 91h1m91 0h1m-73 1h1m23 0h1m47 0h1M4 94h1m1 0h1m14 0h1m6 0h1m19 0h3m1 0h1m45 0h1m-75 1h1m2 0h1m17 0h1m51 0h1M4 96h1m24 0h2m1 0h1m63 0h1M7 97h1m13 0h1m5 0h1m67 0h1m2 0h1m1 0h1m-72 1h1M5 99h1m16 0h1m9 0h2m4 0h2m9 0h1m-43 1h1m29 0h1m-29 1h1m16 0h1m4 0h1m63 0h1m2 0h1m-77 1h1m3 0h1m13 0h1m4 0h1m52 0h2m-92 1h1m12 0h1m2 0h1m6 0h1m16 0h1m-42 1h1m14 0h1m5 0h1m-8 1h1m-9 1h1m31 0h1m6 0h1m-32 1h1m30 0h1m-27 1h1m-12 1h1m1 1h1m4 0h1m1 0h1m1 0h1m25 0h1m-29 2h1m2 0h1m-1 1h1m24 0h1m-27 1h1m3 0h1m-4 1h1m4 0h2m14 0h1m-3 1h1m2 0h1m-15 1h1m10 0h1m4 0h1m-19 1h1m1 1h1m2 0h1m1 0h1m10 1h1m-10 1h1m3 0h1m4 0h1m-9 1h1m5 0h1m1 0h2m-3 1h1m-7 1h1m1 1h1m4 1h2m-1 1h1"/><path stroke="#f0c898" d="M97 62h1M7 66h1m90 0h1m0 1h1M7 68h1m1 0h1m88 0h1m-3 1h1M7 70h2m0 1h2m-4 1h1m-2 1h1m3 1h1m86 0h1M9 75h2m88 0h1m-73 1h1M9 77h1m-1 2h1m23 0h1m-4 1h1m66 0h1m-69 1h1m68 1h1m-73 1h1M6 84h1m3 0h1m0 1h1m20 0h2m65 0h1M4 86h1m41 0h1M8 87h1m7 0h1m12 0h1m3 0h1m65 0h2m-89 1h1m18 0h2M9 89h2m6 0h1m1 0h1m11 0h2m12 0h1m5 0h1m44 0h1m-46 1h1M4 91h1m6 0h1m9 0h1m25 0h1M5 92h1m6 0h1m33 0h1m49 0h1m-46 1h1m45 0h1M5 94h1m20 0h1m2 0h1m15 0h1m5 0h1M5 95h1m14 0h1m1 0h2m26 0h1M9 96h2m10 0h1m26 0h1m50 0h1M5 97h1m20 0h1m9 0h1m9 0h1M4 98h1m3 0h1m18 0h1m8 0h1m14 0h1m48 0h1m-76 1h1m72 0h1m-91 1h2m15 0h1m2 0h1m1 0h1m11 0h1m-4 1h1m3 0h1m-34 1h1m27 0h1m58 0h1m-93 1h1m3 0h1m16 0h1m19 0h1m-42 1h1m23 0h1m11 0h1m3 0h2m1 0h2m-24 1h2m2 0h1m-9 1h1m2 0h1m20 0h1m-36 1h1m21 0h1m-20 1h1m4 0h1m27 0h1m-24 1h1m3 0h1m21 0h1m-32 1h1m10 0h1m17 0h1m-28 1h1m4 1h1m-3 1h1m23 0h1m1 0h2m-28 1h1m2 0h1m3 0h1m14 0h1m2 0h1m-24 1h1m4 0h1m-1 1h1m4 2h1m9 0h1m2 2h1m2 1h1m-12 1h1m3 0h1m0 1h1m-1 1h1m0 1h2m-1 1h1"/><path stroke="#f0c999" d="M95 63h1m-1 1h1m2 0h1M4 65h1m93 0h1M4 66h1m91 0h1M4 67h1m1 0h1m90 0h1m-3 1h1M6 69h1m0 2h2m-3 1h1m89 0h1M9 73h1m88 0h1m-1 2h1M8 78h1m14 0h1m5 1h1m2 0h1m-4 1h1m3 0h1m-11 1h1M6 82h1m15 0h1m74 0h1M5 83h1m25 0h1m64 0h1M4 84h1m90 0h3M9 85h1m2 0h1m8 0h1m3 0h1m3 0h1m65 0h1m2 0h1m1 0h1m-89 1h1m13 0h1m69 0h1m1 0h1m1 0h1M7 87h1m2 0h2m18 0h1m65 0h1M6 88h1m9 0h1M4 89h1m24 0h1m19 0h1m-32 1h1m2 0h1m9 0h1m64 0h1m2 0h2M7 91h1m92 0h1M6 92h1m6 0h1m9 0h1m27 0h2m44 0h1m-88 1h1m35 0h2m48 0h1m2 0h1m-1 1h1m-72 1h2m16 0h1m-24 1h1m1 0h1m1 0h1m3 0h1m12 0h1m-15 1h1m2 0h1M5 98h1m19 0h1m6 0h1m4 0h1m11 0h2m44 0h1M6 99h1m17 0h1m15 0h1m11 0h1m-47 1h1m3 0h1m13 0h1m7 0h1m67 0h1m-94 1h1m2 0h1m11 0h1m2 0h1m7 0h1m4 0h1m-34 1h1m94 0h1m-94 1h1m19 0h1m4 0h1m10 0h1m1 0h1m-37 1h1m15 0h1m24 0h1m-29 1h1m2 0h1m2 0h2m15 0h1m1 0h1m2 0h1m-39 1h1m19 0h1m14 0h2m1 0h1m-28 1h1m27 0h1m-39 1h1m9 0h2m8 0h1m12 0h1m1 0h1m3 0h1m-31 1h1m7 0h1m17 0h1m-20 1h1m20 0h1m-32 1h1m2 0h1m1 0h1m4 0h1m16 0h1m-19 1h1m2 0h1m14 0h1m3 0h1m-26 1h1m7 0h1m-1 3h1m14 0h1m-16 1h1m4 1h1m11 0h1m-12 1h1m10 0h1m-7 2h1m4 0h2m-7 1h1m-3 1h3m2 1h4"/><path stroke="#f0c998" d="M96 63h1m0 3h1M7 67h1m-4 1h1m-1 1h1m92 0h1m1 0h1m0 2h1M8 72h2m87 0h2m1 0h1m-2 1h2m-5 1h1m-74 1h1M4 76h1m1 0h1m93 0h1m-72 1h1m-5 1h1m-1 1h1m-2 1h1m-1 1h2m1 0h1m1 1h1m65 0h2M8 83h1m14 0h1m1 0h1M7 84h1m21 0h1m-8 1h1m3 0h1m-16 1h1m18 0h1m1 0h1M4 87h3m21 0h1m3 0h1m-22 1h1m34 0h1m4 0h1m-41 1h1m21 0h1m12 0h1m48 0h1m2 0h1m-86 1h1m8 0h1m9 0h1m-13 1h1m25 0h1M4 92h1m6 0h1m23 0h1m-18 1h2m1 0h1m1 0h1m2 0h1m18 0h1m-28 1h1m3 0h1m2 0h1m74 0h1m-83 1h1m11 0h1m16 0h1m50 0h3M7 96h1m14 0h1m29 0h1m44 0h1m2 0h1M9 97h2m11 0h1m6 0h1m20 0h1M6 98h1m3 0h1m20 0h1m7 2h1m57 0h1m-92 1h1m23 0h1m3 0h1m2 0h1m2 0h1m1 0h1m54 0h1m-66 1h1m-23 1h1m11 0h1m2 0h1m7 0h1m6 0h1m6 0h1m-44 1h1m1 0h1m1 0h1m2 0h1m11 0h1m18 0h1m4 0h1m-40 1h1m1 0h1m2 0h1m10 0h1m8 0h1m9 0h1m4 0h1m-28 1h1m2 0h1m24 0h1m-26 1h2m23 0h1m-34 1h1m33 0h1m-32 1h1m12 0h1m18 0h1m-36 1h1m1 0h1m9 0h1m2 1h1m17 0h2m1 0h1m-31 2h1m6 0h2m16 0h1m1 0h1m-25 1h1m21 0h1m3 0h1m-6 1h2m-16 1h1m1 0h1m16 2h1m-15 2h1m3 0h1m-2 1h1m4 0h1m1 1h1m3 1h1m-1 2h1"/><path stroke="#f0c899" d="M97 63h1m-2 1h1m2 0h1m-4 1h1m2 0h1m-1 1h1M9 67h1m85 0h1m4 0h1M6 68h1m1 0h1m-3 2h1m-2 1h1m91 0h1M5 72h1m89 0h1M5 74h1m16 0h1M4 75h3m17 0h2m71 0h1M5 76h1m19 0h1M6 77h1m1 0h1m1 0h1m14 0h1M7 78h1m19 1h1m-2 1h2m0 1h1m1 0h1m66 0h2m-76 1h1m4 0h1m4 0h1m66 0h1m-77 1h1m4 0h1m70 0h1m-79 1h1m8 0h1m66 0h1M8 85h1m19 0h1m2 0h1M7 86h1m2 0h1m34 0h1m-33 1h1m1 0h1m9 0h1m5 0h1m13 0h1m52 0h1M7 88h1m1 0h1m8 0h1m28 0h1m50 0h1M6 89h1m6 0h2m33 0h1m1 0h1m46 0h1M6 90h1m39 0h1M5 91h1m6 0h1m32 0h1m2 0h1m3 0h1m-31 1h1m22 0h1m2 0h1M4 93h2m18 0h2m2 0h1m-13 1h1m3 0h1m18 0h1m56 0h2M9 95h1m7 0h1m14 0h1m16 0h1m2 0h1m42 0h1M5 96h2m1 0h1m15 0h1m3 0h1m14 0h1m1 0h1m49 0h1m2 0h1M6 97h1m18 0h1m2 0h1m3 0h1m2 0h1m11 0h1m4 0h1m44 0h1m-75 1h2m5 0h1m2 0h1m4 0h1m8 0h1m4 0h1m44 0h1M4 99h1m25 0h1m6 0h1m13 0h1m47 0h2m-68 1h3m5 0h1m56 0h1m-91 1h1m18 0h1m7 0h1m-29 1h2m18 0h1m1 0h3m7 0h1m2 0h2m52 0h1m-93 1h1m93 0h2m-76 1h1m6 0h2m-22 1h2m18 0h1m-22 1h1m22 0h1m17 0h1m-42 1h1m3 0h1m1 0h1m10 0h1m22 0h1m-39 1h1m4 0h2m10 0h1m21 0h1m-38 1h1m3 0h1m2 1h1m1 0h1m27 1h1m-32 1h1m1 0h2m1 0h1m3 0h1m-2 1h1m0 1h1m2 0h1m15 0h1m-21 1h2m22 0h1m-6 1h1m-17 1h1m4 0h1m11 1h2m2 0h1m-19 1h1m1 0h2m13 0h1m-4 1h1m3 0h1m-10 1h1m-2 1h1m7 0h1m-2 3h1"/><path stroke="#f1c898" d="M97 64h1m2 1h1M5 67h1m90 0h1m1 0h1m0 1h1M5 69h1m3 0h2m85 1h1M4 72h1m94 0h1M7 73h1m0 1h1m14 0h1m76 0h1M7 75h2m13 0h1m77 0h1M7 76h1m1 0h1m-3 1h1m16 0h1m5 1h1m-5 1h1m3 0h1m-8 1h1m1 0h1m5 0h1m63 0h1m-74 1h1m10 0h1m65 0h1m-75 1h2m5 0h1m66 0h1M4 83h1m17 0h1m10 0h1m65 0h1M9 84h1m11 0h1m11 0h1m65 0h1M6 85h1m23 0h1M6 86h1m2 0h1m3 0h2m8 0h1m3 0h2M9 87h1m2 0h1m1 0h1m12 0h1m-14 1h1m13 0h1m4 0h1m61 0h1m-84 1h1m-2 1h1m7 0h2m24 0h1m1 0h2m1 0h1m1 0h1m45 0h1m-77 1h2m9 0h1m15 0h1m45 0h1M7 92h2m1 0h1m8 0h1m1 0h1m2 0h1m24 0h1M6 93h2m12 0h1m6 0h1m9 0h1m10 0h2M7 94h1m9 0h1m5 0h2m5 0h1m15 0h2m47 0h1M4 95h1m5 0h1m10 0h1m3 0h1m25 0h1m44 0h1m-77 1h1m12 0h1m-11 1h1m7 0h1m13 0h1M7 98h1m13 0h1m4 0h1m21 0h1M7 99h1m2 0h1m10 0h1m1 0h1m72 0h1m-75 1h1m15 0h1m56 0h1m-92 1h1m16 0h1m2 0h1m19 0h1m55 0h1m-80 1h1m6 0h1m15 0h1m-22 1h1m4 0h3m11 0h1m1 0h1m55 0h1m-80 1h1m4 0h1m17 0h1m-39 1h1m37 0h1m1 0h1m4 0h1m-44 1h1m2 0h1m11 0h1m2 0h1m2 0h2m-18 1h1m1 0h1m6 0h1m5 0h2m1 0h1m-12 1h1m6 1h1m1 0h1m19 0h1m-17 1h1m-16 1h1m4 0h1m23 0h2m-1 1h1m-18 1h1m14 0h1m-19 1h1m23 0h1m-4 1h1m0 1h1m-1 1h1m-17 1h1m12 1h1m-10 1h2m2 0h1m3 0h1m1 1h1m3 4h1m-2 2h1"/><path stroke="#f1c899" d="M5 65h1m89 1h1m-86 2h1m-4 1h1m90 0h1M4 70h2m89 0h1m1 0h1M4 71h1m1 0h1m89 2h2M4 74h1m4 0h1m0 2h1m13 0h1m1 1h1m-3 1h1m1 0h2m1 0h1m1 0h1m-1 1h1m-10 1h1m8 1h2m62 0h2M5 82h1m25 0h1m-5 1h1m4 0h1m65 0h1m-80 1h1m3 0h1m3 0h1m2 0h1M4 85h1m5 0h1m12 0h2M8 86h1m16 0h1m7 0h1m-8 1h1m19 0h2m1 0h1m47 0h1m-83 1h1m1 0h1m11 0h2m68 1h2M4 90h1m8 1h1m10 0h1m71 0h2m-73 1h1m21 0h1m51 0h1M8 93h1m4 0h2m7 0h1m75 0h1M9 94h2m4 0h1m11 0h1M6 95h3m17 0h1m21 0h1m-30 1h1m26 0h2m-24 1h1m23 0h1m50 0h1m-78 1h1m5 0h1m5 0h1m61 0h1m1 0h2M8 99h2m18 0h2m4 0h3m58 0h1m1 0h1m-94 1h2m15 0h1m1 0h1m3 0h1m3 0h1m4 0h1m59 0h1m-92 1h1m17 0h1m72 0h1m-93 1h1m1 0h1m2 0h1m15 0h1m7 0h1m3 0h1m1 1h1m1 0h1m-32 1h1m16 0h1m2 0h1m2 0h1m9 0h1m5 1h1m-36 1h1m12 0h1m3 0h1m-15 1h1m8 0h1m20 0h1m-33 1h1m5 0h2m7 0h1m1 0h1m16 0h1m-34 1h1m3 0h2m1 0h1m1 0h1m5 0h1m20 0h1m-21 1h1m14 0h1m1 0h1m1 0h1m-27 1h4m1 0h1m1 0h1m-3 1h1m1 0h2m13 0h1m3 0h2m-30 1h1m8 0h1m17 1h1m-21 1h1m19 0h2m-24 1h3m21 0h1m-21 1h1m1 0h1m12 0h1m1 0h1m-13 1h1m9 0h1m-2 1h1m5 0h1m-17 1h1m3 0h1m6 0h1m-10 1h1m2 0h1m5 0h1m0 1h1m-1 1h1m2 1h1m-2 1h1m-2 1h1m0 1h1"/><path stroke="#f1c998" d="M97 65h1M5 66h1m94 0h1M5 68h1m90 0h1m1 2h2m-2 1h2m-90 1h1m-7 1h2m2 0h1m-1 3h1m13 0h1m3 0h1M5 77h1m16 0h2m4 0h1M9 78h1m12 1h2m-13 1h1m16 0h1m67 0h1M4 81h1m-1 1h1m2 1h1m9 0h1m77 0h1m1 0h1M5 84h1m2 0h1m16 0h1m2 0h1m3 0h1m67 0h1m-74 1h1m17 0h1M5 86h1m18 0h1m4 0h1m1 0h1m65 0h1m-50 1h1M4 88h1m8 0h1m34 0h1m50 0h1M5 89h1m1 0h1m10 0h1m28 0h1m4 0h1M7 90h2m1 0h1m1 0h1m82 0h1M8 91h3m8 0h1m30 0h2m47 0h1M9 92h1m10 0h1m74 0h1m4 0h1M9 93h1m40 0h1m1 0h1m42 0h1m4 0h1M8 94h1m10 0h1m-1 1h1m11 0h1m9 0h1m-16 1h1m7 0h1m14 0h3M4 97h1m3 0h1m25 0h1m14 0h1m1 0h1m44 0h1M9 98h1m25 0h1m-10 1h2m3 0h1m18 0h1m-25 1h1m2 0h1m10 0h1m10 0h2m46 0h1m-72 1h2m2 0h1m3 0h1m4 0h1m57 0h1m-77 1h2m16 0h1m4 0h1m-41 1h1m0 2h1m1 0h1m13 0h1m8 0h1m-24 1h1m5 0h1m12 0h1m-17 1h1m17 0h1m1 0h1m13 0h1m1 0h1m-24 1h1m1 0h2m2 0h1m-15 1h1m8 0h1m6 0h1m12 0h2m-28 1h1m4 0h1m1 0h1m3 0h1m14 0h1m-27 1h1m12 0h1m-13 1h1m27 0h1m-24 1h1m24 3h1m-22 1h1m17 0h1m3 0h1m-21 1h1m2 0h1m12 1h2m0 1h1m-12 1h1m0 1h1m5 0h1m-2 1h1m1 0h1m1 0h1m2 0h1m-8 1h1m6 0h1m-3 2h1"/><path stroke="#01d100" d="M115 66h1m-1 1h1m-3 1h1m1 1h1M67 91h1m-1 1h1"/><path stroke="#00d100" d="M113 67h1m-3 4h1M70 91h1m-4 2h1m-5 2h1"/><path stroke="#01d001" d="M114 67h1m1 0h1m-5 2h1m-1 1h1M69 91h1m-5 2h1"/><path stroke="#00d101" d="M117 67h1m-6 1h1m2 0h1m-1 2h1M67 90h1m-2 1h1"/><path stroke="#00d001" d="M118 67h1m-1 1h1m-2 2h1M65 91h1m-2 1h1m3 2h1"/><path stroke="#00d000" d="M113 69h1M68 91h1m1 1h1m-7 1h1"/><path stroke="#01d101" d="M116 70h1M65 92h1m1 2h1"/><path stroke="#e8d1b1" d="M20 73h1m-1 3h1m-10 1h1m3 4h1m18 0h1m-1 1h1m-1 4h1m3 0h1m69 0h1m-70 5h1m51 2h1m-49 1h1m-33 1h1m31 0h1m64 3h1m-73 5h1m-22 1h1m20 0h1m23 3h1m-26 1h1m3 1h1m-1 2h1m20 1h1m-24 3h1m1 1h1m0 1h1"/><path stroke="#e8d0b1" d="M11 76h1m7 6h1m19 2h1m3 0h1m64 1h1m-1 2h1m-75 1h1m8 0h1m-5 1h1m-26 1h1m28 0h1m64 2h1m-71 1h3m2 0h1m64 2h1m-91 1h1m89 1h1m-93 7h1m17 1h1m4 3h1m20 2h1m-1 4h1"/><path stroke="#e87098" d="M5 78h1m91 0h1M4 80h1m5 2h2m0 2h1m3 1h1m4 2h1m1 1h1m-2 1h1m1 1h1m2 1h1m1 0h1m1 0h1m3 2h1m5 4h1m3 1h1m-1 2h1m4 1h1m45 3h1m-93 2h1m1 2h2m0 3h1m3 1h2m3 2h2m7 3h1m5 5h1m0 1h1m0 1h1m7 2h2m1 3h1m5 3h1"/><path stroke="#e97098" d="M99 78h1M6 79h1m2 1h1m5 4h1m1 0h1m0 1h1m1 3h2m3 0h1m-1 1h1m-1 1h1m2 0h1m2 3h1m3 1h1m-2 1h1m3 1h1m4 2h1m2 1h1m1 2h1m1 1h1m-1 1h1m43 0h1m0 1h1m-1 1h1m2 2h1m-94 1h1m-1 1h2m1 0h1m1 2h1m2 0h1m-2 2h1m5 2h1m2 0h1m-4 1h1m3 1h1m1 0h1m-2 1h1m7 2h1m-2 1h1m2 1h1m4 2h1m1 2h1m3 1h1m-3 1h1m4 2h1m2 0h1"/><path stroke="#f85001" d="M90 83h2m-5 2h1m0 2h1m-2 2h1m-1 2h1m2 4h1m0 2h1m-3 2h1m0 1h1m-2 2h1m-1 1h1m1 0h1m-2 1h1m-3 3h1"/><path stroke="#f95101" d="M88 84h1m1 4h1m-4 4h1m1 5h1m0 2h1m0 2h1m-5 3h1m0 1h1m2 0h1m-2 1h1"/><path stroke="#f85101" d="M89 84h1m-2 1h1m1 1h1m-4 4h1m1 1h1m-2 4h2m1 1h1m-4 1h1m1 1h1m-3 2h1m-1 2h1m-2 1h1"/><path stroke="#f95000" d="M90 84h2m-2 1h1m-1 4h1m-3 4h1m-1 1h1m0 2h1m1 3h1m-5 3h1m3 0h1m-4 1h1m1 0h1m-2 1h1m-3 2h1m1 0h1"/><path stroke="#f85000" d="M89 85h1m-2 1h2m-3 1h1m-1 1h3m1 1h1m-3 1h1m-2 2h1m-2 1h1m1 1h1m-3 1h1m0 1h1m-1 2h1m2 2h1m-3 1h1m-2 3h1"/><path stroke="#f85100" d="M91 85h1m-2 2h1m-2 2h1m1 1h1m-2 4h1m0 1h1m-5 3h1m3 0h1m-5 1h1m-1 1h1m3 4h1m-5 1h1m-1 2h1"/><path stroke="#f95001" d="M87 86h1m3 0h1m-1 1h1m-1 1h1m-4 1h1m-1 1h1m1 0h1m-4 4h1m2 2h1m-1 1h1m-2 3h1m-3 1h2m1 0h1m-1 1h1m-2 3h2"/><path stroke="#f95100" d="M89 87h1m-2 4h1m2 0h1m-3 7h1m-2 1h1m-1 7h1"/><path stroke="#01d000" d="M64 94h1m4 0h1"/></svg>